<svg width="32" height="32" viewBox="0 0 32 32" fill="none" xmlns="http://www.w3.org/2000/svg">
<path fill-rule="evenodd" clip-rule="evenodd" d="M32 8C32 3.582 28.418 0 24 0C19.113 0 12.887 0 8 0C3.582 0 0 3.582 0 8C0 12.887 0 19.113 0 24C0 28.418 3.582 32 8 32C12.887 32 19.113 32 24 32C28.418 32 32 28.418 32 24C32 19.113 32 12.887 32 8Z" fill="black"/>
<path fill-rule="evenodd" clip-rule="evenodd" d="M30 8C30 6.409 29.368 4.883 28.243 3.757C27.117 2.632 25.591 2 24 2C19.276 2 12.724 2 8 2C6.409 2 4.883 2.632 3.757 3.757C2.632 4.883 2 6.409 2 8C2 12.724 2 19.276 2 24C2 25.591 2.632 27.117 3.757 28.243C4.883 29.368 6.409 30 8 30C12.724 30 19.276 30 24 30C25.591 30 27.117 29.368 28.243 28.243C29.368 27.117 30 25.591 30 24C30 19.276 30 12.724 30 8V8Z" fill="#F45387"/>
<path d="M18.5427 11.6714C18.9887 11.6714 19.3817 11.9674 19.5037 12.3964C20.0157 14.1864 21.2967 18.6714 21.2967 18.6714M13.4985 11.6714C13.0525 11.6714 12.6595 11.9674 12.5375 12.3964C12.0255 14.1864 10.7445 18.6714 10.7445 18.6714" stroke="white" stroke-width="2" stroke-miterlimit="1.5" stroke-linecap="round" stroke-linejoin="round"/>
<path d="M18.511 10.6714H13.511V19.6714H18.511V10.6714Z" fill="white"/>
<path d="M20.5 22.54H11.6789L13.5116 16.467H18.511L20.5 22.54Z" fill="white"/>
<path d="M18.511 10.6714H13.511V19.6714H18.511V10.6714Z" stroke="white"/>
<path d="M20.5 22.54H11.6789L13.5116 16.467H18.511L20.5 22.54Z" stroke="white"/>
<path d="M17.511 19.6714V27.6714M14.511 19.6714V27.6714" stroke="white" stroke-width="2" stroke-miterlimit="1.5" stroke-linecap="round" stroke-linejoin="round"/>
<path d="M16.011 9.67139C17.3917 9.67139 18.511 8.5521 18.511 7.17139C18.511 5.79067 17.3917 4.67139 16.011 4.67139C14.6302 4.67139 13.511 5.79067 13.511 7.17139C13.511 8.5521 14.6302 9.67139 16.011 9.67139Z" fill="white"/>
</svg>
