<svg width="32" height="32" viewBox="0 0 32 32" fill="none" xmlns="http://www.w3.org/2000/svg">
<g clip-path="url(#clip0)">
<path d="M31.1028 20.9925C31.1028 23.0016 30.5776 24.4276 29.7584 25.467C28.9313 26.5165 27.7418 27.2511 26.2822 27.7577C23.3206 28.7859 19.5103 28.7956 16.0998 28.7956C12.6905 28.7956 8.82725 28.7862 5.81316 27.7563C4.32618 27.2482 3.11166 26.5116 2.26715 25.4605C1.43183 24.4208 0.896749 22.9971 0.896749 20.9925C0.896749 17.2445 1.70404 12.6828 4.00516 9.08874C6.27215 5.54802 10.0181 2.88955 16.0998 2.88955C21.8645 2.88955 25.569 5.55276 27.871 9.1208C30.2022 12.7339 31.1028 17.3007 31.1028 20.9925Z" fill="#FB4646" stroke="black" stroke-width="1.7935"/>
<path fill-rule="evenodd" clip-rule="evenodd" d="M16.1755 16.5907L16.2582 16.5924L16.341 16.595L16.4237 16.5992L16.5065 16.6043L16.5884 16.6112L16.6703 16.6189L16.7522 16.6274L16.8341 16.6368L16.9151 16.6479L16.9962 16.6598L17.0772 16.6735L17.1574 16.688L17.2376 16.7033L17.3178 16.7195L17.3972 16.7374L17.4765 16.7562L17.5559 16.7758L17.6344 16.7972L17.7128 16.8193L17.7913 16.8424L17.869 16.8663L17.9458 16.8919L18.0225 16.9183L18.0993 16.9456L18.1753 16.9738L18.2512 17.0036L18.3263 17.0335L18.4005 17.0651L18.4747 17.0983L18.5489 17.1316L18.6223 17.1666L18.6948 17.2016L18.7674 17.2382L18.839 17.2758L18.9107 17.315L18.9815 17.3543L19.0515 17.3952L19.1214 17.437L19.1905 17.4797L19.2588 17.5232L19.327 17.5676L19.3944 17.6128L19.461 17.6597L19.5275 17.7066L19.5932 17.7553L19.658 17.8047L19.722 17.8551L19.786 17.9063L19.8483 17.9583L19.9106 18.0112L19.972 18.065L20.0334 18.1196L20.0932 18.1759L20.1529 18.2322L20.2117 18.2902L20.2689 18.3482L20.3261 18.4079L20.3832 18.4676L20.4387 18.5291L20.4933 18.5905L20.547 18.6536L20.6008 18.7176L20.6511 18.779L22.5682 21.1756L22.6057 21.2268L22.6398 21.2814L22.6697 21.3377L22.6953 21.3957L22.7166 21.4563L22.7337 21.5177L22.7456 21.58L22.7524 21.6439L22.755 21.7071L22.7524 21.7711L22.7456 21.8351L22.7337 21.8973L22.7175 21.9588L22.6961 22.0193L22.6714 22.0774L22.6415 22.1345L22.6074 22.1883L22.5699 22.2395L22.5281 22.2881L22.4829 22.3333L22.4351 22.3751L22.3839 22.4126L22.3293 22.4468L22.273 22.4766L22.215 22.5022L22.1544 22.5236L22.093 22.5406L22.0307 22.5526L21.9667 22.5594L21.9036 22.5619L21.8396 22.5594L21.7756 22.5526L21.7133 22.5406L21.6519 22.5244L21.5913 22.5031L21.5324 22.4783L21.4761 22.4485L21.4224 22.4143L21.3712 22.3768L21.3226 22.335L21.2773 22.2898L21.2355 22.242L19.3219 19.8498L19.2835 19.802L19.246 19.7568L19.2076 19.7124L19.1683 19.6689L19.1291 19.6254L19.089 19.5827L19.0489 19.5409L19.0079 19.4991L18.9661 19.459L18.9243 19.4189L18.8817 19.3788L18.839 19.3404L18.7955 19.302L18.7511 19.2645L18.7068 19.2278L18.6616 19.192L18.6163 19.1561L18.5703 19.1212L18.5242 19.087L18.4773 19.0529L18.4295 19.0205L18.3817 18.9881L18.3339 18.9565L18.2853 18.9258L18.2367 18.8959L18.1872 18.8661L18.1377 18.8371L18.0874 18.8098L18.037 18.7825L17.9859 18.7552L17.9347 18.7296L17.8835 18.704L17.8314 18.6801L17.7785 18.6562L17.7265 18.6332L17.6736 18.6101L17.6199 18.5888L17.567 18.5683L17.5132 18.5478L17.4586 18.5282L17.404 18.5094L17.3494 18.4924L17.2948 18.4745L17.2393 18.4583L17.1839 18.4429L17.1284 18.4284L17.0721 18.4139L17.0158 18.4011L16.9595 18.3883L16.9032 18.3764L16.846 18.3653L16.7897 18.355L16.7326 18.3456L16.6746 18.3371L16.6174 18.3294L16.5594 18.3226L16.5014 18.3166L16.4434 18.3115L16.3853 18.3064L16.3273 18.303L16.2685 18.2996L16.2096 18.2979L16.1516 18.297L16.0893 18.2962H15.7702L15.7079 18.297L15.6499 18.2979L15.591 18.2996L15.5322 18.303L15.4742 18.3064L15.4161 18.3115L15.3581 18.3166L15.3001 18.3226L15.2421 18.3294L15.1849 18.3371L15.1269 18.3456L15.0698 18.355L15.0135 18.3653L14.9563 18.3764L14.9 18.3883L14.8437 18.4011L14.7874 18.4139L14.7311 18.4284L14.6756 18.4429L14.6202 18.4583L14.5647 18.4745L14.5101 18.4924L14.4555 18.5094L14.4009 18.5282L14.3463 18.5478L14.2925 18.5683L14.2396 18.5888L14.1859 18.6101L14.133 18.6332L14.081 18.6562L14.0281 18.6801L13.976 18.704L13.9248 18.7296L13.8736 18.7552L13.8225 18.7825L13.7721 18.8098L13.7218 18.8371L13.6723 18.8661L13.6228 18.8959L13.5742 18.9258L13.5256 18.9565L13.4778 18.9881L13.43 19.0205L13.3822 19.0538L13.3353 19.087L13.2892 19.1212L13.2432 19.1561L13.1979 19.192L13.1527 19.2278L13.1084 19.2645L13.064 19.302L13.0205 19.3404L12.9778 19.3788L12.9352 19.4189L12.8934 19.459L12.8516 19.4991L12.8106 19.5409L12.7705 19.5827L12.7304 19.6254L12.6912 19.668L12.6519 19.7124L12.6135 19.7568L12.576 19.802L12.5376 19.8498L10.624 22.242L10.5822 22.2898L10.5369 22.335L10.4883 22.3768L10.4371 22.4143L10.3834 22.4485L10.3262 22.4783L10.2682 22.5031L10.2076 22.5244L10.1462 22.5406L10.0831 22.5526L10.0199 22.5594L9.95594 22.5619L9.89281 22.5594L9.82882 22.5526L9.76654 22.5406L9.70512 22.5236L9.64454 22.5022L9.58653 22.4766L9.53022 22.4468L9.47562 22.4126L9.42443 22.3751L9.37665 22.3333L9.33143 22.2881L9.28963 22.2395L9.25209 22.1883L9.21796 22.1345L9.1881 22.0774L9.16336 22.0193L9.14203 21.9588L9.12582 21.8973L9.11388 21.8351L9.10705 21.7711L9.10449 21.7071L9.10705 21.6439L9.11388 21.58L9.12582 21.5177L9.14288 21.4563L9.16421 21.3957L9.18981 21.3377L9.21967 21.2814L9.25379 21.2268L9.29133 21.1756L11.2084 18.779L11.2587 18.7168L11.3125 18.6536L11.3662 18.5905L11.4208 18.5291L11.4771 18.4676L11.5334 18.4079L11.5906 18.3482L11.6478 18.2893L11.7066 18.2322L11.7663 18.1759L11.8261 18.1196L11.8875 18.065L11.9489 18.0112L12.0112 17.9583L12.0735 17.9063L12.1375 17.8551L12.2015 17.8047L12.2663 17.7553L12.332 17.7066L12.3985 17.6597L12.4651 17.6128L12.5325 17.5676L12.6007 17.5232L12.669 17.4797L12.7381 17.437L12.808 17.3952L12.878 17.3543L12.9488 17.315L13.0205 17.2758L13.0921 17.2382L13.1647 17.2016L13.2372 17.1666L13.3106 17.1316L13.3848 17.0983L13.459 17.0651L13.5332 17.0335L13.6083 17.0036L13.6842 16.9738L13.7602 16.9456L13.837 16.9183L13.9137 16.8919L13.9905 16.8663L14.0682 16.8424L14.1467 16.8193L14.2251 16.7972L14.3036 16.7758L14.383 16.7562L14.4623 16.7374L14.5417 16.7195L14.6219 16.7033L14.7021 16.688L14.7823 16.6735L14.8633 16.6598L14.9444 16.6479L15.0254 16.6368L15.1073 16.6274L15.1892 16.6189L15.2711 16.6112L15.353 16.6043L15.4358 16.5992L15.5185 16.595L15.6013 16.5924L15.684 16.5907L15.7642 16.5898H16.0953L16.1755 16.5907V16.5907Z" fill="#5B1010"/>
<path fill-rule="evenodd" clip-rule="evenodd" d="M20.1956 16.1632L25.3145 18.7227C25.3145 18.7227 25.7539 18.7227 26.2683 18.7227C26.6941 18.7227 27.1027 18.8916 27.4039 19.1928C27.705 19.4939 27.874 19.9026 27.874 20.3283C27.874 20.3292 27.874 20.3292 27.874 20.33C27.874 20.9136 27.5447 21.4468 27.0225 21.7079C26.5951 21.9212 26.1677 22.1353 26.1677 22.1353C26.1677 22.1353 25.9535 22.5627 25.7402 22.9902C25.4792 23.5123 24.9459 23.8416 24.3624 23.8416C24.3615 23.8416 24.3615 23.8416 24.3607 23.8416C23.9349 23.8416 23.5263 23.6727 23.2251 23.3715C22.924 23.0704 22.755 22.6617 22.755 22.236C22.755 21.3504 22.755 20.429 22.755 20.429L20.1956 16.1632Z" fill="white"/>
<path fill-rule="evenodd" clip-rule="evenodd" d="M11.664 16.1632L6.54504 18.7227C6.54504 18.7227 6.10566 18.7227 5.59121 18.7227C5.16548 18.7227 4.75682 18.8916 4.45565 19.1928C4.15449 19.4939 3.98557 19.9026 3.98557 20.3283C3.98557 20.3292 3.98557 20.3292 3.98557 20.33C3.98557 20.9136 4.31488 21.4468 4.83702 21.7079C5.26445 21.9212 5.69188 22.1353 5.69188 22.1353C5.69188 22.1353 5.90602 22.5627 6.11931 22.9902C6.38038 23.5123 6.9136 23.8416 7.49716 23.8416C7.49801 23.8416 7.49801 23.8416 7.49887 23.8416C7.92459 23.8416 8.33325 23.6727 8.63442 23.3715C8.93558 23.0704 9.10451 22.6617 9.10451 22.236C9.10451 21.3504 9.10451 20.429 9.10451 20.429L11.664 16.1632Z" fill="white"/>
<path fill-rule="evenodd" clip-rule="evenodd" d="M22.7852 9.7655L22.8244 9.76721L22.8628 9.77147L22.9012 9.77745L22.9396 9.78427L22.9772 9.79366L23.0147 9.80475L23.0514 9.81754L23.0872 9.83119L23.1222 9.8474L23.1572 9.86447L23.1913 9.88409L23.2237 9.90457L23.2561 9.92675L23.2869 9.94978L23.3167 9.97452L23.3457 10.001L23.373 10.0283L23.3995 10.0573L23.4242 10.0871L23.4472 10.1179L23.4694 10.1503L23.4899 10.1827L23.5095 10.2168L23.5266 10.2518L23.5428 10.2868L23.5565 10.3226L23.5692 10.3593L23.5803 10.3968L23.5897 10.4344L23.5966 10.4728L23.6025 10.5112L23.6068 10.5496L23.6085 10.5888L23.6093 10.6272L23.6076 10.6664L23.6051 10.7048L23.6 10.7432L23.5931 10.7816L23.5855 10.82L23.5752 10.8575L23.5633 10.8942L23.5496 10.9309L23.5351 10.9667L23.5181 11.0017L23.5001 11.0359L23.4797 11.0691L23.4583 11.1015L23.4362 11.1331L23.4114 11.1638L23.3867 11.1928L23.3594 11.221L20.9228 13.6576L23.0258 14.3589L23.0625 14.3717L23.0983 14.3862L23.1333 14.4033L23.1683 14.4212L23.2015 14.44L23.234 14.4613L23.2664 14.4843L23.2962 14.5082L23.3261 14.5329L23.3543 14.5594L23.3816 14.5875L23.4072 14.6166L23.4319 14.6464L23.4549 14.678L23.4763 14.7104L23.4967 14.7437L23.5146 14.7778L23.5317 14.8128L23.5471 14.8486L23.5607 14.8844L23.5727 14.922L23.5838 14.9587L23.5923 14.9971L23.5991 15.0355L23.6042 15.0738L23.6076 15.1122L23.6093 15.1515V15.1899L23.6068 15.2291L23.6034 15.2675L23.5983 15.3059L23.5906 15.3443L23.582 15.3818L23.5718 15.4194L23.559 15.4561L23.5454 15.4927L23.53 15.5277L23.5121 15.5627L23.4942 15.5968L23.4737 15.6301L23.4515 15.6617L23.4285 15.6932L23.4037 15.7231L23.3781 15.7521L23.3508 15.7803L23.3218 15.8067L23.2928 15.8315L23.2621 15.8553L23.2297 15.8775L23.1973 15.898L23.1631 15.9176L23.129 15.9355L23.094 15.9517L23.0574 15.9662L23.0207 15.979L22.984 15.9901L22.9464 15.9995L22.9081 16.0072L22.8697 16.0132L22.8313 16.0174L22.792 16.02L22.7536 16.0209L22.7144 16.02L22.676 16.0174L22.6376 16.0132L22.5992 16.0063L22.5608 15.9987L22.5233 15.9884L22.4866 15.9773L18.1466 14.5312L18.0493 14.1183L22.153 10.0146L22.1812 9.98732L22.2102 9.96258L22.2409 9.93784L22.2725 9.91566L22.3049 9.89433L22.3381 9.87385L22.3723 9.85594L22.4072 9.83887L22.4431 9.82437L22.4798 9.81072L22.5165 9.79877L22.554 9.78854L22.5924 9.78086L22.6308 9.77403L22.6692 9.76891L22.7076 9.76635L22.7468 9.76465L22.7852 9.7655Z" fill="black"/>
<path fill-rule="evenodd" clip-rule="evenodd" d="M9.15313 9.76635L9.19152 9.76891L9.22991 9.77403L9.26831 9.78086L9.3067 9.78854L9.34424 9.79877L9.38092 9.81072L9.41761 9.82437L9.45344 9.83887L9.48842 9.85594L9.52255 9.87385L9.55582 9.89433L9.58824 9.91566L9.61981 9.93784L9.65052 9.96258L9.67953 9.98732L9.70768 10.0146L13.8114 14.1183L13.7141 14.5312L9.3741 15.9773L9.33741 15.9884L9.29987 15.9987L9.26148 16.0063L9.22309 16.0132L9.1847 16.0174L9.1463 16.02L9.10706 16.0209L9.06867 16.02L9.02942 16.0174L8.99103 16.0132L8.95264 16.0072L8.91425 15.9995L8.87671 15.9901L8.84002 15.979L8.80334 15.9662L8.76665 15.9517L8.73167 15.9355L8.69754 15.9176L8.66342 15.898L8.631 15.8775L8.59858 15.8553L8.56786 15.8315L8.53886 15.8067L8.50985 15.7803L8.48255 15.7521L8.45695 15.7231L8.43221 15.6932L8.40918 15.6617L8.38699 15.6301L8.36652 15.5968L8.3486 15.5627L8.33069 15.5277L8.31533 15.4927L8.30168 15.4561L8.28888 15.4194L8.27864 15.3818L8.27011 15.3443L8.26243 15.3059L8.25731 15.2675L8.2539 15.2291L8.25134 15.1899V15.1515L8.25305 15.1122L8.25646 15.0738L8.26158 15.0355L8.26841 14.9971L8.27694 14.9587L8.28803 14.922L8.29997 14.8844L8.31362 14.8486L8.32898 14.8128L8.34604 14.7778L8.36396 14.7437L8.38444 14.7104L8.40576 14.678L8.4288 14.6464L8.45354 14.6166L8.47914 14.5875L8.50644 14.5594L8.53459 14.5329L8.56445 14.5082L8.59431 14.4843L8.62673 14.4613L8.65915 14.44L8.69243 14.4212L8.7274 14.4033L8.76238 14.3862L8.79822 14.3717L8.8349 14.3589L10.9379 13.6576L8.50132 11.221L8.47402 11.1928L8.44928 11.1638L8.42453 11.1331L8.40235 11.1015L8.38102 11.0691L8.36055 11.0359L8.34263 11.0017L8.32557 10.9667L8.31106 10.9309L8.29741 10.8942L8.28547 10.8575L8.27523 10.82L8.26755 10.7816L8.26073 10.7432L8.25561 10.7048L8.25305 10.6664L8.25134 10.6272L8.2522 10.5888L8.2539 10.5496L8.25817 10.5112L8.26414 10.4728L8.27097 10.4344L8.28035 10.3968L8.29144 10.3593L8.30424 10.3226L8.31789 10.2868L8.3341 10.2518L8.35116 10.2168L8.37078 10.1827L8.39126 10.1503L8.41344 10.1179L8.43648 10.0871L8.46122 10.0573L8.48767 10.0283L8.51497 10.001L8.54398 9.97452L8.57384 9.94978L8.60455 9.92675L8.63697 9.90457L8.66939 9.88409L8.70352 9.86447L8.7385 9.8474L8.77348 9.83119L8.80931 9.81754L8.84599 9.80475L8.88353 9.79366L8.92107 9.78427L8.95946 9.77745L8.99786 9.77147L9.03625 9.76721L9.07549 9.7655L9.11388 9.76465L9.15313 9.76635Z" fill="black"/>
</g>
<defs>
<clipPath id="clip0">
<rect width="32" height="32" fill="white"/>
</clipPath>
</defs>
</svg>
