<svg width="32" height="32" viewBox="0 0 32 32" fill="none" xmlns="http://www.w3.org/2000/svg">
<path d="M31.1028 20.9925C31.1028 23.0016 30.5776 24.4276 29.7584 25.467C28.9313 26.5165 27.7418 27.2511 26.2822 27.7577C23.3206 28.7859 19.5103 28.7956 16.0998 28.7956C12.6905 28.7956 8.82725 28.7862 5.81316 27.7563C4.32618 27.2482 3.11166 26.5116 2.26715 25.4605C1.43183 24.4208 0.896749 22.9971 0.896749 20.9925C0.896749 17.2445 1.70404 12.6828 4.00516 9.08874C6.27215 5.54802 10.0181 2.88955 16.0998 2.88955C21.8645 2.88955 25.569 5.55276 27.871 9.1208C30.2022 12.7339 31.1028 17.3007 31.1028 20.9925Z" fill="#FBC546" stroke="black" stroke-width="1.7935"/>
<path d="M11.639 23.9269C11.639 23.9269 11.6484 23.8902 11.6646 23.8245C12.1509 21.8793 13.8991 20.5143 15.904 20.5143C15.9048 20.5143 15.9048 20.5143 15.9057 20.5143C17.9106 20.5143 19.6587 21.8793 20.145 23.8245C20.1612 23.8902 20.1706 23.9269 20.1706 23.9269" stroke="#593604" stroke-width="1.70631" stroke-miterlimit="1.5" stroke-linecap="round"/>
<path fill-rule="evenodd" clip-rule="evenodd" d="M22.0476 12.7531L23.2429 12.1559C23.3547 12.2395 23.4622 12.3325 23.562 12.4332C24.1216 12.9928 24.4365 13.7513 24.4365 14.543C24.4365 15.1035 24.4365 15.6905 24.4365 16.251C24.4365 17.9002 23.0996 19.2371 21.4504 19.2371H21.4487C20.657 19.2371 19.8985 18.9223 19.3388 18.3626C18.7792 17.8029 18.4644 17.0445 18.4644 16.2527V14.5447L19.3175 14.1181C19.3175 14.9167 22.1116 12.8009 22.0476 12.7531V12.7531Z" fill="white"/>
<path fill-rule="evenodd" clip-rule="evenodd" d="M22.0476 12.7557C22.1116 12.8035 22.173 12.8564 22.2302 12.9144C22.5501 13.2344 22.7301 13.6686 22.7301 14.1208C22.7301 14.9193 22.7301 15.8681 22.7301 16.6658C22.7301 17.1188 22.5501 17.5522 22.2302 17.873C21.9102 18.1929 21.476 18.3721 21.0238 18.3721C20.5716 18.3721 20.1374 18.1929 19.8175 17.873C19.4975 17.5522 19.3175 17.1188 19.3175 16.6658V14.1208L22.0476 12.7557V12.7557Z" fill="black"/>
<path fill-rule="evenodd" clip-rule="evenodd" d="M9.76213 12.7539L8.56686 12.1567C8.45509 12.2403 8.3476 12.3333 8.24778 12.434C7.68811 12.9937 7.37329 13.7521 7.37329 14.5439C7.37329 15.1044 7.37329 15.6914 7.37329 16.2519C7.37329 17.901 8.71019 19.2379 10.3593 19.2379H10.361C11.1528 19.2379 11.9112 18.9231 12.4709 18.3635C13.0306 17.8038 13.3454 17.0453 13.3454 16.2536V14.5456L12.4922 14.119C12.4922 14.9176 9.69814 12.8017 9.76213 12.7539V12.7539Z" fill="white"/>
<path fill-rule="evenodd" clip-rule="evenodd" d="M9.76212 12.7557C9.69813 12.8035 9.6367 12.8564 9.57954 12.9144C9.25961 13.2344 9.07959 13.6686 9.07959 14.1208C9.07959 14.9193 9.07959 15.8681 9.07959 16.6658C9.07959 17.1188 9.25961 17.5522 9.57954 17.873C9.89947 18.1929 10.3337 18.3721 10.7859 18.3721C11.2381 18.3721 11.6723 18.1929 11.9923 17.873C12.3122 17.5522 12.4922 17.1188 12.4922 16.6658V14.1208L9.76212 12.7557Z" fill="black"/>
<path d="M19.7285 4.29689C19.7285 4.29689 20.4178 4.98624 21.0816 5.65C21.7479 6.31631 21.7479 7.39641 21.0816 8.06273C20.4178 8.72648 19.7285 9.41583 19.7285 9.41583M29.9662 4.29689C29.9662 4.29689 29.2769 4.98624 28.6131 5.65C27.9468 6.31631 27.9468 7.39641 28.6131 8.06273C29.2769 8.72648 29.9662 9.41583 29.9662 9.41583M22.2879 11.122C22.2879 11.122 22.9773 10.4327 23.641 9.76894C24.3074 9.10262 25.3874 9.10262 26.0538 9.76894C26.7175 10.4327 27.4069 11.122 27.4069 11.122M22.2879 2.59058C22.2879 2.59058 22.9773 3.27993 23.641 3.94368C24.3074 4.61 25.3874 4.61 26.0538 3.94368C26.7175 3.27993 27.4069 2.59058 27.4069 2.59058" stroke="#FF0000" stroke-width="1.70631" stroke-miterlimit="1.5" stroke-linecap="round"/>
</svg>
