<svg width="32" height="32" viewBox="0 0 32 32" fill="none" xmlns="http://www.w3.org/2000/svg">
<path d="M31.0361 20.8339C31.0361 29 22.4363 29 16.1119 29C9.78756 29 1 29 1 20.8339C1 13.6065 4.09745 3 16.1119 3C27.5632 3 31.0361 13.6802 31.0361 20.8339Z" fill="#FBC546"/>
<path d="M10.7859 23.357C10.7859 23.357 11.1459 22.9969 11.5964 22.5465C12.7166 21.4263 14.2352 20.7975 15.8195 20.7975C18.0633 20.7975 21.0238 20.7975 21.0238 20.7975" stroke="#593604" stroke-width="1.70631" stroke-miterlimit="1.5" stroke-linecap="round" stroke-linejoin="round"/>
<path fill-rule="evenodd" clip-rule="evenodd" d="M20.4035 11.5324C20.186 11.6168 22.7088 12.8121 22.6678 12.6637L24.4364 13.5484V15.2564C24.4364 16.0481 24.1216 16.8066 23.5619 17.3663C23.0022 17.9259 22.2438 18.2408 21.4521 18.2408H21.4503C19.8012 18.2408 18.4643 16.9039 18.4643 15.2547C18.4643 14.6942 18.4643 14.1072 18.4643 13.5467C18.4643 12.755 18.7791 11.9965 19.3388 11.4368C19.4386 11.3361 19.5461 11.2432 19.6579 11.1595L20.4035 11.5324V11.5324Z" fill="white"/>
<path fill-rule="evenodd" clip-rule="evenodd" d="M20.4035 11.5328L22.6678 12.6641C22.7087 12.8126 22.7301 12.9661 22.7301 13.1223C22.7301 13.9208 22.7301 14.8695 22.7301 15.6672C22.7301 16.1203 22.5501 16.5537 22.2301 16.8745C21.9102 17.1944 21.4759 17.3736 21.0238 17.3736C20.5716 17.3736 20.1373 17.1944 19.8174 16.8745C19.4975 16.5537 19.3174 16.1203 19.3174 15.6672C19.3174 14.8695 19.3174 13.9208 19.3174 13.1223C19.3174 12.6701 19.4975 12.2358 19.8174 11.9159C19.9855 11.747 20.186 11.6173 20.4035 11.5328V11.5328Z" fill="black"/>
<path fill-rule="evenodd" clip-rule="evenodd" d="M11.4061 11.5324C11.6237 11.6168 9.10087 12.8121 9.14182 12.6637L7.37323 13.5484V15.2564C7.37323 16.0481 7.68805 16.8066 8.24772 17.3663C8.80739 17.9259 9.56584 18.2408 10.3576 18.2408H10.3593C12.0084 18.2408 13.3453 16.9039 13.3453 15.2547C13.3453 14.6942 13.3453 14.1072 13.3453 13.5467C13.3453 12.755 13.0305 11.9965 12.4708 11.4368C12.371 11.3361 12.2635 11.2432 12.1518 11.1595L11.4061 11.5324V11.5324Z" fill="white"/>
<path fill-rule="evenodd" clip-rule="evenodd" d="M11.4061 11.5328L9.14181 12.6641C9.10086 12.8126 9.07953 12.9661 9.07953 13.1223C9.07953 13.9208 9.07953 14.8695 9.07953 15.6672C9.07953 16.1203 9.25955 16.5537 9.57948 16.8745C9.89941 17.1944 10.3337 17.3736 10.7858 17.3736C11.238 17.3736 11.6723 17.1944 11.9922 16.8745C12.3121 16.5537 12.4922 16.1203 12.4922 15.6672C12.4922 14.8695 12.4922 13.9208 12.4922 13.1223C12.4922 12.6701 12.3121 12.2358 11.9922 11.9159C11.8241 11.747 11.6236 11.6173 11.4061 11.5328V11.5328Z" fill="black"/>
<path d="M17.5364 3.48726C21.7212 3.78617 22.8172 5.38037 23.3154 5.48001L22.3244 6.73027L3.50327 16.7945H1.59418C1.99273 14.1043 3.38768 10.9602 4.9819 8.86776L16.1414 3.38761C16.3125 3.3812 17.3635 3.48726 17.5364 3.48726Z" fill="white"/>
<path d="M1.59418 16.8389L23.3154 5.4801C23.9133 5.87866 24.6107 6.27721 25.3082 6.77541L2.6902 18.1343L1.69381 18.6324L1.59418 16.8389Z" fill="#C4C4C4"/>
<path fill-rule="evenodd" clip-rule="evenodd" d="M29.0541 24.912C29.7283 24.0565 30.206 22.8358 30.206 20.9925C30.206 17.4196 29.3298 13.0359 27.1175 9.60697C24.9633 6.26815 21.5294 3.7863 16.0998 3.7863C10.3363 3.7863 6.86939 6.27829 4.76037 9.57227C2.5831 12.9729 1.7935 17.3464 1.7935 20.9925C1.7935 22.8266 2.27854 24.0429 2.96621 24.8988C3.67226 25.7776 4.72051 26.4353 6.10311 26.9077C8.94856 27.88 12.6502 27.8989 16.0998 27.8989C19.5519 27.8989 23.1975 27.8793 25.9881 26.9106C27.341 26.441 28.3641 25.7874 29.0541 24.912ZM16.0998 29.6924C22.8375 29.6924 31.9995 29.6924 31.9995 20.9925C31.9995 13.3711 28.2996 1.9928 16.0998 1.9928C3.29992 1.9928 0 13.2926 0 20.9925C0 29.6924 9.36199 29.6924 16.0998 29.6924Z" fill="black"/>
</svg>
