<svg width="32" height="32" viewBox="0 0 32 32" fill="none" xmlns="http://www.w3.org/2000/svg">
<path d="M31.0361 20.8339C31.0361 29 22.4363 29 16.1119 29C9.78756 29 1 29 1 20.8339C1 13.6065 4.09745 3 16.1119 3C27.5632 3 31.0361 13.6802 31.0361 20.8339Z" fill="#FBC546"/>
<path fill-rule="evenodd" clip-rule="evenodd" d="M22.755 22.5801C22.755 20.9642 21.8421 19.4874 20.3969 18.7648C19.4226 18.2777 18.3211 17.7274 17.456 17.294C16.4954 16.8136 15.3641 16.8136 14.4035 17.294C13.5384 17.7274 12.4369 18.2777 11.4626 18.7648C10.0174 19.4874 9.10449 20.9642 9.10449 22.5801C9.10449 23.1048 9.10449 23.6628 9.10449 24.2097C9.10449 26.0943 10.6325 27.6223 12.5171 27.6223C14.6014 27.6223 17.2581 27.6223 19.3424 27.6223C21.227 27.6223 22.755 26.0943 22.755 24.2097C22.755 23.6628 22.755 23.1048 22.755 22.5801Z" fill="white"/>
<path fill-rule="evenodd" clip-rule="evenodd" d="M16.0031 15.2283L16.0765 15.23L16.1499 15.2325L16.2241 15.2359L16.2975 15.2411L16.37 15.2462L16.4434 15.253L16.5167 15.2615L16.5901 15.2701L16.6635 15.2803L16.736 15.2914L16.8085 15.3033L16.881 15.317L16.9536 15.3306L17.0261 15.346L17.0986 15.3622L17.1703 15.3801L17.2419 15.3989L17.3136 15.4177L17.3844 15.439L17.4561 15.4603L17.5269 15.4834L17.5977 15.5064L17.6676 15.5311L17.7376 15.5576L17.8076 15.584L17.8767 15.6122L17.9458 15.6412L18.0149 15.6711L18.0831 15.7026L18.1514 15.735L18.2137 15.7649L21.1664 17.2417L21.2543 17.2861L21.3473 17.3364L21.4395 17.3876L21.5299 17.4405L21.6203 17.4943L21.7091 17.5497L21.7961 17.6069L21.8822 17.6657L21.9676 17.7255L22.052 17.7869L22.1348 17.8492L22.2158 17.9132L22.296 17.978L22.3754 18.0454L22.453 18.1128L22.5298 18.1819L22.6049 18.2519L22.6782 18.3235L22.7516 18.396L22.8224 18.4703L22.8924 18.5453L22.9606 18.6213L23.028 18.6989L23.0937 18.7766L23.1586 18.8559L23.2217 18.9369L23.2831 19.018L23.3429 19.1008L23.4017 19.1844L23.4589 19.2688L23.5152 19.3541L23.5698 19.4403L23.6227 19.5273L23.6739 19.6161L23.7234 19.7048L23.772 19.7944L23.8189 19.8857L23.8641 19.9769L23.9076 20.0691L23.9503 20.1621L23.9904 20.2559L24.0296 20.3506L24.0672 20.4462L24.103 20.5426L24.1371 20.639L24.1696 20.7363L24.2011 20.8344L24.2301 20.9333L24.2574 21.0323L24.283 21.1321L24.3078 21.2328L24.33 21.3343L24.3504 21.4358L24.3701 21.5374L24.3871 21.6397L24.4025 21.743L24.4161 21.8462L24.4281 21.9503L24.4383 22.0544L24.4468 22.1585L24.4528 22.2634L24.4579 22.3692L24.4605 22.4741L24.4613 22.5722V24.2205L24.4596 24.3408L24.4545 24.4714L24.4468 24.6011L24.4349 24.7307L24.4204 24.8596L24.4025 24.9867L24.382 25.1138L24.3573 25.2392L24.33 25.3638L24.3001 25.4875L24.2668 25.6095L24.231 25.7306L24.1917 25.8509L24.1508 25.9695L24.1056 26.0864L24.0586 26.2024L24.0083 26.3168L23.9554 26.4294L23.9008 26.5411L23.8428 26.6503L23.7822 26.7587L23.7191 26.8653L23.6543 26.9694L23.586 27.0727L23.516 27.1742L23.4435 27.2731L23.3684 27.3704L23.2917 27.466L23.2123 27.5598L23.1313 27.6519L23.0477 27.7415L22.9623 27.8294L22.8745 27.9147L22.7849 27.9983L22.6927 28.0794L22.5989 28.1587L22.5033 28.2355L22.4061 28.3106L22.3071 28.3831L22.2056 28.4531L22.1024 28.5213L21.9983 28.5862L21.8916 28.6493L21.7833 28.7099L21.6741 28.7679L21.5623 28.8225L21.4497 28.8754L21.3354 28.9257L21.2193 28.9726L21.1025 29.0179L20.9839 29.0588L20.8636 29.098L20.7424 29.1339L20.6204 29.1672L20.4967 29.197L20.3722 29.2243L20.2467 29.2491L20.1196 29.2695L19.9925 29.2874L19.8637 29.302L19.7348 29.3139L19.6043 29.3216L19.4738 29.3267L19.3535 29.3284H12.506L12.3858 29.3267L12.2552 29.3216L12.1247 29.3139L11.9959 29.302L11.867 29.2874L11.7399 29.2695L11.6128 29.2491L11.4874 29.2243L11.3628 29.197L11.2391 29.1672L11.1171 29.1339L10.996 29.098L10.8757 29.0588L10.7571 29.0179L10.6402 28.9726L10.5242 28.9257L10.4098 28.8754L10.2972 28.8225L10.1855 28.7679L10.0763 28.7099L9.9679 28.6493L9.86126 28.5862L9.75717 28.5213L9.65394 28.4531L9.55242 28.3831L9.45345 28.3106L9.35619 28.2355L9.26064 28.1587L9.16679 28.0794L9.07465 27.9983L8.98507 27.9147L8.89719 27.8294L8.81188 27.7415L8.72827 27.6519L8.64722 27.5598L8.56787 27.466L8.49109 27.3704L8.41601 27.2731L8.34349 27.1742L8.27353 27.0727L8.20528 26.9694L8.14044 26.8653L8.07731 26.7587L8.01673 26.6503L7.95872 26.5411L7.90412 26.4294L7.85122 26.3168L7.80088 26.2024L7.75396 26.0864L7.70874 25.9695L7.66779 25.8509L7.62855 25.7306L7.59271 25.6095L7.55944 25.4875L7.52958 25.3638L7.50228 25.2392L7.47754 25.1138L7.45706 24.9867L7.43914 24.8596L7.42464 24.7307L7.4127 24.6011L7.40502 24.4714L7.3999 24.3408L7.39819 24.2205V22.5722L7.39905 22.4741L7.40161 22.3692L7.40673 22.2634L7.4127 22.1585L7.42123 22.0544L7.43147 21.9503L7.44341 21.8462L7.45706 21.743L7.47242 21.6397L7.48948 21.5374L7.5091 21.4358L7.52958 21.3343L7.55176 21.2328L7.5765 21.1321L7.6021 21.0323L7.6294 20.9333L7.65841 20.8344L7.68997 20.7363L7.72239 20.639L7.75652 20.5426L7.79235 20.4462L7.82989 20.3506L7.86914 20.2559L7.90923 20.1621L7.95189 20.0691L7.9954 19.9769L8.04062 19.8857L8.08754 19.7944L8.13617 19.7048L8.18566 19.6161L8.23685 19.5273L8.28974 19.4403L8.34435 19.3541L8.40065 19.2688L8.45781 19.1844L8.51668 19.1008L8.5764 19.018L8.63783 18.9369L8.70096 18.8559L8.7658 18.7766L8.8315 18.6989L8.8989 18.6213L8.96715 18.5453L9.03711 18.4703L9.10792 18.396L9.18129 18.3235L9.25466 18.2519L9.32974 18.1819L9.40653 18.1128L9.48416 18.0454L9.56351 17.978L9.6437 17.9132L9.72475 17.8492L9.80751 17.7869L9.89197 17.7255L9.97729 17.6657L10.0635 17.6069L10.1505 17.5497L10.2392 17.4943L10.3296 17.4405L10.4201 17.3876L10.5122 17.3364L10.6052 17.2861L10.6931 17.2417L13.6459 15.7649L13.7081 15.735L13.7764 15.7026L13.8446 15.6711L13.9138 15.6412L13.9829 15.6122L14.052 15.584L14.1219 15.5576L14.1919 15.5311L14.2618 15.5064L14.3327 15.4834L14.4035 15.4603L14.4751 15.439L14.5459 15.4177L14.6176 15.3989L14.6893 15.3801L14.7609 15.3622L14.8335 15.346L14.906 15.3306L14.9785 15.317L15.051 15.3033L15.1235 15.2914L15.1961 15.2803L15.2694 15.2701L15.3428 15.2615L15.4162 15.253L15.4895 15.2462L15.5621 15.2411L15.6354 15.2359L15.7097 15.2325L15.783 15.23L15.8564 15.2283L15.9298 15.2274L16.0031 15.2283ZM15.8811 16.9346L15.8317 16.9354L15.783 16.9371L15.7335 16.9397L15.6849 16.9423L15.6363 16.9465L15.5868 16.9508L15.5382 16.9568L15.4895 16.9627L15.4409 16.9687L15.3923 16.9764L15.3436 16.9849L15.295 16.9935L15.2472 17.0028L15.1986 17.0131L15.1508 17.0242L15.1031 17.0353L15.0553 17.0481L15.0075 17.0609L14.9597 17.0745L14.912 17.089L14.865 17.1044L14.8181 17.1197L14.7712 17.1368L14.7243 17.1538L14.6782 17.1718L14.6321 17.1905L14.586 17.2093L14.54 17.2298L14.4939 17.2503L14.4487 17.2716L14.4035 17.2938L11.4626 18.7646L11.3952 18.7987L11.3287 18.8346L11.263 18.8713L11.1982 18.9088L11.1342 18.9472L11.0702 18.9873L11.0079 19.0282L10.9465 19.07L10.8859 19.1127L10.8253 19.1562L10.7665 19.2006L10.7084 19.2466L10.6513 19.2936L10.595 19.3405L10.5387 19.3891L10.4841 19.4386L10.4312 19.4889L10.3783 19.5393L10.3262 19.5913L10.275 19.6442L10.2256 19.698L10.1761 19.7526L10.1283 19.8072L10.0814 19.8635L10.0353 19.9198L9.99009 19.9778L9.94657 20.0358L9.90306 20.0947L9.86126 20.1544L9.82031 20.215L9.78021 20.2755L9.74182 20.3378L9.70342 20.4001L9.66674 20.4624L9.63176 20.5264L9.59678 20.5904L9.56351 20.6552L9.53109 20.7209L9.49952 20.7866L9.46966 20.8531L9.44065 20.9205L9.4125 20.9879L9.38605 21.0562L9.36046 21.1244L9.33571 21.1935L9.31268 21.2635L9.2905 21.3335L9.27002 21.4043L9.2504 21.4751L9.23163 21.5459L9.21457 21.6176L9.19836 21.6901L9.18385 21.7626L9.1702 21.8351L9.1574 21.9085L9.14631 21.9819L9.13693 22.0561L9.1284 22.1295L9.12072 22.2045L9.11475 22.2788L9.11048 22.3538L9.10707 22.4289L9.10536 22.5048L9.10451 22.5799V24.2095L9.10536 24.2973L9.10877 24.3852L9.11475 24.4722L9.12242 24.5584L9.13181 24.6437L9.14375 24.729L9.1574 24.8135L9.17361 24.8971L9.19153 24.9799L9.21201 25.0626L9.23419 25.1437L9.25808 25.2239L9.28367 25.3041L9.31183 25.3825L9.34083 25.461L9.3724 25.5378L9.40567 25.6138L9.44065 25.6888L9.47819 25.7631L9.51658 25.8364L9.55668 25.9081L9.59849 25.9789L9.642 26.0489L9.68721 26.1171L9.73414 26.1854L9.78277 26.2511L9.83225 26.3168L9.88344 26.3799L9.93634 26.443L9.99094 26.5044L10.0472 26.5642L10.1044 26.6222L10.1624 26.6793L10.2221 26.7357L10.2836 26.7903L10.3467 26.8432L10.4098 26.8943L10.4755 26.9438L10.5412 26.9925L10.6095 27.0394L10.6777 27.0846L10.7477 27.1281L10.8185 27.1699L10.8902 27.21L10.9635 27.2484L11.0378 27.2859L11.1128 27.3209L11.1888 27.3542L11.2656 27.3858L11.344 27.4148L11.4225 27.4429L11.5027 27.4685L11.5829 27.4924L11.664 27.5146L11.7467 27.5351L11.8295 27.553L11.9131 27.5692L11.9976 27.5828L12.0829 27.5948L12.1682 27.6042L12.2544 27.6118L12.3414 27.6178L12.4293 27.6212L12.5171 27.6221H19.3424L19.4303 27.6212L19.5181 27.6178L19.6052 27.6118L19.6913 27.6042L19.7767 27.5948L19.862 27.5828L19.9464 27.5692L20.03 27.553L20.1128 27.5351L20.1956 27.5146L20.2766 27.4924L20.3568 27.4685L20.437 27.4429L20.5155 27.4148L20.594 27.3858L20.6708 27.3542L20.7467 27.3209L20.8218 27.2859L20.896 27.2484L20.9694 27.21L21.041 27.1699L21.1118 27.1281L21.1818 27.0846L21.2501 27.0394L21.3183 26.9925L21.384 26.9438L21.4497 26.8943L21.5128 26.8432L21.576 26.7903L21.6374 26.7357L21.6971 26.6793L21.7551 26.6222L21.8123 26.5642L21.8686 26.5044L21.9232 26.443L21.9761 26.3799L22.0273 26.3168L22.0768 26.2511L22.1254 26.1854L22.1723 26.1171L22.2175 26.0489L22.261 25.9789L22.3029 25.9081L22.343 25.8364L22.3813 25.7631L22.4189 25.6888L22.4539 25.6138L22.4871 25.5378L22.5187 25.461L22.5477 25.3825L22.5759 25.3041L22.6015 25.2239L22.6253 25.1437L22.6475 25.0626L22.668 24.9799L22.6859 24.8971L22.7021 24.8135L22.7158 24.729L22.7277 24.6437L22.7371 24.5584L22.7448 24.4722L22.7508 24.3852L22.7542 24.2973L22.755 24.2095V22.5799L22.7542 22.5048L22.7525 22.4289L22.7491 22.3538L22.7448 22.2788L22.7388 22.2045L22.7311 22.1295L22.7226 22.0561L22.7132 21.9819L22.7021 21.9085L22.6893 21.8351L22.6757 21.7626L22.6612 21.6901L22.645 21.6176L22.6279 21.5459L22.6091 21.4751L22.5895 21.4043L22.569 21.3335L22.5469 21.2635L22.5238 21.1935L22.4991 21.1244L22.4735 21.0562L22.447 20.9879L22.4189 20.9205L22.3899 20.8531L22.36 20.7866L22.3284 20.7209L22.296 20.6552L22.2628 20.5904L22.2278 20.5264L22.1928 20.4624L22.1561 20.4001L22.1177 20.3378L22.0793 20.2755L22.0392 20.215L21.9983 20.1544L21.9565 20.0947L21.913 20.0358L21.8694 19.9778L21.8242 19.9198L21.7782 19.8635L21.7312 19.8072L21.6835 19.7526L21.634 19.698L21.5845 19.6442L21.5333 19.5913L21.4813 19.5393L21.4284 19.4889L21.3755 19.4386L21.3209 19.3891L21.2646 19.3405L21.2083 19.2936L21.1511 19.2466L21.0931 19.2006L21.0342 19.1562L20.9736 19.1127L20.9131 19.07L20.8516 19.0282L20.7894 18.9873L20.7254 18.9472L20.6614 18.9088L20.5965 18.8713L20.5308 18.8346L20.4643 18.7987L20.3969 18.7646L17.4561 17.2938L17.4108 17.2716L17.3656 17.2503L17.3196 17.2298L17.2735 17.2093L17.2274 17.1905L17.1813 17.1718L17.1353 17.1538L17.0884 17.1368L17.0414 17.1197L16.9945 17.1044L16.9476 17.089L16.8998 17.0745L16.852 17.0609L16.8043 17.0481L16.7565 17.0353L16.7087 17.0242L16.6609 17.0131L16.6123 17.0028L16.5645 16.9935L16.5159 16.9849L16.4673 16.9764L16.4186 16.9687L16.37 16.9627L16.3214 16.9568L16.2727 16.9508L16.2233 16.9465L16.1746 16.9423L16.126 16.9397L16.0765 16.9371L16.0279 16.9354L15.9784 16.9346L15.9298 16.9337L15.8811 16.9346Z" fill="#808080"/>
<path d="M30.1905 18.2339L19.0617 23.6485L17.9167 21.3587L29.8916 15.444L30.1905 18.2339Z" fill="white"/>
<path d="M2.0924 15.3444L13.9427 21.3587L12.7978 23.6485L1.69385 18.2339L2.0924 15.3444Z" fill="white"/>
<path fill-rule="evenodd" clip-rule="evenodd" d="M19.3424 20.7996C19.3424 20.3286 18.9602 19.9464 18.4893 19.9464C17.1779 19.9464 14.6816 19.9464 13.3703 19.9464C12.8994 19.9464 12.5172 20.3286 12.5172 20.7996C12.5172 21.2705 12.8994 21.6527 13.3703 21.6527C14.6816 21.6527 17.1779 21.6527 18.4893 21.6527C18.9602 21.6527 19.3424 21.2705 19.3424 20.7996Z" fill="#CCCCCC"/>
<path fill-rule="evenodd" clip-rule="evenodd" d="M20.1955 24.2123C20.1955 23.7413 19.8133 23.3591 19.3424 23.3591C17.7077 23.3591 14.1517 23.3591 12.5171 23.3591C12.0462 23.3591 11.6639 23.7413 11.6639 24.2123C11.6639 24.6832 12.0462 25.0654 12.5171 25.0654C14.1517 25.0654 17.7077 25.0654 19.3424 25.0654C19.8133 25.0654 20.1955 24.6832 20.1955 24.2123Z" fill="#CCCCCC"/>
<path d="M23.9903 12.7853C24.1925 12.886 24.3469 13.0634 24.4185 13.2784C24.4902 13.4925 24.4731 13.7272 24.3716 13.9294C24.3716 13.9302 24.3716 13.9302 24.3716 13.9302C24.1609 14.3517 23.649 14.5223 23.2284 14.3116C22.1184 13.757 20.07 12.7324 18.9609 12.1778C18.5394 11.9671 18.3688 11.4552 18.5795 11.0346C18.5795 11.0338 18.5795 11.0338 18.5804 11.0338C18.6811 10.8316 18.8585 10.6771 19.0735 10.6055C19.2877 10.5338 19.5223 10.5509 19.7245 10.6524C20.8344 11.2069 22.8812 12.2299 23.9903 12.7853Z" fill="black"/>
<path d="M13.2817 11.0361C13.3824 11.2383 13.3977 11.473 13.3261 11.6871C13.2535 11.9021 13.0991 12.0787 12.8961 12.1794C11.7861 12.7297 9.73939 13.7449 8.62943 14.2943C8.20797 14.5042 7.69693 14.3319 7.48791 13.9096C7.48705 13.9096 7.48705 13.9087 7.48705 13.9079C7.27803 13.4864 7.45037 12.9754 7.87183 12.7663C8.98179 12.2161 11.0285 11.2008 12.1385 10.6505C12.3407 10.5498 12.5753 10.5345 12.7894 10.6062C13.0044 10.6787 13.181 10.8331 13.2817 11.0361Z" fill="black"/>
<path fill-rule="evenodd" clip-rule="evenodd" d="M29.0541 24.912C29.7283 24.0565 30.206 22.8358 30.206 20.9925C30.206 17.4196 29.3298 13.0359 27.1175 9.60697C24.9633 6.26815 21.5294 3.7863 16.0998 3.7863C10.3363 3.7863 6.86939 6.27829 4.76037 9.57227C2.5831 12.9729 1.7935 17.3464 1.7935 20.9925C1.7935 22.8266 2.27854 24.0429 2.96621 24.8988C3.67226 25.7776 4.72051 26.4353 6.10311 26.9077C8.94856 27.88 12.6502 27.8989 16.0998 27.8989C19.5519 27.8989 23.1975 27.8793 25.9881 26.9106C27.341 26.441 28.3641 25.7874 29.0541 24.912ZM16.0998 29.6924C22.8375 29.6924 31.9995 29.6924 31.9995 20.9925C31.9995 13.3711 28.2996 1.9928 16.0998 1.9928C3.29992 1.9928 0 13.2926 0 20.9925C0 29.6924 9.36199 29.6924 16.0998 29.6924Z" fill="black"/>
</svg>
