<svg width="32" height="32" viewBox="0 0 32 32" fill="none" xmlns="http://www.w3.org/2000/svg">
<g clip-path="url(#clip0)">
<path d="M31.1028 20.9925C31.1028 23.0016 30.5776 24.4276 29.7584 25.467C28.9313 26.5165 27.7418 27.2511 26.2822 27.7577C23.3206 28.7859 19.5103 28.7956 16.0998 28.7956C12.6905 28.7956 8.82725 28.7862 5.81316 27.7563C4.32618 27.2482 3.11166 26.5116 2.26715 25.4605C1.43183 24.4208 0.896749 22.9971 0.896749 20.9925C0.896749 17.2445 1.70404 12.6828 4.00516 9.08874C6.27215 5.54802 10.0181 2.88955 16.0998 2.88955C21.8645 2.88955 25.569 5.55276 27.871 9.1208C30.2022 12.7339 31.1028 17.3007 31.1028 20.9925Z" fill="#77B84C" stroke="black" stroke-width="1.7935"/>
<path d="M23.057 15.1485C23.4785 15.3592 23.6491 15.8711 23.4384 16.2917C23.4384 16.2926 23.4375 16.2934 23.4375 16.2934C23.2268 16.7149 22.7149 16.8855 22.2943 16.6748C21.3661 16.2107 19.8082 15.4317 18.88 14.9676C18.4585 14.7569 18.2879 14.245 18.4986 13.8244C18.4986 13.8235 18.4986 13.8235 18.4995 13.8235C18.6001 13.6213 18.7776 13.4669 18.9926 13.3953C19.2067 13.3236 19.4413 13.3407 19.6435 13.4422C20.5718 13.9063 22.1296 14.6844 23.057 15.1485Z" fill="black"/>
<path d="M13.2008 13.826C13.4098 14.2484 13.2374 14.7603 12.8151 14.9693C11.8869 15.4291 10.3307 16.2012 9.4025 16.6611C8.98019 16.871 8.46829 16.6978 8.25927 16.2763C8.25927 16.2755 8.25927 16.2755 8.25927 16.2755C8.05025 15.8532 8.22258 15.3421 8.64404 15.1331C9.57228 14.6724 11.1301 13.9003 12.0584 13.4404C12.4798 13.2314 12.9909 13.4037 13.1999 13.8252C13.2008 13.8252 13.2008 13.8252 13.2008 13.826Z" fill="black"/>
<path fill-rule="evenodd" clip-rule="evenodd" d="M16.9386 20.3679C16.9386 20.3679 19.8302 17.4762 23.7911 13.5154C25.0721 12.2343 27.1485 12.2343 28.4295 13.5154C28.4311 13.5169 28.4311 13.5169 28.4326 13.5185C29.7137 14.7996 29.7137 16.8759 28.4326 18.157C24.8493 21.7403 23.6726 22.917 23.6726 22.917L16.9386 20.3679Z" fill="#519424" fill-opacity="0.5"/>
<path fill-rule="evenodd" clip-rule="evenodd" d="M18.3273 21.078C18.3273 21.078 22.5427 16.8626 24.7268 14.6785C25.4332 13.9721 26.5782 13.9721 27.2846 14.6785C27.2854 14.6793 27.2854 14.6793 27.2863 14.6802C27.9927 15.3866 27.9927 16.5316 27.2863 17.238C25.3104 19.2139 21.7399 22.7843 21.7399 22.7843L18.3273 21.078Z" fill="white"/>
<path fill-rule="evenodd" clip-rule="evenodd" d="M23.4462 16.8148L25.1525 18.5211L21.7399 21.9338L19.1804 21.0806L23.4462 16.8148Z" fill="#D92020"/>
<path fill-rule="evenodd" clip-rule="evenodd" d="M26.0492 14.1495L26.0927 14.1512L26.1354 14.1538L26.1789 14.1572L26.2224 14.1615L26.265 14.1675L26.3086 14.1743L26.3512 14.182L26.3939 14.1905L26.4365 14.2007L26.4783 14.2118L26.521 14.2229L26.5628 14.2366L26.6037 14.2502L26.6456 14.2656L26.6865 14.2809L26.7266 14.298L26.7676 14.3168L26.8077 14.3355L26.8469 14.356L26.8861 14.3773L26.9245 14.3995L26.9629 14.4225L27.0005 14.4464L27.038 14.472L27.0747 14.4985L27.1114 14.5258L27.1472 14.5548L27.1822 14.5838L27.2172 14.6145L27.2513 14.6461L27.2863 14.6802L27.3187 14.7135L27.3503 14.7476L27.381 14.7826L27.41 14.8176L27.439 14.8534L27.4663 14.8901L27.4927 14.9268L27.5183 14.9643L27.5422 15.0018L27.5653 15.0402L27.5874 15.0786L27.6088 15.1179L27.6292 15.1571L27.648 15.1972L27.6668 15.2382L27.6838 15.2783L27.6992 15.3192L27.7146 15.361L27.7282 15.402L27.7419 15.4438L27.753 15.4864L27.764 15.5282L27.7743 15.5709L27.7828 15.6136L27.7905 15.6562L27.7973 15.6997L27.8033 15.7424L27.8076 15.7859L27.811 15.8294L27.8135 15.8721L27.8152 15.9156L27.8161 15.9591L27.8152 16.0026L27.8135 16.0461L27.811 16.0888L27.8076 16.1323L27.8033 16.1758L27.7973 16.2184L27.7905 16.262L27.7828 16.3046L27.7743 16.3473L27.764 16.3899L27.753 16.4317L27.7419 16.4744L27.7282 16.5162L27.7146 16.5571L27.6992 16.5989L27.6838 16.6399L27.6668 16.68L27.648 16.721L27.6292 16.761L27.6088 16.8003L27.5874 16.8395L27.5653 16.8779L27.5422 16.9163L27.5183 16.9539L27.4927 16.9914L27.4663 17.0281L27.439 17.0648L27.41 17.1006L27.381 17.1356L27.3503 17.1706L27.3187 17.2047L27.2863 17.238L21.7399 22.7843L18.3273 21.078L24.7268 14.6785L24.7601 14.6461L24.7942 14.6145L24.8292 14.5838L24.8642 14.5548L24.9 14.5258L24.9367 14.4985L24.9734 14.472L25.0109 14.4464L25.0484 14.4225L25.0868 14.3995L25.1252 14.3773L25.1645 14.356L25.2037 14.3355L25.2438 14.3168L25.2848 14.298L25.3249 14.2809L25.3658 14.2656L25.4076 14.2502L25.4486 14.2366L25.4904 14.2229L25.533 14.2118L25.5748 14.2007L25.6175 14.1905L25.6602 14.182L25.7028 14.1743L25.7463 14.1675L25.789 14.1615L25.8325 14.1572L25.876 14.1538L25.9187 14.1512L25.9622 14.1495L26.0057 14.1487L26.0492 14.1495V14.1495ZM25.9826 15.0027H25.9596L25.9366 15.0044L25.9135 15.0061L25.8905 15.0087L25.8675 15.0121L25.8453 15.0155L25.8223 15.0198L25.8001 15.024L25.777 15.0291L25.7549 15.0351L25.7327 15.0411L25.7105 15.0479L25.6892 15.0556L25.667 15.0633L25.6457 15.0718L25.6243 15.0812L25.603 15.0906L25.5825 15.1008L25.5612 15.111L25.5407 15.1221L25.5202 15.1341L25.5006 15.146L25.481 15.1588L25.4614 15.1725L25.4417 15.1861L25.4221 15.2006L25.4034 15.216L25.3846 15.2313L25.3658 15.2475L25.3479 15.2646L25.3266 15.2859L19.7674 20.8443L21.5718 21.746L26.6788 16.6382L26.7002 16.6169L26.7172 16.5981L26.7334 16.5802L26.7488 16.5614L26.7641 16.5426L26.7786 16.523L26.7923 16.5042L26.8059 16.4838L26.8187 16.4642L26.8307 16.4445L26.8426 16.4241L26.8537 16.4036L26.864 16.3822L26.8742 16.3618L26.8836 16.3404L26.893 16.3191L26.9015 16.2978L26.9092 16.2756L26.9169 16.2543L26.9237 16.2321L26.9297 16.2099L26.9356 16.1877L26.9407 16.1647L26.945 16.1425L26.9493 16.1195L26.9527 16.0964L26.9561 16.0743L26.9587 16.0512L26.9604 16.0282L26.9621 16.0052V15.9821L26.9629 15.9591L26.9621 15.936V15.913L26.9604 15.89L26.9587 15.8669L26.9561 15.8439L26.9527 15.8217L26.9493 15.7987L26.945 15.7757L26.9407 15.7535L26.9356 15.7304L26.9297 15.7083L26.9237 15.6861L26.9169 15.6639L26.9092 15.6426L26.9015 15.6204L26.893 15.599L26.8836 15.5777L26.8742 15.5564L26.864 15.5359L26.8537 15.5146L26.8426 15.4941L26.8307 15.4736L26.8187 15.454L26.8059 15.4344L26.7923 15.4139L26.7786 15.3951L26.7641 15.3755L26.7488 15.3568L26.7334 15.338L26.7172 15.3201L26.7002 15.3013L26.6822 15.2825L26.6635 15.2646L26.6456 15.2475L26.6268 15.2313L26.608 15.216L26.5892 15.2006L26.5696 15.1861L26.55 15.1725L26.5304 15.1588L26.5108 15.146L26.4911 15.1341L26.4707 15.1221L26.4502 15.111L26.4289 15.1008L26.4084 15.0906L26.387 15.0812L26.3657 15.0718L26.3444 15.0633L26.3222 15.0556L26.3009 15.0479L26.2787 15.0411L26.2565 15.0351L26.2343 15.0291L26.2113 15.024L26.1891 15.0198L26.1661 15.0155L26.1439 15.0121L26.1209 15.0087L26.0978 15.0061L26.0748 15.0044L26.0518 15.0027H26.0287L26.0057 15.0018L25.9826 15.0027V15.0027Z" fill="white"/>
<path fill-rule="evenodd" clip-rule="evenodd" d="M17.951 20.1777L18.0499 20.1794L18.1489 20.1837L18.2479 20.188L18.3468 20.1948L18.4458 20.2025L18.5439 20.2119L18.642 20.223L18.7401 20.2349L18.8382 20.2485L18.9355 20.2639L19.0328 20.2801L19.13 20.298L19.2273 20.3168L19.3237 20.3373L19.4201 20.3595L19.5157 20.3825L19.6112 20.4072L19.7059 20.4337L19.8015 20.461L19.8953 20.49L19.9892 20.5207L20.083 20.5523L20.176 20.5847L20.269 20.6197L20.3611 20.6546L20.4533 20.6922L20.5446 20.7306L20.635 20.7698L20.7254 20.8116L20.815 20.8534L20.9012 20.8961L23.9086 22.4002L23.9598 22.4275L24.0092 22.4591L24.0562 22.4932L24.1005 22.5307L24.1423 22.5717L24.1816 22.6152L24.2174 22.6613L24.2498 22.7091L24.2788 22.7594L24.3044 22.8114L24.3266 22.866L24.3454 22.9206L24.3599 22.9769L24.371 23.035L24.3778 23.0921L24.3804 23.151L24.3795 23.209L24.3744 23.267L24.365 23.3242L24.3522 23.3813L24.3351 23.4368L24.3147 23.4914L24.2899 23.5443L24.2626 23.5955L24.2311 23.645L24.1969 23.6919L24.1594 23.7363L24.1184 23.7781L24.0749 23.8173L24.0289 23.8531L23.9811 23.8856L23.9307 23.9146L23.8787 23.9402L23.8241 23.9623L23.7695 23.9811L23.7132 23.9956L23.6552 24.0067L23.598 24.0135L23.5391 24.0161L23.4811 24.0152L23.4231 24.0101L23.366 24.0007L23.3088 23.9879L23.2533 23.9709L23.1987 23.9504L23.1458 23.9257L20.1436 22.4249L20.0736 22.3908L20.0071 22.3593L19.9388 22.3285L19.8714 22.2987L19.8023 22.2697L19.7341 22.2415L19.665 22.2151L19.595 22.1895L19.525 22.1647L19.4551 22.1408L19.3843 22.1178L19.3135 22.0965L19.2426 22.076L19.171 22.0564L19.0993 22.0376L19.0277 22.0206L18.956 22.0035L18.8835 21.9881L18.8109 21.9736L18.7376 21.9608L18.6651 21.948L18.5917 21.9369L18.5183 21.9267L18.4449 21.9173L18.3707 21.9096L18.2973 21.9028L18.2231 21.8968L18.1489 21.8917L18.0747 21.8883L18.0004 21.8858L17.9262 21.884L17.8486 21.8832H13.2893L13.2313 21.8815L13.1733 21.8755L13.1161 21.8653L13.059 21.8516L13.0035 21.8337L12.9498 21.8124L12.8969 21.7876L12.8457 21.7586L12.797 21.7271L12.751 21.6921L12.7066 21.6537L12.6657 21.6127L12.6273 21.5684L12.5923 21.5223L12.5607 21.4737L12.5317 21.4225L12.507 21.3696L12.4856 21.3158L12.4677 21.2604L12.4541 21.2032L12.4438 21.1461L12.4379 21.0881L12.4362 21.03L12.4379 20.972L12.4438 20.914L12.4541 20.8568L12.4677 20.7997L12.4856 20.7442L12.507 20.6905L12.5317 20.6376L12.5607 20.5864L12.5923 20.5378L12.6273 20.4917L12.6657 20.4473L12.7066 20.4064L12.751 20.368L12.797 20.333L12.8457 20.3014L12.8969 20.2724L12.9498 20.2477L13.0035 20.2264L13.059 20.2084L13.1161 20.1948L13.1733 20.1846L13.2313 20.1786L13.2893 20.1769H17.8546L17.951 20.1777V20.1777Z" fill="#23480A"/>
</g>
<defs>
<clipPath id="clip0">
<rect width="32" height="32" fill="white"/>
</clipPath>
</defs>
</svg>
