<svg width="32" height="32" viewBox="0 0 32 32" fill="none" xmlns="http://www.w3.org/2000/svg">
<g clip-path="url(#clip0)">
<path d="M31.1028 20.9925C31.1028 23.0016 30.5776 24.4276 29.7584 25.467C28.9313 26.5165 27.7418 27.2511 26.2822 27.7577C23.3206 28.7859 19.5103 28.7956 16.0998 28.7956C12.6905 28.7956 8.82725 28.7862 5.81316 27.7563C4.32618 27.2482 3.11166 26.5116 2.26715 25.4605C1.43183 24.4208 0.896749 22.9971 0.896749 20.9925C0.896749 17.2445 1.70404 12.6828 4.00516 9.08874C6.27215 5.54802 10.0181 2.88955 16.0998 2.88955C21.8645 2.88955 25.569 5.55276 27.871 9.1208C30.2022 12.7339 31.1028 17.3007 31.1028 20.9925Z" fill="#77B84C" stroke="black" stroke-width="1.7935"/>
<path fill-rule="evenodd" clip-rule="evenodd" d="M16.2447 19.4647L16.3436 19.4664L16.5416 19.475L16.6405 19.4818L16.7395 19.4895L16.8376 19.4988L16.9357 19.5099L17.0339 19.5219L17.132 19.5355L17.2292 19.5509L17.3265 19.5671L17.4237 19.585L17.521 19.6038L17.6174 19.6243L17.7138 19.6464L17.8094 19.6695L17.9049 19.6942L17.9996 19.7207L18.0952 19.748L18.189 19.777L18.2829 19.8077L18.3767 19.8393L18.4697 19.8717L18.5627 19.9067L18.6549 19.9416L18.747 19.9792L18.8383 20.0176L18.9287 20.0568L19.0191 20.0986L19.1087 20.1404L19.1949 20.1831L21.3491 21.2606L21.4003 21.2879L21.4498 21.3195L21.4967 21.3536L21.5411 21.3912L21.5829 21.4321L21.6221 21.4756L21.658 21.5217L21.6904 21.5695L21.7194 21.6198L21.745 21.6718L21.7672 21.7264L21.7859 21.781L21.8004 21.8374L21.8115 21.8954L21.8184 21.9525L21.8209 22.0114L21.8201 22.0694L21.8149 22.1274L21.8056 22.1846L21.7928 22.2417L21.7757 22.2972L21.7552 22.3518L21.7305 22.4047L21.7032 22.4559L21.6716 22.5054L21.6375 22.5523L21.5999 22.5967L21.559 22.6385L21.5155 22.6777L21.4694 22.7135L21.4216 22.746L21.3713 22.775L21.3193 22.8006L21.2647 22.8227L21.2101 22.8415L21.1538 22.856L21.0957 22.8671L21.0386 22.8739L20.9797 22.8765L20.9217 22.8756L20.8637 22.8705L20.8065 22.8611L20.7494 22.8483L20.6939 22.8313L20.6393 22.8108L20.5864 22.7861L18.4373 21.7119L18.3673 21.6778L18.3008 21.6462L18.2325 21.6155L18.1643 21.5857L18.096 21.5567L18.0278 21.5285L17.9587 21.5021L17.8887 21.4765L17.8188 21.4517L17.7488 21.4278L17.678 21.4048L17.6072 21.3835L17.5364 21.363L17.4647 21.3434L17.393 21.3246L17.3214 21.3075L17.2488 21.2905L17.1772 21.2751L17.1047 21.2606L17.0313 21.2478L16.9588 21.235L16.8854 21.2239L16.812 21.2137L16.7387 21.2043L16.6644 21.1966L16.5911 21.1898L16.5168 21.1838L16.4426 21.1787L16.3684 21.1753L16.2942 21.1727L16.2199 21.171L16.1423 21.1702H15.5553L15.4777 21.171L15.4035 21.1727L15.3292 21.1753L15.255 21.1787L15.1808 21.1838L15.1066 21.1898L15.0332 21.1966L14.959 21.2043L14.8856 21.2137L14.8122 21.2239L14.7389 21.235L14.6663 21.2478L14.593 21.2606L14.5205 21.2751L14.4488 21.2905L14.3763 21.3075L14.3046 21.3246L14.2329 21.3434L14.1613 21.363L14.0905 21.3835L14.0196 21.4048L13.9488 21.4278L13.8789 21.4517L13.8089 21.4765L13.739 21.5021L13.6699 21.5285L13.6016 21.5567L13.5333 21.5857L13.4651 21.6155L13.3968 21.6462L13.3303 21.6778L13.2603 21.7119L11.1112 22.7861L11.0583 22.8108L11.0037 22.8313L10.9483 22.8483L10.8911 22.8611L10.834 22.8705L10.7759 22.8756L10.7179 22.8765L10.6591 22.8739L10.6019 22.8671L10.5439 22.856L10.4876 22.8415L10.433 22.8227L10.3784 22.8006L10.3263 22.775L10.276 22.746L10.2282 22.7135L10.1821 22.6777L10.1386 22.6385L10.0977 22.5967L10.0601 22.5523L10.026 22.5054L9.99445 22.4559L9.96715 22.4047L9.94241 22.3518L9.92193 22.2972L9.90487 22.2417L9.89207 22.1846L9.88269 22.1274L9.87757 22.0694L9.87672 22.0114L9.87928 21.9525L9.8861 21.8954L9.89719 21.8374L9.9117 21.781L9.93047 21.7264L9.95265 21.6718L9.97824 21.6198L10.0072 21.5695L10.0397 21.5217L10.0755 21.4756L10.1147 21.4321L10.1566 21.3912L10.2009 21.3536L10.2478 21.3195L10.2973 21.2879L10.3485 21.2606L12.5027 20.1831L12.5889 20.1404L12.6785 20.0986L12.7689 20.0568L12.8594 20.0176L12.9506 19.9792L13.0428 19.9416L13.1349 19.9067L13.2279 19.8717L13.3209 19.8393L13.4148 19.8077L13.5086 19.777L13.6025 19.748L13.698 19.7207L13.7927 19.6942L13.8883 19.6695L13.9838 19.6464L14.0802 19.6243L14.1766 19.6038L14.2739 19.585L14.3711 19.5671L14.4684 19.5509L14.5657 19.5355L14.6638 19.5219L14.7619 19.5099L14.86 19.4988L14.9581 19.4895L15.0571 19.4818L15.1561 19.475L15.354 19.4664L15.453 19.4647L15.5494 19.4639H16.1483L16.2447 19.4647Z" fill="#23480A"/>
<path fill-rule="evenodd" clip-rule="evenodd" d="M21.8643 19.4647L21.8976 19.4673L21.9317 19.4707L21.965 19.4758L21.9983 19.4826L22.0315 19.4903L22.064 19.4988L22.0964 19.5091L22.1288 19.521L22.1595 19.5338L22.1911 19.5475L22.2209 19.5628L22.2508 19.5799L22.2798 19.597L22.308 19.6157L22.3353 19.6362L22.3617 19.6567L22.3882 19.6789L22.4129 19.7019L22.4368 19.7258L22.4598 19.7505L22.482 19.777L22.5025 19.8034L22.523 19.8307L22.5417 19.8589L22.5588 19.8879L22.5759 19.9177L22.5912 19.9476L22.6049 19.9792L22.6177 20.0099L22.6296 20.0423L22.6398 20.0747L22.6484 20.1071L22.6561 20.1404L22.6629 20.1737L22.668 20.207L22.6714 20.2411L22.674 20.2744L22.6748 20.3085V20.3426L22.6731 20.3767L22.6697 20.41L22.6654 20.4441L22.6595 20.4774L22.6526 20.5107L22.6441 20.5431L22.6347 20.5755L22.6236 20.608L22.6117 20.6395L22.598 20.6711L22.5835 20.7009L22.5673 20.7317L22.5503 20.7607L22.5323 20.7897L22.5127 20.817L22.4922 20.8443L22.4709 20.8707L22.4487 20.8955L22.4248 20.9202L22.4283 20.9168L22.3975 20.9484L22.3711 20.9765L22.3455 21.0055L22.3208 21.0354L22.2969 21.0652L22.2738 21.096L22.2517 21.1267L22.209 21.1898L22.1894 21.2222L22.1698 21.2555L22.1518 21.2888L22.1339 21.3229L22.1177 21.357L22.1015 21.392L22.087 21.4261L22.0725 21.462L22.0469 21.5336L22.035 21.5695L22.0247 21.6061L22.0153 21.6428L22.0059 21.6804L21.9983 21.7179L21.9846 21.793L21.9795 21.8314L21.9752 21.8689L21.9701 21.9457L21.9684 21.9849L21.9676 22.0233L21.9684 22.0617L21.9701 22.101L21.9752 22.1778L21.9795 22.2153L21.9846 22.2537L21.9983 22.3288L22.0059 22.3663L22.0153 22.4038L22.0247 22.4405L22.035 22.4772L22.0469 22.5131L22.0725 22.5847L22.087 22.6205L22.1015 22.6547L22.1177 22.6897L22.1339 22.7238L22.1518 22.7579L22.1698 22.7912L22.1894 22.8245L22.209 22.8569L22.2517 22.92L22.2738 22.9507L22.2969 22.9814L22.3208 23.0113L22.3455 23.0412L22.3711 23.0702L22.3975 23.0983L22.4283 23.1299L22.4248 23.1265L22.4487 23.1512L22.4709 23.176L22.4922 23.2024L22.5127 23.2297L22.5323 23.257L22.5503 23.286L22.5673 23.315L22.5835 23.3457L22.598 23.3756L22.6117 23.4072L22.6236 23.4387L22.6347 23.4711L22.6441 23.5036L22.6526 23.536L22.6595 23.5693L22.6654 23.6025L22.6697 23.6367L22.6731 23.6699L22.6748 23.7041V23.7382L22.674 23.7723L22.6714 23.8056L22.668 23.8397L22.6629 23.873L22.6561 23.9063L22.6484 23.9395L22.6398 23.972L22.6296 24.0044L22.6177 24.0368L22.6049 24.0675L22.5912 24.0991L22.5759 24.1289L22.5588 24.1588L22.5417 24.1878L22.523 24.216L22.5025 24.2433L22.482 24.2697L22.4598 24.2961L22.4368 24.3209L22.4129 24.3448L22.3882 24.3678L22.3617 24.39L22.3353 24.4105L22.308 24.4309L22.2798 24.4497L22.2508 24.4668L22.2209 24.4838L22.1911 24.4992L22.1595 24.5129L22.1288 24.5256L22.0964 24.5376L22.064 24.5478L22.0315 24.5564L21.9983 24.564L21.965 24.5709L21.9317 24.576L21.8976 24.5794L21.8643 24.582L21.8302 24.5828H21.7961L21.7619 24.5811L21.7287 24.5777L21.6945 24.5734L21.6613 24.5675L21.628 24.5606L21.5956 24.5521L21.5632 24.5427L21.5307 24.5316L21.4992 24.5197L21.4676 24.506L21.4377 24.4915L21.407 24.4753L21.378 24.4582L21.349 24.4403L21.3217 24.4207L21.2944 24.4002L21.268 24.3789L21.2432 24.3567L21.2185 24.3328L21.2142 24.3286L21.1613 24.2748L21.1067 24.2151L21.053 24.1545L21.0009 24.0931L20.9506 24.03L20.9028 23.9668L20.8559 23.9011L20.8098 23.8354L20.7663 23.768L20.7245 23.6998L20.6844 23.6315L20.646 23.5616L20.6093 23.4908L20.5743 23.4191L20.5419 23.3466L20.5104 23.2732L20.4805 23.199L20.4523 23.1248L20.4268 23.0488L20.4029 22.9729L20.3807 22.897L20.3602 22.8193L20.3414 22.7417L20.3252 22.6632L20.3099 22.5847L20.2971 22.5054L20.2868 22.426L20.2775 22.3458L20.2706 22.2656L20.2655 22.1854L20.2621 22.1044L20.2612 22.0233L20.2621 21.9423L20.2655 21.8612L20.2706 21.781L20.2775 21.7008L20.2868 21.6206L20.2971 21.5413L20.3099 21.462L20.3252 21.3835L20.3414 21.305L20.3602 21.2273L20.3807 21.1497L20.4029 21.0738L20.4268 20.9978L20.4523 20.9219L20.4805 20.8477L20.5104 20.7735L20.5419 20.7001L20.5743 20.6276L20.6093 20.5559L20.646 20.4851L20.6844 20.4151L20.7245 20.3469L20.7663 20.2786L20.8098 20.2112L20.8559 20.1455L20.9028 20.0798L20.9506 20.0167L21.0009 19.9536L21.053 19.8922L21.1067 19.8316L21.1613 19.7719L21.2142 19.7181L21.2185 19.7138L21.2432 19.69L21.268 19.6678L21.2944 19.6464L21.3217 19.626L21.349 19.6063L21.378 19.5884L21.407 19.5714L21.4377 19.5552L21.4676 19.5407L21.4992 19.527L21.5307 19.5151L21.5632 19.504L21.5956 19.4946L21.628 19.486L21.6613 19.4792L21.6945 19.4733L21.7287 19.469L21.7619 19.4656L21.7961 19.4639H21.8302L21.8643 19.4647Z" fill="#23480A"/>
<path fill-rule="evenodd" clip-rule="evenodd" d="M9.90231 19.4639L9.93644 19.4656L9.96971 19.469L10.0038 19.4733L10.0371 19.4792L10.0704 19.486L10.1028 19.4946L10.1352 19.504L10.1676 19.5151L10.1992 19.527L10.2308 19.5407L10.2606 19.5552L10.2914 19.5714L10.3204 19.5884L10.3494 19.6063L10.3767 19.626L10.404 19.6464L10.4304 19.6678L10.4552 19.69L10.4799 19.7138L10.4842 19.7181L10.5371 19.7719L10.5917 19.8316L10.6454 19.8922L10.6975 19.9536L10.7478 20.0167L10.7956 20.0798L10.8425 20.1455L10.8886 20.2112L10.9321 20.2786L10.9739 20.3469L11.014 20.4151L11.0524 20.4851L11.0891 20.5559L11.124 20.6276L11.1565 20.7001L11.188 20.7735L11.2179 20.8477L11.246 20.9219L11.2716 20.9978L11.2955 21.0738L11.3177 21.1497L11.3382 21.2273L11.3569 21.305L11.3732 21.3835L11.3885 21.462L11.4013 21.5413L11.4115 21.6206L11.4209 21.7008L11.4278 21.781L11.4329 21.8612L11.4363 21.9423L11.4371 22.0233L11.4363 22.1044L11.4329 22.1854L11.4278 22.2656L11.4209 22.3458L11.4115 22.426L11.4013 22.5054L11.3885 22.5847L11.3732 22.6632L11.3569 22.7417L11.3382 22.8193L11.3177 22.897L11.2955 22.9729L11.2716 23.0488L11.246 23.1248L11.2179 23.199L11.188 23.2732L11.1565 23.3466L11.124 23.4191L11.0891 23.4908L11.0524 23.5616L11.014 23.6315L10.9739 23.6998L10.9321 23.768L10.8886 23.8354L10.8425 23.9011L10.7956 23.9668L10.7478 24.03L10.6975 24.0931L10.6454 24.1545L10.5917 24.2151L10.5371 24.2748L10.4842 24.3286L10.4799 24.3328L10.4552 24.3567L10.4304 24.3789L10.404 24.4002L10.3767 24.4207L10.3494 24.4403L10.3204 24.4582L10.2914 24.4753L10.2606 24.4915L10.2308 24.506L10.1992 24.5197L10.1676 24.5316L10.1352 24.5427L10.1028 24.5521L10.0704 24.5606L10.0371 24.5675L10.0038 24.5734L9.96971 24.5777L9.93644 24.5811L9.90231 24.5828H9.86819L9.83406 24.582L9.80079 24.5794L9.76666 24.576L9.73339 24.5709L9.70011 24.564L9.66684 24.5564L9.63442 24.5478L9.602 24.5376L9.56958 24.5256L9.53887 24.5129L9.5073 24.4992L9.47744 24.4838L9.44758 24.4668L9.41857 24.4497L9.39042 24.4309L9.36312 24.4105L9.33667 24.39L9.31022 24.3678L9.28548 24.3448L9.26159 24.3209L9.23856 24.2961L9.21637 24.2697L9.1959 24.2433L9.17542 24.216L9.15665 24.1878L9.13959 24.1588L9.12253 24.1289L9.10717 24.0991L9.09352 24.0675L9.08072 24.0368L9.06878 24.0044L9.05854 23.972L9.05001 23.9395L9.04233 23.9063L9.0355 23.873L9.03039 23.8397L9.02697 23.8056L9.02441 23.7723L9.02356 23.7382V23.7041L9.02527 23.6699L9.02868 23.6367L9.03294 23.6025L9.03892 23.5693L9.04574 23.536L9.05427 23.5036L9.06366 23.4711L9.07475 23.4387L9.08669 23.4072L9.10034 23.3756L9.11485 23.3457L9.13106 23.315L9.14812 23.286L9.16604 23.257L9.18566 23.2297L9.20614 23.2024L9.22746 23.176L9.24965 23.1512L9.27353 23.1265L9.27012 23.1299L9.30084 23.0983L9.32728 23.0702L9.35288 23.0412L9.37762 23.0113L9.40151 22.9814L9.42454 22.9507L9.44673 22.92L9.48938 22.8569L9.50901 22.8245L9.52863 22.7912L9.54654 22.7579L9.56446 22.7238L9.58067 22.6897L9.59688 22.6547L9.61139 22.6205L9.62589 22.5847L9.65148 22.5131L9.66343 22.4772L9.67367 22.4405L9.68305 22.4038L9.69244 22.3663L9.70011 22.3288L9.71376 22.2537L9.71888 22.2153L9.72315 22.1778L9.72827 22.101L9.72997 22.0617L9.73083 22.0233L9.72997 21.9849L9.72827 21.9457L9.72315 21.8689L9.71888 21.8314L9.71376 21.793L9.70011 21.7179L9.69244 21.6804L9.68305 21.6428L9.67367 21.6061L9.66343 21.5695L9.65148 21.5336L9.62589 21.462L9.61139 21.4261L9.59688 21.392L9.58067 21.357L9.56446 21.3229L9.54654 21.2888L9.52863 21.2555L9.50901 21.2222L9.48938 21.1898L9.44673 21.1267L9.42454 21.096L9.40151 21.0652L9.37762 21.0354L9.35288 21.0055L9.32728 20.9765L9.30084 20.9484L9.27012 20.9168L9.27353 20.9202L9.24965 20.8955L9.22746 20.8707L9.20614 20.8443L9.18566 20.817L9.16604 20.7897L9.14812 20.7607L9.13106 20.7317L9.11485 20.7009L9.10034 20.6711L9.08669 20.6395L9.07475 20.608L9.06366 20.5755L9.05427 20.5431L9.04574 20.5107L9.03892 20.4774L9.03294 20.4441L9.02868 20.41L9.02527 20.3767L9.02356 20.3426V20.3085L9.02441 20.2744L9.02697 20.2411L9.03039 20.207L9.0355 20.1737L9.04233 20.1404L9.05001 20.1071L9.05854 20.0747L9.06878 20.0423L9.08072 20.0099L9.09352 19.9792L9.10717 19.9476L9.12253 19.9177L9.13959 19.8879L9.15665 19.8589L9.17542 19.8307L9.1959 19.8034L9.21637 19.777L9.23856 19.7505L9.26159 19.7258L9.28548 19.7019L9.31022 19.6789L9.33667 19.6567L9.36312 19.6362L9.39042 19.6157L9.41857 19.597L9.44758 19.5799L9.47744 19.5628L9.5073 19.5475L9.53887 19.5338L9.56958 19.521L9.602 19.5091L9.63442 19.4988L9.66684 19.4903L9.70011 19.4826L9.73339 19.4758L9.76666 19.4707L9.80079 19.4673L9.83406 19.4647L9.86819 19.4639H9.90231Z" fill="#23480A"/>
<path fill-rule="evenodd" clip-rule="evenodd" d="M22.7043 11.3596L22.7435 11.3613L22.7819 11.3656L22.8203 11.3716L22.8587 11.3784L22.8962 11.3878L22.9338 11.3989L22.9705 11.4117L23.0063 11.4253L23.0413 11.4415L23.0762 11.4586L23.1104 11.4782L23.1428 11.4987L23.1752 11.5209L23.2059 11.5439L23.2358 11.5686L23.2648 11.5951L23.2921 11.6224L23.3185 11.6514L23.3433 11.6813L23.3663 11.712L23.3885 11.7444L23.409 11.7768L23.4286 11.8109L23.4457 11.8459L23.4619 11.8809L23.4755 11.9167L23.4883 11.9534L23.4994 11.991L23.5088 12.0285L23.5156 12.0669L23.5216 12.1053L23.5259 12.1437L23.5276 12.1829L23.5284 12.2213L23.5267 12.2606L23.5241 12.2989L23.519 12.3373L23.5122 12.3757L23.5045 12.4141L23.4943 12.4517L23.4823 12.4883L23.4687 12.525L23.4542 12.5609L23.4371 12.5958L23.4192 12.63L23.3987 12.6632L23.3774 12.6957L23.3552 12.7272L23.3305 12.7579L23.3057 12.7869L23.2784 12.8151L20.8418 15.2517L22.9449 15.953L22.9815 15.9658L23.0174 15.9803L23.0524 15.9974L23.0873 16.0153L23.1206 16.0341L23.153 16.0554L23.1854 16.0784L23.2153 16.1023L23.2452 16.1271L23.2733 16.1535L23.3006 16.1817L23.3262 16.2107L23.351 16.2405L23.374 16.2721L23.3953 16.3045L23.4158 16.3378L23.4337 16.3719L23.4508 16.4069L23.4661 16.4427L23.4798 16.4786L23.4917 16.5161L23.5028 16.5528L23.5114 16.5912L23.5182 16.6296L23.5233 16.668L23.5267 16.7064L23.5284 16.7456V16.784L23.5259 16.8232L23.5224 16.8616L23.5173 16.9L23.5096 16.9384L23.5011 16.976L23.4909 17.0135L23.4781 17.0502L23.4644 17.0869L23.4491 17.1218L23.4312 17.1568L23.4132 17.1909L23.3928 17.2242L23.3706 17.2558L23.3475 17.2874L23.3228 17.3172L23.2972 17.3462L23.2699 17.3744L23.2409 17.4008L23.2119 17.4256L23.1812 17.4495L23.1488 17.4716L23.1163 17.4921L23.0822 17.5117L23.0481 17.5297L23.0131 17.5459L22.9764 17.5604L22.9397 17.5732L22.9031 17.5843L22.8655 17.5936L22.8271 17.6013L22.7887 17.6073L22.7503 17.6116L22.7111 17.6141L22.6727 17.615L22.6335 17.6141L22.5951 17.6116L22.5567 17.6073L22.5183 17.6005L22.4799 17.5928L22.4423 17.5825L22.4057 17.5715L18.0656 16.1254L17.9684 15.7124L22.0721 11.6087L22.1002 11.5814L22.1292 11.5567L22.16 11.532L22.1915 11.5098L22.2239 11.4884L22.2572 11.468L22.2913 11.4501L22.3263 11.433L22.3621 11.4185L22.3988 11.4048L22.4355 11.3929L22.4731 11.3827L22.5115 11.375L22.5498 11.3681L22.5882 11.363L22.6266 11.3605L22.6659 11.3588L22.7043 11.3596Z" fill="black"/>
<path fill-rule="evenodd" clip-rule="evenodd" d="M9.0722 11.3605L9.11059 11.363L9.14898 11.3681L9.18737 11.375L9.22577 11.3827L9.2633 11.3929L9.29999 11.4048L9.33668 11.4185L9.37251 11.433L9.40749 11.4501L9.44161 11.468L9.47489 11.4884L9.50731 11.5098L9.53887 11.532L9.56959 11.5567L9.5986 11.5814L9.62675 11.6087L13.7304 15.7124L13.6332 16.1254L9.29317 17.5715L9.25648 17.5825L9.21894 17.5928L9.18055 17.6005L9.14216 17.6073L9.10376 17.6116L9.06537 17.6141L9.02613 17.615L8.98774 17.6141L8.94849 17.6116L8.9101 17.6073L8.87171 17.6013L8.83331 17.5936L8.79577 17.5843L8.75909 17.5732L8.7224 17.5604L8.68572 17.5459L8.65074 17.5297L8.61661 17.5117L8.58248 17.4921L8.55007 17.4716L8.51765 17.4495L8.48693 17.4256L8.45792 17.4008L8.42892 17.3744L8.40162 17.3462L8.37602 17.3172L8.35128 17.2874L8.32824 17.2558L8.30606 17.2242L8.28559 17.1909L8.26767 17.1568L8.24975 17.1218L8.2344 17.0869L8.22075 17.0502L8.20795 17.0135L8.19771 16.976L8.18918 16.9384L8.1815 16.9L8.17638 16.8616L8.17297 16.8232L8.17041 16.784V16.7456L8.17212 16.7064L8.17553 16.668L8.18065 16.6296L8.18747 16.5912L8.19601 16.5528L8.2071 16.5161L8.21904 16.4786L8.23269 16.4427L8.24805 16.4069L8.26511 16.3719L8.28303 16.3378L8.3035 16.3045L8.32483 16.2721L8.34787 16.2405L8.37261 16.2107L8.3982 16.1817L8.4255 16.1535L8.45366 16.1271L8.48352 16.1023L8.51338 16.0784L8.5458 16.0554L8.57822 16.0341L8.61149 16.0153L8.64647 15.9974L8.68145 15.9803L8.71728 15.9658L8.75397 15.953L10.857 15.2517L8.42039 12.8151L8.39308 12.7869L8.36834 12.7579L8.3436 12.7272L8.32142 12.6957L8.30009 12.6632L8.27961 12.63L8.2617 12.5958L8.24463 12.5609L8.23013 12.525L8.21648 12.4883L8.20454 12.4517L8.1943 12.4141L8.18662 12.3757L8.1798 12.3373L8.17468 12.2989L8.17212 12.2606L8.17041 12.2213L8.17126 12.1829L8.17297 12.1437L8.17724 12.1053L8.18321 12.0669L8.19003 12.0285L8.19942 11.991L8.21051 11.9534L8.22331 11.9167L8.23696 11.8809L8.25317 11.8459L8.27023 11.8109L8.28985 11.7768L8.31033 11.7444L8.33251 11.712L8.35555 11.6813L8.38029 11.6514L8.40673 11.6224L8.43404 11.5951L8.46304 11.5686L8.4929 11.5439L8.52362 11.5209L8.55604 11.4987L8.58846 11.4782L8.62258 11.4586L8.65756 11.4415L8.69254 11.4253L8.72837 11.4117L8.76506 11.3989L8.8026 11.3878L8.84014 11.3784L8.87853 11.3716L8.91692 11.3656L8.95531 11.3613L8.99456 11.3596L9.03295 11.3588L9.0722 11.3605Z" fill="black"/>
</g>
<defs>
<clipPath id="clip0">
<rect width="32" height="32" fill="white"/>
</clipPath>
</defs>
</svg>
