<svg width="32" height="32" viewBox="0 0 32 32" fill="none" xmlns="http://www.w3.org/2000/svg">
<g clip-path="url(#clip0)">
<path d="M31.1028 20.9925C31.1028 23.0016 30.5776 24.4276 29.7584 25.467C28.9313 26.5165 27.7418 27.2511 26.2822 27.7577C23.3206 28.7859 19.5103 28.7956 16.0998 28.7956C12.6905 28.7956 8.82725 28.7862 5.81316 27.7563C4.32618 27.2482 3.11166 26.5116 2.26715 25.4605C1.43183 24.4208 0.896749 22.9971 0.896749 20.9925C0.896749 17.2445 1.70404 12.6828 4.00516 9.08874C6.27215 5.54802 10.0181 2.88955 16.0998 2.88955C21.8645 2.88955 25.569 5.55276 27.871 9.1208C30.2022 12.7339 31.1028 17.3007 31.1028 20.9925Z" fill="#FBC546" stroke="black" stroke-width="1.7935"/>
<path fill-rule="evenodd" clip-rule="evenodd" d="M13.1523 18.7321C13.1523 18.7321 13.9654 18.7321 14.7981 18.7321C15.9294 18.7321 17.0146 19.1817 17.814 19.9811C19.9861 22.1532 24.1126 27.4006 24.1126 27.4006C24.1126 27.4006 22.618 27.6995 21.2231 27.7992C19.8281 27.8988 18.5328 27.8988 18.5328 27.8988L13.1523 29.8086V18.7321Z" fill="#E59A10"/>
<path fill-rule="evenodd" clip-rule="evenodd" d="M9.60083 20.5123C9.60083 20.5123 12.8319 20.5123 14.9415 20.5123C15.4132 20.5123 15.8663 20.7001 16.2001 21.0339C16.5339 21.3677 16.7217 21.8208 16.7217 22.2925C16.7217 24.8899 16.7217 29.4134 16.7217 29.4134H9.60083L8.71073 30.3035H5.1503V26.7431H4.26019L9.60083 21.4024V20.5123Z" fill="white"/>
<path fill-rule="evenodd" clip-rule="evenodd" d="M11.4309 23.1844L11.4807 23.188L11.5306 23.1951L11.5795 23.2049L11.6276 23.2173L11.6748 23.2325L11.7219 23.2503L11.7673 23.2707L11.8118 23.2939L11.8546 23.3188L11.8964 23.3464L11.9356 23.3767L11.9738 23.4087L12.0103 23.4434L12.045 23.4799L12.0771 23.5182L12.1073 23.5574L12.1349 23.5992L12.1599 23.6419L12.183 23.6864L12.2035 23.7318L12.2213 23.779L12.2364 23.8262L12.2489 23.8742L12.2587 23.9232L12.2658 23.973L12.2693 24.0229L12.2711 24.0727L12.2693 24.1226L12.2658 24.1724L12.2587 24.2223L12.2489 24.2712L12.2364 24.3193L12.2213 24.3665L12.2035 24.4136L12.183 24.459L12.1599 24.5035L12.1349 24.5463L12.1073 24.5881L12.0771 24.6273L12.045 24.6655L12.0103 24.702L4.88947 31.8229L4.85297 31.8576L4.8147 31.8896L4.77553 31.9199L4.7337 31.9475L4.69097 31.9724L4.64647 31.9956L4.60107 32.016L4.5539 32.0338L4.50672 32.049L4.45866 32.0614L4.4097 32.0712L4.35985 32.0783L4.31001 32.0819L4.26016 32.0837L4.21032 32.0819L4.16047 32.0783L4.11062 32.0712L4.06167 32.0614L4.0136 32.049L3.96643 32.0338L3.91925 32.016L3.87386 31.9956L3.82935 31.9724L3.78663 31.9475L3.74479 31.9199L3.70563 31.8896L3.66735 31.8576L3.63086 31.8229L3.59614 31.7864L3.5641 31.7481L3.53384 31.7089L3.50624 31.6671L3.48132 31.6244L3.45818 31.5799L3.4377 31.5345L3.4199 31.4873L3.40477 31.4401L3.39231 31.3921L3.38252 31.3431L3.3754 31.2933L3.37184 31.2434L3.37006 31.1936L3.37184 31.1437L3.3754 31.0939L3.38252 31.044L3.39231 30.9951L3.40477 30.947L3.4199 30.8998L3.4377 30.8527L3.45818 30.8073L3.48132 30.7628L3.50624 30.72L3.53384 30.6782L3.5641 30.639L3.59614 30.6008L3.63086 30.5643L10.7517 23.4434L10.7882 23.4087L10.8265 23.3767L10.8656 23.3464L10.9075 23.3188L10.9502 23.2939L10.9947 23.2707L11.0401 23.2503L11.0873 23.2325L11.1345 23.2173L11.1825 23.2049L11.2315 23.1951L11.2813 23.188L11.3312 23.1844L11.381 23.1826L11.4309 23.1844V23.1844Z" fill="#B3B3B3"/>
<path fill-rule="evenodd" clip-rule="evenodd" d="M8.71069 30.3035L14.9414 24.0728V31.1785L8.71069 30.3035Z" fill="#B3B3B3"/>
<path fill-rule="evenodd" clip-rule="evenodd" d="M15.029 18.7329L15.1172 18.7365L15.2053 18.7418L15.2925 18.749L15.3797 18.7588L15.467 18.7712L15.5533 18.7846L15.6388 18.8006L15.7242 18.8193L15.8088 18.8398L15.8933 18.8611L15.9761 18.886L16.0598 18.9119L16.1417 18.9403L16.2227 18.9706L16.3037 19.0026L16.3829 19.0374L16.4621 19.073L16.5404 19.1112L16.617 19.1513L16.6935 19.1931L16.7692 19.2367L16.8431 19.283L16.9161 19.3302L16.9882 19.3792L17.0594 19.4308L17.1288 19.4833L17.1973 19.5385L17.265 19.5946L17.3308 19.6533L17.3949 19.713L17.459 19.7744L17.5204 19.8385L17.5801 19.9025L17.6388 19.9684L17.6949 20.0361L17.7501 20.1046L17.8026 20.174L17.8542 20.2452L17.9032 20.3173L17.9504 20.3903L17.9967 20.4642L18.0403 20.5399L18.0821 20.6155L18.1222 20.693L18.1604 20.7713L18.196 20.8505L18.2307 20.9297L18.2628 21.0107L18.2931 21.0917L18.3215 21.1736L18.3474 21.2573L18.3714 21.3401L18.3936 21.4246L18.4141 21.5092L18.4328 21.5946L18.4488 21.6801L18.4622 21.7664L18.4746 21.8537L18.4844 21.9409L18.4915 22.0281L18.4969 22.1162L18.5005 22.2044L18.5013 22.2809V31.1935H10.3373L9.44718 32.0837H3.36953V28.5232H1.14337L0.797119 27.6874L7.82006 20.6654V18.7321H14.9525L15.029 18.7329V18.7329ZM9.60027 20.5123V21.4024L4.25963 26.743H5.14974V30.3034H8.71017L9.60027 29.4133H16.7211V22.2925L16.7202 22.248L16.7193 22.2044L16.7158 22.1599L16.7122 22.1162L16.7078 22.0726L16.7015 22.0299L16.6944 21.9863L16.6864 21.9436L16.6775 21.9008L16.6677 21.859L16.6561 21.8163L16.6446 21.7744L16.6312 21.7335L16.617 21.6926L16.6019 21.6516L16.5858 21.6116L16.5689 21.5715L16.5502 21.5314L16.5315 21.4932L16.5111 21.454L16.4906 21.4157L16.4683 21.3783L16.4461 21.341L16.4221 21.3045L16.3971 21.2689L16.3722 21.2333L16.3455 21.1985L16.3179 21.1638L16.2894 21.1309L16.2609 21.098L16.2307 21.065L16.1995 21.0339L16.1684 21.0027L16.1354 20.9725L16.1025 20.944L16.0696 20.9155L16.0349 20.8879L16.0001 20.8612L15.9645 20.8363L15.9289 20.8113L15.8924 20.7873L15.8551 20.7651L15.8177 20.7428L15.7794 20.7223L15.7402 20.7019L15.702 20.6832L15.6619 20.6645L15.6218 20.6476L15.5818 20.6315L15.5408 20.6164L15.4999 20.6022L15.459 20.5888L15.4171 20.5772L15.3753 20.5657L15.3326 20.5559L15.2898 20.547L15.2471 20.539L15.2035 20.5319L15.1608 20.5256L15.1172 20.5212L15.0735 20.5176L15.029 20.514L14.9854 20.5132L14.9409 20.5123H9.60027Z" fill="#929292"/>
<path fill-rule="evenodd" clip-rule="evenodd" d="M22.7042 11.559L22.7434 11.5607L22.7818 11.5649L22.8202 11.5709L22.8586 11.5777L22.8962 11.5871L22.9337 11.5982L22.9704 11.611L23.0062 11.6247L23.0412 11.6409L23.0762 11.6579L23.1103 11.6775L23.1427 11.698L23.1751 11.7202L23.2059 11.7432L23.2357 11.768L23.2647 11.7944L23.292 11.8217L23.3185 11.8507L23.3432 11.8806L23.3663 11.9113L23.3884 11.9437L23.4089 11.9762L23.4285 12.0103L23.4456 12.0453L23.4618 12.0802L23.4755 12.1161L23.4883 12.1528L23.4993 12.1903L23.5087 12.2278L23.5156 12.2662L23.5215 12.3046L23.5258 12.343L23.5275 12.3823L23.5284 12.4206L23.5266 12.4599L23.5241 12.4983L23.519 12.5367L23.5121 12.5751L23.5045 12.6135L23.4942 12.651L23.4823 12.6877L23.4686 12.7244L23.4541 12.7602L23.4371 12.7952L23.4191 12.8293L23.3987 12.8626L23.3773 12.895L23.3552 12.9266L23.3304 12.9573L23.3057 12.9863L23.2784 13.0144L20.8418 15.4511L22.9448 16.1524L22.9815 16.1652L23.0173 16.1797L23.0523 16.1967L23.0873 16.2146L23.1205 16.2334L23.153 16.2547L23.1854 16.2778L23.2152 16.3017L23.2451 16.3264L23.2733 16.3528L23.3006 16.381L23.3262 16.41L23.3509 16.4399L23.3739 16.4714L23.3953 16.5039L23.4157 16.5371L23.4337 16.5713L23.4507 16.6062L23.4661 16.6421L23.4797 16.6779L23.4917 16.7154L23.5028 16.7521L23.5113 16.7905L23.5181 16.8289L23.5232 16.8673L23.5266 16.9057L23.5284 16.9449V16.9833L23.5258 17.0226L23.5224 17.061L23.5173 17.0994L23.5096 17.1378L23.5011 17.1753L23.4908 17.2128L23.478 17.2495L23.4644 17.2862L23.449 17.3212L23.4311 17.3562L23.4132 17.3903L23.3927 17.4236L23.3705 17.4551L23.3475 17.4867L23.3227 17.5166L23.2971 17.5456L23.2698 17.5737L23.2408 17.6002L23.2118 17.6249L23.1811 17.6488L23.1487 17.671L23.1163 17.6915L23.0822 17.7111L23.048 17.729L23.013 17.7452L22.9764 17.7597L22.9397 17.7725L22.903 17.7836L22.8654 17.793L22.8271 17.8007L22.7887 17.8066L22.7503 17.8109L22.711 17.8135L22.6726 17.8143L22.6334 17.8135L22.595 17.8109L22.5566 17.8066L22.5182 17.7998L22.4798 17.7921L22.4423 17.7819L22.4056 17.7708L18.0656 16.3247L17.9683 15.9118L22.072 11.8081L22.1002 11.7808L22.1292 11.756L22.1599 11.7313L22.1915 11.7091L22.2239 11.6878L22.2571 11.6673L22.2913 11.6494L22.3263 11.6323L22.3621 11.6178L22.3988 11.6042L22.4355 11.5922L22.473 11.582L22.5114 11.5743L22.5498 11.5675L22.5882 11.5624L22.6266 11.5598L22.6658 11.5581L22.7042 11.559Z" fill="black"/>
<path fill-rule="evenodd" clip-rule="evenodd" d="M9.07214 11.5598L9.11053 11.5624L9.14892 11.5675L9.18731 11.5743L9.22571 11.582L9.26324 11.5922L9.29993 11.6042L9.33661 11.6178L9.37245 11.6323L9.40743 11.6494L9.44155 11.6673L9.47483 11.6878L9.50725 11.7091L9.53881 11.7313L9.56953 11.756L9.59853 11.7808L9.62669 11.8081L13.7304 15.9118L13.6331 16.3247L9.2931 17.7708L9.25642 17.7819L9.21888 17.7921L9.18049 17.7998L9.1421 17.8066L9.1037 17.8109L9.06531 17.8135L9.02607 17.8143L8.98767 17.8135L8.94843 17.8109L8.91004 17.8066L8.87164 17.8007L8.83325 17.793L8.79571 17.7836L8.75903 17.7725L8.72234 17.7597L8.68566 17.7452L8.65068 17.729L8.61655 17.7111L8.58242 17.6915L8.55 17.671L8.51758 17.6488L8.48687 17.6249L8.45786 17.6002L8.42886 17.5737L8.40155 17.5456L8.37596 17.5166L8.35122 17.4867L8.32818 17.4551L8.306 17.4236L8.28553 17.3903L8.26761 17.3562L8.24969 17.3212L8.23434 17.2862L8.22069 17.2495L8.20789 17.2128L8.19765 17.1753L8.18912 17.1378L8.18144 17.0994L8.17632 17.061L8.17291 17.0226L8.17035 16.9833V16.9449L8.17206 16.9057L8.17547 16.8673L8.18059 16.8289L8.18741 16.7905L8.19594 16.7521L8.20704 16.7154L8.21898 16.6779L8.23263 16.6421L8.24799 16.6062L8.26505 16.5713L8.28297 16.5371L8.30344 16.5039L8.32477 16.4714L8.34781 16.4399L8.37255 16.41L8.39814 16.381L8.42544 16.3528L8.4536 16.3264L8.48346 16.3017L8.51332 16.2778L8.54574 16.2547L8.57816 16.2334L8.61143 16.2146L8.64641 16.1967L8.68139 16.1797L8.71722 16.1652L8.75391 16.1524L10.8569 15.4511L8.42032 13.0144L8.39302 12.9863L8.36828 12.9573L8.34354 12.9266L8.32136 12.895L8.30003 12.8626L8.27955 12.8293L8.26164 12.7952L8.24457 12.7602L8.23007 12.7244L8.21642 12.6877L8.20448 12.651L8.19424 12.6135L8.18656 12.5751L8.17973 12.5367L8.17462 12.4983L8.17206 12.4599L8.17035 12.4206L8.1712 12.3823L8.17291 12.343L8.17717 12.3046L8.18315 12.2662L8.18997 12.2278L8.19936 12.1903L8.21045 12.1528L8.22324 12.1161L8.2369 12.0802L8.25311 12.0453L8.27017 12.0103L8.28979 11.9762L8.31027 11.9437L8.33245 11.9113L8.35548 11.8806L8.38023 11.8507L8.40667 11.8217L8.43397 11.7944L8.46298 11.768L8.49284 11.7432L8.52356 11.7202L8.55598 11.698L8.5884 11.6775L8.62252 11.6579L8.6575 11.6409L8.69248 11.6247L8.72831 11.611L8.765 11.5982L8.80254 11.5871L8.84008 11.5777L8.87847 11.5709L8.91686 11.5649L8.95525 11.5607L8.9945 11.559L9.03289 11.5581L9.07214 11.5598Z" fill="black"/>
</g>
<defs>
<clipPath id="clip0">
<rect width="32" height="32" fill="white"/>
</clipPath>
</defs>
</svg>
