<svg width="32" height="32" viewBox="0 0 32 32" fill="none" xmlns="http://www.w3.org/2000/svg">
<path d="M31.1028 20.9925C31.1028 23.0016 30.5776 24.4276 29.7584 25.467C28.9313 26.5165 27.7418 27.2511 26.2822 27.7577C23.3206 28.7859 19.5103 28.7956 16.0998 28.7956C12.6905 28.7956 8.82725 28.7862 5.81316 27.7563C4.32618 27.2482 3.11166 26.5116 2.26715 25.4605C1.43183 24.4208 0.896749 22.9971 0.896749 20.9925C0.896749 17.2445 1.70404 12.6828 4.00516 9.08874C6.27215 5.54802 10.0181 2.88955 16.0998 2.88955C21.8645 2.88955 25.569 5.55276 27.871 9.1208C30.2022 12.7339 31.1028 17.3007 31.1028 20.9925Z" fill="#FBC546" stroke="black" stroke-width="1.7935"/>
<path fill-rule="evenodd" clip-rule="evenodd" d="M22.4554 13.0227L23.4664 12.1559C23.4894 12.1772 23.5125 12.1994 23.5346 12.2224C24.0943 12.7821 24.4091 13.5406 24.4091 14.3323C24.4091 14.8928 24.4091 15.4798 24.4091 16.0403C24.4091 17.6895 23.0722 19.0264 21.4231 19.0264H21.4214C20.6296 19.0264 19.8712 18.7115 19.3115 18.1519C18.8474 17.6878 18.5513 17.0871 18.4643 16.4439L19.2902 15.7357C19.2902 15.7357 21.2337 14.8476 22.4554 13.0227V13.0227Z" fill="white"/>
<path fill-rule="evenodd" clip-rule="evenodd" d="M22.456 13.0225C22.6164 13.2869 22.7034 13.5924 22.7034 13.9072C22.7034 14.7057 22.7034 15.6545 22.7034 16.4522C22.7034 16.9052 22.5234 17.3386 22.2035 17.6594C21.8835 17.9793 21.4493 18.1585 20.9971 18.1585C20.5449 18.1585 20.1107 17.9793 19.7908 17.6594C19.4708 17.3386 19.2908 16.9052 19.2908 16.4522V15.7355L22.456 13.0225V13.0225Z" fill="black"/>
<path fill-rule="evenodd" clip-rule="evenodd" d="M9.32699 13.0227L8.316 12.1559C8.29211 12.1772 8.26993 12.1994 8.24689 12.2224C7.68722 12.7821 7.37326 13.5406 7.37326 14.3323C7.37326 14.8928 7.37326 15.4798 7.37326 16.0403C7.37326 17.6895 8.71016 19.0264 10.3593 19.0264H10.361C11.1527 19.0264 11.9112 18.7115 12.4709 18.1519C12.935 17.6878 13.231 17.0871 13.3181 16.4439L12.4922 15.7357C12.4922 15.7357 10.5487 14.8476 9.32699 13.0227V13.0227Z" fill="white"/>
<path fill-rule="evenodd" clip-rule="evenodd" d="M9.32701 13.0225C9.16661 13.2869 9.07959 13.5924 9.07959 13.9072C9.07959 14.7057 9.07959 15.6545 9.07959 16.4522C9.07959 16.9052 9.25961 17.3386 9.57954 17.6594C9.89947 17.9793 10.3329 18.1585 10.7859 18.1585C11.2381 18.1585 11.6723 17.9793 11.9923 17.6594C12.3122 17.3386 12.4922 16.9052 12.4922 16.4522V15.7355L9.32701 13.0225V13.0225Z" fill="black"/>
<path d="M28.0982 19.9277H3.78629V31.1318H28.0982V19.9277Z" fill="black"/>
<path d="M18.3772 29.1952C17.8198 28.8941 17.386 28.4724 17.0755 27.931C16.7651 27.3887 16.6099 26.7631 16.6099 26.0553V25.397C16.6099 24.6882 16.7651 24.0636 17.0755 23.5212C17.386 22.9789 17.8198 22.5572 18.3772 22.257C18.9354 21.9559 19.575 21.8054 20.2959 21.8054C21.0038 21.8054 21.6368 21.954 22.195 22.2523C22.7524 22.5497 23.1881 22.9677 23.5013 23.5072C23.8146 24.0458 23.9717 24.6601 23.9717 25.3502V26.0076C23.9717 26.6098 23.8211 27.0689 23.52 27.3849C23.2199 27.7019 22.8402 27.86 22.383 27.86C22.1006 27.86 21.8594 27.8067 21.6583 27.7001C21.4582 27.5935 21.3049 27.4429 21.1983 27.2494C20.9972 27.6561 20.5961 27.86 19.9948 27.86C19.0485 27.86 18.5754 27.2933 18.5754 26.1581V25.3306C18.5754 24.792 18.6857 24.3721 18.9083 24.071C19.1308 23.77 19.4712 23.6203 19.9284 23.6203C20.1547 23.6203 20.3539 23.6634 20.5259 23.7513C20.698 23.8391 20.8252 23.9551 20.9065 24.0991V23.7232H21.9314V26.4031C21.9314 26.6032 21.9734 26.7519 22.0585 26.8491C22.1427 26.9464 22.254 26.995 22.3924 26.995C22.5672 26.995 22.6991 26.9183 22.7869 26.765C22.8748 26.6116 22.9188 26.362 22.9188 26.0169V25.3596C22.9188 24.8266 22.8131 24.3647 22.6037 23.9729C22.3933 23.5811 22.0931 23.2781 21.7013 23.0649C21.3095 22.8517 20.8411 22.7451 20.2959 22.7451C19.474 22.7451 18.8307 22.9808 18.3631 23.4511C17.8965 23.9205 17.6628 24.5629 17.6628 25.3783V26.0459C17.6628 26.578 17.7675 27.0455 17.9779 27.4467C18.1883 27.8478 18.4903 28.1582 18.8849 28.3771C19.2804 28.5968 19.7498 28.7062 20.2959 28.7062C20.6718 28.7062 21.0103 28.6669 21.3105 28.5884C21.6116 28.5108 21.922 28.3901 22.2418 28.2265L22.6551 29.026C22.2914 29.2392 21.922 29.3953 21.5461 29.4963C21.1702 29.5964 20.7532 29.6469 20.2959 29.6469C19.575 29.6469 18.9354 29.4963 18.3772 29.1952V29.1952ZM14.0618 28.9316H13.2249V28.076C12.6676 28.0199 12.2319 27.8338 11.9186 27.5168C11.6054 27.2007 11.4361 26.7725 11.4109 26.2339H12.4918C12.5292 26.5406 12.6405 26.7603 12.8256 26.8922C13.0108 27.0231 13.2941 27.0895 13.6765 27.0895C14.0216 27.0895 14.2834 27.0268 14.462 26.9015C14.6406 26.7762 14.7294 26.5911 14.7294 26.3461C14.7294 26.1273 14.6696 25.958 14.5508 25.8383C14.4321 25.7196 14.2376 25.6448 13.9683 25.613L13.2632 25.5195C12.1281 25.3689 11.5614 24.8238 11.5614 23.8831C11.5614 23.4006 11.7073 23.0069 11.9981 22.703C12.2898 22.3991 12.6985 22.2131 13.2249 22.1439V21.4108H14.0618V22.1345C14.5826 22.1906 14.9894 22.3664 15.2839 22.661C15.5785 22.9555 15.7449 23.3567 15.7823 23.8644H14.6827C14.6574 23.6007 14.5602 23.4071 14.3909 23.2818C14.2217 23.1556 13.9739 23.093 13.6485 23.093C13.3409 23.093 13.1062 23.1547 12.9434 23.2772C12.7807 23.3987 12.6985 23.5727 12.6985 23.7989C12.6985 23.999 12.7658 24.1571 12.9014 24.273C13.036 24.389 13.2539 24.4694 13.5541 24.5133L14.2881 24.6162C15.3466 24.7667 15.8768 25.3156 15.8768 26.2619C15.8768 26.7818 15.7169 27.197 15.3971 27.5074C15.0773 27.8179 14.6322 28.004 14.0618 28.0666V28.9316V28.9316ZM7.35826 28.3677H6.39046L6.64387 26.4499H5.65643V25.5849H6.75701L6.89821 24.5507H5.92012V23.6858H7.01042L7.24606 21.8802H8.21385L7.97915 23.6858H9.03204L9.26675 21.8802H10.2355L10.0008 23.6858H10.9779V24.5507H9.88763L9.75579 25.5849H10.7152V26.4499H9.64358L9.38924 28.3677H8.41115L8.66549 26.4499H7.6126L7.35826 28.3677V28.3677ZM26.1813 28.3677H24.9498V27.1456H26.1813V28.3677ZM20.8878 26.1301V25.3409C20.8878 24.7826 20.6812 24.504 20.2669 24.504C20.0481 24.504 19.8864 24.5769 19.7835 24.7247C19.6797 24.8715 19.6283 25.0744 19.6283 25.3306V26.102C19.6283 26.3844 19.6778 26.6004 19.7788 26.751C19.8789 26.9015 20.0416 26.9763 20.2669 26.9763C20.6812 26.9763 20.8878 26.6939 20.8878 26.1301V26.1301ZM26.0027 26.2058H25.1284L24.9021 21.8802H26.228L26.0027 26.2058ZM8.9189 24.5507H7.86601L7.72481 25.5849H8.77864L8.9189 24.5507V24.5507Z" fill="white"/>
<path d="M19.7285 4.29689C19.7285 4.29689 20.4178 4.98624 21.0816 5.65C21.7479 6.31631 21.7479 7.39641 21.0816 8.06273C20.4178 8.72648 19.7285 9.41583 19.7285 9.41583M29.9663 4.29689C29.9663 4.29689 29.2769 4.98624 28.6132 5.65C27.9468 6.31631 27.9468 7.39641 28.6132 8.06273C29.2769 8.72648 29.9663 9.41583 29.9663 9.41583M22.288 11.122C22.288 11.122 22.9773 10.4327 23.6411 9.76894C24.3074 9.10262 25.3875 9.10262 26.0538 9.76894C26.7175 10.4327 27.4069 11.122 27.4069 11.122M22.288 2.59058C22.288 2.59058 22.9773 3.27993 23.6411 3.94368C24.3074 4.61 25.3875 4.61 26.0538 3.94368C26.7175 3.27993 27.4069 2.59058 27.4069 2.59058" stroke="#FF0000" stroke-width="1.70631" stroke-miterlimit="1.5" stroke-linecap="round"/>
</svg>
