<svg width="32" height="32" viewBox="0 0 32 32" fill="none" xmlns="http://www.w3.org/2000/svg">
<path d="M31.1028 20.9925C31.1028 23.0016 30.5776 24.4276 29.7584 25.467C28.9313 26.5165 27.7418 27.2511 26.2822 27.7577C23.3206 28.7859 19.5103 28.7956 16.0998 28.7956C12.6905 28.7956 8.82725 28.7862 5.81316 27.7563C4.32618 27.2482 3.11166 26.5116 2.26715 25.4605C1.43183 24.4208 0.896749 22.9971 0.896749 20.9925C0.896749 17.2445 1.70404 12.6828 4.00516 9.08874C6.27215 5.54802 10.0181 2.88955 16.0998 2.88955C21.8645 2.88955 25.569 5.55276 27.871 9.1208C30.2022 12.7339 31.1028 17.3007 31.1028 20.9925Z" fill="#FBC546" stroke="black" stroke-width="1.7935"/>
<path fill-rule="evenodd" clip-rule="evenodd" d="M23.5566 22.4405C23.5566 21.0268 22.4108 19.881 20.9971 19.881C18.157 19.881 13.5994 19.881 10.7592 19.881C9.34556 19.881 8.19977 21.0268 8.19977 22.4405C8.19977 23.8541 9.34556 24.9999 10.7592 24.9999C13.5994 24.9999 18.157 24.9999 20.9971 24.9999C22.4108 24.9999 23.5566 23.8541 23.5566 22.4405Z" fill="#7E5108"/>
<path fill-rule="evenodd" clip-rule="evenodd" d="M9.92543 23.9284C10.3904 23.5205 10.971 23.1162 11.5938 23.1162C14.0329 23.1162 17.687 23.1162 20.127 23.1162C20.7737 23.1162 21.3825 23.5333 21.8329 23.9292C21.5864 24.0674 21.3014 24.1468 20.9986 24.1468C18.376 24.1468 13.3833 24.1468 10.7607 24.1468C10.4569 24.1468 10.172 24.0674 9.92543 23.9284ZM9.31287 21.537C9.61488 21.0549 10.1498 20.7341 10.7607 20.7341C13.3833 20.7341 18.376 20.7341 20.9986 20.7341C21.6094 20.7341 22.1444 21.0549 22.4464 21.537C21.7826 22.1069 20.9243 22.4404 20.008 22.4404H11.7512C10.8349 22.4404 9.97662 22.1069 9.31287 21.537Z" fill="white"/>
<path fill-rule="evenodd" clip-rule="evenodd" d="M22.4554 13.0227L23.4664 12.1559C23.4894 12.1772 23.5124 12.1994 23.5346 12.2224C24.0943 12.7821 24.4091 13.5406 24.4091 14.3323C24.4091 14.8928 24.4091 15.4798 24.4091 16.0403C24.4091 17.6895 23.0722 19.0264 21.423 19.0264H21.4213C20.6296 19.0264 19.8712 18.7115 19.3115 18.1519C18.8474 17.6878 18.5513 17.0871 18.4643 16.4439L19.2902 15.7357C19.2902 15.7357 21.2336 14.8476 22.4554 13.0227V13.0227Z" fill="white"/>
<path fill-rule="evenodd" clip-rule="evenodd" d="M22.456 13.0225C22.6164 13.2869 22.7035 13.5924 22.7035 13.9072C22.7035 14.7057 22.7035 15.6545 22.7035 16.4522C22.7035 16.9052 22.5234 17.3386 22.2035 17.6594C21.8836 17.9793 21.4493 18.1585 20.9971 18.1585C20.545 18.1585 20.1107 17.9793 19.7908 17.6594C19.4708 17.3386 19.2908 16.9052 19.2908 16.4522V15.7355L22.456 13.0225V13.0225Z" fill="black"/>
<path fill-rule="evenodd" clip-rule="evenodd" d="M9.32702 13.0227L8.31603 12.1559C8.29214 12.1772 8.26996 12.1994 8.24692 12.2224C7.68725 12.7821 7.37329 13.5406 7.37329 14.3323C7.37329 14.8928 7.37329 15.4798 7.37329 16.0403C7.37329 17.6895 8.71019 19.0264 10.3593 19.0264H10.361C11.1528 19.0264 11.9112 18.7115 12.4709 18.1519C12.935 17.6878 13.2311 17.0871 13.3181 16.4439L12.4922 15.7357C12.4922 15.7357 10.5487 14.8476 9.32702 13.0227V13.0227Z" fill="white"/>
<path fill-rule="evenodd" clip-rule="evenodd" d="M9.32701 13.0225C9.16661 13.2869 9.07959 13.5924 9.07959 13.9072C9.07959 14.7057 9.07959 15.6545 9.07959 16.4522C9.07959 16.9052 9.25961 17.3386 9.57954 17.6594C9.89947 17.9793 10.3329 18.1585 10.7859 18.1585C11.2381 18.1585 11.6723 17.9793 11.9923 17.6594C12.3122 17.3386 12.4922 16.9052 12.4922 16.4522V15.7355L9.32701 13.0225V13.0225Z" fill="black"/>
<path d="M19.7285 4.29689C19.7285 4.29689 20.4178 4.98624 21.0816 5.65C21.7479 6.31631 21.7479 7.39641 21.0816 8.06273C20.4178 8.72648 19.7285 9.41583 19.7285 9.41583M29.9662 4.29689C29.9662 4.29689 29.2769 4.98624 28.6131 5.65C27.9468 6.31631 27.9468 7.39641 28.6131 8.06273C29.2769 8.72648 29.9662 9.41583 29.9662 9.41583M22.2879 11.122C22.2879 11.122 22.9773 10.4327 23.641 9.76894C24.3073 9.10262 25.3874 9.10262 26.0538 9.76894C26.7175 10.4327 27.4069 11.122 27.4069 11.122M22.2879 2.59058C22.2879 2.59058 22.9773 3.27993 23.641 3.94368C24.3073 4.61 25.3874 4.61 26.0538 3.94368C26.7175 3.27993 27.4069 2.59058 27.4069 2.59058" stroke="#FF0000" stroke-width="1.70631" stroke-miterlimit="1.5" stroke-linecap="round"/>
</svg>
