<svg width="32" height="32" viewBox="0 0 32 32" fill="none" xmlns="http://www.w3.org/2000/svg">
<path d="M31.1028 20.9925C31.1028 23.0016 30.5776 24.4276 29.7584 25.467C28.9313 26.5165 27.7418 27.2511 26.2822 27.7577C23.3206 28.7859 19.5103 28.7956 16.0998 28.7956C12.6905 28.7956 8.82725 28.7862 5.81316 27.7563C4.32618 27.2482 3.11166 26.5116 2.26715 25.4605C1.43183 24.4208 0.896749 22.9971 0.896749 20.9925C0.896749 17.2445 1.70404 12.6828 4.00516 9.08874C6.27215 5.54802 10.0181 2.88955 16.0998 2.88955C21.8645 2.88955 25.569 5.55276 27.871 9.1208C30.2022 12.7339 31.1028 17.3007 31.1028 20.9925Z" fill="#77B84C" stroke="black" stroke-width="1.7935"/>
<path fill-rule="evenodd" clip-rule="evenodd" d="M9.98509 23.7295H9.54998C9.25394 23.7295 8.98007 23.5768 8.82395 23.3252C8.66867 23.0735 8.65502 22.7595 8.78726 22.495C8.9997 22.0693 9.24882 21.5702 9.50477 21.0592C10.5166 19.0355 12.5847 17.7574 14.8464 17.7574C15.505 17.7574 16.191 17.7574 16.8496 17.7574C19.1113 17.7574 21.1794 19.0355 22.1912 21.0592C22.4472 21.5702 22.6963 22.0693 22.9087 22.495C23.041 22.7595 23.0273 23.0735 22.872 23.3252C22.7159 23.5768 22.442 23.7295 22.146 23.7295H21.7109C20.81 22.1683 10.886 22.1683 9.98509 23.7295Z" fill="#193804"/>
<path fill-rule="evenodd" clip-rule="evenodd" d="M9.98669 23.7296C10.8876 22.1684 12.5666 21.1702 14.4206 21.1702C15.3505 21.1702 16.3487 21.1702 17.2786 21.1702C19.1325 21.1702 20.8116 22.1684 21.7125 23.7296H9.98669Z" fill="#2F6607"/>
<path fill-rule="evenodd" clip-rule="evenodd" d="M19.2614 22.9075L18.4083 22.0543H13.2893L12.4362 24.1872V26.3201C12.4362 26.3201 12.4362 26.3201 12.4353 26.3201C11.7579 26.3167 11.107 26.5829 10.6266 27.0598C10.1463 27.5376 9.87671 28.1868 9.87671 28.8642C9.87671 29.4245 9.87671 29.4819 9.87671 29.4819C9.87671 29.4819 10.8606 29.6924 15.0455 29.6924C15.4046 29.6944 12.3552 29.6924 16.6397 29.6924C20.9242 29.6924 21.8209 29.5241 21.8209 29.5241C21.8209 29.5241 21.8209 29.5241 21.8209 28.8642C21.8209 28.1868 21.5513 27.5376 21.071 27.0598C20.5907 26.5829 19.9397 26.3167 19.2623 26.3201C19.2614 26.3201 19.2614 26.3201 19.2614 26.3201V22.9075Z" fill="#E8E14F"/>
<path fill-rule="evenodd" clip-rule="evenodd" d="M19.2614 21.1702C19.2614 20.6992 18.8792 20.317 18.4083 20.317C17.097 20.317 14.6006 20.317 13.2893 20.317C13.0632 20.317 12.8457 20.4066 12.6861 20.567C12.5257 20.7265 12.4362 20.9441 12.4362 21.1702C12.4362 21.9849 12.4362 23.2237 12.4362 24.1562C12.4362 24.8626 13.0095 25.436 13.7159 25.436C13.7167 25.436 13.7167 25.436 13.7176 25.436C14.0563 25.436 14.3814 25.3012 14.6211 25.0614C14.8608 24.8217 14.9956 24.4966 14.9956 24.1579C14.9956 23.5172 14.9956 22.8765 14.9956 22.8765H15.8488C15.8488 22.8765 15.8488 24.425 15.8488 25.436C15.8488 25.9069 16.231 26.2891 16.7019 26.2891C17.1729 26.2891 17.5551 25.9069 17.5551 25.436C17.5551 24.425 17.5551 22.8765 17.5551 22.8765H19.2614C19.2614 22.8765 19.2614 21.915 19.2614 21.1702Z" fill="#B0AA35"/>
<path fill-rule="evenodd" clip-rule="evenodd" d="M22.7043 11.3596L22.7435 11.3613L22.7819 11.3656L22.8203 11.3716L22.8587 11.3784L22.8962 11.3878L22.9338 11.3989L22.9705 11.4117L23.0063 11.4253L23.0413 11.4415L23.0762 11.4586L23.1104 11.4782L23.1428 11.4987L23.1752 11.5209L23.2059 11.5439L23.2358 11.5686L23.2648 11.5951L23.2921 11.6224L23.3185 11.6514L23.3433 11.6813L23.3663 11.712L23.3885 11.7444L23.409 11.7768L23.4286 11.8109L23.4457 11.8459L23.4619 11.8809L23.4755 11.9167L23.4883 11.9534L23.4994 11.991L23.5088 12.0285L23.5156 12.0669L23.5216 12.1053L23.5259 12.1437L23.5276 12.1829L23.5284 12.2213L23.5267 12.2606L23.5241 12.2989L23.519 12.3373L23.5122 12.3757L23.5045 12.4141L23.4943 12.4517L23.4823 12.4883L23.4687 12.525L23.4542 12.5609L23.4371 12.5958L23.4192 12.63L23.3987 12.6632L23.3774 12.6957L23.3552 12.7272L23.3305 12.7579L23.3057 12.7869L23.2784 12.8151L20.8418 15.2517L22.9449 15.953L22.9815 15.9658L23.0174 15.9803L23.0524 15.9974L23.0873 16.0153L23.1206 16.0341L23.153 16.0554L23.1854 16.0784L23.2153 16.1023L23.2452 16.1271L23.2733 16.1535L23.3006 16.1817L23.3262 16.2107L23.351 16.2405L23.374 16.2721L23.3953 16.3045L23.4158 16.3378L23.4337 16.3719L23.4508 16.4069L23.4661 16.4427L23.4798 16.4786L23.4917 16.5161L23.5028 16.5528L23.5114 16.5912L23.5182 16.6296L23.5233 16.668L23.5267 16.7064L23.5284 16.7456V16.784L23.5259 16.8232L23.5224 16.8616L23.5173 16.9L23.5096 16.9384L23.5011 16.976L23.4909 17.0135L23.4781 17.0502L23.4644 17.0869L23.4491 17.1218L23.4312 17.1568L23.4132 17.1909L23.3928 17.2242L23.3706 17.2558L23.3475 17.2874L23.3228 17.3172L23.2972 17.3462L23.2699 17.3744L23.2409 17.4008L23.2119 17.4256L23.1812 17.4495L23.1488 17.4716L23.1163 17.4921L23.0822 17.5117L23.0481 17.5297L23.0131 17.5459L22.9764 17.5604L22.9397 17.5732L22.9031 17.5843L22.8655 17.5936L22.8271 17.6013L22.7887 17.6073L22.7503 17.6116L22.7111 17.6141L22.6727 17.615L22.6335 17.6141L22.5951 17.6116L22.5567 17.6073L22.5183 17.6005L22.4799 17.5928L22.4423 17.5825L22.4057 17.5715L18.0656 16.1254L17.9684 15.7124L22.0721 11.6087L22.1002 11.5814L22.1292 11.5567L22.16 11.532L22.1915 11.5098L22.2239 11.4884L22.2572 11.468L22.2913 11.4501L22.3263 11.433L22.3621 11.4185L22.3988 11.4048L22.4355 11.3929L22.4731 11.3827L22.5115 11.375L22.5498 11.3681L22.5882 11.363L22.6266 11.3605L22.6659 11.3588L22.7043 11.3596Z" fill="black"/>
<path fill-rule="evenodd" clip-rule="evenodd" d="M9.0722 11.3605L9.11059 11.363L9.14898 11.3681L9.18737 11.375L9.22577 11.3827L9.2633 11.3929L9.29999 11.4048L9.33668 11.4185L9.37251 11.433L9.40749 11.4501L9.44161 11.468L9.47489 11.4884L9.50731 11.5098L9.53887 11.532L9.56959 11.5567L9.5986 11.5814L9.62675 11.6087L13.7304 15.7124L13.6332 16.1254L9.29317 17.5715L9.25648 17.5825L9.21894 17.5928L9.18055 17.6005L9.14216 17.6073L9.10376 17.6116L9.06537 17.6141L9.02613 17.615L8.98774 17.6141L8.94849 17.6116L8.9101 17.6073L8.87171 17.6013L8.83331 17.5936L8.79577 17.5843L8.75909 17.5732L8.7224 17.5604L8.68572 17.5459L8.65074 17.5297L8.61661 17.5117L8.58248 17.4921L8.55007 17.4716L8.51765 17.4495L8.48693 17.4256L8.45792 17.4008L8.42892 17.3744L8.40162 17.3462L8.37602 17.3172L8.35128 17.2874L8.32824 17.2558L8.30606 17.2242L8.28559 17.1909L8.26767 17.1568L8.24975 17.1218L8.2344 17.0869L8.22075 17.0502L8.20795 17.0135L8.19771 16.976L8.18918 16.9384L8.1815 16.9L8.17638 16.8616L8.17297 16.8232L8.17041 16.784V16.7456L8.17212 16.7064L8.17553 16.668L8.18065 16.6296L8.18747 16.5912L8.19601 16.5528L8.2071 16.5161L8.21904 16.4786L8.23269 16.4427L8.24805 16.4069L8.26511 16.3719L8.28303 16.3378L8.3035 16.3045L8.32483 16.2721L8.34787 16.2405L8.37261 16.2107L8.3982 16.1817L8.4255 16.1535L8.45366 16.1271L8.48352 16.1023L8.51338 16.0784L8.5458 16.0554L8.57822 16.0341L8.61149 16.0153L8.64647 15.9974L8.68145 15.9803L8.71728 15.9658L8.75397 15.953L10.857 15.2517L8.42039 12.8151L8.39308 12.7869L8.36834 12.7579L8.3436 12.7272L8.32142 12.6957L8.30009 12.6632L8.27961 12.63L8.2617 12.5958L8.24463 12.5609L8.23013 12.525L8.21648 12.4883L8.20454 12.4517L8.1943 12.4141L8.18662 12.3757L8.1798 12.3373L8.17468 12.2989L8.17212 12.2606L8.17041 12.2213L8.17126 12.1829L8.17297 12.1437L8.17724 12.1053L8.18321 12.0669L8.19003 12.0285L8.19942 11.991L8.21051 11.9534L8.22331 11.9167L8.23696 11.8809L8.25317 11.8459L8.27023 11.8109L8.28985 11.7768L8.31033 11.7444L8.33251 11.712L8.35555 11.6813L8.38029 11.6514L8.40673 11.6224L8.43404 11.5951L8.46304 11.5686L8.4929 11.5439L8.52362 11.5209L8.55604 11.4987L8.58846 11.4782L8.62258 11.4586L8.65756 11.4415L8.69254 11.4253L8.72837 11.4117L8.76506 11.3989L8.8026 11.3878L8.84014 11.3784L8.87853 11.3716L8.91692 11.3656L8.95531 11.3613L8.99456 11.3596L9.03295 11.3588L9.0722 11.3605Z" fill="black"/>
</svg>
