<svg width="124" height="56" viewBox="0 0 124 56" fill="none" xmlns="http://www.w3.org/2000/svg">
<rect width="114" height="56" rx="8" fill="#982FEE"/>
<path d="M14.3636 35H9.43466V20.4545H14.4631C15.9072 20.4545 17.1477 20.7457 18.1847 21.3281C19.2263 21.9058 20.0265 22.7367 20.5852 23.821C21.1439 24.9053 21.4233 26.2027 21.4233 27.7131C21.4233 29.2282 21.1416 30.5303 20.5781 31.6193C20.0194 32.7083 19.2121 33.544 18.1562 34.1264C17.1051 34.7088 15.8409 35 14.3636 35ZM12.0696 32.7202H14.2358C15.2491 32.7202 16.0942 32.5355 16.7713 32.1662C17.4484 31.7921 17.9574 31.2358 18.2983 30.4972C18.6392 29.7538 18.8097 28.8258 18.8097 27.7131C18.8097 26.6004 18.6392 25.6771 18.2983 24.9432C17.9574 24.2045 17.4531 23.6529 16.7855 23.2884C16.1226 22.919 15.2988 22.7344 14.3139 22.7344H12.0696V32.7202ZM28.5717 35.2131C27.5064 35.2131 26.5831 34.9787 25.8018 34.5099C25.0206 34.0412 24.4145 33.3854 23.9837 32.5426C23.5575 31.6998 23.3445 30.715 23.3445 29.5881C23.3445 28.4612 23.5575 27.474 23.9837 26.6264C24.4145 25.7789 25.0206 25.1207 25.8018 24.652C26.5831 24.1832 27.5064 23.9489 28.5717 23.9489C29.6371 23.9489 30.5604 24.1832 31.3416 24.652C32.1229 25.1207 32.7266 25.7789 33.1527 26.6264C33.5836 27.474 33.799 28.4612 33.799 29.5881C33.799 30.715 33.5836 31.6998 33.1527 32.5426C32.7266 33.3854 32.1229 34.0412 31.3416 34.5099C30.5604 34.9787 29.6371 35.2131 28.5717 35.2131ZM28.5859 33.1534C29.1636 33.1534 29.6465 32.9948 30.0348 32.6776C30.4231 32.3556 30.7119 31.9247 30.9013 31.3849C31.0954 30.8452 31.1925 30.2438 31.1925 29.581C31.1925 28.9134 31.0954 28.3097 30.9013 27.7699C30.7119 27.2254 30.4231 26.7921 30.0348 26.4702C29.6465 26.1482 29.1636 25.9872 28.5859 25.9872C27.9941 25.9872 27.5017 26.1482 27.1087 26.4702C26.7204 26.7921 26.4292 27.2254 26.2351 27.7699C26.0457 28.3097 25.951 28.9134 25.951 29.581C25.951 30.2438 26.0457 30.8452 26.2351 31.3849C26.4292 31.9247 26.7204 32.3556 27.1087 32.6776C27.5017 32.9948 27.9941 33.1534 28.5859 33.1534ZM37.9201 35L34.8377 24.0909H37.4585L39.3761 31.7614H39.4755L41.4357 24.0909H44.0281L45.9883 31.7188H46.0948L47.984 24.0909H50.6119L47.5224 35H44.8448L42.7994 27.6278H42.6502L40.6048 35H37.9201ZM54.978 28.608V35H52.407V24.0909H54.8643V25.9446H54.9922C55.2431 25.3338 55.6432 24.8485 56.1925 24.4886C56.7464 24.1288 57.4306 23.9489 58.245 23.9489C58.9979 23.9489 59.6536 24.1098 60.2124 24.4318C60.7758 24.7538 61.2114 25.2202 61.5192 25.831C61.8317 26.4418 61.9856 27.1828 61.9808 28.054V35H59.4098V28.4517C59.4098 27.7225 59.2204 27.152 58.8416 26.7401C58.4676 26.3281 57.9491 26.1222 57.2862 26.1222C56.8364 26.1222 56.4363 26.2216 56.0859 26.4205C55.7403 26.6146 55.468 26.8963 55.2692 27.2656C55.075 27.6349 54.978 28.0824 54.978 28.608ZM67.1655 20.4545V35H64.5945V20.4545H67.1655ZM74.5678 35.2131C73.5025 35.2131 72.5792 34.9787 71.7979 34.5099C71.0167 34.0412 70.4106 33.3854 69.9798 32.5426C69.5536 31.6998 69.3406 30.715 69.3406 29.5881C69.3406 28.4612 69.5536 27.474 69.9798 26.6264C70.4106 25.7789 71.0167 25.1207 71.7979 24.652C72.5792 24.1832 73.5025 23.9489 74.5678 23.9489C75.6332 23.9489 76.5565 24.1832 77.3377 24.652C78.119 25.1207 78.7227 25.7789 79.1488 26.6264C79.5797 27.474 79.7951 28.4612 79.7951 29.5881C79.7951 30.715 79.5797 31.6998 79.1488 32.5426C78.7227 33.3854 78.119 34.0412 77.3377 34.5099C76.5565 34.9787 75.6332 35.2131 74.5678 35.2131ZM74.582 33.1534C75.1597 33.1534 75.6426 32.9948 76.0309 32.6776C76.4192 32.3556 76.708 31.9247 76.8974 31.3849C77.0915 30.8452 77.1886 30.2438 77.1886 29.581C77.1886 28.9134 77.0915 28.3097 76.8974 27.7699C76.708 27.2254 76.4192 26.7921 76.0309 26.4702C75.6426 26.1482 75.1597 25.9872 74.582 25.9872C73.9902 25.9872 73.4978 26.1482 73.1048 26.4702C72.7165 26.7921 72.4253 27.2254 72.2312 27.7699C72.0418 28.3097 71.9471 28.9134 71.9471 29.581C71.9471 30.2438 72.0418 30.8452 72.2312 31.3849C72.4253 31.9247 72.7165 32.3556 73.1048 32.6776C73.4978 32.9948 73.9902 33.1534 74.582 33.1534ZM85.1165 35.2202C84.4252 35.2202 83.8026 35.0971 83.2486 34.8509C82.6993 34.5999 82.2637 34.2306 81.9418 33.7429C81.6245 33.2552 81.4659 32.6539 81.4659 31.9389C81.4659 31.3234 81.5795 30.8144 81.8068 30.4119C82.0341 30.0095 82.3442 29.6875 82.7372 29.446C83.1302 29.2045 83.5729 29.0223 84.0653 28.8991C84.5625 28.7713 85.0762 28.679 85.6065 28.6222C86.2457 28.5559 86.7642 28.4967 87.1619 28.4446C87.5597 28.3878 87.8485 28.3026 88.0284 28.1889C88.2131 28.0705 88.3054 27.8883 88.3054 27.642V27.5994C88.3054 27.0644 88.1468 26.6501 87.8295 26.3565C87.5123 26.063 87.0554 25.9162 86.4588 25.9162C85.8291 25.9162 85.3295 26.0535 84.9602 26.3281C84.5956 26.6027 84.3494 26.9271 84.2216 27.3011L81.821 26.9602C82.0104 26.2973 82.3229 25.7434 82.7585 25.2983C83.1941 24.8485 83.7268 24.5123 84.3565 24.2898C84.9863 24.0625 85.6823 23.9489 86.4446 23.9489C86.9702 23.9489 87.4934 24.0104 88.0142 24.1335C88.535 24.2566 89.0109 24.4602 89.4418 24.7443C89.8726 25.0237 90.2183 25.4048 90.4787 25.8878C90.7438 26.3707 90.8764 26.9744 90.8764 27.6989V35H88.4048V33.5014H88.3196C88.1634 33.8045 87.9432 34.0885 87.6591 34.3537C87.3797 34.6141 87.027 34.8248 86.6009 34.9858C86.1795 35.142 85.6847 35.2202 85.1165 35.2202ZM85.7841 33.331C86.3002 33.331 86.7476 33.2292 87.1264 33.0256C87.5052 32.8172 87.7964 32.5426 88 32.2017C88.2083 31.8608 88.3125 31.4891 88.3125 31.0866V29.8011C88.232 29.8674 88.0947 29.929 87.9006 29.9858C87.7112 30.0426 87.4981 30.0923 87.2614 30.1349C87.0246 30.1776 86.7902 30.2154 86.5582 30.2486C86.3262 30.2817 86.125 30.3101 85.9545 30.3338C85.571 30.3859 85.2277 30.4711 84.9247 30.5895C84.6217 30.7079 84.3826 30.8736 84.2074 31.0866C84.0322 31.295 83.9446 31.5649 83.9446 31.8963C83.9446 32.3698 84.1174 32.7273 84.4631 32.9688C84.8087 33.2102 85.2491 33.331 85.7841 33.331ZM97.5099 35.1918C96.6529 35.1918 95.8859 34.9716 95.2088 34.5312C94.5317 34.0909 93.9967 33.4517 93.6037 32.6136C93.2107 31.7756 93.0142 30.7576 93.0142 29.5597C93.0142 28.3475 93.2131 27.3248 93.6108 26.4915C94.0133 25.6534 94.5554 25.0213 95.2372 24.5952C95.919 24.1643 96.679 23.9489 97.517 23.9489C98.1563 23.9489 98.6818 24.0578 99.0938 24.2756C99.5057 24.4886 99.8324 24.7467 100.074 25.0497C100.315 25.348 100.502 25.6297 100.635 25.8949H100.741V20.4545H103.32V35H100.791V33.2812H100.635C100.502 33.5464 100.311 33.8281 100.06 34.1264C99.8087 34.42 99.4773 34.6709 99.0653 34.8793C98.6534 35.0876 98.1349 35.1918 97.5099 35.1918ZM98.2273 33.0824C98.7718 33.0824 99.2358 32.9356 99.6193 32.642C100.003 32.3437 100.294 31.9295 100.493 31.3991C100.692 30.8688 100.791 30.2509 100.791 29.5455C100.791 28.84 100.692 28.2268 100.493 27.706C100.299 27.1851 100.01 26.7803 99.6264 26.4915C99.2476 26.2027 98.7813 26.0582 98.2273 26.0582C97.6544 26.0582 97.1761 26.2074 96.7926 26.5057C96.4091 26.804 96.1203 27.2159 95.9261 27.7415C95.732 28.267 95.6349 28.8684 95.6349 29.5455C95.6349 30.2273 95.732 30.8357 95.9261 31.3707C96.125 31.901 96.4162 32.3201 96.7997 32.6278C97.188 32.9309 97.6638 33.0824 98.2273 33.0824Z" fill="white"/>
</svg>
