<svg width="114" height="55" viewBox="0 0 114 55" fill="none" xmlns="http://www.w3.org/2000/svg">
<rect width="114" height="55" rx="8" fill="#7BB7B0"/>
<path d="M10.4347 35V20.4545H15.8892C17.0066 20.4545 17.9441 20.6629 18.7017 21.0795C19.464 21.4962 20.0393 22.0691 20.4276 22.7983C20.8205 23.5227 21.017 24.3466 21.017 25.2699C21.017 26.2027 20.8205 27.0312 20.4276 27.7557C20.0346 28.4801 19.4545 29.0507 18.6875 29.4673C17.9205 29.8793 16.9759 30.0852 15.8537 30.0852H12.2386V27.919H15.4986C16.152 27.919 16.687 27.8054 17.1037 27.5781C17.5204 27.3509 17.8281 27.0384 18.027 26.6406C18.2306 26.2429 18.3324 25.786 18.3324 25.2699C18.3324 24.7538 18.2306 24.2992 18.027 23.9062C17.8281 23.5133 17.518 23.2079 17.0966 22.9901C16.6799 22.7675 16.1425 22.6562 15.4844 22.6562H13.0696V35H10.4347ZM35.2589 20.4545V35H32.9151L26.0614 25.0923H25.9407V35H23.3058V20.4545H25.6637L32.5103 30.3693H32.6381V20.4545H35.2589ZM47.8743 25.0994C47.7559 24.7159 47.5926 24.3726 47.3842 24.0696C47.1806 23.7618 46.9344 23.4991 46.6456 23.2812C46.3615 23.0634 46.0348 22.9001 45.6655 22.7912C45.2962 22.6776 44.8937 22.6207 44.4581 22.6207C43.6768 22.6207 42.9808 22.8172 42.37 23.2102C41.7592 23.6032 41.2786 24.1809 40.9283 24.9432C40.5826 25.7008 40.4098 26.6241 40.4098 27.7131C40.4098 28.8116 40.5826 29.742 40.9283 30.5043C41.2739 31.2666 41.7545 31.8466 42.37 32.2443C42.9856 32.6373 43.7005 32.8338 44.5149 32.8338C45.2536 32.8338 45.8928 32.6918 46.4325 32.4077C46.977 32.1236 47.3961 31.7211 47.6896 31.2003C47.9832 30.6747 48.13 30.0592 48.13 29.3537L48.7266 29.446H44.7777V27.3864H50.6797V29.1335C50.6797 30.3788 50.4145 31.456 49.8842 32.3651C49.3539 33.2741 48.6248 33.9749 47.6967 34.4673C46.7687 34.955 45.7034 35.1989 44.5007 35.1989C43.1607 35.1989 41.9841 34.8982 40.9709 34.2969C39.9624 33.6908 39.174 32.8314 38.6058 31.7188C38.0424 30.6013 37.7607 29.2756 37.7607 27.7415C37.7607 26.5672 37.9264 25.5185 38.2578 24.5952C38.594 23.6719 39.0627 22.8883 39.6641 22.2443C40.2654 21.5956 40.9709 21.1032 41.7805 20.767C42.5902 20.4261 43.4709 20.2557 44.4226 20.2557C45.2275 20.2557 45.978 20.3741 46.674 20.6108C47.37 20.8428 47.9879 21.1742 48.5277 21.6051C49.0722 22.036 49.5196 22.5473 49.87 23.1392C50.2204 23.7311 50.45 24.3845 50.5589 25.0994H47.8743ZM60.1772 24.0909L62.3789 28.1179L64.6161 24.0909H67.3363L64.0479 29.5455L67.3931 35H64.6871L62.3789 31.0724L60.092 35H57.3647L60.6886 29.5455L57.4499 24.0909H60.1772ZM75.2127 20.4545V35H72.5778V23.0185H72.4925L69.0906 25.1918V22.777L72.7056 20.4545H75.2127ZM78.9059 35V33.0966L83.9556 28.1463C84.4386 27.6586 84.841 27.2254 85.163 26.8466C85.485 26.4678 85.7264 26.1009 85.8874 25.7457C86.0484 25.3906 86.1289 25.0118 86.1289 24.6094C86.1289 24.1501 86.0247 23.7571 85.8164 23.4304C85.6081 23.099 85.3216 22.8433 84.957 22.6634C84.5924 22.4834 84.1781 22.3935 83.7141 22.3935C83.2359 22.3935 82.8169 22.4929 82.457 22.6918C82.0972 22.8859 81.8178 23.1629 81.619 23.5227C81.4248 23.8826 81.3278 24.3111 81.3278 24.8082H78.8207C78.8207 23.8849 79.0314 23.0824 79.4528 22.4006C79.8742 21.7187 80.4542 21.1908 81.1928 20.8168C81.9362 20.4427 82.7885 20.2557 83.7496 20.2557C84.725 20.2557 85.582 20.438 86.3207 20.8026C87.0593 21.1671 87.6322 21.6667 88.0394 22.3011C88.4513 22.9356 88.6573 23.66 88.6573 24.4744C88.6573 25.0189 88.5531 25.554 88.3448 26.0795C88.1365 26.6051 87.7695 27.1875 87.244 27.8267C86.7231 28.4659 85.9916 29.2401 85.0494 30.1491L82.5423 32.6989V32.7983H88.8775V35H78.9059ZM96.4982 35.1989C95.4424 35.1989 94.5049 35.0213 93.6857 34.6662C92.8713 34.3111 92.2321 33.8258 91.7681 33.2102C91.3088 32.59 91.0816 31.8868 91.0863 31.1009C91.0816 30.4901 91.2141 29.929 91.484 29.4176C91.7539 28.9062 92.1185 28.4801 92.5778 28.1392C93.0418 27.7936 93.5579 27.5734 94.1261 27.4787V27.3793C93.378 27.2135 92.7719 26.8324 92.3079 26.2358C91.8486 25.6345 91.6213 24.9408 91.6261 24.1548C91.6213 23.4067 91.8297 22.7391 92.2511 22.152C92.6725 21.5649 93.2501 21.1032 93.984 20.767C94.7179 20.4261 95.556 20.2557 96.4982 20.2557C97.431 20.2557 98.262 20.4261 98.9911 20.767C99.725 21.1032 100.303 21.5649 100.724 22.152C101.15 22.7391 101.363 23.4067 101.363 24.1548C101.363 24.9408 101.129 25.6345 100.66 26.2358C100.196 26.8324 99.5972 27.2135 98.8633 27.3793V27.4787C99.4315 27.5734 99.9428 27.7936 100.397 28.1392C100.857 28.4801 101.221 28.9062 101.491 29.4176C101.766 29.929 101.903 30.4901 101.903 31.1009C101.903 31.8868 101.671 32.59 101.207 33.2102C100.743 33.8258 100.104 34.3111 99.2894 34.6662C98.4798 35.0213 97.5494 35.1989 96.4982 35.1989ZM96.4982 33.1676C97.0427 33.1676 97.5162 33.0753 97.9187 32.8906C98.3211 32.7012 98.6336 32.4361 98.8562 32.0952C99.0787 31.7543 99.1924 31.3613 99.1971 30.9162C99.1924 30.4522 99.0716 30.0426 98.8349 29.6875C98.6029 29.3277 98.2833 29.0459 97.8761 28.8423C97.4736 28.6387 97.0143 28.5369 96.4982 28.5369C95.9774 28.5369 95.5134 28.6387 95.1062 28.8423C94.699 29.0459 94.377 29.3277 94.1403 29.6875C93.9083 30.0426 93.7946 30.4522 93.7994 30.9162C93.7946 31.3613 93.9035 31.7543 94.1261 32.0952C94.3486 32.4313 94.6611 32.6941 95.0636 32.8835C95.4708 33.0729 95.949 33.1676 96.4982 33.1676ZM96.4982 26.5412C96.9433 26.5412 97.3363 26.4512 97.6772 26.2713C98.0228 26.0914 98.2951 25.8404 98.494 25.5185C98.6928 25.1965 98.7946 24.8248 98.7994 24.4034C98.7946 23.9867 98.6952 23.6222 98.5011 23.3097C98.3069 22.9924 98.0371 22.7486 97.6914 22.5781C97.3458 22.4029 96.948 22.3153 96.4982 22.3153C96.0389 22.3153 95.6341 22.4029 95.2837 22.5781C94.9381 22.7486 94.6682 22.9924 94.4741 23.3097C94.2847 23.6222 94.1924 23.9867 94.1971 24.4034C94.1924 24.8248 94.2871 25.1965 94.4812 25.5185C94.68 25.8357 94.9523 26.0866 95.2979 26.2713C95.6483 26.4512 96.0484 26.5412 96.4982 26.5412Z" fill="white"/>
</svg>
