<svg width="114" height="55" viewBox="0 0 114 55" fill="none" xmlns="http://www.w3.org/2000/svg">
<rect width="114" height="55" rx="8" fill="#7BB7B0"/>
<path d="M10.4347 35V20.4545H15.8892C17.0066 20.4545 17.9441 20.6629 18.7017 21.0795C19.464 21.4962 20.0393 22.0691 20.4276 22.7983C20.8205 23.5227 21.017 24.3466 21.017 25.2699C21.017 26.2027 20.8205 27.0312 20.4276 27.7557C20.0346 28.4801 19.4545 29.0507 18.6875 29.4673C17.9205 29.8793 16.9759 30.0852 15.8537 30.0852H12.2386V27.919H15.4986C16.152 27.919 16.687 27.8054 17.1037 27.5781C17.5204 27.3509 17.8281 27.0384 18.027 26.6406C18.2306 26.2429 18.3324 25.786 18.3324 25.2699C18.3324 24.7538 18.2306 24.2992 18.027 23.9062C17.8281 23.5133 17.518 23.2079 17.0966 22.9901C16.6799 22.7675 16.1425 22.6562 15.4844 22.6562H13.0696V35H10.4347ZM35.2589 20.4545V35H32.9151L26.0614 25.0923H25.9407V35H23.3058V20.4545H25.6637L32.5103 30.3693H32.6381V20.4545H35.2589ZM47.8743 25.0994C47.7559 24.7159 47.5926 24.3726 47.3842 24.0696C47.1806 23.7618 46.9344 23.4991 46.6456 23.2812C46.3615 23.0634 46.0348 22.9001 45.6655 22.7912C45.2962 22.6776 44.8937 22.6207 44.4581 22.6207C43.6768 22.6207 42.9808 22.8172 42.37 23.2102C41.7592 23.6032 41.2786 24.1809 40.9283 24.9432C40.5826 25.7008 40.4098 26.6241 40.4098 27.7131C40.4098 28.8116 40.5826 29.742 40.9283 30.5043C41.2739 31.2666 41.7545 31.8466 42.37 32.2443C42.9856 32.6373 43.7005 32.8338 44.5149 32.8338C45.2536 32.8338 45.8928 32.6918 46.4325 32.4077C46.977 32.1236 47.3961 31.7211 47.6896 31.2003C47.9832 30.6747 48.13 30.0592 48.13 29.3537L48.7266 29.446H44.7777V27.3864H50.6797V29.1335C50.6797 30.3788 50.4145 31.456 49.8842 32.3651C49.3539 33.2741 48.6248 33.9749 47.6967 34.4673C46.7687 34.955 45.7034 35.1989 44.5007 35.1989C43.1607 35.1989 41.9841 34.8982 40.9709 34.2969C39.9624 33.6908 39.174 32.8314 38.6058 31.7188C38.0424 30.6013 37.7607 29.2756 37.7607 27.7415C37.7607 26.5672 37.9264 25.5185 38.2578 24.5952C38.594 23.6719 39.0627 22.8883 39.6641 22.2443C40.2654 21.5956 40.9709 21.1032 41.7805 20.767C42.5902 20.4261 43.4709 20.2557 44.4226 20.2557C45.2275 20.2557 45.978 20.3741 46.674 20.6108C47.37 20.8428 47.9879 21.1742 48.5277 21.6051C49.0722 22.036 49.5196 22.5473 49.87 23.1392C50.2204 23.7311 50.45 24.3845 50.5589 25.0994H47.8743ZM60.1772 24.0909L62.3789 28.1179L64.6161 24.0909H67.3363L64.0479 29.5455L67.3931 35H64.6871L62.3789 31.0724L60.092 35H57.3647L60.6886 29.5455L57.4499 24.0909H60.1772ZM74.3533 35.1989C73.4064 35.1989 72.5588 35.0213 71.8107 34.6662C71.0626 34.3063 70.4684 33.8139 70.0281 33.1889C69.5924 32.5639 69.3604 31.849 69.332 31.044H71.8888C71.9362 31.6406 72.1942 32.1283 72.663 32.5071C73.1317 32.8812 73.6952 33.0682 74.3533 33.0682C74.8694 33.0682 75.3287 32.9498 75.7312 32.7131C76.1336 32.4763 76.4509 32.1473 76.6829 31.7259C76.9149 31.3045 77.0285 30.8239 77.0238 30.2841C77.0285 29.7348 76.9125 29.2472 76.6758 28.821C76.439 28.3949 76.1147 28.0611 75.7028 27.8196C75.2908 27.5734 74.8174 27.4503 74.2823 27.4503C73.8467 27.4455 73.4182 27.526 72.9968 27.6918C72.5754 27.8575 72.2416 28.0753 71.9954 28.3452L69.6161 27.9545L70.3761 20.4545H78.8136V22.6562H72.5565L72.1374 26.5128H72.2227C72.4925 26.1955 72.8737 25.9328 73.3661 25.7244C73.8585 25.5114 74.3983 25.4048 74.9854 25.4048C75.8661 25.4048 76.6521 25.6132 77.3434 26.0298C78.0347 26.4418 78.5792 27.0099 78.9769 27.7344C79.3746 28.4588 79.5735 29.2874 79.5735 30.2202C79.5735 31.1813 79.351 32.0384 78.9059 32.7912C78.4656 33.5393 77.8524 34.1288 77.0664 34.5597C76.2852 34.9858 75.3808 35.1989 74.3533 35.1989ZM87.869 20.4545V35H85.234V23.0185H85.1488L81.7468 25.1918V22.777L85.3619 20.4545H87.869ZM91.5621 35V33.0966L96.6119 28.1463C97.0948 27.6586 97.4973 27.2254 97.8192 26.8466C98.1412 26.4678 98.3827 26.1009 98.5437 25.7457C98.7047 25.3906 98.7852 25.0118 98.7852 24.6094C98.7852 24.1501 98.681 23.7571 98.4727 23.4304C98.2643 23.099 97.9779 22.8433 97.6133 22.6634C97.2487 22.4834 96.8344 22.3935 96.3704 22.3935C95.8922 22.3935 95.4731 22.4929 95.1133 22.6918C94.7534 22.8859 94.4741 23.1629 94.2752 23.5227C94.0811 23.8826 93.984 24.3111 93.984 24.8082H91.4769C91.4769 23.8849 91.6876 23.0824 92.109 22.4006C92.5304 21.7187 93.1104 21.1908 93.8491 20.8168C94.5924 20.4427 95.4447 20.2557 96.4059 20.2557C97.3813 20.2557 98.2383 20.438 98.9769 20.8026C99.7156 21.1671 100.288 21.6667 100.696 22.3011C101.108 22.9356 101.314 23.66 101.314 24.4744C101.314 25.0189 101.209 25.554 101.001 26.0795C100.793 26.6051 100.426 27.1875 99.9002 27.8267C99.3794 28.4659 98.6478 29.2401 97.7056 30.1491L95.1985 32.6989V32.7983H101.534V35H91.5621Z" fill="white"/>
</svg>
