<svg width="114" height="55" viewBox="0 0 114 55" fill="none" xmlns="http://www.w3.org/2000/svg">
<rect width="114" height="55" rx="8" fill="#7BB7B0"/>
<path d="M14.4347 35V20.4545H19.8892C21.0066 20.4545 21.9441 20.6629 22.7017 21.0795C23.464 21.4962 24.0393 22.0691 24.4276 22.7983C24.8205 23.5227 25.017 24.3466 25.017 25.2699C25.017 26.2027 24.8205 27.0312 24.4276 27.7557C24.0346 28.4801 23.4545 29.0507 22.6875 29.4673C21.9205 29.8793 20.9759 30.0852 19.8537 30.0852H16.2386V27.919H19.4986C20.152 27.919 20.687 27.8054 21.1037 27.5781C21.5204 27.3509 21.8281 27.0384 22.027 26.6406C22.2306 26.2429 22.3324 25.786 22.3324 25.2699C22.3324 24.7538 22.2306 24.2992 22.027 23.9062C21.8281 23.5133 21.518 23.2079 21.0966 22.9901C20.6799 22.7675 20.1425 22.6562 19.4844 22.6562H17.0696V35H14.4347ZM39.2589 20.4545V35H36.9151L30.0614 25.0923H29.9407V35H27.3058V20.4545H29.6637L36.5103 30.3693H36.6381V20.4545H39.2589ZM51.8743 25.0994C51.7559 24.7159 51.5926 24.3726 51.3842 24.0696C51.1806 23.7618 50.9344 23.4991 50.6456 23.2812C50.3615 23.0634 50.0348 22.9001 49.6655 22.7912C49.2962 22.6776 48.8937 22.6207 48.4581 22.6207C47.6768 22.6207 46.9808 22.8172 46.37 23.2102C45.7592 23.6032 45.2786 24.1809 44.9283 24.9432C44.5826 25.7008 44.4098 26.6241 44.4098 27.7131C44.4098 28.8116 44.5826 29.742 44.9283 30.5043C45.2739 31.2666 45.7545 31.8466 46.37 32.2443C46.9856 32.6373 47.7005 32.8338 48.5149 32.8338C49.2536 32.8338 49.8928 32.6918 50.4325 32.4077C50.977 32.1236 51.3961 31.7211 51.6896 31.2003C51.9832 30.6747 52.13 30.0592 52.13 29.3537L52.7266 29.446H48.7777V27.3864H54.6797V29.1335C54.6797 30.3788 54.4145 31.456 53.8842 32.3651C53.3539 33.2741 52.6248 33.9749 51.6967 34.4673C50.7687 34.955 49.7034 35.1989 48.5007 35.1989C47.1607 35.1989 45.9841 34.8982 44.9709 34.2969C43.9624 33.6908 43.174 32.8314 42.6058 31.7188C42.0424 30.6013 41.7607 29.2756 41.7607 27.7415C41.7607 26.5672 41.9264 25.5185 42.2578 24.5952C42.594 23.6719 43.0627 22.8883 43.6641 22.2443C44.2654 21.5956 44.9709 21.1032 45.7805 20.767C46.5902 20.4261 47.4709 20.2557 48.4226 20.2557C49.2275 20.2557 49.978 20.3741 50.674 20.6108C51.37 20.8428 51.9879 21.1742 52.5277 21.6051C53.0722 22.036 53.5196 22.5473 53.87 23.1392C54.2204 23.7311 54.45 24.3845 54.5589 25.0994H51.8743ZM64.1772 24.0909L66.3789 28.1179L68.6161 24.0909H71.3363L68.0479 29.5455L71.3931 35H68.6871L66.3789 31.0724L64.092 35H61.3647L64.6886 29.5455L61.4499 24.0909H64.1772ZM78.5167 35.1989C77.494 35.1989 76.5849 35.0237 75.7894 34.6733C74.9987 34.3229 74.3737 33.8352 73.9144 33.2102C73.4551 32.5852 73.2113 31.8632 73.1829 31.044H75.8533C75.877 31.437 76.0072 31.7803 76.244 32.0739C76.4807 32.3627 76.7956 32.5876 77.1886 32.7486C77.5816 32.9096 78.0219 32.9901 78.5096 32.9901C79.0304 32.9901 79.4921 32.9001 79.8945 32.7202C80.297 32.5355 80.6119 32.2798 80.8391 31.9531C81.0664 31.6264 81.1777 31.25 81.1729 30.8239C81.1777 30.3835 81.064 29.9953 80.832 29.6591C80.6 29.3229 80.2638 29.0601 79.8235 28.8707C79.3879 28.6813 78.8623 28.5866 78.2468 28.5866H76.9613V26.5554H78.2468C78.7534 26.5554 79.1961 26.4678 79.5749 26.2926C79.9585 26.1174 80.2591 25.8712 80.4769 25.554C80.6947 25.232 80.8013 24.8603 80.7965 24.4389C80.8013 24.027 80.7089 23.6695 80.5195 23.3665C80.3349 23.0587 80.0721 22.8196 79.7312 22.6491C79.395 22.4787 78.9996 22.3935 78.5451 22.3935C78.1 22.3935 77.6881 22.474 77.3093 22.6349C76.9305 22.7959 76.6251 23.0256 76.3931 23.3239C76.1611 23.6174 76.038 23.9678 76.0238 24.375H73.4883C73.5072 23.5606 73.7416 22.8456 74.1914 22.2301C74.646 21.6098 75.252 21.1269 76.0096 20.7812C76.7672 20.4309 77.6171 20.2557 78.5593 20.2557C79.5299 20.2557 80.3728 20.438 81.0877 20.8026C81.8074 21.1624 82.3638 21.6477 82.7567 22.2585C83.1497 22.8693 83.3462 23.544 83.3462 24.2827C83.351 25.1018 83.1095 25.7884 82.6218 26.3423C82.1388 26.8963 81.5044 27.2585 80.7184 27.429V27.5426C81.7411 27.6847 82.5247 28.0634 83.0692 28.679C83.6185 29.2898 83.8907 30.0497 83.886 30.9588C83.886 31.7732 83.654 32.5024 83.19 33.1463C82.7307 33.7855 82.0962 34.2874 81.2866 34.652C80.4817 35.0166 79.5584 35.1989 78.5167 35.1989ZM86.3239 35V33.0966L91.3736 28.1463C91.8565 27.6586 92.259 27.2254 92.581 26.8466C92.9029 26.4678 93.1444 26.1009 93.3054 25.7457C93.4664 25.3906 93.5469 25.0118 93.5469 24.6094C93.5469 24.1501 93.4427 23.7571 93.2344 23.4304C93.026 23.099 92.7396 22.8433 92.375 22.6634C92.0104 22.4834 91.5961 22.3935 91.1321 22.3935C90.6539 22.3935 90.2348 22.4929 89.875 22.6918C89.5152 22.8859 89.2358 23.1629 89.0369 23.5227C88.8428 23.8826 88.7457 24.3111 88.7457 24.8082H86.2386C86.2386 23.8849 86.4493 23.0824 86.8707 22.4006C87.2921 21.7187 87.8722 21.1908 88.6108 20.8168C89.3542 20.4427 90.2064 20.2557 91.1676 20.2557C92.143 20.2557 93 20.438 93.7386 20.8026C94.4773 21.1671 95.0502 21.6667 95.4574 22.3011C95.8693 22.9356 96.0753 23.66 96.0753 24.4744C96.0753 25.0189 95.9711 25.554 95.7628 26.0795C95.5545 26.6051 95.1875 27.1875 94.6619 27.8267C94.1411 28.4659 93.4096 29.2401 92.4673 30.1491L89.9602 32.6989V32.7983H96.2955V35H86.3239Z" fill="white"/>
</svg>
