<svg width="128" height="55" viewBox="0 0 128 55" fill="none" xmlns="http://www.w3.org/2000/svg">
<rect width="128" height="55" rx="8" fill="#717CDA"/>
<path d="M14.4957 33L10.3906 18.4545H13.2244L15.8452 29.1435H15.9801L18.7784 18.4545H21.3565L24.1619 29.1506H24.2898L26.9105 18.4545H29.7443L25.6392 33H23.0398L20.1278 22.794H20.0142L17.0952 33H14.4957ZM35.174 33.2131C34.0803 33.2131 33.1357 32.9858 32.3402 32.5312C31.5495 32.072 30.9411 31.4233 30.5149 30.5852C30.0888 29.7424 29.8757 28.7505 29.8757 27.6094C29.8757 26.4872 30.0888 25.5024 30.5149 24.6548C30.9458 23.8026 31.5471 23.1397 32.3189 22.6662C33.0907 22.188 33.9974 21.9489 35.0391 21.9489C35.7114 21.9489 36.3459 22.0578 36.9425 22.2756C37.5438 22.4886 38.0741 22.8201 38.5334 23.2699C38.9974 23.7197 39.362 24.2926 39.6271 24.9886C39.8923 25.6799 40.0249 26.5038 40.0249 27.4602V28.2486H31.0831V26.5156H37.5604C37.5556 26.0232 37.4491 25.5852 37.2408 25.2017C37.0324 24.8134 36.7412 24.508 36.3672 24.2855C35.9979 24.063 35.567 23.9517 35.0746 23.9517C34.549 23.9517 34.0874 24.0795 33.6896 24.3352C33.2919 24.5862 32.9818 24.9176 32.7592 25.3295C32.5414 25.7367 32.4302 26.1842 32.4254 26.6719V28.1847C32.4254 28.8191 32.5414 29.3636 32.7734 29.8182C33.0054 30.268 33.3298 30.6136 33.7464 30.8551C34.1631 31.0919 34.6508 31.2102 35.2095 31.2102C35.5836 31.2102 35.9221 31.1581 36.2251 31.054C36.5282 30.9451 36.791 30.7865 37.0135 30.5781C37.236 30.3698 37.4041 30.1117 37.5178 29.804L39.9183 30.0739C39.7668 30.7083 39.478 31.2623 39.0518 31.7358C38.6304 32.2045 38.0907 32.5691 37.4325 32.8295C36.7744 33.0852 36.0215 33.2131 35.174 33.2131ZM42.3136 33V18.4545H44.8846V23.8949H44.9911C45.1237 23.6297 45.3107 23.348 45.5522 23.0497C45.7937 22.7467 46.1204 22.4886 46.5323 22.2756C46.9442 22.0578 47.4698 21.9489 48.109 21.9489C48.9518 21.9489 49.7118 22.1643 50.3888 22.5952C51.0707 23.0213 51.6104 23.6534 52.0082 24.4915C52.4106 25.3248 52.6119 26.3475 52.6119 27.5597C52.6119 28.7576 52.4154 29.7756 52.0224 30.6136C51.6294 31.4517 51.0943 32.0909 50.4173 32.5312C49.7402 32.9716 48.9731 33.1918 48.1161 33.1918C47.4911 33.1918 46.9727 33.0876 46.5607 32.8793C46.1488 32.6709 45.8174 32.42 45.5664 32.1264C45.3202 31.8281 45.1284 31.5464 44.9911 31.2812H44.842V33H42.3136ZM44.8349 27.5455C44.8349 28.2509 44.9343 28.8688 45.1332 29.3991C45.3368 29.9295 45.628 30.3437 46.0067 30.642C46.3903 30.9356 46.8543 31.0824 47.3988 31.0824C47.967 31.0824 48.4428 30.9309 48.8263 30.6278C49.2099 30.3201 49.4987 29.901 49.6928 29.3707C49.8917 28.8357 49.9911 28.2273 49.9911 27.5455C49.9911 26.8684 49.8941 26.267 49.6999 25.7415C49.5058 25.2159 49.217 24.804 48.8335 24.5057C48.4499 24.2074 47.9717 24.0582 47.3988 24.0582C46.8496 24.0582 46.3832 24.2027 45.9996 24.4915C45.6161 24.7803 45.3249 25.1851 45.1261 25.706C44.9319 26.2268 44.8349 26.84 44.8349 27.5455ZM54.9112 33V18.4545H60.3658C61.4832 18.4545 62.4207 18.6629 63.1783 19.0795C63.9406 19.4962 64.5159 20.0691 64.9041 20.7983C65.2971 21.5227 65.4936 22.3466 65.4936 23.2699C65.4936 24.2027 65.2971 25.0312 64.9041 25.7557C64.5111 26.4801 63.9311 27.0507 63.1641 27.4673C62.397 27.8793 61.4524 28.0852 60.3303 28.0852H56.7152V25.919H59.9751C60.6286 25.919 61.1636 25.8054 61.5803 25.5781C61.9969 25.3509 62.3047 25.0384 62.5036 24.6406C62.7071 24.2429 62.8089 23.786 62.8089 23.2699C62.8089 22.7538 62.7071 22.2992 62.5036 21.9062C62.3047 21.5133 61.9946 21.2079 61.5732 20.9901C61.1565 20.7675 60.6191 20.6562 59.9609 20.6562H57.5462V33H54.9112ZM74.7319 22.0909L76.9336 26.1179L79.1708 22.0909H81.891L78.6026 27.5455L81.9478 33H79.2418L76.9336 29.0724L74.6467 33H71.9194L75.2433 27.5455L72.0046 22.0909H74.7319ZM89.7674 18.4545V33H87.1325V21.0185H87.0472L83.6452 23.1918V20.777L87.2603 18.4545H89.7674ZM93.4606 33V31.0966L98.5103 26.1463C98.9933 25.6586 99.3957 25.2254 99.7177 24.8466C100.04 24.4678 100.281 24.1009 100.442 23.7457C100.603 23.3906 100.684 23.0118 100.684 22.6094C100.684 22.1501 100.579 21.7571 100.371 21.4304C100.163 21.099 99.8763 20.8433 99.5117 20.6634C99.1471 20.4834 98.7328 20.3935 98.2688 20.3935C97.7906 20.3935 97.3716 20.4929 97.0117 20.6918C96.6519 20.8859 96.3725 21.1629 96.1737 21.5227C95.9795 21.8826 95.8825 22.3111 95.8825 22.8082H93.3754C93.3754 21.8849 93.5861 21.0824 94.0075 20.4006C94.4289 19.7187 95.0089 19.1908 95.7475 18.8168C96.4909 18.4427 97.3432 18.2557 98.3043 18.2557C99.2797 18.2557 100.137 18.438 100.875 18.8026C101.614 19.1671 102.187 19.6667 102.594 20.3011C103.006 20.9356 103.212 21.66 103.212 22.4744C103.212 23.0189 103.108 23.554 102.9 24.0795C102.691 24.6051 102.324 25.1875 101.799 25.8267C101.278 26.4659 100.546 27.2401 99.604 28.1491L97.0969 30.6989V30.7983H103.432V33H93.4606ZM111.053 33.1989C109.997 33.1989 109.06 33.0213 108.24 32.6662C107.426 32.3111 106.787 31.8258 106.323 31.2102C105.864 30.59 105.636 29.8868 105.641 29.1009C105.636 28.4901 105.769 27.929 106.039 27.4176C106.309 26.9062 106.673 26.4801 107.132 26.1392C107.596 25.7936 108.113 25.5734 108.681 25.4787V25.3793C107.933 25.2135 107.327 24.8324 106.863 24.2358C106.403 23.6345 106.176 22.9408 106.181 22.1548C106.176 21.4067 106.384 20.7391 106.806 20.152C107.227 19.5649 107.805 19.1032 108.539 18.767C109.273 18.4261 110.111 18.2557 111.053 18.2557C111.986 18.2557 112.817 18.4261 113.546 18.767C114.28 19.1032 114.857 19.5649 115.279 20.152C115.705 20.7391 115.918 21.4067 115.918 22.1548C115.918 22.9408 115.684 23.6345 115.215 24.2358C114.751 24.8324 114.152 25.2135 113.418 25.3793V25.4787C113.986 25.5734 114.498 25.7936 114.952 26.1392C115.411 26.4801 115.776 26.9062 116.046 27.4176C116.32 27.929 116.458 28.4901 116.458 29.1009C116.458 29.8868 116.226 30.59 115.762 31.2102C115.298 31.8258 114.658 32.3111 113.844 32.6662C113.034 33.0213 112.104 33.1989 111.053 33.1989ZM111.053 31.1676C111.597 31.1676 112.071 31.0753 112.473 30.8906C112.876 30.7012 113.188 30.4361 113.411 30.0952C113.633 29.7543 113.747 29.3613 113.752 28.9162C113.747 28.4522 113.626 28.0426 113.39 27.6875C113.158 27.3277 112.838 27.0459 112.431 26.8423C112.028 26.6387 111.569 26.5369 111.053 26.5369C110.532 26.5369 110.068 26.6387 109.661 26.8423C109.254 27.0459 108.932 27.3277 108.695 27.6875C108.463 28.0426 108.349 28.4522 108.354 28.9162C108.349 29.3613 108.458 29.7543 108.681 30.0952C108.903 30.4313 109.216 30.6941 109.618 30.8835C110.025 31.0729 110.504 31.1676 111.053 31.1676ZM111.053 24.5412C111.498 24.5412 111.891 24.4512 112.232 24.2713C112.578 24.0914 112.85 23.8404 113.049 23.5185C113.248 23.1965 113.349 22.8248 113.354 22.4034C113.349 21.9867 113.25 21.6222 113.056 21.3097C112.862 20.9924 112.592 20.7486 112.246 20.5781C111.9 20.4029 111.503 20.3153 111.053 20.3153C110.594 20.3153 110.189 20.4029 109.838 20.5781C109.493 20.7486 109.223 20.9924 109.029 21.3097C108.839 21.6222 108.747 21.9867 108.752 22.4034C108.747 22.8248 108.842 23.1965 109.036 23.5185C109.235 23.8357 109.507 24.0866 109.853 24.2713C110.203 24.4512 110.603 24.5412 111.053 24.5412Z" fill="white"/>
</svg>
