<svg width="128" height="55" viewBox="0 0 128 55" fill="none" xmlns="http://www.w3.org/2000/svg">
<rect width="128" height="55" rx="8" fill="#717CDA"/>
<path d="M17.4957 33L13.3906 18.4545H16.2244L18.8452 29.1435H18.9801L21.7784 18.4545H24.3565L27.1619 29.1506H27.2898L29.9105 18.4545H32.7443L28.6392 33H26.0398L23.1278 22.794H23.0142L20.0952 33H17.4957ZM38.174 33.2131C37.0803 33.2131 36.1357 32.9858 35.3402 32.5312C34.5495 32.072 33.9411 31.4233 33.5149 30.5852C33.0888 29.7424 32.8757 28.7505 32.8757 27.6094C32.8757 26.4872 33.0888 25.5024 33.5149 24.6548C33.9458 23.8026 34.5471 23.1397 35.3189 22.6662C36.0907 22.188 36.9974 21.9489 38.0391 21.9489C38.7114 21.9489 39.3459 22.0578 39.9425 22.2756C40.5438 22.4886 41.0741 22.8201 41.5334 23.2699C41.9974 23.7197 42.362 24.2926 42.6271 24.9886C42.8923 25.6799 43.0249 26.5038 43.0249 27.4602V28.2486H34.0831V26.5156H40.5604C40.5556 26.0232 40.4491 25.5852 40.2408 25.2017C40.0324 24.8134 39.7412 24.508 39.3672 24.2855C38.9979 24.063 38.567 23.9517 38.0746 23.9517C37.549 23.9517 37.0874 24.0795 36.6896 24.3352C36.2919 24.5862 35.9818 24.9176 35.7592 25.3295C35.5414 25.7367 35.4302 26.1842 35.4254 26.6719V28.1847C35.4254 28.8191 35.5414 29.3636 35.7734 29.8182C36.0054 30.268 36.3298 30.6136 36.7464 30.8551C37.1631 31.0919 37.6508 31.2102 38.2095 31.2102C38.5836 31.2102 38.9221 31.1581 39.2251 31.054C39.5282 30.9451 39.791 30.7865 40.0135 30.5781C40.236 30.3698 40.4041 30.1117 40.5178 29.804L42.9183 30.0739C42.7668 30.7083 42.478 31.2623 42.0518 31.7358C41.6304 32.2045 41.0907 32.5691 40.4325 32.8295C39.7744 33.0852 39.0215 33.2131 38.174 33.2131ZM45.3136 33V18.4545H47.8846V23.8949H47.9911C48.1237 23.6297 48.3107 23.348 48.5522 23.0497C48.7937 22.7467 49.1204 22.4886 49.5323 22.2756C49.9442 22.0578 50.4698 21.9489 51.109 21.9489C51.9518 21.9489 52.7118 22.1643 53.3888 22.5952C54.0707 23.0213 54.6104 23.6534 55.0082 24.4915C55.4106 25.3248 55.6119 26.3475 55.6119 27.5597C55.6119 28.7576 55.4154 29.7756 55.0224 30.6136C54.6294 31.4517 54.0943 32.0909 53.4173 32.5312C52.7402 32.9716 51.9731 33.1918 51.1161 33.1918C50.4911 33.1918 49.9727 33.0876 49.5607 32.8793C49.1488 32.6709 48.8174 32.42 48.5664 32.1264C48.3202 31.8281 48.1284 31.5464 47.9911 31.2812H47.842V33H45.3136ZM47.8349 27.5455C47.8349 28.2509 47.9343 28.8688 48.1332 29.3991C48.3368 29.9295 48.628 30.3437 49.0067 30.642C49.3903 30.9356 49.8543 31.0824 50.3988 31.0824C50.967 31.0824 51.4428 30.9309 51.8263 30.6278C52.2099 30.3201 52.4987 29.901 52.6928 29.3707C52.8917 28.8357 52.9911 28.2273 52.9911 27.5455C52.9911 26.8684 52.8941 26.267 52.6999 25.7415C52.5058 25.2159 52.217 24.804 51.8335 24.5057C51.4499 24.2074 50.9717 24.0582 50.3988 24.0582C49.8496 24.0582 49.3832 24.2027 48.9996 24.4915C48.6161 24.7803 48.3249 25.1851 48.1261 25.706C47.9319 26.2268 47.8349 26.84 47.8349 27.5455ZM57.9112 33V18.4545H63.3658C64.4832 18.4545 65.4207 18.6629 66.1783 19.0795C66.9406 19.4962 67.5159 20.0691 67.9041 20.7983C68.2971 21.5227 68.4936 22.3466 68.4936 23.2699C68.4936 24.2027 68.2971 25.0312 67.9041 25.7557C67.5111 26.4801 66.9311 27.0507 66.1641 27.4673C65.397 27.8793 64.4524 28.0852 63.3303 28.0852H59.7152V25.919H62.9751C63.6286 25.919 64.1636 25.8054 64.5803 25.5781C64.9969 25.3509 65.3047 25.0384 65.5036 24.6406C65.7071 24.2429 65.8089 23.786 65.8089 23.2699C65.8089 22.7538 65.7071 22.2992 65.5036 21.9062C65.3047 21.5133 64.9946 21.2079 64.5732 20.9901C64.1565 20.7675 63.6191 20.6562 62.9609 20.6562H60.5462V33H57.9112ZM77.7319 22.0909L79.9336 26.1179L82.1708 22.0909H84.891L81.6026 27.5455L84.9478 33H82.2418L79.9336 29.0724L77.6467 33H74.9194L78.2433 27.5455L75.0046 22.0909H77.7319ZM92.0714 33.1989C91.0487 33.1989 90.1396 33.0237 89.3441 32.6733C88.5534 32.3229 87.9284 31.8352 87.4691 31.2102C87.0098 30.5852 86.766 29.8632 86.7376 29.044H89.408C89.4317 29.437 89.5619 29.7803 89.7987 30.0739C90.0354 30.3627 90.3503 30.5876 90.7433 30.7486C91.1362 30.9096 91.5766 30.9901 92.0643 30.9901C92.5851 30.9901 93.0468 30.9001 93.4492 30.7202C93.8517 30.5355 94.1665 30.2798 94.3938 29.9531C94.6211 29.6264 94.7324 29.25 94.7276 28.8239C94.7324 28.3835 94.6187 27.9953 94.3867 27.6591C94.1547 27.3229 93.8185 27.0601 93.3782 26.8707C92.9426 26.6813 92.417 26.5866 91.8015 26.5866H90.516V24.5554H91.8015C92.3081 24.5554 92.7508 24.4678 93.1296 24.2926C93.5131 24.1174 93.8138 23.8712 94.0316 23.554C94.2494 23.232 94.3559 22.8603 94.3512 22.4389C94.3559 22.027 94.2636 21.6695 94.0742 21.3665C93.8896 21.0587 93.6268 20.8196 93.2859 20.6491C92.9497 20.4787 92.5543 20.3935 92.0998 20.3935C91.6547 20.3935 91.2428 20.474 90.864 20.6349C90.4852 20.7959 90.1798 21.0256 89.9478 21.3239C89.7158 21.6174 89.5927 21.9678 89.5785 22.375H87.043C87.0619 21.5606 87.2963 20.8456 87.7461 20.2301C88.2006 19.6098 88.8067 19.1269 89.5643 18.7812C90.3219 18.4309 91.1718 18.2557 92.114 18.2557C93.0846 18.2557 93.9274 18.438 94.6424 18.8026C95.3621 19.1624 95.9184 19.6477 96.3114 20.2585C96.7044 20.8693 96.9009 21.544 96.9009 22.2827C96.9057 23.1018 96.6642 23.7884 96.1765 24.3423C95.6935 24.8963 95.0591 25.2585 94.2731 25.429V25.5426C95.2958 25.6847 96.0794 26.0634 96.6239 26.679C97.1732 27.2898 97.4454 28.0497 97.4407 28.9588C97.4407 29.7732 97.2087 30.5024 96.7447 31.1463C96.2854 31.7855 95.6509 32.2874 94.8413 32.652C94.0363 33.0166 93.113 33.1989 92.0714 33.1989ZM99.8786 33V31.0966L104.928 26.1463C105.411 25.6586 105.814 25.2254 106.136 24.8466C106.458 24.4678 106.699 24.1009 106.86 23.7457C107.021 23.3906 107.102 23.0118 107.102 22.6094C107.102 22.1501 106.997 21.7571 106.789 21.4304C106.581 21.099 106.294 20.8433 105.93 20.6634C105.565 20.4834 105.151 20.3935 104.687 20.3935C104.209 20.3935 103.79 20.4929 103.43 20.6918C103.07 20.8859 102.79 21.1629 102.592 21.5227C102.397 21.8826 102.3 22.3111 102.3 22.8082H99.7933C99.7933 21.8849 100.004 21.0824 100.425 20.4006C100.847 19.7187 101.427 19.1908 102.165 18.8168C102.909 18.4427 103.761 18.2557 104.722 18.2557C105.698 18.2557 106.555 18.438 107.293 18.8026C108.032 19.1671 108.605 19.6667 109.012 20.3011C109.424 20.9356 109.63 21.66 109.63 22.4744C109.63 23.0189 109.526 23.554 109.317 24.0795C109.109 24.6051 108.742 25.1875 108.217 25.8267C107.696 26.4659 106.964 27.2401 106.022 28.1491L103.515 30.6989V30.7983H109.85V33H99.8786Z" fill="white"/>
</svg>
