<svg width="32" height="32" viewBox="0 0 32 32" fill="none" xmlns="http://www.w3.org/2000/svg">
<g clip-path="url(#clip0)">
<path d="M31.1028 20.9925C31.1028 23.0016 30.5776 24.4276 29.7584 25.467C28.9313 26.5165 27.7418 27.251 26.2822 27.7577C23.3206 28.7858 19.5103 28.7956 16.0998 28.7956C12.6905 28.7956 8.82725 28.7862 5.81316 27.7563C4.32618 27.2482 3.11166 26.5115 2.26715 25.4604C1.43183 24.4208 0.896749 22.997 0.896749 20.9925C0.896749 17.2483 1.70245 13.3712 3.95966 10.4486C6.18461 7.56779 9.92418 5.48012 16.0998 5.48012C21.9585 5.48012 25.6574 7.57592 27.9167 10.4805C30.2055 13.4228 31.1028 17.3072 31.1028 20.9925Z" fill="#FBC546" stroke="black" stroke-width="1.7935"/>
<path d="M9.87671 24.016C9.87671 24.016 9.89292 23.9674 9.92022 23.8846C10.404 22.4343 11.7605 21.4565 13.2893 21.4565L15.8488 24.016L18.4083 21.4565C19.9371 21.4565 21.2937 22.4343 21.7774 23.8846C21.8047 23.9674 21.8209 24.016 21.8209 24.016" stroke="#593604" stroke-width="1.70631" stroke-miterlimit="1.5" stroke-linecap="round"/>
<path fill-rule="evenodd" clip-rule="evenodd" d="M10.8572 17.2441L8.42063 14.8075C8.0879 14.4747 8.0879 13.9338 8.42063 13.6011C8.75336 13.2684 9.29426 13.2684 9.627 13.6011L14.0156 17.9898L9.29341 19.5638C8.84721 19.7131 8.36347 19.4708 8.21417 19.0246C8.06572 18.5776 8.30716 18.0938 8.75422 17.9454L10.8572 17.2441V17.2441ZM20.8409 17.2441L22.9439 17.9454C23.391 18.0938 23.6324 18.5776 23.484 19.0246C23.3347 19.4708 22.8509 19.7131 22.4047 19.5638L17.6825 17.9898L22.0711 13.6011C22.4039 13.2684 22.9448 13.2684 23.2775 13.6011C23.6102 13.9338 23.6102 14.4747 23.2775 14.8075L20.8409 17.2441V17.2441Z" fill="black"/>
</g>
<defs>
<clipPath id="clip0">
<rect width="32" height="32" fill="white"/>
</clipPath>
</defs>
</svg>
