<svg width="32" height="32" viewBox="0 0 32 32" fill="none" xmlns="http://www.w3.org/2000/svg">
<path d="M31.1028 20.9925C31.1028 23.0016 30.5776 24.4276 29.7584 25.467C28.9313 26.5165 27.7418 27.2511 26.2822 27.7577C23.3206 28.7859 19.5103 28.7956 16.0998 28.7956C12.6905 28.7956 8.82725 28.7862 5.81316 27.7563C4.32618 27.2482 3.11166 26.5116 2.26715 25.4605C1.43183 24.4208 0.896749 22.9971 0.896749 20.9925C0.896749 17.2445 1.70404 12.6828 4.00516 9.08874C6.27215 5.54802 10.0181 2.88955 16.0998 2.88955C21.8645 2.88955 25.569 5.55276 27.871 9.1208C30.2022 12.7339 31.1028 17.3007 31.1028 20.9925Z" fill="#FBC546" stroke="black" stroke-width="1.7935"/>
<path d="M9.93274 21.2615C9.93274 21.2615 10.7185 20.4757 11.5358 19.6584C12.6944 18.4998 14.2659 17.8489 15.9048 17.8489C17.5438 17.8489 19.1153 18.4998 20.2739 19.6584C21.0912 20.4757 21.8769 21.2615 21.8769 21.2615" stroke="#593604" stroke-width="1.70631" stroke-miterlimit="1.5" stroke-linecap="round" stroke-linejoin="round"/>
<path fill-rule="evenodd" clip-rule="evenodd" d="M11.5427 10.3478L12.215 9.96387C12.3045 10.0347 12.3899 10.1106 12.4709 10.1925C13.0306 10.7522 13.3454 11.5106 13.3454 12.3024C13.3454 12.8629 13.3454 13.4499 13.3454 14.0104C13.3454 15.6595 12.0085 16.9964 10.3593 16.9964H10.3576C9.56591 16.9964 8.80745 16.6816 8.24778 16.122C7.68811 15.5623 7.37329 14.8038 7.37329 14.0121V12.7307L9.08387 11.7529C9.56505 11.8673 11.5444 10.9023 11.5427 10.3478V10.3478Z" fill="white"/>
<path fill-rule="evenodd" clip-rule="evenodd" d="M11.5427 10.3505C11.7073 10.4324 11.86 10.5407 11.9923 10.6738C12.3122 10.9937 12.4922 11.428 12.4922 11.8802C12.4922 12.6787 12.4922 13.6274 12.4922 14.4251C12.4922 14.8782 12.3122 15.3116 11.9923 15.6324C11.6723 15.9523 11.2381 16.1315 10.7859 16.1315C10.3337 16.1315 9.89947 15.9523 9.57954 15.6324C9.25961 15.3116 9.07959 14.8782 9.07959 14.4251C9.07959 13.6274 9.07959 12.6787 9.07959 11.8802C9.07959 11.8384 9.0813 11.7966 9.08386 11.7556L11.5427 10.3505V10.3505Z" fill="black"/>
<path fill-rule="evenodd" clip-rule="evenodd" d="M20.2671 10.3478L19.5948 9.96387C19.5052 10.0347 19.4199 10.1106 19.3388 10.1925C18.7792 10.7522 18.4644 11.5106 18.4644 12.3024C18.4644 12.8629 18.4644 13.4499 18.4644 14.0104C18.4644 15.6595 19.8013 16.9964 21.4504 16.9964H21.4521C22.2438 16.9964 23.0023 16.6816 23.562 16.122C24.1216 15.5623 24.4365 14.8038 24.4365 14.0121V12.7307L22.7259 11.7529C22.2447 11.8673 20.2654 10.9023 20.2671 10.3478V10.3478Z" fill="white"/>
<path fill-rule="evenodd" clip-rule="evenodd" d="M20.2671 10.3505C20.1024 10.4324 19.9497 10.5407 19.8175 10.6738C19.4975 10.9937 19.3175 11.428 19.3175 11.8802C19.3175 12.6787 19.3175 13.6274 19.3175 14.4251C19.3175 14.8782 19.4975 15.3116 19.8175 15.6324C20.1374 15.9523 20.5716 16.1315 21.0238 16.1315C21.476 16.1315 21.9102 15.9523 22.2302 15.6324C22.5501 15.3116 22.7301 14.8782 22.7301 14.4251C22.7301 13.6274 22.7301 12.6787 22.7301 11.8802C22.7301 11.8384 22.7284 11.7966 22.7259 11.7556L20.2671 10.3505V10.3505Z" fill="black"/>
<path fill-rule="evenodd" clip-rule="evenodd" d="M24.4649 13.9495C24.4649 13.9495 22.7862 17.3069 21.654 19.5714C21.0501 20.779 21.2871 22.2371 22.2416 23.1916C22.2416 23.1916 22.2416 23.1916 22.2425 23.1925C22.832 23.782 23.6308 24.1126 24.4649 24.1126C25.299 24.1126 26.0978 23.782 26.6873 23.1925C26.6882 23.1916 26.6882 23.1916 26.6882 23.1916C27.6427 22.2371 27.8797 20.779 27.2758 19.5714C26.1436 17.3069 24.4649 13.9495 24.4649 13.9495Z" fill="#41B4DE"/>
</svg>
