<svg width="32" height="32" viewBox="0 0 32 32" fill="none" xmlns="http://www.w3.org/2000/svg">
<path d="M31.1028 20.9925C31.1028 23.0016 30.5776 24.4276 29.7584 25.467C28.9313 26.5165 27.7418 27.251 26.2822 27.7577C23.3206 28.7858 19.5103 28.7956 16.0998 28.7956C12.6905 28.7956 8.82725 28.7862 5.81316 27.7563C4.32618 27.2482 3.11166 26.5115 2.26715 25.4604C1.43183 24.4208 0.896749 22.997 0.896749 20.9925C0.896749 17.2483 1.70245 13.3712 3.95966 10.4486C6.18461 7.56779 9.92418 5.48012 16.0998 5.48012C21.9585 5.48012 25.6574 7.57592 27.9167 10.4805C30.2055 13.4228 31.1028 17.3072 31.1028 20.9925Z" fill="#FBC546" stroke="black" stroke-width="1.7935"/>
<path d="M9.90472 24.1453C9.90472 24.1453 10.6905 23.3595 11.5078 22.5422C12.6664 21.3836 14.2379 20.7327 15.8768 20.7327C17.5157 20.7327 19.0873 21.3836 20.2458 22.5422C21.0632 23.3595 21.8489 24.1453 21.8489 24.1453" stroke="#593604" stroke-width="1.70631" stroke-miterlimit="1.5" stroke-linecap="round" stroke-linejoin="round"/>
<path d="M23.5112 16.5568C23.9327 16.7675 24.1033 17.2794 23.8926 17.7009C23.8926 17.7017 23.8926 17.7017 23.8926 17.7017C23.6819 18.1232 23.17 18.2938 22.7494 18.0831C21.7222 17.5695 19.9066 16.6617 18.8897 16.1532C18.6917 16.0543 18.5424 15.8819 18.4725 15.6729C18.4025 15.4639 18.4187 15.2352 18.5177 15.0382V15.0373C18.6218 14.83 18.8035 14.6722 19.0236 14.5988C19.2437 14.5254 19.4835 14.5425 19.6916 14.6466C20.7146 15.1585 22.4977 16.0492 23.5112 16.5568Z" fill="black"/>
<path d="M13.2277 15.0198C13.4384 15.4412 13.2678 15.9531 12.8463 16.1638C11.8259 16.6749 10.0266 17.5741 9.00624 18.0843C8.58563 18.295 8.07374 18.1244 7.86301 17.7029C7.86301 17.7029 7.86215 17.7021 7.86215 17.7012C7.65142 17.2806 7.82205 16.7687 8.24351 16.558C9.26389 16.0478 11.0641 15.1477 12.0844 14.6375C12.505 14.4268 13.0169 14.5974 13.2277 15.0189C13.2277 15.0189 13.2277 15.0189 13.2277 15.0198Z" fill="black"/>
</svg>
