<?xml version="1.0" encoding="UTF-8"?>
<svg width="32" height="32" fill="none" version="1.1" viewBox="0 0 32 32" xmlns="http://www.w3.org/2000/svg">
 <path d="m31.103 20.992c0 2.0091-0.5252 3.4351-1.3444 4.4745-0.8271 1.0495-2.0166 1.784-3.4762 2.2907-2.9616 1.0281-6.7719 1.0379-10.182 1.0379-3.4093 0-7.2726-0.0094-10.287-1.0393-1.487-0.5081-2.7015-1.2448-3.546-2.2959-0.83532-1.0396-1.3704-2.4634-1.3704-4.4679 0-3.748 0.80729-8.3098 3.1084-11.904 2.267-3.5407 6.0129-6.1992 12.095-6.1992 5.7647 0 9.4692 2.6632 11.771 6.2312 2.3312 3.613 3.2318 8.1799 3.2318 11.872z" fill="#fbc546" stroke="#000" stroke-width="1.7935"/>
 <g clip-rule="evenodd" fill-rule="evenodd">
  <path d="m16.042 21.201-2.0859-1.3907c-0.3925-0.2611-0.9223-0.1553-1.1834 0.2372-0.261 0.3916-0.1552 0.9214 0.2364 1.1825l2.5594 1.7063c0.2867 0.1911 0.6604 0.1911 0.947 0l2.5595-1.7063c0.3916-0.2611 0.4974-0.7909 0.2363-1.1825-0.261-0.3925-0.7908-0.4983-1.1833-0.2372z" fill="#593604"/>
  <path d="m20.455 9.527c-0.0725 0.22097 0.4096 1.1415 1.3054 1.6952 0.8386 0.5187 1.9486 0.517 1.9426 0.4701l1.7234 1.1492v1.2797c0 1.0178-0.4044 1.9947-1.1245 2.7148-0.72 0.72-1.6969 1.1244-2.7147 1.1244s-1.9947-0.4044-2.7148-1.1244c-0.72-0.7201-1.1244-1.697-1.1244-2.7148v-1.708c0-1.0178 0.4044-1.9938 1.1236-2.7139 0.2593-0.25851 0.5511-0.47691 0.8668-0.65011l0.7166 0.47777z" fill="#fff"/>
  <path d="m20.455 9.5292 3.248 2.1653c0.0111 0.0972 0.0171 0.1954 0.0171 0.2943v1.6953c0 0.6782-0.2696 1.3292-0.7491 1.8086-0.4795 0.4795-1.1304 0.7491-1.8087 0.7491h-0.0034c-0.6783 0-1.3292-0.2696-1.8087-0.7491-0.4795-0.4794-0.7491-1.1304-0.7491-1.8086v-1.6953c0-0.6782 0.2696-1.3292 0.7491-1.8087 0.3097-0.30966 0.691-0.53234 1.1048-0.65093z" fill="#000"/>
  <path d="m11.628 9.527c0.0725 0.22097-0.4095 1.1415-1.3053 1.6952-0.8387 0.5187-1.9487 0.517-1.9427 0.4701l-1.7234 1.1492v1.2797c0 1.0178 0.40439 1.9947 1.1245 2.7148 0.72006 0.72 1.6969 1.1244 2.7147 1.1244 1.0179 0 1.9947-0.4044 2.7148-1.1244 0.7201-0.7201 1.1245-1.697 1.1245-2.7148v-1.708c0-1.0178-0.4044-1.9938-1.1237-2.7139-0.2593-0.25851-0.5511-0.47691-0.8668-0.65011l-0.7166 0.47777z" fill="#fff"/>
  <path d="m11.628 9.5292-3.248 2.1653c-0.01109 0.0972-0.01707 0.1954-0.01707 0.2943v1.6953c0 0.6782 0.2696 1.3292 0.74908 1.8086 0.47947 0.4795 1.1304 0.7491 1.8087 0.7491h0.0034c0.6783 0 1.3292-0.2696 1.8087-0.7491 0.4795-0.4794 0.7491-1.1304 0.7491-1.8086v-1.6953c0-0.6782-0.2696-1.3292-0.7491-1.8087-0.3097-0.30966-0.6911-0.53234-1.1048-0.65093z" fill="#000"/>
 </g>
 <g transform="matrix(1 0 0 .81078 0 3.3972)" fill="#1bb0e6" stroke-width=".80299">
  <path d="m17.851 14.338s0.35431 3.607 3.8138 3.6158c3.0928 0.0079 3.6605-3.6158 3.6605-3.6158"/>
  <path d="m14.234 14.338s-0.35431 3.607-3.8138 3.6158c-3.0928 0.0079-3.6605-3.6158-3.6605-3.6158"/>
 </g>
</svg>
