<svg width="32" height="32" viewBox="0 0 32 32" fill="none" xmlns="http://www.w3.org/2000/svg">
<path d="M31.0361 20.8339C31.0361 29 22.4363 29 16.1119 29C9.78756 29 1 29 1 20.8339C1 13.6065 4.09745 3 16.1119 3C27.5632 3 31.0361 13.6802 31.0361 20.8339Z" fill="#FBC546"/>
<path fill-rule="evenodd" clip-rule="evenodd" d="M18.8629 28.0982V16.649L23.9818 17.5022V27.6996C22.5349 28.7609 20.7731 28.0129 18.8629 28.0982ZM12.8908 28.0982C10.9806 28.0129 9.21795 28.7609 7.77185 27.6996V17.5022L12.8908 16.649V28.0982Z" fill="#41B4DE"/>
<path fill-rule="evenodd" clip-rule="evenodd" d="M10.7305 24.2208C10.3509 24.08 10.0275 23.8053 9.82705 23.4385C9.52759 22.8907 9.55148 22.2236 9.88933 21.698C10.0173 21.4992 10.147 21.2979 10.275 21.0982C11.3738 19.3885 13.267 18.3553 15.2992 18.3553C15.6823 18.3553 16.073 18.3553 16.4561 18.3553C18.4883 18.3553 20.3815 19.3885 21.4803 21.0982C21.6083 21.2979 21.738 21.4992 21.8659 21.698C22.2038 22.2236 22.2277 22.8907 21.9282 23.4385C21.7277 23.8053 21.4044 24.08 21.0247 24.2208C20.0786 23.2218 11.6767 23.2218 10.7305 24.2208V24.2208Z" fill="#722245"/>
<path fill-rule="evenodd" clip-rule="evenodd" d="M10.7312 24.2208C11.6774 23.2217 13.0108 22.6211 14.4493 22.6211C15.3792 22.6211 16.3774 22.6211 17.3073 22.6211C18.7458 22.6211 20.0792 23.2217 21.0254 24.2208C20.8377 24.2899 20.6372 24.3274 20.4316 24.3274C17.7749 24.3274 13.9817 24.3274 11.325 24.3274C11.1194 24.3274 10.9189 24.2899 10.7312 24.2208Z" fill="#CA3B8F"/>
<path fill-rule="evenodd" clip-rule="evenodd" d="M10.4587 15.8492L8.02207 13.4126C7.68934 13.0798 7.68934 12.5389 8.02207 12.2062C8.3548 11.8735 8.8957 11.8735 9.22844 12.2062L13.6171 16.5949L8.89485 18.1689C8.44865 18.3182 7.96491 18.0759 7.81561 17.6297C7.66716 17.1827 7.9086 16.6989 8.35566 16.5505L10.4587 15.8492V15.8492ZM21.2955 15.8492L23.3985 16.5505C23.8456 16.6989 24.087 17.1827 23.9386 17.6297C23.7893 18.0759 23.3055 18.3182 22.8593 18.1689L18.1371 16.5949L22.5257 12.2062C22.8585 11.8735 23.3994 11.8735 23.7321 12.2062C24.0648 12.5389 24.0648 13.0798 23.7321 13.4126L21.2955 15.8492V15.8492Z" fill="black"/>
<path fill-rule="evenodd" clip-rule="evenodd" d="M29.0541 24.912C29.7283 24.0565 30.206 22.8358 30.206 20.9925C30.206 17.4196 29.3298 13.0359 27.1175 9.60697C24.9633 6.26815 21.5294 3.7863 16.0998 3.7863C10.3363 3.7863 6.86939 6.27829 4.76037 9.57227C2.5831 12.9729 1.7935 17.3464 1.7935 20.9925C1.7935 22.8266 2.27854 24.0429 2.96621 24.8988C3.67226 25.7776 4.72051 26.4353 6.10311 26.9077C8.94856 27.88 12.6502 27.8989 16.0998 27.8989C19.5519 27.8989 23.1975 27.8793 25.9881 26.9106C27.341 26.441 28.3641 25.7874 29.0541 24.912ZM16.0998 29.6924C22.8375 29.6924 31.9995 29.6924 31.9995 20.9925C31.9995 13.3711 28.2996 1.9928 16.0998 1.9928C3.29992 1.9928 0 13.2926 0 20.9925C0 29.6924 9.36199 29.6924 16.0998 29.6924Z" fill="black"/>
</svg>
