<svg width="32" height="32" viewBox="0 0 32 32" fill="none" xmlns="http://www.w3.org/2000/svg">
<path d="M31.1028 20.9925C31.1028 23.0016 30.5776 24.4276 29.7584 25.467C28.9313 26.5165 27.7418 27.2511 26.2822 27.7577C23.3206 28.7859 19.5103 28.7956 16.0998 28.7956C12.6905 28.7956 8.82725 28.7862 5.81316 27.7563C4.32618 27.2482 3.11166 26.5116 2.26715 25.4605C1.43183 24.4208 0.896749 22.9971 0.896749 20.9925C0.896749 17.2445 1.70404 12.6828 4.00516 9.08874C6.27215 5.54802 10.0181 2.88955 16.0998 2.88955C21.8645 2.88955 25.569 5.55276 27.871 9.1208C30.2022 12.7339 31.1028 17.3007 31.1028 20.9925Z" fill="#FBC546" stroke="black" stroke-width="1.7935"/>
<path d="M11.583 23.2189C11.583 23.2189 11.699 23.0449 11.8697 22.7881C12.757 21.458 14.2491 20.6594 15.8479 20.6594H15.8496C17.4485 20.6594 18.9406 21.458 19.8279 22.7881C19.9986 23.0449 20.1146 23.2189 20.1146 23.2189" stroke="#593604" stroke-width="1.70631" stroke-miterlimit="1.5" stroke-linecap="round" stroke-linejoin="round"/>
<path fill-rule="evenodd" clip-rule="evenodd" d="M20.8409 16.447L22.9439 17.1483C23.391 17.2967 23.6324 17.7805 23.484 18.2275C23.3347 18.6737 22.8509 18.916 22.4047 18.7667L17.6825 17.1926L22.0711 12.804C22.4039 12.4713 22.9448 12.4713 23.2775 12.804C23.6102 13.1367 23.6102 13.6776 23.2775 14.0104L20.8409 16.447V16.447ZM10.8572 16.447L8.42063 14.0104C8.0879 13.6776 8.0879 13.1367 8.42063 12.804C8.75336 12.4713 9.29426 12.4713 9.627 12.804L14.0156 17.1926L9.29341 18.7667C8.84721 18.916 8.36347 18.6737 8.21417 18.2275C8.06572 17.7805 8.30716 17.2967 8.75422 17.1483L10.8572 16.447V16.447Z" fill="black"/>
</svg>
