<svg width="32" height="32" viewBox="0 0 32 32" fill="none" xmlns="http://www.w3.org/2000/svg">
<path d="M31.1028 20.9925C31.1028 23.0016 30.5776 24.4276 29.7584 25.467C28.9313 26.5165 27.7418 27.2511 26.2822 27.7577C23.3206 28.7859 19.5103 28.7956 16.0998 28.7956C12.6905 28.7956 8.82725 28.7862 5.81316 27.7563C4.32618 27.2482 3.11166 26.5116 2.26715 25.4605C1.43183 24.4208 0.896749 22.9971 0.896749 20.9925C0.896749 17.2445 1.70404 12.6828 4.00516 9.08874C6.27215 5.54802 10.0181 2.88955 16.0998 2.88955C21.8645 2.88955 25.569 5.55276 27.871 9.1208C30.2022 12.7339 31.1028 17.3007 31.1028 20.9925Z" fill="#FBC546" stroke="black" stroke-width="1.7935"/>
<path d="M11.6391 22.5059C11.6391 22.5059 11.7551 22.3318 11.9257 22.075C12.813 20.745 14.3052 19.9464 15.904 19.9464H15.9057C17.5045 19.9464 18.9967 20.745 19.884 22.075C20.0546 22.3318 20.1706 22.5059 20.1706 22.5059" stroke="#593604" stroke-width="1.70631" stroke-miterlimit="1.5" stroke-linecap="round" stroke-linejoin="round"/>
<path fill-rule="evenodd" clip-rule="evenodd" d="M10.361 18.2402C11.1527 18.2402 11.9112 17.9254 12.4709 17.3657C13.0305 16.806 13.3454 16.0476 13.3454 15.2558C13.3454 14.6953 13.3454 14.1083 13.3454 13.5478C13.3454 11.8987 12.0085 10.5618 10.3593 10.5618H10.3576C9.56588 10.5618 8.80742 10.8766 8.24775 11.4363C7.68808 11.9959 7.37326 12.7544 7.37326 13.5461C7.37326 14.1066 7.37326 14.6936 7.37326 15.2541C7.37326 16.9033 8.71016 18.2402 10.3593 18.2402H10.361V18.2402Z" fill="white"/>
<path fill-rule="evenodd" clip-rule="evenodd" d="M9.07956 13.9744C9.07956 13.5222 9.25958 13.088 9.57951 12.768C9.89944 12.4481 10.3337 12.2681 10.7859 12.2681C11.7286 12.2681 12.4922 13.0316 12.4922 13.9744V14.813C12.4922 15.2661 12.3122 15.6995 11.9922 16.0203C11.6723 16.3402 11.238 16.5193 10.7859 16.5193C9.84314 16.5193 9.07956 15.7558 9.07956 14.813V13.9744Z" fill="black"/>
<path fill-rule="evenodd" clip-rule="evenodd" d="M21.4486 18.2402C20.6569 18.2402 19.8985 17.9254 19.3388 17.3657C18.7791 16.806 18.4643 16.0476 18.4643 15.2558C18.4643 14.6953 18.4643 14.1083 18.4643 13.5478C18.4643 11.8987 19.8012 10.5618 21.4503 10.5618H21.4521C22.2438 10.5618 23.0022 10.8766 23.5619 11.4363C24.1216 11.9959 24.4364 12.7544 24.4364 13.5461C24.4364 14.1066 24.4364 14.6936 24.4364 15.2541C24.4364 16.9033 23.0995 18.2402 21.4503 18.2402H21.4486V18.2402Z" fill="white"/>
<path fill-rule="evenodd" clip-rule="evenodd" d="M22.7301 13.9744C22.7301 13.5222 22.5501 13.088 22.2301 12.768C21.9102 12.4481 21.4759 12.2681 21.0238 12.2681C20.081 12.2681 19.3174 13.0316 19.3174 13.9744V14.813C19.3174 15.2661 19.4975 15.6995 19.8174 16.0203C20.1373 16.3402 20.5716 16.5193 21.0238 16.5193C21.9665 16.5193 22.7301 15.7558 22.7301 14.813V13.9744Z" fill="black"/>
</svg>
