<svg width="32" height="32" viewBox="0 0 32 32" fill="none" xmlns="http://www.w3.org/2000/svg">
<g clip-path="url(#clip0)">
<path d="M31.1028 20.9925C31.1028 23.0016 30.5776 24.4276 29.7584 25.467C28.9313 26.5165 27.7418 27.2511 26.2822 27.7577C23.3206 28.7859 19.5103 28.7956 16.0998 28.7956C12.6905 28.7956 8.82725 28.7862 5.81316 27.7563C4.32618 27.2482 3.11166 26.5116 2.26715 25.4605C1.43183 24.4208 0.896749 22.9971 0.896749 20.9925C0.896749 17.2445 1.70404 12.6828 4.00516 9.08874C6.27215 5.54802 10.0181 2.88955 16.0998 2.88955C21.8645 2.88955 25.569 5.55276 27.871 9.1208C30.2022 12.7339 31.1028 17.3007 31.1028 20.9925Z" fill="#FBC546" stroke="black" stroke-width="1.7935"/>
<path d="M9.07959 19.9537C10.6904 22.1011 13.2191 23.3664 15.904 23.3664C18.5897 23.3664 21.1185 22.102 22.7301 19.9537" stroke="#593604" stroke-width="1.70631" stroke-miterlimit="1.5" stroke-linecap="round"/>
<path fill-rule="evenodd" clip-rule="evenodd" d="M20.267 10.7463C20.0776 11.2318 22.3504 12.4117 22.7258 12.1515L24.4364 13.1292V14.4107C24.4364 15.2024 24.1216 15.9608 23.5619 16.5205C23.0022 17.0802 22.2438 17.395 21.4521 17.395H21.4503C19.8012 17.395 18.4643 16.0581 18.4643 14.409C18.4643 13.8484 18.4643 13.2615 18.4643 12.7009C18.4643 11.9092 18.7791 11.1507 19.3388 10.5911C19.4198 10.5092 19.5051 10.4332 19.5947 10.3624L20.267 10.7463V10.7463Z" fill="white"/>
<path fill-rule="evenodd" clip-rule="evenodd" d="M20.267 10.749L22.7258 12.1542C22.7284 12.1951 22.7301 12.2369 22.7301 12.2787C22.7301 13.0773 22.7301 14.026 22.7301 14.8237C22.7301 15.2767 22.5501 15.7101 22.2301 16.0309C21.9102 16.3509 21.4759 16.53 21.0238 16.53C20.5716 16.53 20.1373 16.3509 19.8174 16.0309C19.4975 15.7101 19.3174 15.2767 19.3174 14.8237C19.3174 14.026 19.3174 13.0773 19.3174 12.2787C19.3174 11.8266 19.4975 11.3923 19.8174 11.0724C19.9496 10.9393 20.1023 10.8309 20.267 10.749V10.749Z" fill="black"/>
<path fill-rule="evenodd" clip-rule="evenodd" d="M11.5427 10.7463C11.7321 11.2318 9.45926 12.4117 9.08387 12.1515L7.37329 13.1292V14.4107C7.37329 15.2024 7.68811 15.9608 8.24778 16.5205C8.80745 17.0802 9.56591 17.395 10.3576 17.395H10.3593C12.0085 17.395 13.3454 16.0581 13.3454 14.409C13.3454 13.8484 13.3454 13.2615 13.3454 12.7009C13.3454 11.9092 13.0306 11.1507 12.4709 10.5911C12.3899 10.5092 12.3045 10.4332 12.215 10.3624L11.5427 10.7463Z" fill="white"/>
<path fill-rule="evenodd" clip-rule="evenodd" d="M11.5427 10.749L9.08386 12.1542C9.0813 12.1951 9.07959 12.2369 9.07959 12.2787C9.07959 13.0773 9.07959 14.026 9.07959 14.8237C9.07959 15.2767 9.25961 15.7101 9.57954 16.0309C9.89947 16.3509 10.3337 16.53 10.7859 16.53C11.2381 16.53 11.6723 16.3509 11.9923 16.0309C12.3122 15.7101 12.4922 15.2767 12.4922 14.8237C12.4922 14.026 12.4922 13.0773 12.4922 12.2787C12.4922 11.8266 12.3122 11.3923 11.9923 11.0724C11.86 10.9393 11.7073 10.8309 11.5427 10.749V10.749Z" fill="black"/>
<path fill-rule="evenodd" clip-rule="evenodd" d="M24.4648 13.9495C24.4648 13.9495 22.7861 17.3069 21.6539 19.5714C21.05 20.779 21.287 22.2371 22.2415 23.1916C22.2415 23.1916 22.2415 23.1916 22.2425 23.1925C22.832 23.782 23.6307 24.1126 24.4648 24.1126C25.2989 24.1126 26.0977 23.782 26.6872 23.1925C26.6882 23.1916 26.6882 23.1916 26.6882 23.1916C27.6427 22.2371 27.8796 20.779 27.2758 19.5714C26.1436 17.3069 24.4648 13.9495 24.4648 13.9495Z" fill="#41B4DE"/>
</g>
<defs>
<clipPath id="clip0">
<rect width="32" height="32" fill="white"/>
</clipPath>
</defs>
</svg>
