<svg width="32" height="32" viewBox="0 0 32 32" fill="none" xmlns="http://www.w3.org/2000/svg">
<path d="M31.1028 20.9925C31.1028 23.0016 30.5776 24.4276 29.7584 25.467C28.9313 26.5165 27.7418 27.2511 26.2822 27.7577C23.3206 28.7859 19.5103 28.7956 16.0998 28.7956C12.6905 28.7956 8.82725 28.7862 5.81316 27.7563C4.32618 27.2482 3.11166 26.5116 2.26715 25.4605C1.43183 24.4208 0.896749 22.9971 0.896749 20.9925C0.896749 17.2445 1.70404 12.6828 4.00516 9.08874C6.27215 5.54802 10.0181 2.88955 16.0998 2.88955C21.8645 2.88955 25.569 5.55276 27.871 9.1208C30.2022 12.7339 31.1028 17.3007 31.1028 20.9925Z" fill="#FBC546" stroke="black" stroke-width="1.7935"/>
<path d="M11.299 23.3155C11.299 23.3155 11.4237 23.1285 11.607 22.8525C12.5604 21.4234 14.1637 20.5654 15.8815 20.5654H15.8833C17.6012 20.5654 19.2045 21.4234 20.1578 22.8525C20.3411 23.1285 20.4658 23.3155 20.4658 23.3155" stroke="#593604" stroke-width="1.83335" stroke-miterlimit="1.5" stroke-linecap="round" stroke-linejoin="round"/>
<path fill-rule="evenodd" clip-rule="evenodd" d="M10.3819 16.0604L12.0255 14.4168C12.383 14.0593 12.9642 14.0593 13.3217 14.4168C13.6792 14.7743 13.6792 15.3555 13.3217 15.713L10.3819 18.6528L7.44211 15.713C7.0846 15.3555 7.0846 14.7743 7.44211 14.4168C7.79961 14.0593 8.38079 14.0593 8.73829 14.4168L10.3819 16.0604ZM21.382 16.0604L23.0256 14.4168C23.3831 14.0593 23.9643 14.0593 24.3218 14.4168C24.6793 14.7743 24.6793 15.3555 24.3218 15.713L21.382 18.6528L18.4422 15.713C18.0847 15.3555 18.0847 14.7743 18.4422 14.4168C18.7997 14.0593 19.3809 14.0593 19.7384 14.4168L21.382 16.0604Z" fill="black"/>
<path fill-rule="evenodd" clip-rule="evenodd" d="M22.9169 5.48018C23.9133 6.07801 24.7072 6.76973 25.3083 7.27367C27.2557 9.05345 28.0981 11.0599 29.0308 13.6952C28.6213 13.8151 28.1964 13.886 27.7641 13.9053C26.3404 13.969 24.9492 13.4648 23.8976 12.5032C23.8976 12.5032 23.8975 12.5022 23.8965 12.5022C22.1928 10.9434 21.9205 8.46932 22.6162 6.35999L22.9169 5.48018Z" fill="#E59A10" fill-opacity="0.5"/>
<path fill-rule="evenodd" clip-rule="evenodd" d="M27.2927 1.19568C27.2927 1.19568 25.5079 4.76516 24.3042 7.17258C23.6623 8.45654 23.9142 10.0066 24.9289 11.0214C24.9289 11.0214 24.9289 11.0214 24.93 11.0224C25.5567 11.6492 26.4059 12.0006 27.2927 12.0006C28.1795 12.0006 29.0287 11.6492 29.6554 11.0224C29.6564 11.0214 29.6564 11.0214 29.6564 11.0214C30.6712 10.0066 30.9231 8.45654 30.2811 7.17258C29.0774 4.76516 27.2927 1.19568 27.2927 1.19568Z" fill="#2AC2F9"/>
</svg>
