<svg width="32" height="32" viewBox="0 0 32 32" fill="none" xmlns="http://www.w3.org/2000/svg">
<path d="M31.1028 20.9925C31.1028 23.0016 30.5776 24.4276 29.7584 25.467C28.9313 26.5165 27.7418 27.251 26.2822 27.7577C23.3206 28.7858 19.5103 28.7956 16.0998 28.7956C12.6905 28.7956 8.82725 28.7862 5.81316 27.7563C4.32618 27.2482 3.11166 26.5115 2.26715 25.4604C1.43183 24.4208 0.896749 22.997 0.896749 20.9925C0.896749 17.2483 1.70245 13.3712 3.95966 10.4486C6.18461 7.56779 9.92418 5.48012 16.0998 5.48012C21.9585 5.48012 25.6574 7.57592 27.9167 10.4805C30.2055 13.4228 31.1028 17.3072 31.1028 20.9925Z" fill="#FBC546" stroke="black" stroke-width="1.7935"/>
<path d="M9.93274 24.1075C9.93274 24.1075 10.7185 23.3217 11.5358 22.5044C12.6944 21.3458 14.2659 20.6948 15.9048 20.6948C17.5438 20.6948 19.1153 21.3458 20.2739 22.5044C21.0912 23.3217 21.8769 24.1075 21.8769 24.1075" stroke="#593604" stroke-width="1.70631" stroke-miterlimit="1.5" stroke-linecap="round" stroke-linejoin="round"/>
<path fill-rule="evenodd" clip-rule="evenodd" d="M11.5427 12.3406L12.215 11.9567C12.3045 12.0275 12.3899 12.1034 12.4709 12.1853C13.0306 12.745 13.3454 13.5034 13.3454 14.2952C13.3454 14.8557 13.3454 15.4427 13.3454 16.0032C13.3454 17.6523 12.0085 18.9892 10.3593 18.9892H10.3576C9.56591 18.9892 8.80745 18.6744 8.24778 18.1148C7.68811 17.5551 7.37329 16.7966 7.37329 16.0049V14.7235L9.08387 13.7457C9.56505 13.8601 11.5444 12.8951 11.5427 12.3406V12.3406Z" fill="white"/>
<path fill-rule="evenodd" clip-rule="evenodd" d="M11.5427 12.3433C11.7073 12.4252 11.86 12.5335 11.9923 12.6666C12.3122 12.9865 12.4922 13.4208 12.4922 13.873C12.4922 14.6715 12.4922 15.6202 12.4922 16.4179C12.4922 16.871 12.3122 17.3044 11.9923 17.6252C11.6723 17.9451 11.2381 18.1243 10.7859 18.1243C10.3337 18.1243 9.89947 17.9451 9.57954 17.6252C9.25961 17.3044 9.07959 16.871 9.07959 16.4179C9.07959 15.6202 9.07959 14.6715 9.07959 13.873C9.07959 13.8312 9.0813 13.7894 9.08386 13.7484L11.5427 12.3433V12.3433Z" fill="black"/>
<path fill-rule="evenodd" clip-rule="evenodd" d="M20.267 12.3406L19.5947 11.9567C19.5051 12.0275 19.4198 12.1034 19.3388 12.1853C18.7791 12.745 18.4643 13.5034 18.4643 14.2952C18.4643 14.8557 18.4643 15.4427 18.4643 16.0032C18.4643 17.6523 19.8012 18.9892 21.4503 18.9892H21.4521C22.2438 18.9892 23.0022 18.6744 23.5619 18.1148C24.1216 17.5551 24.4364 16.7966 24.4364 16.0049V14.7235L22.7258 13.7457C22.2446 13.8601 20.2653 12.8951 20.267 12.3406V12.3406Z" fill="white"/>
<path fill-rule="evenodd" clip-rule="evenodd" d="M20.267 12.3433C20.1023 12.4252 19.9496 12.5335 19.8174 12.6666C19.4975 12.9865 19.3174 13.4208 19.3174 13.873C19.3174 14.6715 19.3174 15.6202 19.3174 16.4179C19.3174 16.871 19.4975 17.3044 19.8174 17.6252C20.1373 17.9451 20.5716 18.1243 21.0238 18.1243C21.4759 18.1243 21.9102 17.9451 22.2301 17.6252C22.5501 17.3044 22.7301 16.871 22.7301 16.4179C22.7301 15.6202 22.7301 14.6715 22.7301 13.873C22.7301 13.8312 22.7284 13.7894 22.7258 13.7484L20.267 12.3433V12.3433Z" fill="black"/>
</svg>
