<svg width="32" height="32" viewBox="0 0 32 32" fill="none" xmlns="http://www.w3.org/2000/svg">
<path d="M31.0361 20.8339C31.0361 29 22.4363 29 16.1119 29C9.78756 29 1 29 1 20.8339C1 13.6065 4.09745 3 16.1119 3C27.5632 3 31.0361 13.6802 31.0361 20.8339Z" fill="#FBC546"/>
<path d="M10.8108 21.1981C10.8108 21.1981 11.1393 21.5266 11.5607 21.948C12.7193 23.1066 14.2908 23.7576 15.9297 23.7576C17.5686 23.7576 19.1402 23.1066 20.2988 21.948C20.7202 21.5266 21.0487 21.1981 21.0487 21.1981" stroke="#593604" stroke-width="1.70631" stroke-miterlimit="1.5" stroke-linecap="round"/>
<path fill-rule="evenodd" clip-rule="evenodd" d="M16.5807 15.8771C16.2207 15.517 15.6389 15.517 15.2788 15.8771L13.2671 17.8888C12.7868 18.3691 12.1358 18.6387 11.4567 18.6387H8.25137C7.34617 18.6387 6.47851 18.2796 5.83864 17.6388C5.19792 16.999 4.83874 16.1313 4.83874 15.2261V13.5198H2.59064V10.9603H29.2938V13.5198H27.0208V15.2261C27.0208 16.1313 26.6616 16.999 26.0209 17.6388C25.3811 18.2796 24.5134 18.6387 23.6082 18.6387H20.4029C20.2442 18.6379 20.0872 18.6242 19.9319 18.5952C19.624 18.5372 19.3279 18.4229 19.0617 18.2591C18.8911 18.155 18.7341 18.0296 18.5925 17.8888L16.5807 15.8771Z" fill="#262626"/>
<path fill-rule="evenodd" clip-rule="evenodd" d="M13.3699 12.24C13.7095 12.24 14.0346 12.3748 14.2751 12.6145C14.5149 12.8551 14.6497 13.1802 14.6497 13.5197C14.6497 13.745 14.6497 13.9642 14.6497 14.1656C14.6497 14.5051 14.5149 14.831 14.2751 15.0708C13.7069 15.639 12.9297 16.4162 12.3615 16.9844C12.1218 17.2241 11.7959 17.3589 11.4563 17.3589H8.251C8.00444 17.353 7.7647 17.3171 7.53179 17.2344C7.33557 17.1636 7.14958 17.0646 6.98236 16.94C5.87496 16.121 6.11726 14.7397 6.11811 13.5197C6.11896 12.8099 6.70082 12.2571 7.39785 12.24H13.3699ZM24.461 12.24C24.8005 12.24 25.1256 12.3748 25.3662 12.6145C25.6059 12.8551 25.7407 13.1802 25.7407 13.5197V15.226C25.7407 15.7917 25.5163 16.3343 25.1162 16.7344C24.7161 17.1346 24.1735 17.3589 23.6078 17.3589H20.4025C20.063 17.3589 19.7371 17.2241 19.4973 16.9844C18.9291 16.4162 18.1519 15.639 17.5837 15.0708C17.344 14.831 17.2092 14.5051 17.2092 14.1656C17.2092 13.9642 17.2092 13.745 17.2092 13.5197C17.2092 13.1802 17.344 12.8551 17.5837 12.6145C17.8243 12.3748 18.1493 12.24 18.4889 12.24H24.461Z" fill="#0C0C0C"/>
<path fill-rule="evenodd" clip-rule="evenodd" d="M11.2372 12.24C11.2372 12.24 14.5338 12.949 14.5943 13.1486C14.631 13.268 14.6498 13.3926 14.6498 13.5197C14.6498 13.745 14.6498 13.9642 14.6498 14.1656C14.6498 14.5051 14.515 14.831 14.2753 15.0708C13.7071 15.639 12.9298 16.4162 12.3616 16.9844C12.1219 17.2241 11.796 17.3589 11.4564 17.3589H10.384C10.384 17.3589 6.8144 16.8061 6.74274 16.7344C5.91176 15.9017 6.11737 14.6425 6.11822 13.5197C6.11908 12.8099 6.70093 12.2571 7.39796 12.24H11.2372ZM22.3282 12.24C22.3282 12.24 25.6248 12.949 25.6854 13.1486C25.7221 13.268 25.7408 13.3926 25.7408 13.5197V15.226C25.7408 15.7917 25.5165 16.3343 25.1163 16.7344C24.7162 17.1346 24.1736 17.3589 23.6079 17.3589H21.4751C21.4751 17.3589 18.8772 16.3642 18.541 16.0272C18.2041 15.691 17.8679 15.3549 17.5838 15.0708C17.3441 14.831 17.2093 14.5051 17.2093 14.1656C17.2093 13.9642 17.2093 13.745 17.2093 13.5197C17.2093 13.1802 17.3441 12.8551 17.5838 12.6145C17.8244 12.3748 18.1494 12.24 18.489 12.24H22.3282Z" fill="#0C0C0C"/>
<path fill-rule="evenodd" clip-rule="evenodd" d="M13.369 12.24C13.7085 12.24 14.0336 12.3748 14.2742 12.6145C14.4243 12.7647 14.5327 12.949 14.5932 13.1486L10.3829 17.3589H8.25002C8.05977 17.3538 7.86951 17.3316 7.68438 17.2821C7.33032 17.1866 7.00697 16.9946 6.7459 16.7387L6.74164 16.7344L11.2361 12.24H13.369ZM24.46 12.24C24.7996 12.24 25.1246 12.3748 25.3652 12.6145C25.5154 12.7647 25.6237 12.949 25.6843 13.1486L21.474 17.3589H20.4015C20.1601 17.3572 19.9221 17.2898 19.7173 17.161C19.6371 17.1107 19.5637 17.0509 19.4963 16.9844L18.54 16.0272L22.3271 12.24H24.46Z" fill="#5F5F5F"/>
<path fill-rule="evenodd" clip-rule="evenodd" d="M29.0541 24.912C29.7283 24.0565 30.206 22.8358 30.206 20.9925C30.206 17.4196 29.3298 13.0359 27.1175 9.60697C24.9633 6.26815 21.5294 3.7863 16.0998 3.7863C10.3363 3.7863 6.86939 6.27829 4.76037 9.57227C2.5831 12.9729 1.7935 17.3464 1.7935 20.9925C1.7935 22.8266 2.27854 24.0429 2.96621 24.8988C3.67226 25.7776 4.72051 26.4353 6.10311 26.9077C8.94856 27.88 12.6502 27.8989 16.0998 27.8989C19.5519 27.8989 23.1975 27.8793 25.9881 26.9106C27.341 26.441 28.3641 25.7874 29.0541 24.912ZM16.0998 29.6924C22.8375 29.6924 31.9995 29.6924 31.9995 20.9925C31.9995 13.3711 28.2996 1.9928 16.0998 1.9928C3.29992 1.9928 0 13.2926 0 20.9925C0 29.6924 9.36199 29.6924 16.0998 29.6924Z" fill="black"/>
</svg>
