<svg width="32" height="32" viewBox="0 0 32 32" fill="none" xmlns="http://www.w3.org/2000/svg">
<g clip-path="url(#clip0)">
<path d="M31.1028 20.9924C31.1028 23.0016 30.5776 24.4275 29.7584 25.467C28.9313 26.5164 27.7418 27.251 26.2822 27.7577C23.3206 28.7858 19.5103 28.7956 16.0998 28.7956C12.6905 28.7956 8.82725 28.7861 5.81316 27.7562C4.32618 27.2482 3.11166 26.5115 2.26715 25.4604C1.43183 24.4207 0.896749 22.997 0.896749 20.9924C0.896749 16.8683 1.87293 11.7839 4.71861 8.07033H27.1307C30.0088 11.8091 31.1028 16.9205 31.1028 20.9924Z" fill="#FBC546" stroke="black" stroke-width="1.7935"/>
<path d="M10.7299 20.6875C10.7299 20.6875 11.0583 21.016 11.4798 21.4374C12.6384 22.596 14.2099 23.247 15.8488 23.247C17.4877 23.247 19.0592 22.596 20.2178 21.4374C20.6393 21.016 20.9677 20.6875 20.9677 20.6875" stroke="#593604" stroke-width="1.70631" stroke-miterlimit="1.5" stroke-linecap="round"/>
<path fill-rule="evenodd" clip-rule="evenodd" d="M10.7316 18.9811C11.4098 18.9811 12.0608 18.7115 12.5403 18.2321C13.0198 17.7526 13.2894 17.1016 13.2894 16.4234C13.2894 15.8774 13.2894 15.3006 13.2894 14.7529C13.2894 13.3187 12.1265 12.1559 10.6923 12.1559C10.6915 12.1559 10.6915 12.1559 10.6906 12.1559C9.29914 12.1559 8.17041 13.2846 8.17041 14.6761C8.17041 15.2452 8.17041 15.8509 8.17041 16.4217C8.17041 17.8354 9.3162 18.9811 10.7299 18.9811C10.7307 18.9811 10.7307 18.9811 10.7316 18.9811V18.9811Z" fill="white"/>
<path fill-rule="evenodd" clip-rule="evenodd" d="M9.87671 14.2888C9.87671 13.9492 10.0115 13.6242 10.2512 13.3836C10.4918 13.1438 10.8169 13.009 11.1564 13.009C11.496 13.009 11.8211 13.1438 12.0616 13.3836C12.3014 13.6242 12.4362 13.9492 12.4362 14.2888C12.4362 15.0668 12.4362 16.0565 12.4362 16.8337C12.4362 17.1733 12.3014 17.4992 12.0616 17.7389C11.8211 17.9787 11.496 18.1135 11.1564 18.1135C10.8169 18.1135 10.4918 17.9787 10.2512 17.7389C10.0115 17.4992 9.87671 17.1733 9.87671 16.8337C9.87671 16.0565 9.87671 15.0668 9.87671 14.2888Z" fill="black"/>
<path fill-rule="evenodd" clip-rule="evenodd" d="M20.966 18.9811C20.2878 18.9811 19.6368 18.7115 19.1573 18.2321C18.6779 17.7526 18.4083 17.1016 18.4083 16.4234C18.4083 15.8774 18.4083 15.3006 18.4083 14.7529C18.4083 13.3187 19.5711 12.1559 21.0053 12.1559C21.0061 12.1559 21.0061 12.1559 21.007 12.1559C22.3985 12.1559 23.5272 13.2846 23.5272 14.6761C23.5272 15.2452 23.5272 15.8509 23.5272 16.4217C23.5272 17.8354 22.3814 18.9811 20.9677 18.9811C20.9669 18.9811 20.9669 18.9811 20.966 18.9811Z" fill="white"/>
<path fill-rule="evenodd" clip-rule="evenodd" d="M21.8209 14.2871C21.8209 13.9484 21.6861 13.6233 21.4464 13.3836C21.2066 13.1438 20.8816 13.009 20.5429 13.009H20.5394C20.2007 13.009 19.8757 13.1438 19.6359 13.3836C19.3962 13.6233 19.2614 13.9484 19.2614 14.2871V16.8354C19.2614 17.175 19.3962 17.5001 19.6359 17.7398C19.8757 17.9787 20.2007 18.1135 20.5394 18.1135H20.5429C20.8816 18.1135 21.2066 17.9787 21.4464 17.7398C21.6861 17.5001 21.8209 17.175 21.8209 16.8354V14.2871Z" fill="black"/>
<path fill-rule="evenodd" clip-rule="evenodd" d="M7.14771 6.12813L8.34579 5.43473H23.4431L24.6412 6.12813L25.5999 8.28489H6.18903L7.14771 6.12813ZM7.62651 5.04975L9.01762 1.92136C9.39398 1.07375 10.1154 0.42888 10.9986 0.150657C11.8829 -0.128644 12.8437 -0.0164923 13.6385 0.461231C14.8247 1.17296 15.8945 1.8146 15.8945 1.8146C15.8945 1.8146 16.9642 1.17296 18.1504 0.461231C18.9452 -0.0164923 19.906 -0.128644 20.7903 0.150657C21.6735 0.42888 22.395 1.07375 22.7713 1.92136L24.1624 5.04975L23.4431 5.74315H8.34579L7.62651 5.04975V5.04975Z" fill="#6C5935"/>
<path fill-rule="evenodd" clip-rule="evenodd" d="M24.643 6.12489H7.14948L7.62828 5.04651H24.1642L24.643 6.12489Z" fill="#978156"/>
<path fill-rule="evenodd" clip-rule="evenodd" d="M5.09447 5.75988C6.51146 6.70454 8.17649 7.20923 9.87925 7.20923C13.1327 7.20923 18.6562 7.20923 21.9097 7.20923C23.6124 7.20923 25.2775 6.70454 26.6945 5.75988C27.2498 5.39108 27.8505 4.98992 28.4231 4.60817C28.9299 4.26956 29.5824 4.23829 30.1194 4.52621C30.6564 4.81306 30.9918 5.37382 30.9918 5.98311V5.98419C30.9918 6.8814 30.6359 7.74087 30.0008 8.37496C29.3667 9.01013 28.5072 9.36599 27.61 9.36599C21.7997 9.36599 9.98925 9.36599 4.17892 9.36599C3.28171 9.36599 2.42224 9.01013 1.78815 8.37496C1.15299 7.74087 0.797119 6.8814 0.797119 5.98419V5.98311C0.797119 5.37382 1.1325 4.81306 1.66953 4.52621C2.20656 4.23829 2.85899 4.26956 3.36582 4.60817C3.93845 4.98992 4.5391 5.39108 5.09447 5.75988V5.75988Z" fill="#4E4024"/>
</g>
<defs>
<clipPath id="clip0">
<rect width="32" height="32" fill="white"/>
</clipPath>
</defs>
</svg>
