<svg width="32" height="32" viewBox="0 0 32 32" fill="none" xmlns="http://www.w3.org/2000/svg">
<g clip-path="url(#clip0)">
<path d="M31.1028 20.9925C31.1028 23.0016 30.5776 24.4276 29.7584 25.467C28.9313 26.5165 27.7418 27.2511 26.2822 27.7577C23.3206 28.7859 19.5103 28.7956 16.0998 28.7956C12.6905 28.7956 8.82725 28.7862 5.81316 27.7563C4.32618 27.2482 3.11166 26.5116 2.26715 25.4605C1.43183 24.4208 0.896749 22.9971 0.896749 20.9925C0.896749 17.2445 1.70404 12.6828 4.00516 9.08874C6.27215 5.54802 10.0181 2.88955 16.0998 2.88955C21.8645 2.88955 25.569 5.55276 27.871 9.1208C30.2022 12.7339 31.1028 17.3007 31.1028 20.9925Z" fill="#A253E2" stroke="black" stroke-width="1.7935"/>
<path d="M24.5105 6.5974L23.6907 6.96056L24.2031 7.69634L27.5161 12.4541L28.0211 13.1794L28.6461 12.5544C30.1366 11.0639 30.9738 9.04267 30.9738 6.93524V3.58704V1.80135L29.7111 3.06402L30.2341 3.58704L29.7111 3.06403L29.7111 3.06405L29.711 3.06414L29.7106 3.0645L29.7092 3.06594L29.7036 3.07159L29.6816 3.09358L29.5987 3.17648L29.3076 3.46759L28.467 4.30816C27.949 4.82618 27.351 5.2572 26.6959 5.58475L26.6957 5.58487C26.3137 5.77604 25.7702 6.02805 25.3154 6.23517C25.0895 6.33808 24.888 6.42877 24.7429 6.49371L24.5721 6.57003L24.5261 6.59047L24.5143 6.59571L24.5114 6.59701L24.5107 6.59732L24.5105 6.59739L24.5105 6.5974ZM7.40066 7.56921L7.85591 6.84894L7.0788 6.49946L7.07879 6.49945L7.07878 6.49945L7.07865 6.49939L7.07808 6.49913L7.07568 6.49805L7.06593 6.49366L7.02769 6.4764L6.88437 6.4114C6.76215 6.35582 6.59096 6.27759 6.39533 6.18713C6.00234 6.0054 5.51729 5.77734 5.13269 5.58487L5.13245 5.58475C4.47736 5.2572 3.87938 4.82618 3.36136 4.30816L3.35795 4.30475L3.35453 4.30133L3.35111 4.29791L3.34769 4.29449L3.34427 4.29107L3.34085 4.28765L3.33742 4.28422L3.334 4.28079L3.33057 4.27737L3.32714 4.27394L3.32371 4.27051L3.32027 4.26707L3.31684 4.26364L3.3134 4.2602L3.30997 4.25677L3.30653 4.25333L3.30309 4.24989L3.29965 4.24645L3.29621 4.24301L3.29276 4.23956L3.28932 4.23612L3.28588 4.23267L3.28243 4.22923L3.27898 4.22578L3.27553 4.22233L3.27208 4.21888L3.26863 4.21543L3.26518 4.21198L3.26173 4.20853L3.25828 4.20508L3.25482 4.20162L3.25137 4.19817L3.24792 4.19471L3.24446 4.19126L3.241 4.1878L3.23755 4.18434L3.23409 4.18089L3.23063 4.17743L3.22717 4.17397L3.22371 4.17051L3.22025 4.16705L3.21679 4.16359L3.21333 4.16013L3.20987 4.15667L3.20641 4.15321L3.20294 4.14974L3.19948 4.14628L3.19602 4.14282L3.19256 4.13936L3.1891 4.13589L3.18563 4.13243L3.18217 4.12897L3.17871 4.1255L3.17524 4.12204L3.17178 4.11858L3.16832 4.11512L3.16485 4.11165L3.16139 4.10819L3.15793 4.10473L3.15446 4.10126L3.151 4.0978L3.14754 4.09434L3.14408 4.09088L3.14062 4.08741L3.13715 4.08395L3.13369 4.08049L3.13023 4.07703L3.12677 4.07357L3.12331 4.07011L3.11985 4.06665L3.11639 4.06319L3.11293 4.05973L3.10948 4.05628L3.10602 4.05282L3.10256 4.04936L3.09911 4.04591L3.09565 4.04245L3.0922 4.039L3.08874 4.03554L3.08529 4.03209L3.08184 4.02864L3.07839 4.02519L3.07494 4.02174L3.07149 4.01829L3.06804 4.01484L3.06459 4.01139L3.06115 4.00794L3.0577 4.0045L3.05426 4.00106L3.05081 3.99761L3.04737 3.99417L3.04393 3.99073L3.04049 3.98729L3.03705 3.98385L3.03362 3.98042L3.03018 3.97698L3.02675 3.97355L3.02332 3.97011L3.01988 3.96668L3.01645 3.96325L3.01303 3.95983L3.0096 3.9564L3.00617 3.95297L3.00275 3.94955L2.99933 3.94613L2.99591 3.94271L2.99249 3.93929L2.98907 3.93587L2.98566 3.93246L2.98225 3.92904L2.97883 3.92563L2.97542 3.92222L2.97202 3.91882L2.96861 3.91541L2.96521 3.91201L2.96181 3.90861L2.95841 3.90521L2.95501 3.90181L2.95161 3.89841L2.94822 3.89502L2.94483 3.89163L2.94144 3.88824L2.93805 3.88485L2.93467 3.88147L2.93129 3.87809L2.92791 3.87471L2.92453 3.87133L2.92115 3.86795L2.91778 3.86458L2.91441 3.86121L2.91104 3.85784L2.90768 3.85448L2.90432 3.85112L2.90096 3.84776L2.8976 3.8444L2.89424 3.84104L2.89089 3.83769L2.88754 3.83434L2.8842 3.831L2.88085 3.82765L2.87751 3.82431L2.87417 3.82097L2.87084 3.81764L2.86751 3.81431L2.86418 3.81098L2.86085 3.80765L2.85753 3.80433L2.85421 3.80101L2.85089 3.79769L2.84758 3.79438L2.84427 3.79107L2.84096 3.78776L2.83765 3.78445L2.83435 3.78115L2.83106 3.77785L2.82776 3.77456L2.82447 3.77127L2.82118 3.76798L2.8179 3.7647L2.81462 3.76142L2.81134 3.75814L2.80807 3.75487L2.8048 3.7516L2.80153 3.74833L2.79827 3.74507L2.79501 3.74181L2.79175 3.73855L2.7885 3.7353L2.78525 3.73205L2.78201 3.72881L2.77877 3.72557L2.77553 3.72233L2.7723 3.7191L2.76907 3.71587L2.76584 3.71264L2.76262 3.70942L2.75941 3.7062L2.75619 3.70299L2.75298 3.69978L2.74978 3.69658L2.74658 3.69338L2.74338 3.69018L2.74019 3.68699L2.737 3.6838L2.73382 3.68062L2.73064 3.67744L2.72746 3.67426L2.72429 3.67109L2.72113 3.66793L2.71797 3.66476L2.71481 3.66161L2.71166 3.65845L2.70851 3.65531L2.70536 3.65216L2.70223 3.64902L2.69909 3.64589L2.69596 3.64276L2.69284 3.63964L2.68972 3.63652L2.6866 3.6334L2.68349 3.63029L2.68038 3.62718L2.67728 3.62408L2.67419 3.62099L2.6711 3.6179L2.66801 3.61481L2.66493 3.61173L2.66185 3.60865L2.65878 3.60558L2.65572 3.60252L2.65266 3.59946L2.6496 3.5964L2.64655 3.59335L2.64351 3.59031L2.64047 3.58727L2.63743 3.58423L2.6344 3.5812L2.63138 3.57818L2.62836 3.57516L2.62535 3.57215L2.62234 3.56914L2.61934 3.56614L2.61634 3.56314L2.61335 3.56015L2.61037 3.55717L2.60739 3.55419L2.60441 3.55121L2.60145 3.54825L2.59848 3.54528L2.59553 3.54233L2.59258 3.53938L2.58963 3.53643L2.58669 3.53349L2.58376 3.53056L2.58083 3.52763L2.57791 3.52471L2.575 3.5218L2.57209 3.51889L2.56918 3.51598L2.56629 3.51309L2.5634 3.5102L2.56051 3.50731L2.55763 3.50443L2.55476 3.50156L2.5519 3.49869L2.54904 3.49583L2.54618 3.49298L2.54334 3.49013L2.5405 3.48729L2.53766 3.48446L2.53483 3.48163L2.53201 3.47881L2.5292 3.476L2.52639 3.47319L2.52359 3.47039L2.52079 3.46759L2.51801 3.4648L2.51522 3.46202L2.51245 3.45925L2.50968 3.45648L2.50692 3.45372L2.50417 3.45097L2.50142 3.44822L2.49868 3.44548L2.49595 3.44274L2.49322 3.44002L2.4905 3.4373L2.48779 3.43459L2.48508 3.43188L2.48238 3.42918L2.47969 3.42649L2.47701 3.42381L2.47433 3.42113L2.47166 3.41846L2.469 3.4158L2.46634 3.41314L2.4637 3.41049L2.46105 3.40785L2.45842 3.40522L2.4558 3.4026L2.45318 3.39998L2.45057 3.39737L2.44796 3.39476L2.44537 3.39217L2.44278 3.38958L2.4402 3.387L2.43763 3.38443L2.43506 3.38186L2.43251 3.3793L2.42996 3.37676L2.42741 3.37421L2.42488 3.37168L2.42235 3.36915L2.41984 3.36664L2.41733 3.36413L2.41482 3.36162L2.41233 3.35913L2.40984 3.35664L2.40737 3.35416L2.4049 3.35169L2.40243 3.34923L2.39998 3.34678L2.39753 3.34433L2.3951 3.3419L2.39267 3.33947L2.39025 3.33705L2.38783 3.33463L2.38543 3.33223L2.38303 3.32983L2.38065 3.32745L2.37827 3.32507L2.3759 3.3227L2.37354 3.32033L2.37118 3.31798L2.36884 3.31564L2.3665 3.3133L2.36417 3.31097L2.36186 3.30865L2.35955 3.30634L2.35724 3.30404L2.35495 3.30175L2.35267 3.29947L2.35039 3.29719L2.34813 3.29493L2.34587 3.29267L2.34362 3.29042L2.34138 3.28818L2.33915 3.28595L2.33693 3.28373L2.33472 3.28152L2.33252 3.27932L2.33032 3.27712L2.32814 3.27494L2.32596 3.27276L2.3238 3.2706L2.32164 3.26844L2.31949 3.26629L2.31736 3.26415L2.31523 3.26203L2.31311 3.25991L2.311 3.2578L2.3089 3.2557L2.30681 3.25361L2.30473 3.25152L2.30265 3.24945L2.30059 3.24739L2.29854 3.24534L2.2965 3.2433L2.29446 3.24126L2.29244 3.23924L2.29043 3.23723L2.28842 3.23522L2.28643 3.23323L2.28444 3.23124L2.28247 3.22927L2.28051 3.22731L2.27855 3.22535L2.27661 3.22341L2.27467 3.22147L2.27275 3.21955L2.27084 3.21764L2.26893 3.21573L2.26704 3.21384L2.26516 3.21195L2.26328 3.21008L2.26142 3.20822L2.25957 3.20637L2.25772 3.20452L2.25589 3.20269L2.25407 3.20087L2.25226 3.19906L2.25046 3.19726L2.24867 3.19547L2.24689 3.19369L2.24512 3.19192L2.24336 3.19016L2.24162 3.18841L2.23988 3.18668L2.23815 3.18495L2.23644 3.18324L2.23473 3.18153L2.23304 3.17984L2.23135 3.17815L2.22968 3.17648L2.22802 3.17482L2.22637 3.17317L2.22473 3.17153L2.2231 3.1699L2.22149 3.16828L2.21988 3.16668L2.21828 3.16508L2.2167 3.1635L2.21513 3.16193L2.21356 3.16036L2.21201 3.15881L2.21048 3.15727L2.20895 3.15575L2.20743 3.15423L2.20593 3.15272L2.20443 3.15123L2.20295 3.14975L2.20148 3.14828L2.20002 3.14682L2.19857 3.14537L2.19713 3.14393L2.19571 3.14251L2.1943 3.1411L2.1929 3.13969L2.19151 3.1383L2.19013 3.13693L2.18876 3.13556L2.18741 3.13421L2.18606 3.13286L2.18473 3.13153L2.18341 3.13021L2.18211 3.12891L2.18081 3.12761L2.17953 3.12633L2.17826 3.12506L2.177 3.1238L2.17575 3.12255L2.17452 3.12132L2.1733 3.1201L2.17209 3.11888L2.17089 3.11769L2.1697 3.1165L2.16853 3.11533L2.16737 3.11417L2.16622 3.11302L2.16508 3.11188L2.16396 3.11076L2.16285 3.10965L2.16175 3.10855L2.16066 3.10746L2.15959 3.10639L2.15853 3.10532L2.15748 3.10428L2.15644 3.10324L2.15542 3.10222L2.15441 3.10121L2.15341 3.10021L2.15242 3.09922L2.15145 3.09825L2.15049 3.09729L2.14955 3.09634L2.14861 3.09541L2.14769 3.09449L2.14678 3.09358L2.14589 3.09269L2.14501 3.09181L2.14414 3.09094L2.14328 3.09008L2.14244 3.08924L2.14161 3.08841L2.1408 3.08759L2.13999 3.08679L2.1392 3.086L2.13843 3.08523L2.13767 3.08446L2.13692 3.08372L2.13618 3.08298L2.13546 3.08226L2.13475 3.08155L2.13405 3.08085L2.13337 3.08017L2.1327 3.0795L2.13205 3.07885L2.13141 3.07821L2.13078 3.07758L2.13017 3.07697L2.12957 3.07637L2.12898 3.07578L2.12841 3.07521L2.12785 3.07465L2.12731 3.07411L2.12678 3.07357L2.12626 3.07306L2.12576 3.07256L2.12527 3.07207L2.12479 3.07159L2.12433 3.07113L2.12389 3.07069L2.12345 3.07025L2.12304 3.06984L2.12263 3.06943L2.12224 3.06904L2.12187 3.06867L2.12151 3.06831L2.12116 3.06796L2.12083 3.06763L2.12051 3.06731L2.12021 3.06701L2.11992 3.06672L2.11964 3.06644L2.11938 3.06618L2.11914 3.06594L2.11891 3.06571L2.11869 3.06549L2.11849 3.06529L2.1183 3.0651L2.11813 3.06493L2.11797 3.06477L2.11783 3.06463L2.1177 3.0645L2.11759 3.06439L2.11749 3.06429L2.11741 3.06421L2.11734 3.06414L2.11729 3.06409L2.11725 3.06405L2.11723 3.06403L1.59421 3.58704L2.11722 3.06402L0.854553 1.80135V3.58704V6.93524C0.854553 9.04267 1.69179 11.0639 3.18229 12.5544L3.83635 13.2085L4.33054 12.4266L7.40066 7.56921Z" fill="#530F8A" stroke="black" stroke-width="1.47931"/>
<path d="M30.0623 20.8245C30.0623 28.3978 21.8606 27.8988 15.9024 27.8988C9.9441 27.8988 1.66522 28.3978 1.66522 20.8245C1.66522 14.1217 4.58337 3.78625 15.9024 3.78625C27.4007 3.78625 30.0623 14.19 30.0623 20.8245Z" fill="#A253E2"/>
<path fill-rule="evenodd" clip-rule="evenodd" d="M20.9025 22.2617L23.8263 18.6068C24.1206 18.2391 24.6581 18.1794 25.0258 18.4737C25.3935 18.7681 25.4533 19.3055 25.1589 19.6733L21.2574 24.5499L18.5777 22.7625L15.9593 24.9441L13.3452 22.7514L10.6663 24.5516L6.76314 19.6733C6.4688 19.3055 6.52852 18.7681 6.89623 18.4737C7.26394 18.1794 7.80143 18.2391 8.09577 18.6068L11.0178 22.26L13.4579 20.6194L15.9627 22.7207L18.4633 20.6365L20.9025 22.2617V22.2617Z" fill="#3F0C69"/>
<path fill-rule="evenodd" clip-rule="evenodd" d="M22.6966 10.5618C22.7196 10.5831 22.7426 10.6053 22.7648 10.6283C23.3245 11.188 23.6393 11.9464 23.6393 12.7382C23.6393 13.5683 23.6393 14.4692 23.6393 15.2994C23.6393 16.9485 22.3024 18.2854 20.6533 18.2854H20.6336C18.9939 18.2752 17.6672 16.9417 17.6672 15.2994V14.8728L22.6966 10.5618V10.5618Z" fill="black"/>
<path fill-rule="evenodd" clip-rule="evenodd" d="M21.8827 12.3813C21.9159 12.4957 21.933 12.6151 21.933 12.7363C21.933 13.5186 21.933 14.5168 21.933 15.2991C21.933 15.6378 21.7982 15.9629 21.5585 16.2026C21.3187 16.4424 20.9937 16.5772 20.655 16.5772C20.6541 16.5772 20.6524 16.5772 20.6516 16.5772C20.3129 16.5772 19.9878 16.4424 19.7481 16.2026C19.5083 15.9629 19.3735 15.6378 19.3735 15.2991V14.5322L21.8827 12.3813V12.3813Z" fill="#F2C040"/>
<path fill-rule="evenodd" clip-rule="evenodd" d="M9.22521 10.5618C9.20217 10.5831 9.17914 10.6053 9.15696 10.6283C8.59729 11.188 8.28247 11.9464 8.28247 12.7382C8.28247 13.5683 8.28247 14.4692 8.28247 15.2994C8.28247 16.9485 9.61937 18.2854 11.2685 18.2854H11.2881C12.9279 18.2752 14.2546 16.9417 14.2546 15.2994V14.8728L9.22521 10.5618V10.5618Z" fill="black"/>
<path fill-rule="evenodd" clip-rule="evenodd" d="M10.0391 12.3813C10.0059 12.4957 9.9888 12.6151 9.9888 12.7363C9.9888 13.5186 9.9888 14.5168 9.9888 15.2991C9.9888 15.6378 10.1236 15.9629 10.3633 16.2026C10.6031 16.4424 10.9281 16.5772 11.2668 16.5772C11.2677 16.5772 11.2694 16.5772 11.2702 16.5772C11.6089 16.5772 11.934 16.4424 12.1737 16.2026C12.4135 15.9629 12.5483 15.6378 12.5483 15.2991V14.5322L10.0391 12.3813V12.3813Z" fill="#F2C040"/>
</g>
<defs>
<clipPath id="clip0">
<rect width="32" height="32" fill="white"/>
</clipPath>
</defs>
</svg>
