<svg width="32" height="32" viewBox="0 0 32 32" fill="none" xmlns="http://www.w3.org/2000/svg">
<path d="M31.1028 20.9925C31.1028 23.0016 30.5776 24.4276 29.7584 25.467C28.9313 26.5165 27.7418 27.2511 26.2822 27.7577C23.3206 28.7859 19.5103 28.7956 16.0998 28.7956C12.6905 28.7956 8.82725 28.7862 5.81316 27.7563C4.32618 27.2482 3.11166 26.5116 2.26715 25.4605C1.43183 24.4208 0.896749 22.9971 0.896749 20.9925C0.896749 17.2445 1.70404 12.6828 4.00516 9.08874C6.27215 5.54802 10.0181 2.88955 16.0998 2.88955C21.8645 2.88955 25.569 5.55276 27.871 9.1208C30.2022 12.7339 31.1028 17.3007 31.1028 20.9925Z" fill="#FBC546" stroke="black" stroke-width="1.7935"/>
<path d="M11.6639 21.5095C12.7568 22.6024 14.2379 23.2158 15.783 23.2158C15.8811 23.2158 15.9784 23.2158 16.0765 23.2158C17.6215 23.2158 19.1026 22.6024 20.1955 21.5095" stroke="#593604" stroke-width="1.70631" stroke-miterlimit="1.5" stroke-linecap="round"/>
<path fill-rule="evenodd" clip-rule="evenodd" d="M12.5171 10.4185C12.9693 10.4185 13.4035 10.5985 13.7235 10.9184C14.0434 11.2383 14.2234 11.6726 14.2234 12.1248C14.2234 12.902 14.2234 13.7987 14.2234 14.4769C14.2234 15.156 13.9538 15.807 13.4735 16.2873C13.1399 16.6209 12.7475 17.0134 12.4139 17.3469C11.9335 17.8273 11.2826 18.0969 10.6035 18.0969H8.25131C7.34611 18.0969 6.47845 17.7377 5.83858 17.097C5.19786 16.4571 4.83868 15.5894 4.83868 14.6842C4.83868 13.425 4.83868 12.1043 4.83868 11.2716C4.83868 10.8007 5.2209 10.4185 5.69184 10.4185H12.5171V10.4185ZM26.1676 10.4185C26.6386 10.4185 27.0208 10.8007 27.0208 11.2716C27.0208 12.1043 27.0208 13.425 27.0208 14.6842C27.0208 15.5894 26.6616 16.4571 26.0209 17.097C25.381 17.7377 24.5133 18.0969 23.6081 18.0969H21.256C20.5769 18.0969 19.9259 17.8273 19.4456 17.3469C19.112 17.0134 18.7196 16.6209 18.386 16.2873C17.9056 15.807 17.636 15.156 17.636 14.4769C17.636 13.7987 17.636 12.902 17.636 12.1248C17.636 11.6726 17.8161 11.2383 18.136 10.9184C18.4559 10.5985 18.8902 10.4185 19.3424 10.4185H26.1676V10.4185Z" fill="white"/>
<path fill-rule="evenodd" clip-rule="evenodd" d="M15.0706 14.6843C15.0203 15.5135 14.6679 16.2993 14.0767 16.8905C13.7431 17.2241 13.3506 17.6166 13.0171 17.9501C12.3772 18.5909 11.5087 18.95 10.6035 18.95H8.25132C7.12003 18.95 6.03482 18.5004 5.23456 17.701C4.43515 16.9008 3.98553 15.8155 3.98553 14.6843C3.98553 13.425 3.98553 12.1043 3.98553 11.2716C3.98553 10.3289 4.74911 9.56531 5.69185 9.56531H12.5171C13.1962 9.56531 13.8472 9.83491 14.3267 10.3152C14.5997 10.5874 14.8044 10.915 14.9298 11.2716H16.9296C17.0551 10.915 17.2598 10.5874 17.5328 10.3152C18.0123 9.83491 18.6633 9.56531 19.3424 9.56531H26.1676C27.1104 9.56531 27.8739 10.3289 27.8739 11.2716C27.8739 12.1043 27.8739 13.425 27.8739 14.6843C27.8739 15.8155 27.4243 16.9008 26.6249 17.701C25.8247 18.5004 24.7394 18.95 23.6082 18.95H21.256C20.3508 18.95 19.4823 18.5909 18.8424 17.9501C18.5088 17.6166 18.1164 17.2241 17.7828 16.8905C17.1916 16.2993 16.8392 15.5135 16.7889 14.6843H15.0706V14.6843ZM5.69185 14.6843C5.69185 15.3634 5.96145 16.0143 6.44177 16.4938C6.92125 16.9741 7.57221 17.2437 8.25132 17.2437H10.6035C11.0565 17.2437 11.4899 17.0637 11.8107 16.7438C12.1443 16.4102 12.5367 16.0177 12.8703 15.6842C13.1902 15.3634 13.3703 14.93 13.3703 14.4769C13.3703 13.7987 13.3703 12.902 13.3703 12.1248C13.3703 11.8987 13.2807 11.6811 13.1203 11.5216C12.9607 11.3612 12.7432 11.2716 12.5171 11.2716H5.69185V14.6843V14.6843ZM26.1676 11.2716H19.3424C19.1163 11.2716 18.8987 11.3612 18.7392 11.5216C18.5788 11.6811 18.4892 11.8987 18.4892 12.1248C18.4892 12.902 18.4892 13.7987 18.4892 14.4769C18.4892 14.93 18.6692 15.3634 18.9892 15.6842C19.3227 16.0177 19.7152 16.4102 20.0488 16.7438C20.3696 17.0637 20.803 17.2437 21.256 17.2437H23.6082C24.2873 17.2437 24.9382 16.9741 25.4177 16.4938C25.898 16.0143 26.1676 15.3634 26.1676 14.6843V11.2716V11.2716Z" fill="black"/>
<path fill-rule="evenodd" clip-rule="evenodd" d="M11.664 13.4045C11.664 13.0649 11.5292 12.7399 11.2894 12.4993C11.0488 12.2596 10.7238 12.1248 10.3842 12.1248C10.0447 12.1248 9.71962 12.2596 9.47903 12.4993C9.23929 12.7399 9.10449 13.0649 9.10449 13.4045V15.1108C9.10449 15.4504 9.23929 15.7754 9.47903 16.016C9.71962 16.2557 10.0447 16.3905 10.3842 16.3905C10.7238 16.3905 11.0488 16.2557 11.2894 16.016C11.5292 15.7754 11.664 15.4504 11.664 15.1108V13.4045Z" fill="black"/>
<path fill-rule="evenodd" clip-rule="evenodd" d="M22.755 13.4045C22.755 13.0649 22.6202 12.7399 22.3805 12.4993C22.1399 12.2596 21.8148 12.1248 21.4753 12.1248C21.1357 12.1248 20.8107 12.2596 20.5701 12.4993C20.3304 12.7399 20.1956 13.0649 20.1956 13.4045V15.1108C20.1956 15.4504 20.3304 15.7754 20.5701 16.016C20.8107 16.2557 21.1357 16.3905 21.4753 16.3905C21.8148 16.3905 22.1399 16.2557 22.3805 16.016C22.6202 15.7754 22.755 15.4504 22.755 15.1108V13.4045Z" fill="black"/>
</svg>
