<svg width="32" height="32" viewBox="0 0 32 32" fill="none" xmlns="http://www.w3.org/2000/svg">
<path d="M31.1028 20.9925C31.1028 23.0016 30.5776 24.4276 29.7584 25.467C28.9313 26.5165 27.7418 27.2511 26.2822 27.7577C23.3206 28.7859 19.5103 28.7956 16.0998 28.7956C12.6905 28.7956 8.82725 28.7862 5.81316 27.7563C4.32618 27.2482 3.11166 26.5116 2.26715 25.4605C1.43183 24.4208 0.896749 22.9971 0.896749 20.9925C0.896749 17.2445 1.70404 12.6828 4.00516 9.08874C6.27215 5.54802 10.0181 2.88955 16.0998 2.88955C21.8645 2.88955 25.569 5.55276 27.871 9.1208C30.2022 12.7339 31.1028 17.3007 31.1028 20.9925Z" fill="#FBC546" stroke="black" stroke-width="1.7935"/>
<path fill-rule="evenodd" clip-rule="evenodd" d="M21.9579 21.2168C21.9579 20.7459 21.5757 20.3636 21.1047 20.3636C18.9062 20.3636 13.0654 20.3636 10.8669 20.3636C10.3959 20.3636 10.0137 20.7459 10.0137 21.2168C10.0137 21.6877 10.3959 22.07 10.8669 22.07C13.0654 22.07 18.9062 22.07 21.1047 22.07C21.5757 22.07 21.9579 21.6877 21.9579 21.2168Z" fill="#593604"/>
<path fill-rule="evenodd" clip-rule="evenodd" d="M10.442 18.524C12.0903 18.524 13.4263 17.1879 13.4263 15.5396V14.6848C13.4263 13.8931 13.1115 13.1337 12.5518 12.5741C11.9913 12.0135 11.232 11.6987 10.4403 11.6987C10.4394 11.6987 10.4394 11.6987 10.4386 11.6987C8.79027 11.6987 7.45422 13.0356 7.45422 14.6831V15.5379C7.45422 16.3305 7.76904 17.0898 8.32871 17.6495C8.88923 18.21 9.64854 18.524 10.4403 18.524C10.4411 18.524 10.4411 18.524 10.442 18.524V18.524Z" fill="white"/>
<path fill-rule="evenodd" clip-rule="evenodd" d="M9.16052 14.2582C9.16052 13.3163 9.9241 12.5519 10.8668 12.5519C11.8096 12.5519 12.5732 13.3163 12.5732 14.2582C12.5732 14.8034 12.5732 15.4057 12.5732 15.9509C12.5732 16.8927 11.8096 17.6572 10.8668 17.6572C9.9241 17.6572 9.16052 16.8927 9.16052 15.9509C9.16052 15.4057 9.16052 14.8034 9.16052 14.2582Z" fill="black"/>
<path fill-rule="evenodd" clip-rule="evenodd" d="M21.5296 18.524C19.8813 18.524 18.5453 17.1879 18.5453 15.5396V14.6848C18.5453 13.8931 18.8601 13.1337 19.4197 12.5741C19.9803 12.0135 20.7396 11.6987 21.5313 11.6987C21.5322 11.6987 21.5322 11.6987 21.533 11.6987C23.1813 11.6987 24.5174 13.0356 24.5174 14.6831V15.5379C24.5174 16.3305 24.2025 17.0898 23.6429 17.6495C23.0823 18.21 22.323 18.524 21.5313 18.524C21.5305 18.524 21.5305 18.524 21.5296 18.524V18.524Z" fill="white"/>
<path fill-rule="evenodd" clip-rule="evenodd" d="M22.8111 14.2582C22.8111 13.3163 22.0475 12.5519 21.1048 12.5519C20.162 12.5519 19.3984 13.3163 19.3984 14.2582C19.3984 14.8034 19.3984 15.4057 19.3984 15.9509C19.3984 16.8927 20.162 17.6572 21.1048 17.6572C22.0475 17.6572 22.8111 16.8927 22.8111 15.9509C22.8111 15.4057 22.8111 14.8034 22.8111 14.2582Z" fill="black"/>
<path fill-rule="evenodd" clip-rule="evenodd" d="M22.9169 5.48018C23.9133 6.07801 24.7072 6.76973 25.3083 7.27367C27.2557 9.05345 28.0981 11.0599 29.0308 13.6952C28.6213 13.8151 28.1964 13.886 27.7641 13.9053C26.3404 13.969 24.9492 13.4648 23.8976 12.5032C23.8976 12.5032 23.8975 12.5022 23.8965 12.5022C22.1928 10.9434 21.9205 8.46932 22.6162 6.35999L22.9169 5.48018Z" fill="#E59A10"/>
<path fill-rule="evenodd" clip-rule="evenodd" d="M27.2927 1.19568C27.2927 1.19568 25.5079 4.76516 24.3042 7.17258C23.6623 8.45654 23.9142 10.0066 24.9289 11.0214C24.9289 11.0214 24.9289 11.0214 24.93 11.0224C25.5567 11.6492 26.4059 12.0006 27.2927 12.0006C28.1795 12.0006 29.0287 11.6492 29.6554 11.0224C29.6564 11.0214 29.6564 11.0214 29.6564 11.0214C30.6712 10.0066 30.9231 8.45654 30.2811 7.17258C29.0774 4.76516 27.2927 1.19568 27.2927 1.19568Z" fill="#2AC2F9"/>
</svg>
