<svg width="32" height="32" viewBox="0 0 32 32" fill="none" xmlns="http://www.w3.org/2000/svg">
<path d="M31.1028 20.9925C31.1028 23.0016 30.5776 24.4276 29.7584 25.467C28.9313 26.5165 27.7418 27.2511 26.2822 27.7577C23.3206 28.7859 19.5103 28.7956 16.0998 28.7956C12.6905 28.7956 8.82725 28.7862 5.81316 27.7563C4.32618 27.2482 3.11166 26.5116 2.26715 25.4605C1.43183 24.4208 0.896749 22.9971 0.896749 20.9925C0.896749 17.2445 1.70404 12.6828 4.00516 9.08874C6.27215 5.54802 10.0181 2.88955 16.0998 2.88955C21.8645 2.88955 25.569 5.55276 27.871 9.1208C30.2022 12.7339 31.1028 17.3007 31.1028 20.9925Z" fill="#FBC546" stroke="black" stroke-width="1.7935"/>
<path fill-rule="evenodd" clip-rule="evenodd" d="M15.9954 17.8995C18.0703 17.8995 19.9673 19.0722 20.8957 20.9281C21.2354 21.6085 21.5115 22.1606 21.5115 22.1606C21.7427 22.622 21.5555 23.1854 21.0932 23.4157C20.6318 23.6468 20.0684 23.4596 19.8382 22.9973C19.8382 22.9973 19.5621 22.4451 19.2214 21.7648C18.6103 20.5434 17.3618 19.7713 15.9954 19.7713C14.629 19.7713 13.3805 20.5434 12.7694 21.7648C12.4287 22.4451 12.1526 22.9973 12.1526 22.9973C11.9224 23.4596 11.359 23.6468 10.8976 23.4157C10.4353 23.1854 10.2481 22.622 10.4793 22.1606C10.4793 22.1606 10.7554 21.6085 11.0951 20.9281C12.0235 19.0722 13.9205 17.8995 15.9954 17.8995V17.8995Z" fill="#593604"/>
<path fill-rule="evenodd" clip-rule="evenodd" d="M13.1879 15.0883C13.1879 14.8384 13.0887 14.5998 12.9127 14.4238C12.7368 14.247 12.4972 14.1487 12.2482 14.1487C11.2103 14.1487 9.55007 14.1487 8.51217 14.1487C8.26323 14.1487 8.02364 14.247 7.84769 14.4238C7.67174 14.5998 7.57254 14.8384 7.57254 15.0883C7.57254 15.3373 7.67174 15.5768 7.84769 15.7528C8.02364 15.9287 8.26323 16.0279 8.51217 16.0279C9.55007 16.0279 11.2103 16.0279 12.2482 16.0279C12.4972 16.0279 12.7368 15.9287 12.9127 15.7528C13.0887 15.5768 13.1879 15.3373 13.1879 15.0883Z" fill="black"/>
<path fill-rule="evenodd" clip-rule="evenodd" d="M24.4185 15.0883C24.4185 14.8384 24.3193 14.5998 24.1434 14.4238C23.9674 14.247 23.7278 14.1487 23.4789 14.1487C22.441 14.1487 20.7807 14.1487 19.7428 14.1487C19.4939 14.1487 19.2543 14.247 19.0784 14.4238C18.9024 14.5998 18.8032 14.8384 18.8032 15.0883C18.8032 15.3373 18.9024 15.5768 19.0784 15.7528C19.2543 15.9287 19.4939 16.0279 19.7428 16.0279C20.7807 16.0279 22.441 16.0279 23.4789 16.0279C23.7278 16.0279 23.9674 15.9287 24.1434 15.7528C24.3193 15.5768 24.4185 15.3373 24.4185 15.0883Z" fill="black"/>
<path fill-rule="evenodd" clip-rule="evenodd" d="M22.9979 5.50307C23.7481 5.95352 24.457 6.48005 25.1122 7.08016C27.0596 8.85994 28.4145 11.1685 29.0308 13.6952C28.6213 13.8152 28.1964 13.886 27.7641 13.9053C26.3404 13.969 24.9493 13.4648 23.8976 12.5032C23.8976 12.5032 23.8975 12.5022 23.8965 12.5022C22.1928 10.9434 21.6765 8.4692 22.6163 6.36001L22.9979 5.50307V5.50307Z" fill="#E59A10"/>
<path fill-rule="evenodd" clip-rule="evenodd" d="M27.2927 1.19568C27.2927 1.19568 25.508 4.76516 24.3043 7.17258C23.6623 8.45654 23.9142 10.0066 24.929 11.0214C24.929 11.0214 24.929 11.0214 24.93 11.0224C25.5567 11.6492 26.4059 12.0006 27.2927 12.0006C28.1795 12.0006 29.0287 11.6492 29.6554 11.0224C29.6565 11.0214 29.6565 11.0214 29.6565 11.0214C30.6712 10.0066 30.9231 8.45654 30.2812 7.17258C29.0775 4.76516 27.2927 1.19568 27.2927 1.19568Z" fill="#2AC2F9"/>
</svg>
