<svg width="32" height="32" viewBox="0 0 32 32" fill="none" xmlns="http://www.w3.org/2000/svg">
<path d="M31.1028 20.9925C31.1028 23.0016 30.5776 24.4276 29.7584 25.467C28.9313 26.5165 27.7418 27.251 26.2822 27.7577C23.3206 28.7858 19.5103 28.7956 16.0998 28.7956C12.6905 28.7956 8.82725 28.7862 5.81316 27.7563C4.32618 27.2482 3.11166 26.5115 2.26715 25.4604C1.43183 24.4208 0.896749 22.997 0.896749 20.9925C0.896749 17.2483 1.70245 13.3712 3.95966 10.4486C6.18461 7.56779 9.92418 5.48012 16.0998 5.48012C21.9585 5.48012 25.6574 7.57592 27.9167 10.4805C30.2055 13.4228 31.1028 17.3072 31.1028 20.9925Z" fill="#FBC546" stroke="black" stroke-width="1.7935"/>
<path fill-rule="evenodd" clip-rule="evenodd" d="M22.0139 22.1571C22.0139 21.6862 21.6317 21.304 21.1608 21.304C18.9622 21.304 13.1215 21.304 10.9229 21.304C10.4519 21.304 10.0697 21.6862 10.0697 22.1571C10.0697 22.6281 10.4519 23.0103 10.9229 23.0103C13.1215 23.0103 18.9622 23.0103 21.1608 23.0103C21.6317 23.0103 22.0139 22.6281 22.0139 22.1571Z" fill="#593604"/>
<path fill-rule="evenodd" clip-rule="evenodd" d="M24.5734 16.1849C24.5734 15.9589 24.4838 15.7413 24.3235 15.5818C24.1639 15.4214 23.9464 15.3318 23.7203 15.3318C22.5847 15.3318 20.59 15.3318 19.4545 15.3318C19.2284 15.3318 19.0108 15.4214 18.8513 15.5818C18.6909 15.7413 18.6013 15.9589 18.6013 16.1849C18.6013 16.411 18.6909 16.6286 18.8513 16.7881C19.0108 16.9485 19.2284 17.0381 19.4545 17.0381C20.59 17.0381 22.5847 17.0381 23.7203 17.0381C23.9464 17.0381 24.1639 16.9485 24.3235 16.7881C24.4838 16.6286 24.5734 16.411 24.5734 16.1849Z" fill="black"/>
<path fill-rule="evenodd" clip-rule="evenodd" d="M13.4824 16.1849C13.4824 15.9589 13.3928 15.7413 13.2324 15.5818C13.0729 15.4214 12.8553 15.3318 12.6292 15.3318C11.4937 15.3318 9.49899 15.3318 8.36344 15.3318C8.13736 15.3318 7.9198 15.4214 7.76026 15.5818C7.59987 15.7413 7.51028 15.9589 7.51028 16.1849C7.51028 16.411 7.59987 16.6286 7.76026 16.7881C7.9198 16.9485 8.13736 17.0381 8.36344 17.0381C9.49899 17.0381 11.4937 17.0381 12.6292 17.0381C12.8553 17.0381 13.0729 16.9485 13.2324 16.7881C13.3928 16.6286 13.4824 16.411 13.4824 16.1849Z" fill="black"/>
</svg>
