<svg width="32" height="32" viewBox="0 0 32 32" fill="none" xmlns="http://www.w3.org/2000/svg">
<path d="M31.1028 20.9925C31.1028 23.0016 30.5776 24.4276 29.7584 25.467C28.9313 26.5165 27.7418 27.2511 26.2822 27.7577C23.3206 28.7859 19.5103 28.7956 16.0998 28.7956C12.6905 28.7956 8.82725 28.7862 5.81316 27.7563C4.32618 27.2482 3.11166 26.5116 2.26715 25.4605C1.43183 24.4208 0.896749 22.9971 0.896749 20.9925C0.896749 17.2445 1.70404 12.6828 4.00516 9.08874C6.27215 5.54802 10.0181 2.88955 16.0998 2.88955C21.8645 2.88955 25.569 5.55276 27.871 9.1208C30.2022 12.7339 31.1028 17.3007 31.1028 20.9925Z" fill="#FBC546" stroke="black" stroke-width="1.7935"/>
<path fill-rule="evenodd" clip-rule="evenodd" d="M24.4364 21.6527C24.4364 20.9745 24.1668 20.3235 23.6865 19.8432C23.207 19.3629 22.5561 19.0933 21.877 19.0933C18.6554 19.0933 13.1543 19.0933 9.93276 19.0933C9.25365 19.0933 8.60269 19.3629 8.12322 19.8432C7.64289 20.3235 7.37329 20.9745 7.37329 21.6527C7.37329 21.936 7.37329 22.2235 7.37329 22.5059C7.37329 23.185 7.64289 23.836 8.12322 24.3163C8.60269 24.7958 9.25365 25.0654 9.93276 25.0654C13.1543 25.0654 18.6554 25.0654 21.877 25.0654C22.5561 25.0654 23.207 24.7958 23.6865 24.3163C24.1668 23.836 24.4364 23.185 24.4364 22.5059C24.4364 22.2235 24.4364 21.936 24.4364 21.6527Z" fill="#7E5108"/>
<path fill-rule="evenodd" clip-rule="evenodd" d="M9.76507 24.2037C9.76678 23.7225 9.95959 23.2601 10.3 22.9197C10.643 22.5767 11.1079 22.3839 11.5925 22.3839C13.9148 22.3839 17.9008 22.3839 20.2231 22.3839C20.7077 22.3839 21.1726 22.5767 21.5156 22.9197C21.856 23.2601 22.0488 23.7225 22.0505 24.2037C21.9942 24.2096 21.9371 24.2122 21.8799 24.2122C18.9254 24.2122 12.8902 24.2122 9.9357 24.2122C9.87854 24.2122 9.82138 24.2096 9.76507 24.2037ZM9.09961 20.1657C9.353 20.0232 9.64051 19.9464 9.9357 19.9464C12.8902 19.9464 18.9254 19.9464 21.8799 19.9464C22.1751 19.9464 22.4626 20.0232 22.716 20.1657C22.2067 21.1485 21.1976 21.9205 20.0774 21.9205C17.7892 21.9205 14.0456 21.9205 11.7574 21.9205C10.6372 21.9205 9.60894 21.1485 9.09961 20.1657Z" fill="white"/>
<path fill-rule="evenodd" clip-rule="evenodd" d="M10.3593 18.2402C12.0085 18.2402 13.3454 16.9033 13.3454 15.2541V13.5478C13.3454 11.8987 12.0085 10.5618 10.3593 10.5618H10.3576C9.56591 10.5618 8.80745 10.8766 8.24778 11.4363C7.68811 11.9959 7.37329 12.7552 7.37329 13.5461C7.37329 14.1075 7.37329 14.6936 7.37329 15.2541C7.37329 16.9033 8.71019 18.2402 10.3593 18.2402Z" fill="white"/>
<path fill-rule="evenodd" clip-rule="evenodd" d="M9.07959 13.1212C9.07959 12.6691 9.25961 12.2348 9.57954 11.9149C9.89947 11.5949 10.3337 11.4149 10.7859 11.4149C11.2381 11.4149 11.6723 11.5949 11.9923 11.9149C12.3122 12.2348 12.4922 12.6691 12.4922 13.1212C12.4922 13.9198 12.4922 14.8685 12.4922 15.6671C12.4922 16.1192 12.3122 16.5535 11.9923 16.8734C11.6723 17.1934 11.2381 17.3734 10.7859 17.3734C10.3337 17.3734 9.89947 17.1934 9.57954 16.8734C9.25961 16.5535 9.07959 16.1192 9.07959 15.6671C9.07959 14.8685 9.07959 13.9198 9.07959 13.1212Z" fill="black"/>
<path fill-rule="evenodd" clip-rule="evenodd" d="M21.4503 18.2402C19.8012 18.2402 18.4643 16.9033 18.4643 15.2541V13.5478C18.4643 11.8987 19.8012 10.5618 21.4503 10.5618H21.4521C22.2438 10.5618 23.0022 10.8766 23.5619 11.4363C24.1216 11.9959 24.4364 12.7552 24.4364 13.5461C24.4364 14.1075 24.4364 14.6936 24.4364 15.2541C24.4364 16.9033 23.0995 18.2402 21.4503 18.2402V18.2402Z" fill="white"/>
<path fill-rule="evenodd" clip-rule="evenodd" d="M22.7301 13.1212C22.7301 12.6691 22.5501 12.2348 22.2302 11.9149C21.9102 11.5949 21.476 11.4149 21.0238 11.4149C20.5716 11.4149 20.1374 11.5949 19.8175 11.9149C19.4975 12.2348 19.3175 12.6691 19.3175 13.1212C19.3175 13.9198 19.3175 14.8685 19.3175 15.6671C19.3175 16.1192 19.4975 16.5535 19.8175 16.8734C20.1374 17.1934 20.5716 17.3734 21.0238 17.3734C21.476 17.3734 21.9102 17.1934 22.2302 16.8734C22.5501 16.5535 22.7301 16.1192 22.7301 15.6671C22.7301 14.8685 22.7301 13.9198 22.7301 13.1212Z" fill="black"/>
</svg>
