<svg width="32" height="32" viewBox="0 0 32 32" fill="none" xmlns="http://www.w3.org/2000/svg">
<g clip-path="url(#clip0)">
<path d="M31.1028 20.9925C31.1028 23.0016 30.5776 24.4276 29.7584 25.467C28.9313 26.5165 27.7418 27.2511 26.2822 27.7577C23.3206 28.7859 19.5103 28.7956 16.0998 28.7956C12.6905 28.7956 8.82725 28.7862 5.81316 27.7563C4.32618 27.2482 3.11166 26.5116 2.26715 25.4605C1.43183 24.4208 0.896749 22.9971 0.896749 20.9925C0.896749 17.2445 1.70404 12.6828 4.00516 9.08874C6.27215 5.54802 10.0181 2.88955 16.0998 2.88955C21.8645 2.88955 25.569 5.55276 27.871 9.1208C30.2022 12.7339 31.1028 17.3007 31.1028 20.9925Z" fill="#FBC546" stroke="black" stroke-width="1.7935"/>
<path fill-rule="evenodd" clip-rule="evenodd" d="M20.1717 22.1276C20.182 22.1369 20.1922 22.1472 20.2024 22.1574L24.4115 27.3011C24.8101 27.4007 21.3227 27.8989 18.4332 27.8989C18.4332 27.8989 20.0557 23.717 20.164 22.1199L20.1717 22.1276Z" fill="#E59A10"/>
<path d="M10.1723 27.617C9.26722 26.7119 9.27659 26.9191 8.74739 26.2576C7.02749 24.1078 9.70064 21.5973 9.70064 21.5973L11.5725 23.3531L13.9356 20.9901C14.3604 20.5653 14.937 20.3263 15.5374 20.3263C16.1378 20.3263 16.7144 20.5653 17.1392 20.9901L18.4668 22.3178C18.8917 22.7426 19.1307 23.3192 19.1307 23.9196C19.1307 24.5199 18.8917 25.0965 18.4668 25.5213L16.37 27.6182C14.6594 29.3287 11.884 29.3287 10.1735 27.6182L10.1723 27.617Z" fill="#FBC546"/>
<path fill-rule="evenodd" clip-rule="evenodd" d="M8.9042 28.8853L8.90534 28.8864V28.8864C11.3163 31.2972 15.2273 31.2973 17.6382 28.8864L19.7351 26.7896C20.4959 26.0288 20.9242 24.9962 20.9242 23.9196C20.9242 22.843 20.4959 21.8104 19.7351 21.0496V21.0496L18.4074 19.722C17.6466 18.9612 16.614 18.5328 15.5374 18.5328C14.4608 18.5328 13.4282 18.9612 12.6674 19.722L11.5327 20.8567L9.69995 19.1376L8.47289 20.29L9.70069 21.5973L11.5726 23.3532L13.9356 20.9902C14.3604 20.5654 14.937 20.3263 15.5374 20.3263C16.1378 20.3263 16.7144 20.5654 17.1392 20.9902L18.4669 22.3178C18.8917 22.7426 19.1307 23.3192 19.1307 23.9196C19.1307 24.52 18.8917 25.0966 18.4669 25.5214L16.37 27.6182C14.6595 29.3287 11.8841 29.3287 10.1735 27.6182L10.1724 27.6171C9.75426 27.1989 9.53129 27.0182 9.36023 26.8795C9.16099 26.718 9.03217 26.6136 8.74744 26.2577C7.86206 25.151 8.14085 23.9487 8.61985 23.0425C8.86818 22.5727 9.17033 22.1825 9.39197 21.9265C9.57327 21.717 9.70069 21.5973 9.70069 21.5973C8.47289 20.29 8.4724 20.2905 8.4719 20.2909L8.47085 20.2919L8.46856 20.2941L8.46322 20.2991C8.45933 20.3028 8.45478 20.3072 8.4496 20.3122C8.43924 20.3221 8.42634 20.3347 8.41113 20.3497C8.38074 20.3797 8.34095 20.4198 8.29363 20.4692C8.19932 20.5677 8.07327 20.7053 7.93109 20.8762C7.65199 21.2117 7.28478 21.7065 6.97862 22.3119C6.37552 23.5045 5.85605 25.5145 7.34696 27.3781C7.69689 27.8155 7.91845 28.0186 8.1868 28.237C8.20099 28.2486 8.21527 28.2601 8.22978 28.2719C8.37783 28.3917 8.55001 28.5311 8.9042 28.8853Z" fill="#9D6E17"/>
<path fill-rule="evenodd" clip-rule="evenodd" d="M10.498 17.4929C11.2897 17.4929 12.0482 17.1781 12.6079 16.6184C13.1675 16.0587 13.4824 15.3003 13.4824 14.5085C13.4824 13.948 13.4824 13.361 13.4824 12.8005C13.4824 11.1514 12.1455 9.81445 10.4963 9.81445H10.4946C9.70287 9.81445 8.94441 10.1293 8.38474 10.6889C7.82507 11.2486 7.51025 12.0071 7.51025 12.7988C7.51025 13.3593 7.51025 13.9463 7.51025 14.5068C7.51025 16.156 8.84715 17.4929 10.4963 17.4929H10.498V17.4929Z" fill="white"/>
<path fill-rule="evenodd" clip-rule="evenodd" d="M9.21661 12.3739C9.21661 11.9217 9.39663 11.4875 9.71656 11.1676C10.0365 10.8476 10.4708 10.6676 10.9229 10.6676C11.3751 10.6676 11.8094 10.8476 12.1293 11.1676C12.4492 11.4875 12.6292 11.9217 12.6292 12.3739C12.6292 13.1725 12.6292 14.1212 12.6292 14.9189C12.6292 15.3719 12.4492 15.8053 12.1293 16.1261C11.8094 16.446 11.3751 16.6252 10.9229 16.6252C10.4708 16.6252 10.0365 16.446 9.71656 16.1261C9.39663 15.8053 9.21661 15.3719 9.21661 14.9189C9.21661 14.1212 9.21661 13.1725 9.21661 12.3739Z" fill="black"/>
<path fill-rule="evenodd" clip-rule="evenodd" d="M21.5857 17.4929C20.7939 17.4929 20.0355 17.1781 19.4758 16.6184C18.9161 16.0587 18.6013 15.3003 18.6013 14.5085C18.6013 13.948 18.6013 13.361 18.6013 12.8005C18.6013 11.1514 19.9382 9.81445 21.5874 9.81445H21.5891C22.3808 9.81445 23.1393 10.1293 23.6989 10.6889C24.2586 11.2486 24.5734 12.0071 24.5734 12.7988C24.5734 13.3593 24.5734 13.9463 24.5734 14.5068C24.5734 16.156 23.2365 17.4929 21.5874 17.4929H21.5857Z" fill="white"/>
<path fill-rule="evenodd" clip-rule="evenodd" d="M22.8671 12.3739C22.8671 11.9217 22.6871 11.4875 22.3671 11.1676C22.0472 10.8476 21.613 10.6676 21.1608 10.6676C20.7086 10.6676 20.2744 10.8476 19.9544 11.1676C19.6345 11.4875 19.4545 11.9217 19.4545 12.3739C19.4545 13.1725 19.4545 14.1212 19.4545 14.9189C19.4545 15.3719 19.6345 15.8053 19.9544 16.1261C20.2744 16.446 20.7086 16.6252 21.1608 16.6252C21.613 16.6252 22.0472 16.446 22.3671 16.1261C22.6871 15.8053 22.8671 15.3719 22.8671 14.9189C22.8671 14.1212 22.8671 13.1725 22.8671 12.3739Z" fill="black"/>
</g>
<defs>
<clipPath id="clip0">
<rect width="32" height="32" fill="white"/>
</clipPath>
</defs>
</svg>
