<svg width="32" height="32" viewBox="0 0 32 32" fill="none" xmlns="http://www.w3.org/2000/svg">
<path d="M31.1028 20.9925C31.1028 23.0016 30.5776 24.4276 29.7584 25.467C28.9313 26.5165 27.7418 27.2511 26.2822 27.7577C23.3206 28.7859 19.5103 28.7956 16.0998 28.7956C12.6905 28.7956 8.82725 28.7862 5.81316 27.7563C4.32618 27.2482 3.11166 26.5116 2.26715 25.4605C1.43183 24.4208 0.896749 22.9971 0.896749 20.9925C0.896749 17.2445 1.70404 12.6828 4.00516 9.08874C6.27215 5.54802 10.0181 2.88955 16.0998 2.88955C21.8645 2.88955 25.569 5.55276 27.871 9.1208C30.2022 12.7339 31.1028 17.3007 31.1028 20.9925Z" fill="#FBC546" stroke="black" stroke-width="1.7935"/>
<path fill-rule="evenodd" clip-rule="evenodd" d="M19.3175 23.359C19.3175 22.8881 18.9353 22.5059 18.4643 22.5059C17.153 22.5059 14.6567 22.5059 13.3454 22.5059C12.8745 22.5059 12.4922 22.8881 12.4922 23.359C12.4922 23.83 12.8745 24.2122 13.3454 24.2122C14.6567 24.2122 17.153 24.2122 18.4643 24.2122C18.9353 24.2122 19.3175 23.83 19.3175 23.359Z" fill="#593604"/>
<path fill-rule="evenodd" clip-rule="evenodd" d="M18.4942 15.6807C18.4745 15.5416 18.4643 15.3992 18.4643 15.2541C18.4643 14.6936 18.4643 14.1066 18.4643 13.5461C18.4643 12.7544 18.7791 11.9959 19.3388 11.4363C19.8985 10.8766 20.6569 10.5618 21.4486 10.5618H21.4503C22.2643 10.5618 23.0022 10.8877 23.5406 11.4158C22.9434 11.4303 22.7326 13.9215 22.9092 15.6807H18.4942V15.6807Z" fill="white"/>
<path fill-rule="evenodd" clip-rule="evenodd" d="M21.877 15.6799V13.1204C21.877 12.1921 22.6183 11.4371 23.5406 11.4149C24.0935 11.9567 24.4364 12.7117 24.4364 13.547C24.4364 14.1075 24.4364 14.6945 24.4364 15.255C24.4364 15.4103 24.4245 15.5647 24.4006 15.7157L24.3895 15.714C24.2641 15.6918 24.137 15.6799 24.0098 15.6799H21.877V15.6799Z" fill="black"/>
<path fill-rule="evenodd" clip-rule="evenodd" d="M10.3593 10.5618C11.1733 10.5618 11.9112 10.8877 12.4496 11.4158C11.5273 11.438 11.5273 17.364 12.4504 17.3862C11.8933 17.933 11.1425 18.2402 10.361 18.2402H10.3593C8.71019 18.2402 7.37329 16.9033 7.37329 15.2541C7.37329 14.6936 7.37329 14.1066 7.37329 13.5461C7.37329 12.7544 7.68811 11.9959 8.24778 11.4363C8.80745 10.8766 9.56591 10.5618 10.3576 10.5618H10.3593V10.5618Z" fill="white"/>
<path fill-rule="evenodd" clip-rule="evenodd" d="M12.4495 11.4149C13.0024 11.9567 13.3454 12.7117 13.3454 13.547C13.3454 14.1075 13.3454 14.6945 13.3454 15.255C13.3454 16.0467 13.0305 16.8052 12.4709 17.3648C12.464 17.3717 12.4572 17.3785 12.4504 17.3853C11.5273 17.3631 10.7859 16.6081 10.7859 15.6798C10.7859 14.877 10.7859 13.9232 10.7859 13.1204C10.7859 12.1921 11.5273 11.4371 12.4495 11.4149V11.4149Z" fill="black"/>
<path fill-rule="evenodd" clip-rule="evenodd" d="M24.0098 14.8275C24.8016 14.8275 25.5609 15.1423 26.1214 15.702C26.6811 16.2617 26.9959 17.0218 26.9959 17.8136C26.9959 18.6053 26.6811 19.3655 26.1214 19.9251C25.5609 20.4848 24.8016 20.7996 24.0098 20.7996C21.0093 20.7996 15.9048 20.7996 15.9048 20.7996V19.0933H24.0098C24.3494 19.0933 24.6745 18.9585 24.915 18.7188C25.1548 18.4782 25.2896 18.1531 25.2896 17.8136C25.2896 17.474 25.1548 17.149 24.915 16.9084C24.6745 16.6686 24.3494 16.5338 24.0098 16.5338H15.9048V14.8275H24.0098Z" fill="#7E5108"/>
</svg>
