<svg width="32" height="32" viewBox="0 0 32 32" fill="none" xmlns="http://www.w3.org/2000/svg">
<path d="M31.1028 20.9925C31.1028 23.0016 30.5776 24.4276 29.7584 25.467C28.9313 26.5165 27.7418 27.2511 26.2822 27.7577C23.3206 28.7859 19.5103 28.7956 16.0998 28.7956C12.6905 28.7956 8.82725 28.7862 5.81316 27.7563C4.32618 27.2482 3.11166 26.5116 2.26715 25.4605C1.43183 24.4208 0.896749 22.9971 0.896749 20.9925C0.896749 17.2445 1.70404 12.6828 4.00516 9.08874C6.27215 5.54802 10.0181 2.88955 16.0998 2.88955C21.8645 2.88955 25.569 5.55276 27.871 9.1208C30.2022 12.7339 31.1028 17.3007 31.1028 20.9925Z" fill="#FBC546" stroke="black" stroke-width="1.7935"/>
<path fill-rule="evenodd" clip-rule="evenodd" d="M12.2667 23.7311C12.2667 23.7311 13.5601 22.4377 14.7229 21.2749C15.0429 20.9549 15.4771 20.7758 15.9293 20.7758C16.3815 20.7758 16.8157 20.9549 17.1357 21.2749C18.2985 22.4377 19.5919 23.7311 19.5919 23.7311C19.9246 24.0638 20.4655 24.0638 20.7983 23.7311C21.131 23.3984 21.131 22.8575 20.7983 22.5247C20.7983 22.5247 19.5049 21.2314 18.342 20.0685C17.7022 19.4286 16.8345 19.0695 15.9293 19.0695C15.0241 19.0695 14.1564 19.4286 13.5166 20.0685C12.3537 21.2314 11.0603 22.5247 11.0603 22.5247C10.7276 22.8575 10.7276 23.3984 11.0603 23.7311C11.3931 24.0638 11.934 24.0638 12.2667 23.7311V23.7311Z" fill="#593604"/>
<path d="M9.36608 21.522C12.998 21.522 15.9422 18.6669 15.9422 15.1451C15.9422 11.6232 12.998 8.76819 9.36608 8.76819C5.73416 8.76819 2.78992 11.6232 2.78992 15.1451C2.78992 18.6669 5.73416 21.522 9.36608 21.522Z" fill="#E59A10"/>
<path fill-rule="evenodd" clip-rule="evenodd" d="M1.89313 22.5184C4.3841 23.6144 5.18121 23.3017 5.77904 23.2159C6.76238 23.0747 7.39503 22.3651 7.39503 21.4224V19.7161H9.10134C9.10134 19.7161 9.10134 20.5155 9.10134 21.4224C9.10134 23.307 7.57334 24.835 5.68871 24.835L3.98554 24.8101C3.38771 24.8101 2.77555 24.5197 2.69024 24.5112C2.69024 24.5112 2.29168 24.2123 1.89313 22.5184Z" fill="#808080"/>
<path d="M10.3842 20.5691C13.9181 20.5691 16.7829 17.7043 16.7829 14.1704C16.7829 10.6365 13.9181 7.77173 10.3842 7.77173C6.85032 7.77173 3.98553 10.6365 3.98553 14.1704C3.98553 17.7043 6.85032 20.5691 10.3842 20.5691Z" fill="#999999"/>
<path d="M10.3843 18.8629C12.9758 18.8629 15.0766 16.762 15.0766 14.1705C15.0766 11.579 12.9758 9.47815 10.3843 9.47815C7.79274 9.47815 5.69189 11.579 5.69189 14.1705C5.69189 16.762 7.79274 18.8629 10.3843 18.8629Z" fill="white"/>
<path fill-rule="evenodd" clip-rule="evenodd" d="M8.56897 12.8659C8.56897 12.4137 8.74899 11.9794 9.06892 11.6595C9.38885 11.3396 9.82311 11.1595 10.2753 11.1595C10.7275 11.1595 11.1617 11.3396 11.4816 11.6595C11.8016 11.9794 11.9816 12.4137 11.9816 12.8659C11.9816 13.6644 11.9816 14.6131 11.9816 15.4108C11.9816 15.8639 11.8016 16.2973 11.4816 16.618C11.1617 16.938 10.7275 17.1171 10.2753 17.1171C9.82311 17.1171 9.38885 16.938 9.06892 16.618C8.74899 16.2973 8.56897 15.8639 8.56897 15.4108C8.56897 14.6131 8.56897 13.6644 8.56897 12.8659Z" fill="black"/>
<path fill-rule="evenodd" clip-rule="evenodd" d="M24.4614 14.5971C24.4614 14.371 24.3718 14.1534 24.2114 13.9939C24.0518 13.8335 23.8343 13.7439 23.6082 13.7439C22.4726 13.7439 20.478 13.7439 19.3424 13.7439C19.1163 13.7439 18.8988 13.8335 18.7392 13.9939C18.5788 14.1534 18.4893 14.371 18.4893 14.5971C18.4893 14.8232 18.5788 15.0407 18.7392 15.2003C18.8988 15.3607 19.1163 15.4502 19.3424 15.4502C20.478 15.4502 22.4726 15.4502 23.6082 15.4502C23.8343 15.4502 24.0518 15.3607 24.2114 15.2003C24.3718 15.0407 24.4614 14.8232 24.4614 14.5971Z" fill="black"/>
</svg>
