<svg width="32" height="32" viewBox="0 0 32 32" fill="none" xmlns="http://www.w3.org/2000/svg">
<path d="M31.1028 20.9925C31.1028 23.0016 30.5776 24.4276 29.7584 25.467C28.9313 26.5165 27.7418 27.2511 26.2822 27.7577C23.3206 28.7859 19.5103 28.7956 16.0998 28.7956C12.6905 28.7956 8.82725 28.7862 5.81316 27.7563C4.32618 27.2482 3.11166 26.5116 2.26715 25.4605C1.43183 24.4208 0.896749 22.9971 0.896749 20.9925C0.896749 17.2445 1.70404 12.6828 4.00516 9.08874C6.27215 5.54802 10.0181 2.88955 16.0998 2.88955C21.8645 2.88955 25.569 5.55276 27.871 9.1208C30.2022 12.7339 31.1028 17.3007 31.1028 20.9925Z" fill="#FBC546" stroke="black" stroke-width="1.7935"/>
<path fill-rule="evenodd" clip-rule="evenodd" d="M15.9954 18.8959C18.0703 18.8959 19.9673 20.0685 20.8957 21.9244C21.2354 22.6048 21.5115 23.157 21.5115 23.157C21.7427 23.6184 21.5555 24.1818 21.0932 24.412C20.6318 24.6432 20.0684 24.456 19.8382 23.9937C19.8382 23.9937 19.5621 23.4415 19.2214 22.7611C18.6103 21.5398 17.3618 20.7677 15.9954 20.7677C14.629 20.7677 13.3805 21.5398 12.7694 22.7611C12.4287 23.4415 12.1526 23.9937 12.1526 23.9937C11.9224 24.456 11.359 24.6432 10.8976 24.412C10.4353 24.1818 10.2481 23.6184 10.4793 23.157C10.4793 23.157 10.7554 22.6048 11.0951 21.9244C12.0235 20.0685 13.9205 18.8959 15.9954 18.8959V18.8959Z" fill="#593604"/>
<path d="M24.6411 13.4025C24.8015 13.5621 24.891 13.7796 24.891 14.0057C24.891 14.2318 24.8015 14.4494 24.6411 14.6089C23.5772 15.6728 21.4784 17.7716 21.4784 17.7716C21.4784 17.7716 19.3796 15.6728 18.3158 14.6089C18.1554 14.4494 18.0658 14.2318 18.0658 14.0057C18.0658 13.7796 18.1554 13.5621 18.3158 13.4025C18.6485 13.0689 19.1894 13.0689 19.5221 13.4025C20.2789 14.1593 21.4784 15.3588 21.4784 15.3588C21.4784 15.3588 22.6779 14.1593 23.4347 13.4025C23.7674 13.0689 24.3083 13.0689 24.6411 13.4025Z" fill="black"/>
<path d="M13.5509 13.4036C13.8836 13.7363 13.8836 14.2755 13.5509 14.6083C12.487 15.6721 10.3874 17.7718 10.3874 17.7718C10.3874 17.7718 8.28859 15.673 7.22471 14.6091C7.06431 14.4496 6.97473 14.232 6.97473 14.0059C6.97473 13.7798 7.06431 13.5623 7.22471 13.4027C7.55744 13.0692 8.09834 13.0692 8.43107 13.4027C9.18782 14.1595 10.3874 15.359 10.3874 15.359C10.3874 15.359 11.5878 14.1586 12.3445 13.4019C12.6772 13.0692 13.2164 13.0692 13.5492 13.4019C13.55 13.4027 13.55 13.4027 13.5509 13.4036Z" fill="black"/>
</svg>
