<svg width="32" height="32" viewBox="0 0 32 32" fill="none" xmlns="http://www.w3.org/2000/svg">
<path d="M31.1028 20.9925C31.1028 23.0016 30.5776 24.4276 29.7584 25.467C28.9313 26.5165 27.7418 27.2511 26.2822 27.7577C23.3206 28.7859 19.5103 28.7956 16.0998 28.7956C12.6905 28.7956 8.82725 28.7862 5.81316 27.7563C4.32618 27.2482 3.11166 26.5116 2.26715 25.4605C1.43183 24.4208 0.896749 22.9971 0.896749 20.9925C0.896749 17.2445 1.70404 12.6828 4.00516 9.08874C6.27215 5.54802 10.0181 2.88955 16.0998 2.88955C21.8645 2.88955 25.569 5.55276 27.871 9.1208C30.2022 12.7339 31.1028 17.3007 31.1028 20.9925Z" fill="#FBC546" stroke="black" stroke-width="1.7935"/>
<path d="M11.639 20.5132H15.6369C17.4473 20.5132 19.1835 21.2324 20.4632 22.5121C20.79 22.8389 21.0238 23.0727 21.0238 23.0727" stroke="#593604" stroke-width="1.70631" stroke-miterlimit="2" stroke-linecap="round"/>
<path fill-rule="evenodd" clip-rule="evenodd" d="M12.3335 12.8347H13.1176C13.2643 13.1879 13.3454 13.5744 13.3454 13.9797C13.3454 14.541 13.3454 15.1272 13.3454 15.6877C13.3454 16.4794 13.0306 17.2387 12.4709 17.7984C11.9112 18.3581 11.1528 18.672 10.361 18.672H10.3593C8.71019 18.672 7.37329 17.3351 7.37329 15.686C7.37329 15.1254 7.37329 14.5393 7.37329 13.9779C7.37329 13.5821 7.45178 13.1939 7.60108 12.8347H9.23829C9.13506 13.0574 12.4368 13.0574 12.3335 12.8347V12.8347Z" fill="white"/>
<path fill-rule="evenodd" clip-rule="evenodd" d="M12.3335 12.8347C12.4368 13.0574 12.4922 13.3031 12.4922 13.5531C12.4922 14.3516 12.4922 15.3003 12.4922 16.0989C12.4922 16.5511 12.3122 16.9853 11.9923 17.3053C11.6723 17.6252 11.2381 17.8052 10.7859 17.8052C10.3337 17.8052 9.89947 17.6252 9.57954 17.3053C9.25961 16.9853 9.07959 16.5511 9.07959 16.0989C9.07959 15.3003 9.07959 14.3516 9.07959 13.5531C9.07959 13.3031 9.13504 13.0574 9.23828 12.8347H12.3335V12.8347Z" fill="black"/>
<path fill-rule="evenodd" clip-rule="evenodd" d="M21.4486 18.6735C20.6569 18.6735 19.8985 18.3596 19.3388 17.7999C18.7791 17.2402 18.4643 16.4809 18.4643 15.6892C18.4643 15.1287 18.4643 14.5425 18.4643 13.9812C18.4643 12.332 19.8012 10.9951 21.4503 10.9951H21.4521C22.2438 10.9951 23.0022 11.3099 23.5619 11.8696C24.1216 12.4293 24.4364 13.1886 24.4364 13.9795C24.4364 14.5408 24.4364 15.127 24.4364 15.6875C24.4364 17.3366 23.0995 18.6735 21.4503 18.6735H21.4486Z" fill="white"/>
<path fill-rule="evenodd" clip-rule="evenodd" d="M22.7301 13.5546C22.7301 13.1024 22.5501 12.6682 22.2301 12.3482C21.9102 12.0283 21.4759 11.8483 21.0238 11.8483C20.5716 11.8483 20.1373 12.0283 19.8174 12.3482C19.4975 12.6682 19.3174 13.1024 19.3174 13.5546C19.3174 14.3531 19.3174 15.3018 19.3174 16.1004C19.3174 16.5526 19.4975 16.9868 19.8174 17.3068C20.1373 17.6267 20.5716 17.8067 21.0238 17.8067C21.4759 17.8067 21.9102 17.6267 22.2301 17.3068C22.5501 16.9868 22.7301 16.5526 22.7301 16.1004C22.7301 15.3018 22.7301 14.3531 22.7301 13.5546V13.5546Z" fill="black"/>
<path d="M18.4643 8.56897H20.11C21.2413 8.56897 22.3265 9.01858 23.1259 9.81799C23.3862 10.0782 23.5832 10.2753 23.5832 10.2753" stroke="black" stroke-width="1.70631" stroke-miterlimit="1.5" stroke-linecap="round"/>
</svg>
