<svg width="32" height="32" viewBox="0 0 32 32" fill="none" xmlns="http://www.w3.org/2000/svg">
<g clip-path="url(#clip0)">
<path d="M31.1028 20.9925C31.1028 23.0016 30.5776 24.4276 29.7584 25.467C28.9313 26.5165 27.7418 27.2511 26.2822 27.7577C23.3206 28.7859 19.5103 28.7956 16.0998 28.7956C12.6905 28.7956 8.82725 28.7862 5.81316 27.7563C4.32618 27.2482 3.11166 26.5116 2.26715 25.4605C1.43183 24.4208 0.896749 22.9971 0.896749 20.9925C0.896749 17.2445 1.70404 12.6828 4.00516 9.08874C6.27215 5.54802 10.0181 2.88955 16.0998 2.88955C21.8645 2.88955 25.569 5.55276 27.871 9.1208C30.2022 12.7339 31.1028 17.3007 31.1028 20.9925Z" fill="#FBC546" stroke="black" stroke-width="1.7935"/>
<path fill-rule="evenodd" clip-rule="evenodd" d="M20.1706 21.5967C20.1706 21.1257 19.7884 20.7435 19.3175 20.7435C17.6828 20.7435 14.1268 20.7435 12.4922 20.7435C12.0213 20.7435 11.639 21.1257 11.639 21.5967C11.639 22.0676 12.0213 22.4498 12.4922 22.4498C14.1268 22.4498 17.6828 22.4498 19.3175 22.4498C19.7884 22.4498 20.1706 22.0676 20.1706 21.5967Z" fill="#593604"/>
<path fill-rule="evenodd" clip-rule="evenodd" d="M23.5423 12.212C24.0943 12.7538 24.4364 13.508 24.4364 14.3424C24.4364 14.6256 24.4364 14.914 24.4364 15.1972C24.4364 15.989 24.1216 16.7483 23.5619 17.3088C23.0022 17.8685 22.2421 18.1833 21.4503 18.1833H21.4316C20.6467 18.1782 19.8942 17.8642 19.3388 17.3088C18.7791 16.7483 18.4643 15.989 18.4643 15.1972C18.4643 14.914 18.4643 14.6273 18.4643 14.3441C18.4643 13.5523 18.7791 12.793 19.3388 12.2325C19.3456 12.2265 19.3516 12.2197 19.3584 12.2137C19.3311 12.3477 23.5696 12.3468 23.5423 12.212V12.212Z" fill="white"/>
<path fill-rule="evenodd" clip-rule="evenodd" d="M19.3585 12.2145C19.9164 11.6659 20.6672 11.3588 21.4504 11.3588C21.4513 11.3588 21.4513 11.3588 21.4521 11.3588C22.266 11.3588 23.004 11.6847 23.5423 12.2128C23.5696 12.3476 23.5833 12.4875 23.5833 12.63C23.5833 12.6308 23.5833 12.6317 23.5833 12.6325C23.5833 13.8065 22.632 14.7569 21.4589 14.7569C21.453 14.7569 21.4478 14.7569 21.4419 14.7569C20.2688 14.7569 19.3175 13.8065 19.3175 12.6325C19.3175 12.6317 19.3175 12.6308 19.3175 12.63C19.3175 12.4875 19.3312 12.3484 19.3585 12.2145Z" fill="black"/>
<path fill-rule="evenodd" clip-rule="evenodd" d="M12.4513 12.212C13.0033 12.7538 13.3454 13.508 13.3454 14.3424C13.3454 14.6256 13.3454 14.914 13.3454 15.1972C13.3454 15.989 13.0306 16.7483 12.4709 17.3088C11.9112 17.8685 11.1511 18.1833 10.3593 18.1833H10.3406C9.55567 18.1782 8.80318 17.8642 8.24778 17.3088C7.68811 16.7483 7.37329 15.989 7.37329 15.1972C7.37329 14.914 7.37329 14.6273 7.37329 14.3441C7.37329 13.5523 7.68811 12.793 8.24778 12.2325C8.2546 12.2265 8.26057 12.2197 8.2674 12.2137C8.2401 12.3477 12.4786 12.3468 12.4513 12.212V12.212Z" fill="white"/>
<path fill-rule="evenodd" clip-rule="evenodd" d="M8.26739 12.2145C8.82536 11.6659 9.57614 11.3588 10.3593 11.3588C10.3602 11.3588 10.3602 11.3588 10.361 11.3588C11.175 11.3588 11.9129 11.6847 12.4513 12.2128C12.4786 12.3476 12.4922 12.4875 12.4922 12.63C12.4922 12.6308 12.4922 12.6317 12.4922 12.6325C12.4922 13.8065 11.541 14.7569 10.3679 14.7569C10.3619 14.7569 10.3568 14.7569 10.3508 14.7569C9.17771 14.7569 8.22644 13.8065 8.22644 12.6325C8.22644 12.6317 8.22644 12.6308 8.22644 12.63C8.22644 12.4875 8.24009 12.3484 8.26739 12.2145V12.2145Z" fill="black"/>
</g>
<defs>
<clipPath id="clip0">
<rect width="32" height="32" fill="white"/>
</clipPath>
</defs>
</svg>
