<svg width="32" height="32" viewBox="0 0 32 32" fill="none" xmlns="http://www.w3.org/2000/svg">
<path d="M31.1028 20.9925C31.1028 23.0016 30.5776 24.4276 29.7584 25.467C28.9313 26.5165 27.7418 27.2511 26.2822 27.7577C23.3206 28.7859 19.5103 28.7956 16.0998 28.7956C12.6905 28.7956 8.82725 28.7862 5.81316 27.7563C4.32618 27.2482 3.11166 26.5116 2.26715 25.4605C1.43183 24.4208 0.896749 22.9971 0.896749 20.9925C0.896749 17.2445 1.70404 12.6828 4.00516 9.08874C6.27215 5.54802 10.0181 2.88955 16.0998 2.88955C21.8645 2.88955 25.569 5.55276 27.871 9.1208C30.2022 12.7339 31.1028 17.3007 31.1028 20.9925Z" fill="#FBC546" stroke="black" stroke-width="1.7935"/>
<path fill-rule="evenodd" clip-rule="evenodd" d="M14.2893 22.6849C14.0683 22.3974 13.937 22.0374 13.937 21.6466C13.937 20.8438 13.937 19.89 13.937 19.0872C13.937 18.1444 14.7005 17.3809 15.6433 17.3809C16.586 17.3809 17.3496 18.1444 17.3496 19.0872C17.3496 19.89 17.3496 20.8438 17.3496 21.6466C17.3496 22.0374 17.2182 22.3974 16.9972 22.6849C16.5365 22.9136 15.0947 22.8982 14.2893 22.6849Z" fill="#722245"/>
<path fill-rule="evenodd" clip-rule="evenodd" d="M14.2902 22.6848C14.7236 22.5636 15.1784 22.4996 15.6442 22.4996C16.11 22.4996 16.5647 22.5636 16.9981 22.6848C16.6867 23.0909 16.1962 23.3528 15.6442 23.3528C15.0922 23.3528 14.6016 23.0909 14.2902 22.6848Z" fill="#CA3B8F"/>
<path fill-rule="evenodd" clip-rule="evenodd" d="M20.5264 20.5286C20.992 20.7386 21.412 21.0262 21.7761 21.3862L23.6672 23.2773L19.5292 24.3118C19.5292 23.6218 20.0857 21.0893 20.4882 20.5255L20.5264 20.5286V20.5286Z" fill="#E59A10"/>
<path d="M17.3496 30.1781H16.4529V31.0748H17.3496H19.9859C20.738 31.0748 21.4539 30.7495 21.9485 30.182L21.9487 30.1817C22.1961 29.8976 22.4901 29.5602 22.7243 29.2919L22.7259 29.2901C23.1372 28.8165 23.3653 28.2104 23.3653 27.5811V27.5782V27.5754V27.5726V27.5698V27.5669V27.5641V27.5613V27.5584V27.5556V27.5527V27.5498V27.547V27.5441V27.5412V27.5384V27.5355V27.5326V27.5297V27.5268V27.5239V27.5211V27.5182V27.5152V27.5123V27.5094V27.5065V27.5036V27.5007V27.4977V27.4948V27.4919V27.4889V27.486V27.483V27.4801V27.4771V27.4742V27.4712V27.4683V27.4653V27.4623V27.4593V27.4564V27.4534V27.4504V27.4474V27.4444V27.4414V27.4384V27.4354V27.4324V27.4294V27.4264V27.4234V27.4203V27.4173V27.4143V27.4113V27.4082V27.4052V27.4021V27.3991V27.396V27.393V27.3899V27.3869V27.3838V27.3808V27.3777V27.3746V27.3716V27.3685V27.3654V27.3623V27.3592V27.3561V27.353V27.3499V27.3468V27.3437V27.3406V27.3375V27.3344V27.3313V27.3282V27.3251V27.322V27.3188V27.3157V27.3126V27.3094V27.3063V27.3032V27.3V27.2969V27.2937V27.2906V27.2874V27.2843V27.2811V27.2779V27.2748V27.2716V27.2684V27.2653V27.2621V27.2589V27.2557V27.2525V27.2494V27.2462V27.243V27.2398V27.2366V27.2334V27.2302V27.227V27.2238V27.2206V27.2174V27.2141V27.2109V27.2077V27.2045V27.2013V27.198V27.1948V27.1916V27.1883V27.1851V27.1819V27.1786V27.1754V27.1721V27.1689V27.1656V27.1624V27.1591V27.1559V27.1526V27.1494V27.1461V27.1428V27.1396V27.1363V27.133V27.1298V27.1265V27.1232V27.1199V27.1166V27.1134V27.1101V27.1068V27.1035V27.1002V27.0969V27.0936V27.0903V27.087V27.0837V27.0804V27.0771V27.0738V27.0705V27.0672V27.0639V27.0606V27.0572V27.0539V27.0506V27.0473V27.044V27.0406V27.0373V27.034V27.0307V27.0273V27.024V27.0207V27.0173V27.014V27.0107V27.0073V27.004V27.0006V26.9973V26.9939V26.9906V26.9872V26.9839V26.9805V26.9772V26.9738V26.9705V26.9671V26.9637V26.9604V26.957V26.9537V26.9503V26.9469V26.9436V26.9402V26.9368V26.9335V26.9301V26.9267V26.9233V26.92V26.9166V26.9132V26.9098V26.9064V26.9031V26.8997V26.8963V26.8929V26.8895V26.8861V26.8827V26.8794V26.876V26.8726V26.8692V26.8658V26.8624V26.859V26.8556V26.8522V26.8488V26.8454V26.842V26.8386V26.8352V26.8318V26.8284V26.825V26.8216V26.8182V26.8148V26.8114V26.808V26.8046V26.8012V26.7977V26.7943V26.7909V26.7875V26.7841V26.7807V26.7773V26.7739V26.7705V26.767V26.7636V26.7602V26.7568V26.7534V26.75V26.7465V26.7431V26.7397V26.7363V26.7329V26.7294V26.726V26.7226V26.7192V26.7158V26.7123V26.7089V26.7055V26.7021V26.6987V26.6952V26.6918V26.6884V26.685V26.6815V26.6781V26.6747V26.6713V26.6678V26.6644V26.661V26.6576V26.6541V26.6507V26.6473V26.6439V26.6404V26.637V26.6336V26.6302V26.6267V26.6233V26.6199V26.6165V26.613V26.6096V26.6062V26.6028V26.5993V26.5959V26.5925V26.5891V26.5856V26.5822V26.5788V26.5754V26.572V26.5685V26.5651V26.5617V26.5583V26.5549V26.5514V26.548V26.5446V26.5412V26.5378V26.5343V26.5309V26.5275V26.5241V26.5207V26.5173V26.5138V26.5104V26.507V26.5036V26.5002V26.4968V26.4934V26.4899V26.4865V26.4831V26.4797V26.4763V26.4729V26.4695V26.4661V26.4627V26.4593V26.4559V26.4525V26.4491V26.4457V26.4423V26.4389V26.4355V26.4321V26.4287V26.4253V26.4219V26.4185V26.4151V26.4117V26.4083V26.4049V26.4015V26.3981V26.3947V26.3913V26.388V26.3846V26.3812V26.3778V26.3744V26.371V26.3677V26.3643V26.3609V26.3575V26.3542V26.3508V26.3474V26.344V26.3407V26.3373V26.3339V26.3306V26.3272V26.3238V26.3205V26.3171V26.3137V26.3104V26.307V26.3037V26.3003V26.297V26.2936V26.2903V26.2869V26.2836V26.2802V26.2769V26.2735V26.2702V26.2669V26.2635V26.2602V26.2568V26.2535V26.2502V26.2469V26.2435V26.2402V26.2369V26.2336V26.2302V26.2269V26.2236V26.2203V26.217V26.2136V26.2103V26.207V26.2037V26.2004V26.1971V26.1938V26.1905V26.1872V26.1839V26.1806V26.1773V26.174V26.1708V26.1675V26.1642V26.1609V26.1576V26.1543V26.1511V26.1478V26.1445V26.1413V26.138V26.1347V26.1315V26.1282V26.1249V26.1217V26.1184V26.1152V26.1119V26.1087V26.1054V26.1022V26.0989V26.0957V26.0925V26.0892V26.086V26.0828V26.0795V26.0763V26.0731V26.0699V26.0667V26.0634V26.0602V26.057V26.0538V26.0506V26.0474V26.0442V26.041V26.0378V26.0346V26.0314V26.0282V26.0251V26.0219V26.0187V26.0155V26.0124V26.0092V26.006V26.0028V25.9997V25.9965V25.9934V25.9902V25.9871V25.9839V25.9808V25.9776V25.9745V25.9713V25.9682V25.9651V25.9619V25.9588V25.9557V25.9526V25.9495V25.9463V25.9432V25.9401V25.937V25.9339V25.9308V25.9277V25.9246V25.9215V25.9184V25.9154V25.9123C23.3653 25.4506 23.1828 25.0043 22.8527 24.675C22.5234 24.3449 22.0771 24.1624 21.6154 24.1624H21.6095H21.6035H21.5976H21.5916H21.5856H21.5796H21.5736H21.5676H21.5616H21.5556H21.5495H21.5435H21.5374H21.5313H21.5252H21.5191H21.513H21.5069H21.5007H21.4946H21.4884H21.4823H21.4761H21.4699H21.4637H21.4575H21.4513H21.445H21.4388H21.4326H21.4263H21.42H21.4138H21.4075H21.4012H21.3949H21.3886H21.3823H21.3759H21.3696H21.3633H21.3569H21.3505H21.3442H21.3378H21.3314H21.325H21.3186H21.3122H21.3058H21.2993H21.2929H21.2865H21.28H21.2736H21.2671H21.2606H21.2542H21.2477H21.2412H21.2347H21.2282H21.2217H21.2152H21.2086H21.2021H21.1956H21.189H21.1825H21.1759H21.1694H21.1628H21.1562H21.1497H21.1431H21.1365H21.1299H21.1233H21.1167H21.1101H21.1035H21.0969H21.0902H21.0836H21.077H21.0703H21.0637H21.0571H21.0504H21.0438H21.0371H21.0304H21.0238H21.0171H21.0104H21.0038H20.9971H20.9904H20.9837H20.977H20.9704H20.9637H20.957H20.9503H20.9436H20.9369H20.9302H20.9235H20.9167H20.91H20.9033H20.8966H20.8899H20.8832H20.8765H20.8697H20.863H20.8563H20.8496H20.8428H20.8361H20.8294H20.8226H20.8159H20.8092H20.8024H20.7957H20.789H20.7822H20.7755H20.7688H20.762H20.7553H20.7486H20.7418H20.7351H20.7284H20.7216H20.7149H20.7082H20.7014H20.6947H20.688H20.6812H20.6745H20.6678H20.6611H20.6543H20.6476H20.6409H20.6342H20.6274H20.6207H20.614H20.6073H20.6006H20.5939H20.5872H20.5805H20.5738H20.5671H20.5604H20.5537H20.547H20.5403H20.5336H20.527H20.5203H20.5136H20.5069H20.5003H20.4936H20.487H20.4803H20.4737H20.467H20.4604H20.4537H20.4471H20.4405H20.4338H20.4272H20.4206H20.414H20.4074H20.4008H20.3942H20.3876H20.381H20.3744H20.3678H20.3613H20.3547H20.3482H20.3416H20.3351H20.3285H20.322H20.3155H20.3089H20.3024H20.2959H20.2894H20.2829H20.2764H20.2699H20.2635H20.257H20.2505H20.2441H20.2376H20.2312H20.2248H20.2183H20.2119H20.2055H20.1991H20.1927H20.1863H20.1799H20.1736H20.1672H20.1609H20.1545H20.1482H20.1419H20.1355H20.1292H20.1229H20.1166H20.1103H20.1041H20.0978H20.0916H20.0853H20.0791H20.0729H20.0666H20.0604H20.0542H20.048H20.0419H20.0357H20.0296H20.0234H20.0173H20.0112H20.005H19.9989H19.9928H19.9868H19.9807H19.9746H19.9686H19.9626H19.9565H19.9527V21.6465C19.9527 21.1848 19.7702 20.7385 19.44 20.4092C19.1108 20.0791 18.6644 19.8966 18.2028 19.8966C17.2366 19.8966 16.4529 20.6803 16.4529 21.6465V21.6601V21.6738V21.6875V21.7014V21.7154V21.7294V21.7435V21.7577V21.772V21.7864V21.8009V21.8154V21.8301V21.8448V21.8596V21.8745V21.8894V21.9045V21.9196V21.9348V21.9501V21.9655V21.9809V21.9964V22.0121V22.0277V22.0435V22.0593V22.0753V22.0912V22.1073V22.1235V22.1397V22.156V22.1723V22.1888V22.2053V22.2219V22.2385V22.2553V22.2721V22.2889V22.3059V22.3229V22.34V22.3571V22.3744V22.3916V22.409V22.4264V22.4439V22.4615V22.4791V22.4968V22.5145V22.5323V22.5502V22.5682V22.5862V22.6042V22.6224V22.6406V22.6588V22.6771V22.6955V22.714V22.7325V22.751V22.7696V22.7883V22.807V22.8258V22.8447V22.8636V22.8825V22.9015V22.9206V22.9397V22.9589V22.9781V22.9974V23.0167V23.0361V23.0556V23.075V23.0946V23.1142V23.1338V23.1535V23.1733V23.193V23.2129V23.2328V23.2527V23.2727V23.2927V23.3128V23.3329V23.3531V23.3733V23.3935V23.4138V23.4341V23.4545V23.4749V23.4954V23.5159V23.5365V23.557V23.5777V23.5983V23.6191V23.6398V23.6606V23.6814V23.7023V23.7232V23.7441V23.7651V23.7861V23.8071V23.8282V23.8493V23.8704V23.8916V23.9128V23.934V23.9553V23.9766V23.9979V24.0193V24.0407V24.0621V24.0836V24.1051V24.1266V24.1481V24.1697V24.1913V24.2129V24.2345V24.2562V24.2779V24.2996V24.3214V24.3431V24.3649V24.3867V24.4086V24.4304V24.4523V24.4742V24.4961V24.5181V24.54V24.562V24.584V24.606V24.6281V24.6501V24.6722V24.6943V24.7164V24.7385V24.7607V24.7828V24.805V24.8271V24.8493V24.8715V24.8937V24.916V24.9382V24.9605V24.9827V25.005V25.0273V25.0496V25.0719V25.0942V25.1165V25.1388V25.1611V25.1835V25.2058V25.2282V25.2505V25.2729V25.2952V25.3176V25.34V25.3624V25.3847V25.4071V25.4295V25.4519V25.4742V25.4966V25.519V25.5414V25.5638V25.5861V25.6085V25.6309V25.6533V25.6756V25.698V25.7203V25.7427V25.765V25.7874V25.8097V25.8321V25.8544V25.8767V25.899V25.9213V25.9436V25.9659V25.9881V26.0104V26.0327V26.0549V26.0771V26.0993V26.1215V26.1437V26.1659V26.1881V26.2102V26.2324V26.2545V26.2766V26.2987V26.3207V26.3428V26.3648V26.3868V26.4089V26.4308V26.4528V26.4747V26.4967V26.5186V26.5404V26.5623V26.5841V26.606V26.6277V26.6495V26.6713V26.693V26.7147V26.7364V26.758V26.7796V26.8012V26.8228V26.8443V26.8658V26.8873V26.9088V26.9302V26.9516V26.973V26.9943V27.0156V27.0369V27.0581V27.0793V27.1005V27.1216V27.1427V27.1638V27.1849V27.2059V27.2268V27.2478V27.2687V27.2895V27.3103V27.3311V27.3519V27.3726V27.3932V27.4139V27.4345V27.455V27.4755V27.496V27.5164V27.5368V27.5571V27.5774V27.5977V27.6179V27.6381V27.6582V27.6782V27.6983V27.7183V27.7382V27.7581V27.7779V27.7977V27.8174V27.8371V27.8568V27.8764V27.8959V27.9154V27.9348V27.9542V27.9736V27.9929V28.0121V28.0313V28.0504V28.0695V28.0885V28.1074V28.1263V28.1452V28.164V28.1827V28.2014V28.22V28.2385V28.257V28.2755V28.2939V28.3122V28.3304V28.3486V28.3668V28.3848V28.4028V28.4208V28.4387V28.4565V28.4743V28.4919V28.5096V28.5271V28.5446V28.562V28.5794V28.5967V28.6139V28.6311V28.6481V28.6652V28.6821V28.699V28.7158V28.7325V28.7492V28.7658V28.7823V28.7987V28.8151V28.8314V28.8476V28.8638V28.8798V28.8958V28.9117V28.9276V28.9434V28.959V28.9746V28.9902V29.0056V29.021V29.0363V29.0515V29.0666V29.0817V29.0967V29.1115V29.1263V29.1411V29.1557V29.1703V29.1847V29.1991V29.2134V29.2276V29.2418V29.2558V29.2697V29.2836V29.2974V29.3111V29.3247V29.3382V29.3516V29.3649V29.3782V29.3913V29.4044V29.4173V29.4302V29.443V29.4557V29.4683V29.4808V29.4932V29.5055V29.5177V29.5298V29.5418V29.5538V29.5656V29.5773V29.5889V29.6005V29.6119V29.6232V29.6344V29.6456V29.6566V29.6675V29.6784V29.6891V29.6997V29.7102V29.7206V29.7309V29.7411V29.7512V29.7612V29.7711V29.7809V29.7906V29.8001V29.8096V29.8189V29.8282V29.8373V29.8463V29.8552V29.864V29.8727V29.8813V29.8897V29.8981V29.9063V29.9145V29.9225V29.9304V29.9382V29.9458V29.9534V29.9608V29.9681V29.9753V29.9824V29.9894V29.9962V30.003V30.0096V30.0161V30.0224V30.0287V30.0348V30.0408V30.0467V30.0525V30.0581V30.0636V30.069V30.0743V30.0794V30.0845V30.0894V30.0941V30.0988V30.1033V30.1077V30.1119V30.1161V30.1201V30.1239V30.1277V30.1313V30.1348V30.1381V30.1413V30.1444V30.1474V30.1502V30.1529V30.1554V30.1579V30.1602V30.1623V30.1643V30.1662V30.1679V30.1696V30.171V30.1724V30.1735V30.1746V30.1755V30.1763V30.1769V30.1774V30.1778V30.178L17.3496 30.1781Z" fill="#FBC546" stroke="#7E5108" stroke-width="1.7935"/>
<path fill-rule="evenodd" clip-rule="evenodd" d="M22.8173 29.4121L22.8173 24.7104L21.5585 23.2656H23.7483C25.4452 23.2656 26.8215 24.6419 26.8215 26.3389C26.8215 28.0358 25.4452 29.4121 23.7483 29.4121H22.8173Z" fill="#7E5108"/>
<path d="M23.7483 25.0592C24.4547 25.0592 25.028 25.6325 25.028 26.3389C25.028 27.0454 24.4547 27.6187 23.7483 27.6187H23.3217V25.0592H23.7483Z" fill="#FBC546"/>
<path fill-rule="evenodd" clip-rule="evenodd" d="M10.0995 18.234C10.8912 18.234 11.6497 17.9191 12.2094 17.3595C12.769 16.7998 13.0839 16.0413 13.0839 15.2496C13.0839 14.6891 13.0839 14.1021 13.0839 13.5416C13.0839 11.8924 11.747 10.5555 10.0978 10.5555H10.0961C9.30437 10.5555 8.54591 10.8704 7.98624 11.43C7.42657 11.9897 7.11176 12.7482 7.11176 13.5399C7.11176 14.1004 7.11176 14.6874 7.11176 15.2479C7.11176 16.8971 8.44865 18.234 10.0978 18.234H10.0995V18.234Z" fill="white"/>
<path fill-rule="evenodd" clip-rule="evenodd" d="M8.81805 13.1149C8.81805 12.6627 8.99807 12.2285 9.318 11.9085C9.63794 11.5886 10.0722 11.4086 10.5244 11.4086C10.9765 11.4086 11.4108 11.5886 11.7307 11.9085C12.0507 12.2285 12.2307 12.6627 12.2307 13.1149C12.2307 13.9134 12.2307 14.8622 12.2307 15.6599C12.2307 16.1129 12.0507 16.5463 11.7307 16.8671C11.4108 17.187 10.9765 17.3662 10.5244 17.3662C10.0722 17.3662 9.63794 17.187 9.318 16.8671C8.99807 16.5463 8.81805 16.1129 8.81805 15.6599C8.81805 14.8622 8.81805 13.9134 8.81805 13.1149Z" fill="black"/>
<path fill-rule="evenodd" clip-rule="evenodd" d="M21.1871 18.234C20.3954 18.234 19.6369 17.9191 19.0772 17.3595C18.5176 16.7998 18.2028 16.0413 18.2028 15.2496C18.2028 14.6891 18.2028 14.1021 18.2028 13.5416C18.2028 11.8924 19.5397 10.5555 21.1888 10.5555H21.1905C21.9822 10.5555 22.7407 10.8704 23.3004 11.43C23.86 11.9897 24.1749 12.7482 24.1749 13.5399C24.1749 14.1004 24.1749 14.6874 24.1749 15.2479C24.1749 16.8971 22.838 18.234 21.1888 18.234H21.1871Z" fill="white"/>
<path fill-rule="evenodd" clip-rule="evenodd" d="M22.4685 13.1149C22.4685 12.6627 22.2885 12.2285 21.9686 11.9085C21.6487 11.5886 21.2144 11.4086 20.7622 11.4086C20.31 11.4086 19.8758 11.5886 19.5559 11.9085C19.2359 12.2285 19.0559 12.6627 19.0559 13.1149C19.0559 13.9134 19.0559 14.8622 19.0559 15.6599C19.0559 16.1129 19.2359 16.5463 19.5559 16.8671C19.8758 17.187 20.31 17.3662 20.7622 17.3662C21.2144 17.3662 21.6487 17.187 21.9686 16.8671C22.2885 16.5463 22.4685 16.1129 22.4685 15.6599C22.4685 14.8622 22.4685 13.9134 22.4685 13.1149Z" fill="black"/>
</svg>
