<svg width="32" height="32" viewBox="0 0 32 32" fill="none" xmlns="http://www.w3.org/2000/svg">
<path d="M31.1028 20.9925C31.1028 23.0016 30.5776 24.4276 29.7584 25.467C28.9313 26.5165 27.7418 27.2511 26.2822 27.7577C23.3206 28.7859 19.5103 28.7956 16.0998 28.7956C12.6905 28.7956 8.82725 28.7862 5.81316 27.7563C4.32618 27.2482 3.11166 26.5116 2.26715 25.4605C1.43183 24.4208 0.896749 22.9971 0.896749 20.9925C0.896749 17.2445 1.70404 12.6828 4.00516 9.08874C6.27215 5.54802 10.0181 2.88955 16.0998 2.88955C21.8645 2.88955 25.569 5.55276 27.871 9.1208C30.2022 12.7339 31.1028 17.3007 31.1028 20.9925Z" fill="#FBC546" stroke="black" stroke-width="1.7935"/>
<path fill-rule="evenodd" clip-rule="evenodd" d="M22.0139 21.9579C22.0139 21.487 21.6317 21.1047 21.1608 21.1047C18.9622 21.1047 13.1215 21.1047 10.9229 21.1047C10.4519 21.1047 10.0697 21.487 10.0697 21.9579C10.0697 22.4288 10.4519 22.8111 10.9229 22.8111C13.1215 22.8111 18.9622 22.8111 21.1608 22.8111C21.6317 22.8111 22.0139 22.4288 22.0139 21.9579Z" fill="#593604"/>
<path fill-rule="evenodd" clip-rule="evenodd" d="M10.361 18.2402C11.1527 18.2402 11.9112 17.9254 12.4709 17.3657C13.0305 16.806 13.3454 16.0476 13.3454 15.2558C13.3454 14.6953 13.3454 14.1083 13.3454 13.5478C13.3454 11.8987 12.0085 10.5618 10.3593 10.5618H10.3576C9.56588 10.5618 8.80742 10.8766 8.24775 11.4363C7.68808 11.9959 7.37326 12.7544 7.37326 13.5461C7.37326 14.1066 7.37326 14.6936 7.37326 15.2541C7.37326 16.9033 8.71016 18.2402 10.3593 18.2402H10.361V18.2402Z" fill="white"/>
<path fill-rule="evenodd" clip-rule="evenodd" d="M9.07959 13.1212C9.07959 12.6691 9.25961 12.2348 9.57954 11.9149C9.89947 11.5949 10.3337 11.4149 10.7859 11.4149C11.2381 11.4149 11.6723 11.5949 11.9923 11.9149C12.3122 12.2348 12.4922 12.6691 12.4922 13.1212C12.4922 13.9198 12.4922 14.8685 12.4922 15.6662C12.4922 16.1192 12.3122 16.5526 11.9923 16.8734C11.6723 17.1934 11.2381 17.3725 10.7859 17.3725C10.3337 17.3725 9.89947 17.1934 9.57954 16.8734C9.25961 16.5526 9.07959 16.1192 9.07959 15.6662C9.07959 14.8685 9.07959 13.9198 9.07959 13.1212Z" fill="black"/>
<path fill-rule="evenodd" clip-rule="evenodd" d="M21.4487 18.2402C20.6569 18.2402 19.8985 17.9254 19.3388 17.3657C18.7791 16.806 18.4643 16.0476 18.4643 15.2558C18.4643 14.6953 18.4643 14.1083 18.4643 13.5478C18.4643 11.8987 19.8012 10.5618 21.4504 10.5618H21.4521C22.2438 10.5618 23.0023 10.8766 23.5619 11.4363C24.1216 11.9959 24.4364 12.7544 24.4364 13.5461C24.4364 14.1066 24.4364 14.6936 24.4364 15.2541C24.4364 16.9033 23.0995 18.2402 21.4504 18.2402H21.4487V18.2402Z" fill="white"/>
<path fill-rule="evenodd" clip-rule="evenodd" d="M22.7301 13.1212C22.7301 12.6691 22.5501 12.2348 22.2302 11.9149C21.9102 11.5949 21.476 11.4149 21.0238 11.4149C20.5716 11.4149 20.1374 11.5949 19.8174 11.9149C19.4975 12.2348 19.3175 12.6691 19.3175 13.1212C19.3175 13.9198 19.3175 14.8685 19.3175 15.6662C19.3175 16.1192 19.4975 16.5526 19.8174 16.8734C20.1374 17.1934 20.5716 17.3725 21.0238 17.3725C21.476 17.3725 21.9102 17.1934 22.2302 16.8734C22.5501 16.5526 22.7301 16.1192 22.7301 15.6662C22.7301 14.8685 22.7301 13.9198 22.7301 13.1212Z" fill="black"/>
</svg>
