<svg width="32" height="32" viewBox="0 0 32 32" fill="none" xmlns="http://www.w3.org/2000/svg">
<path d="M31.1028 20.9925C31.1028 23.0016 30.5776 24.4276 29.7584 25.467C28.9313 26.5165 27.7418 27.2511 26.2822 27.7577C23.3206 28.7859 19.5103 28.7956 16.0998 28.7956C12.6905 28.7956 8.82725 28.7862 5.81316 27.7563C4.32618 27.2482 3.11166 26.5116 2.26715 25.4605C1.43183 24.4208 0.896749 22.9971 0.896749 20.9925C0.896749 17.2445 1.70404 12.6828 4.00516 9.08874C6.27215 5.54802 10.0181 2.88955 16.0998 2.88955C21.8645 2.88955 25.569 5.55276 27.871 9.1208C30.2022 12.7339 31.1028 17.3007 31.1028 20.9925Z" fill="#FBC546" stroke="black" stroke-width="1.7935"/>
<path fill-rule="evenodd" clip-rule="evenodd" d="M8.83161 20.2429C8.95105 20.1976 9.07305 20.1644 9.19846 20.1456C9.49536 20.1012 9.80165 20.1371 10.0798 20.248C10.2086 20.2983 10.3289 20.3657 10.4415 20.445L12.5215 21.9304L8.17041 22.7836C8.17041 22.4995 8.89559 20.4135 8.82222 20.2736L8.81028 20.2514L8.83161 20.2429Z" fill="#E59A10"/>
<path d="M18.159 27.8888L14.8462 23.8137C14.9409 24.0773 11.5829 27.2349 11.5829 27.2349V27.8888H15.1699C16.2659 27.8888 16.6645 27.8888 18.159 27.8888Z" fill="#E59A10"/>
<path d="M7.16691 20.2267L7.17087 21.1234C7.16691 20.2267 7.16651 20.2267 7.16609 20.2267L7.1652 20.2267L7.1632 20.2267L7.15835 20.2267L7.14535 20.2269C7.13523 20.2271 7.12223 20.2275 7.10653 20.228C7.07516 20.2291 7.03286 20.231 6.98118 20.2346C6.87811 20.2416 6.73605 20.2552 6.56763 20.2811C6.2353 20.3324 5.77723 20.4356 5.30728 20.6488C4.83624 20.8626 4.32465 21.2002 3.93032 21.7336C3.52823 22.2774 3.28807 22.9714 3.28807 23.8202V27.9487C3.28807 29.3867 4.45313 30.5517 5.89113 30.5517H8.4506C9.14088 30.5517 9.80315 30.2771 10.2911 29.7891C10.779 29.3012 11.0537 28.6389 11.0537 27.9487V26.2859H12.7164C13.6826 26.2859 14.4663 25.5022 14.4663 24.536C14.4663 24.0743 14.2838 23.628 13.9536 23.2987C13.6243 22.9686 13.178 22.7861 12.7164 22.7861H8.06761V21.1234V20.2227L7.16691 20.2267Z" fill="#FBC546" stroke="#7E5108" stroke-width="1.7935"/>
<path fill-rule="evenodd" clip-rule="evenodd" d="M15.2911 16.3563C17.0904 16.3563 18.8163 17.0713 20.0884 18.3433C20.5448 18.7989 20.9108 19.1658 20.9108 19.1658C21.2436 19.4985 21.2436 20.0394 20.9108 20.3721C20.5781 20.7049 20.0372 20.7049 19.7045 20.3721C19.7045 20.3721 19.3376 20.0061 18.882 19.5497C17.9299 18.5976 16.6382 18.0626 15.2911 18.0626H11.7761C11.3051 18.0626 10.9229 17.6804 10.9229 17.2095C10.9229 16.7385 11.3051 16.3563 11.7761 16.3563H15.2911V16.3563Z" fill="#593604"/>
<path fill-rule="evenodd" clip-rule="evenodd" d="M22.8526 11.6639C22.862 11.7603 23.7203 12.0479 23.7203 12.5171C23.7203 12.6161 23.7203 12.7133 23.7203 12.8106C23.7203 13.6023 23.4055 14.3616 22.8458 14.9213C22.2861 15.481 21.5277 15.7949 20.7359 15.7949H20.7342C19.0851 15.7949 17.7482 14.458 17.7482 12.8089V12.5171C17.7482 12.047 18.6064 11.7603 18.6158 11.6639H22.8526V11.6639Z" fill="white"/>
<path fill-rule="evenodd" clip-rule="evenodd" d="M12.4014 9.95764L13.4824 10.8108C13.4824 10.8108 13.4824 11.5803 13.4824 11.9557C13.4824 13.6049 12.1455 14.9418 10.4963 14.9418H10.4946C9.70287 14.9418 8.94441 14.6278 8.38474 14.0682C7.82507 13.5085 7.51025 12.7492 7.51025 11.9574C7.51025 11.5821 7.51025 10.8108 7.51025 10.8108L8.5912 9.95764H12.4014V9.95764Z" fill="white"/>
<path fill-rule="evenodd" clip-rule="evenodd" d="M23.7203 10.8108C24.1912 10.8108 24.5734 11.193 24.5734 11.6639C24.5734 12.1349 24.1912 12.5171 23.7203 12.5171H22.014V13.2218C22.014 13.674 21.8339 14.1082 21.514 14.4282C21.1941 14.7481 20.7598 14.9281 20.3076 14.9281H20.2991C19.3615 14.9281 18.6013 14.168 18.6013 13.2303V12.5171H17.7482V10.8108H23.7203Z" fill="black"/>
<path fill-rule="evenodd" clip-rule="evenodd" d="M13.4824 9.10449V10.8108H11.7761V12.3687C11.7761 13.3106 11.0125 14.075 10.0698 14.075C9.6176 14.075 9.18334 13.895 8.86341 13.575C8.54347 13.2551 8.36345 12.8208 8.36345 12.3687V10.8108H7.5103C7.39086 10.8108 7.27312 10.7861 7.16392 10.7374C7.06239 10.6922 6.9694 10.6265 6.89261 10.5463C6.81924 10.4695 6.76037 10.3783 6.72027 10.2801C6.68359 10.1897 6.66226 10.0933 6.65799 9.99604C6.65373 9.90305 6.66482 9.8092 6.69127 9.71877C6.7143 9.63942 6.74928 9.56349 6.7945 9.49353C6.89432 9.33911 7.04447 9.21967 7.21681 9.15653C7.31066 9.12156 7.41048 9.10449 7.5103 9.10449H13.4824V9.10449Z" fill="black"/>
</svg>
