<svg width="32" height="32" viewBox="0 0 32 32" fill="none" xmlns="http://www.w3.org/2000/svg">
<path d="M31.1028 20.9925C31.1028 23.0016 30.5776 24.4276 29.7584 25.467C28.9313 26.5165 27.7418 27.2511 26.2822 27.7577C23.3206 28.7859 19.5103 28.7956 16.0998 28.7956C12.6905 28.7956 8.82725 28.7862 5.81316 27.7563C4.32618 27.2482 3.11166 26.5116 2.26715 25.4605C1.43183 24.4208 0.896749 22.9971 0.896749 20.9925C0.896749 17.2445 1.70404 12.6828 4.00516 9.08874C6.27215 5.54802 10.0181 2.88955 16.0998 2.88955C21.8645 2.88955 25.569 5.55276 27.871 9.1208C30.2022 12.7339 31.1028 17.3007 31.1028 20.9925Z" fill="#FBC546" stroke="black" stroke-width="1.7935"/>
<path d="M11.7761 22.5557C11.7761 22.5557 11.8921 22.3816 12.0627 22.1248C12.95 20.7948 14.4422 19.9962 16.041 19.9962H16.0427C17.6415 19.9962 19.1337 20.7948 20.021 22.1248C20.1916 22.3816 20.3076 22.5557 20.3076 22.5557" stroke="#593604" stroke-width="1.70631" stroke-miterlimit="1.5" stroke-linecap="round" stroke-linejoin="round"/>
<path fill-rule="evenodd" clip-rule="evenodd" d="M18.6013 14.0242L21.1608 13.171C21.1608 13.171 23.4711 16.2424 24.1426 16.849C23.6196 17.7132 22.6709 18.29 21.5874 18.29H21.5857C20.7939 18.29 20.0355 17.9751 19.4758 17.4155C18.9161 16.8558 18.6013 16.0973 18.6013 15.3056V14.0242V14.0242Z" fill="white"/>
<path fill-rule="evenodd" clip-rule="evenodd" d="M24.2859 12.3179C24.4736 12.7137 24.5734 13.1497 24.5734 13.5959C24.5734 14.1564 24.5734 14.7434 24.5734 15.3039C24.5734 15.8696 24.4164 16.3985 24.1426 16.849C23.8303 17.2013 23.3747 17.4223 22.8671 17.4223C21.9244 17.4223 21.1608 16.6587 21.1608 15.716V14.0242H18.6013V13.5976C18.6022 13.3946 18.6218 13.1915 18.6627 12.9919C18.7105 12.759 18.7873 12.5329 18.8888 12.3179H24.2859Z" fill="black"/>
<path fill-rule="evenodd" clip-rule="evenodd" d="M7.51025 14.0242L10.0697 13.171C10.0697 13.171 12.3801 16.2424 13.0515 16.849C12.5285 17.7132 11.5798 18.29 10.4963 18.29H10.4946C9.70287 18.29 8.94441 17.9751 8.38474 17.4155C7.82507 16.8558 7.51025 16.0973 7.51025 15.3056V14.0242V14.0242Z" fill="white"/>
<path fill-rule="evenodd" clip-rule="evenodd" d="M13.1948 12.3179C13.3825 12.7137 13.4824 13.1497 13.4824 13.5959C13.4824 14.1564 13.4824 14.7434 13.4824 15.3039C13.4824 15.8696 13.3254 16.3985 13.0515 16.849C12.7393 17.2013 12.2837 17.4223 11.776 17.4223C10.8333 17.4223 10.0697 16.6587 10.0697 15.716V14.0242H7.51025V13.5976C7.51111 13.3946 7.53073 13.1915 7.57168 12.9919C7.61946 12.759 7.69624 12.5329 7.79777 12.3179H13.1948Z" fill="black"/>
</svg>
