<svg width="32" height="32" viewBox="0 0 32 32" fill="none" xmlns="http://www.w3.org/2000/svg">
<path d="M31.1028 20.9925C31.1028 23.0016 30.5776 24.4276 29.7584 25.467C28.9313 26.5165 27.7418 27.251 26.2822 27.7577C23.3206 28.7858 19.5103 28.7956 16.0998 28.7956C12.6905 28.7956 8.82725 28.7862 5.81316 27.7563C4.32618 27.2482 3.11166 26.5115 2.26715 25.4604C1.43183 24.4208 0.896749 22.997 0.896749 20.9925C0.896749 17.2483 1.70245 13.3712 3.95966 10.4486C6.18461 7.56779 9.92418 5.48012 16.0998 5.48012C21.9585 5.48012 25.6574 7.57592 27.9167 10.4805C30.2055 13.4228 31.1028 17.3072 31.1028 20.9925Z" fill="#FBC546" stroke="black" stroke-width="1.7935"/>
<path fill-rule="evenodd" clip-rule="evenodd" d="M19.9724 22.1276C19.9827 22.1369 19.9929 22.1472 20.0032 22.1574L24.2122 27.3011C24.6108 27.4007 21.1234 27.8989 18.2339 27.8989C18.2339 27.8989 19.8564 23.717 19.9648 22.1199L19.9724 22.1276Z" fill="#E59A10"/>
<path fill-rule="evenodd" clip-rule="evenodd" d="M10.6201 23.1536H9.74304C9.44699 23.1536 9.17313 23.0009 9.017 22.7492C8.86173 22.4975 8.84808 22.1836 8.98032 21.9191C9.30281 21.2724 9.71574 20.4466 10.1244 19.6301C11.1362 17.6064 13.2043 16.3284 15.466 16.3284C15.8474 16.3284 16.2347 16.3284 16.6161 16.3284C18.8778 16.3284 20.9458 17.6064 21.9577 19.6301C22.3664 20.4466 22.7793 21.2724 23.1018 21.9191C23.234 22.1836 23.2204 22.4975 23.0651 22.7492C22.909 23.0009 22.6351 23.1536 22.3391 23.1536H21.462C20.2864 21.5778 11.7957 21.5778 10.6201 23.1536V23.1536Z" fill="#722245"/>
<path fill-rule="evenodd" clip-rule="evenodd" d="M16.3639 20.5941C18.4166 20.5941 20.2893 21.5778 21.4649 23.1536H10.623C11.7986 21.5778 13.6713 20.5941 15.724 20.5941H16.3639Z" fill="#CA3B8F"/>
<path d="M9.57451 28.8127C8.66939 27.9076 8.67876 28.1148 8.14956 27.4533C6.42965 25.3035 9.10281 22.793 9.10281 22.793L10.9747 24.5488L13.3377 22.1858C13.7625 21.761 14.3391 21.522 14.9395 21.522C15.5399 21.522 16.1165 21.761 16.5413 22.1858L17.869 23.5134C18.2938 23.9382 18.5328 24.5148 18.5328 25.1152C18.5328 25.7156 18.2938 26.2922 17.869 26.717L15.7722 28.8138C14.0616 30.5244 11.2862 30.5244 9.57564 28.8138L9.57451 28.8127Z" fill="#FBC546"/>
<path fill-rule="evenodd" clip-rule="evenodd" d="M8.3063 30.0809L8.30744 30.0821V30.0821C10.7184 32.4929 14.6294 32.493 17.0403 30.0821L19.1372 27.9853C19.898 27.2245 20.3263 26.1919 20.3263 25.1153C20.3263 24.0387 19.898 23.006 19.1372 22.2453V22.2453L17.8095 20.9176C17.0487 20.1569 16.0161 19.7285 14.9395 19.7285C13.8629 19.7285 12.8303 20.1569 12.0695 20.9176L10.9348 22.0524L9.10205 20.3333L7.87499 21.4857L9.10279 22.793L10.9747 24.5489L13.3377 22.1858C13.7625 21.761 14.3391 21.522 14.9395 21.522C15.5399 21.522 16.1165 21.761 16.5413 22.1858L17.869 23.5135C18.2938 23.9383 18.5328 24.5149 18.5328 25.1153C18.5328 25.7157 18.2938 26.2923 17.869 26.7171L15.7721 28.8139C14.0616 30.5244 11.2862 30.5244 9.57562 28.8139L9.57449 28.8127C9.15636 28.3946 8.93339 28.2139 8.76233 28.0752C8.56309 27.9137 8.43427 27.8093 8.14954 27.4534C7.26416 26.3467 7.54295 25.1444 8.02195 24.2382C8.27028 23.7684 8.57243 23.3782 8.79407 23.1221C8.97537 22.9127 9.10279 22.793 9.10279 22.793C7.87499 21.4857 7.8745 21.4861 7.874 21.4866L7.87295 21.4876L7.87066 21.4898L7.86532 21.4948C7.86143 21.4985 7.85688 21.5029 7.8517 21.5078C7.84134 21.5178 7.82844 21.5303 7.81323 21.5454C7.78284 21.5754 7.74305 21.6154 7.69573 21.6649C7.60142 21.7634 7.47537 21.901 7.33319 22.0719C7.05409 22.4074 6.68688 22.9022 6.38072 23.5076C5.77762 24.7002 5.25815 26.7102 6.74905 28.5738C7.09899 29.0112 7.32055 29.2143 7.5889 29.4327C7.60309 29.4443 7.61737 29.4558 7.63188 29.4676C7.77993 29.5874 7.95211 29.7268 8.3063 30.0809Z" fill="#9D6E17"/>
<path fill-rule="evenodd" clip-rule="evenodd" d="M12.2477 13.006L8.83507 14.7123C8.41361 14.9221 8.24298 15.4357 8.4537 15.8563C8.66358 16.2778 9.17718 16.4484 9.59779 16.2377L13.0104 14.5314C13.4319 14.3215 13.6025 13.8079 13.3918 13.3873C13.1819 12.9659 12.6683 12.7952 12.2477 13.006Z" fill="black"/>
<path fill-rule="evenodd" clip-rule="evenodd" d="M19.073 14.5314L22.4856 16.2377C22.9062 16.4484 23.4198 16.2778 23.6297 15.8563C23.8404 15.4357 23.6698 14.9221 23.2483 14.7123L19.8357 13.006C19.4151 12.7952 18.9015 12.9659 18.6916 13.3873C18.4809 13.8079 18.6515 14.3215 19.073 14.5314Z" fill="black"/>
</svg>
