<svg width="32" height="32" viewBox="0 0 32 32" fill="none" xmlns="http://www.w3.org/2000/svg">
<g clip-path="url(#clip0)">
<path d="M31.1028 20.9925C31.1028 23.0016 30.5776 24.4276 29.7584 25.467C28.9313 26.5165 27.7418 27.2511 26.2822 27.7577C23.3206 28.7859 19.5103 28.7956 16.0998 28.7956C12.6905 28.7956 8.82725 28.7862 5.81316 27.7563C4.32618 27.2482 3.11166 26.5116 2.26715 25.4605C1.43183 24.4208 0.896749 22.9971 0.896749 20.9925C0.896749 17.2445 1.70404 12.6828 4.00516 9.08874C6.27215 5.54802 10.0181 2.88955 16.0998 2.88955C21.8645 2.88955 25.569 5.55276 27.871 9.1208C30.2022 12.7339 31.1028 17.3007 31.1028 20.9925Z" fill="#FBC546" stroke="black" stroke-width="1.7935"/>
<path fill-rule="evenodd" clip-rule="evenodd" d="M10.5562 22.901C8.95571 21.2015 8.12132 18.805 7.68195 16.6396H24.4021C23.9627 18.805 23.1284 21.2015 21.5278 22.901C20.5774 21.6673 11.5066 21.6673 10.5562 22.901Z" fill="#722245"/>
<path fill-rule="evenodd" clip-rule="evenodd" d="M10.5563 22.9011C11.5068 21.6674 12.993 20.9055 14.6131 20.9055C15.543 20.9055 16.5412 20.9055 17.4712 20.9055C19.0913 20.9055 20.5775 21.6674 21.5279 22.9011C20.2508 24.2576 18.4847 25.1713 16.0421 25.1713C13.5995 25.1713 11.8335 24.2576 10.5563 22.9011Z" fill="#CA3B8F"/>
<path fill-rule="evenodd" clip-rule="evenodd" d="M10.498 15.7866C11.2897 15.7866 12.0482 15.4718 12.6079 14.9121C13.1675 14.3524 13.4824 13.594 13.4824 12.8022C13.4824 11.9721 13.4824 11.0712 13.4824 10.2411C13.4824 8.5919 12.1455 7.255 10.4963 7.255C10.4955 7.255 10.4955 7.255 10.4946 7.255C9.70287 7.255 8.94441 7.56982 8.38474 8.12949C7.82507 8.68916 7.51025 9.44762 7.51025 10.2393C7.51025 11.0695 7.51025 11.9704 7.51025 12.8005C7.51025 14.4497 8.84715 15.7866 10.4963 15.7866C10.4972 15.7866 10.4972 15.7866 10.498 15.7866Z" fill="white"/>
<path fill-rule="evenodd" clip-rule="evenodd" d="M9.21661 9.81447C9.21661 8.87173 9.98019 8.10815 10.9229 8.10815C11.8657 8.10815 12.6292 8.87173 12.6292 9.81447C12.6292 10.8528 12.6292 12.1743 12.6292 13.2126C12.6292 14.1553 11.8657 14.9189 10.9229 14.9189C9.98019 14.9189 9.21661 14.1553 9.21661 13.2126C9.21661 12.1743 9.21661 10.8528 9.21661 9.81447Z" fill="black"/>
<path fill-rule="evenodd" clip-rule="evenodd" d="M21.5857 15.7866C20.7939 15.7866 20.0355 15.4718 19.4758 14.9121C18.9161 14.3524 18.6013 13.594 18.6013 12.8022C18.6013 11.9721 18.6013 11.0712 18.6013 10.2411C18.6013 8.5919 19.9382 7.255 21.5874 7.255C21.5882 7.255 21.5882 7.255 21.5891 7.255C22.3808 7.255 23.1393 7.56982 23.6989 8.12949C24.2586 8.68916 24.5734 9.44762 24.5734 10.2393C24.5734 11.0695 24.5734 11.9704 24.5734 12.8005C24.5734 14.4497 23.2365 15.7866 21.5874 15.7866C21.5865 15.7866 21.5865 15.7866 21.5857 15.7866Z" fill="white"/>
<path fill-rule="evenodd" clip-rule="evenodd" d="M22.8671 9.81447C22.8671 8.87173 22.1035 8.10815 21.1608 8.10815C20.218 8.10815 19.4545 8.87173 19.4545 9.81447C19.4545 10.8528 19.4545 12.1743 19.4545 13.2126C19.4545 14.1553 20.218 14.9189 21.1608 14.9189C22.1035 14.9189 22.8671 14.1553 22.8671 13.2126C22.8671 12.1743 22.8671 10.8528 22.8671 9.81447Z" fill="black"/>
</g>
<defs>
<clipPath id="clip0">
<rect width="32" height="32" fill="white"/>
</clipPath>
</defs>
</svg>
