<?xml version="1.0" encoding="UTF-8"?>
<svg width="32" height="32" fill="none" version="1.1" viewBox="0 0 32 32" xmlns="http://www.w3.org/2000/svg">
 <path d="m31.103 20.992c0 2.0091-0.5252 3.4351-1.3444 4.4745-0.8271 1.0495-2.0166 1.7841-3.4762 2.2907-2.9616 1.0282-6.7719 1.0379-10.182 1.0379-3.4093 0-7.2726-0.0094-10.287-1.0393-1.487-0.5081-2.7015-1.2447-3.546-2.2958-0.83532-1.0397-1.3704-2.4634-1.3704-4.468 0-3.748 0.80729-8.3097 3.1084-11.904 2.267-3.5407 6.0129-6.1992 12.095-6.1992 5.7647 0 9.4692 2.6632 11.771 6.2312 2.3312 3.6131 3.2318 8.1799 3.2318 11.872z" fill="#fbc546" stroke="#000" stroke-width="1.7935"/>
 <path d="m27.133 19c0-0.9427-0.7636-1.7063-1.7063-1.7063h-3.4126c-0.9428 0-1.7064 0.7636-1.7064 1.7063s0.7636 1.7063 1.7064 1.7063h3.4126c0.9427 0 1.7063-0.7636 1.7063-1.7063z" clip-rule="evenodd" fill="#ed6b44" fill-rule="evenodd"/>
 <path d="m11.776 19c0-0.9427-0.7636-1.7063-1.7064-1.7063h-3.4126c-0.94274 0-1.7063 0.7636-1.7063 1.7063s0.76357 1.7063 1.7063 1.7063h3.4126c0.9428 0 1.7064-0.7636 1.7064-1.7063z" clip-rule="evenodd" fill="#ed6b44" fill-rule="evenodd"/>
 <path d="m10.923 19.853s0.4795 0.6399 1.0238 1.3651c0.9666 1.2891 2.4835 2.0476 4.0952 2.0476 1.6116 0 3.1285-0.7585 4.0951-2.0476 0.5443-0.7252 1.0238-1.3651 1.0238-1.3651" stroke="#593604" stroke-linecap="round" stroke-miterlimit="1.5" stroke-width="1.7063"/>
 <path d="m7.3278 15.346c0.1604 0.1596 0.3771 0.25 0.60319 0.25 0.22608 0 0.44279-0.0904 0.60233-0.25 0.00597-6e-3 0.00938-0.0085 0.00938-0.0085 0.51872-0.5187 1.2217-0.8105 1.9555-0.8105 0.7337 0 1.4367 0.2918 1.9554 0.8105 0 0 0.0034 0.0025 0.0094 0.0085 0.3327 0.3327 0.8719 0.3327 1.2055 0v-8e-4c0.3336-0.3328 0.3336-0.8728 0-1.2064-0.0051-0.0051-0.0077-0.0085-0.0077-0.0085-0.8386-0.8387-1.9767-1.3096-3.1626-1.3096-1.1859 0-2.324 0.4709-3.1627 1.3096 0 0-0.00256 0.0034-0.00853 0.0093-0.15954 0.1596-0.24997 0.3763-0.24997 0.6024s0.09043 0.4428 0.24997 0.6032z" clip-rule="evenodd" fill="#000" fill-rule="evenodd"/>
 <path d="m24.759 15.346c-0.1603 0.1596-0.3771 0.25-0.6031 0.25-0.2261 0-0.4428-0.0904-0.6024-0.25-0.0059-6e-3 -0.0094-0.0085-0.0094-0.0085-0.5187-0.5187-1.2217-0.8105-1.9554-0.8105s-1.4367 0.2918-1.9554 0.8105c0 0-0.0034 0.0025-0.0094 0.0085-0.3327 0.3327-0.8719 0.3327-1.2055 0v-8e-4c-0.3336-0.3328-0.3336-0.8728 0-1.2064 0.0051-0.0051 0.0077-0.0085 0.0077-0.0085 0.8386-0.8387 1.9767-1.3096 3.1626-1.3096s2.324 0.4709 3.1627 1.3096c0 0 0.0025 0.0034 0.0085 0.0093 0.1595 0.1596 0.25 0.3763 0.25 0.6024s-0.0905 0.4428-0.25 0.6032z" clip-rule="evenodd" fill="#000" fill-rule="evenodd"/>
 <path d="m10.172 27.617c-0.90508-0.9051-0.89571-0.6979-1.4249-1.3594-1.7199-2.1498 0.95325-4.6603 0.95325-4.6603l1.8719 1.7558 2.3631-2.363c0.4248-0.4248 1.0014-0.6638 1.6018-0.6638s1.177 0.239 1.6018 0.6638l1.3276 1.3277c0.4249 0.4248 0.6639 1.0014 0.6639 1.6018 0 0.6003-0.239 1.1769-0.6639 1.6017l-2.0968 2.0969c-1.7106 1.7105-4.486 1.7105-6.1965 0l-0.0012-0.0012z" fill="#FBC546"/>
 <path d="m8.9042 28.885 0.00114 0.0011c2.411 2.4108 6.322 2.4109 8.7329 0l2.0969-2.0968c0.7608-0.7608 1.1891-1.7934 1.1891-2.87s-0.4283-2.1092-1.1891-2.87l-1.3277-1.3276c-0.7608-0.7608-1.7934-1.1892-2.87-1.1892s-2.1092 0.4284-2.87 1.1892l-1.1347 1.1347-1.8328-1.7191-1.2271 1.1524 1.2278 1.3073 1.8719 1.7559 2.363-2.363c0.4248-0.4248 1.0014-0.6639 1.6018-0.6639s1.177 0.2391 1.6018 0.6639l1.3277 1.3276c0.4248 0.4248 0.6638 1.0014 0.6638 1.6018s-0.239 1.177-0.6638 1.6018l-2.0969 2.0968c-1.7105 1.7105-4.4859 1.7105-6.1965 0l-0.0011-0.0011c-0.41814-0.4182-0.64111-0.5989-0.81217-0.7376-0.19924-0.1615-0.32806-0.2659-0.61279-0.6218-0.88538-1.1067-0.60659-2.309-0.12759-3.2152 0.24833-0.4698 0.55048-0.86 0.77212-1.116 0.1813-0.2095 0.30872-0.3292 0.30872-0.3292-1.2278-1.3073-1.2283-1.3068-1.2288-1.3064l-0.00105 1e-3 -0.00229 0.0022-0.00534 5e-3c-0.00389 0.0037-0.00844 0.0081-0.01362 0.0131-0.01036 0.0099-0.02326 0.0225-0.03847 0.0375-0.03039 0.03-0.07018 0.0701-0.1175 0.1195-0.09431 0.0985-0.22036 0.2361-0.36254 0.407-0.2791 0.3355-0.64631 0.8303-0.95247 1.4357-0.6031 1.1926-1.1226 3.2026 0.36834 5.0662 0.34993 0.4374 0.57149 0.6405 0.83984 0.8589 0.01419 0.0116 0.02847 0.0231 0.04298 0.0349 0.14805 0.1198 0.32023 0.2592 0.67442 0.6134z" clip-rule="evenodd" fill="#9D6E17" fill-rule="evenodd"/>
</svg>
