<svg width="32" height="32" viewBox="0 0 32 32" fill="none" xmlns="http://www.w3.org/2000/svg">
<path d="M31.1028 20.9925C31.1028 23.0016 30.5776 24.4276 29.7584 25.467C28.9313 26.5165 27.7418 27.2511 26.2822 27.7577C23.3206 28.7859 19.5103 28.7956 16.0998 28.7956C12.6905 28.7956 8.82725 28.7862 5.81316 27.7563C4.32618 27.2482 3.11166 26.5116 2.26715 25.4605C1.43183 24.4208 0.896749 22.9971 0.896749 20.9925C0.896749 17.2445 1.70404 12.6828 4.00516 9.08874C6.27215 5.54802 10.0181 2.88955 16.0998 2.88955C21.8645 2.88955 25.569 5.55276 27.871 9.1208C30.2022 12.7339 31.1028 17.3007 31.1028 20.9925Z" fill="#FBC546" stroke="black" stroke-width="1.7935"/>
<path fill-rule="evenodd" clip-rule="evenodd" d="M10.9953 23.8066C9.17789 22.6556 7.77976 20.9267 7.37323 18.9259H24.5892C24.1827 20.9267 22.7846 22.6556 20.9672 23.8066C20.0768 22.756 11.8857 22.756 10.9953 23.8066Z" fill="#722245"/>
<path fill-rule="evenodd" clip-rule="evenodd" d="M10.9946 23.8066C11.885 22.7561 13.209 22.1144 14.6454 22.1144C15.5142 22.1144 16.4469 22.1144 17.3157 22.1144C18.7521 22.1144 20.0761 22.7561 20.9665 23.8066C19.4807 24.748 17.7143 25.3028 15.9806 25.3028C14.2468 25.3028 12.4804 24.748 10.9946 23.8066Z" fill="#CA3B8F"/>
<path fill-rule="evenodd" clip-rule="evenodd" d="M7.84454 16.3057C7.99359 16.4548 8.19606 16.5385 8.40729 16.5385C8.61853 16.5385 8.821 16.4548 8.97006 16.3057C8.97324 16.3025 8.97563 16.3009 8.97563 16.3009C9.46028 15.8163 10.1171 15.5437 10.8026 15.5437C11.4881 15.5437 12.1449 15.8163 12.6296 16.3009C12.6296 16.3009 12.632 16.3025 12.6352 16.3057C12.7842 16.4548 12.9867 16.5385 13.1979 16.5385C13.4092 16.5385 13.6116 16.4548 13.7607 16.3057C13.7615 16.3057 13.7615 16.3049 13.7615 16.3049C14.0732 15.9941 14.0732 15.4887 13.7615 15.1778C13.7591 15.1746 13.7575 15.173 13.7575 15.173C12.9739 14.3895 11.9106 13.9495 10.8026 13.9495C9.69463 13.9495 8.63128 14.3895 7.84772 15.173C7.84772 15.173 7.84613 15.1746 7.84374 15.1778C7.53207 15.4887 7.53207 15.9941 7.84374 16.3049C7.84374 16.3049 7.84374 16.3057 7.84454 16.3057Z" fill="black"/>
<path fill-rule="evenodd" clip-rule="evenodd" d="M24.1231 16.3057C23.9741 16.4548 23.7716 16.5385 23.5604 16.5385C23.3491 16.5385 23.1467 16.4548 22.9976 16.3057C22.9944 16.3025 22.992 16.3009 22.992 16.3009C22.5074 15.8163 21.8506 15.5437 21.165 15.5437C20.4795 15.5437 19.8227 15.8163 19.3381 16.3009C19.3381 16.3009 19.3357 16.3025 19.3325 16.3057C19.1834 16.4548 18.981 16.5385 18.7697 16.5385C18.5585 16.5385 18.356 16.4548 18.207 16.3057C18.2062 16.3057 18.2062 16.3049 18.2062 16.3049C17.8945 15.9941 17.8945 15.4887 18.2062 15.1778C18.2086 15.1746 18.2102 15.173 18.2102 15.173C18.9937 14.3895 20.0571 13.9495 21.165 13.9495C22.273 13.9495 23.3364 14.3895 24.1199 15.173C24.1199 15.173 24.1215 15.1746 24.1239 15.1778C24.4356 15.4887 24.4356 15.9941 24.1239 16.3049C24.1239 16.3049 24.1239 16.3057 24.1231 16.3057Z" fill="black"/>
</svg>
