<svg width="32" height="32" viewBox="0 0 32 32" fill="none" xmlns="http://www.w3.org/2000/svg">
<path d="M31.1028 20.9925C31.1028 23.0016 30.5776 24.4276 29.7584 25.467C28.9313 26.5165 27.7418 27.2511 26.2822 27.7577C23.3206 28.7859 19.5103 28.7956 16.0998 28.7956C12.6905 28.7956 8.82725 28.7862 5.81316 27.7563C4.32618 27.2482 3.11166 26.5116 2.26715 25.4605C1.43183 24.4208 0.896749 22.9971 0.896749 20.9925C0.896749 17.2445 1.70404 12.6828 4.00516 9.08874C6.27215 5.54802 10.0181 2.88955 16.0998 2.88955C21.8645 2.88955 25.569 5.55276 27.871 9.1208C30.2022 12.7339 31.1028 17.3007 31.1028 20.9925Z" fill="#FBC546" stroke="black" stroke-width="1.7935"/>
<path fill-rule="evenodd" clip-rule="evenodd" d="M24.2981 18.9314C23.5081 22.1104 20.063 24.5061 15.938 24.5061C11.813 24.5061 8.36797 22.1104 7.57794 18.9314H24.2981Z" stroke="#7E5108" stroke-width="1.70632" stroke-miterlimit="3"/>
<path fill-rule="evenodd" clip-rule="evenodd" d="M24.2106 19.2471C23.8412 20.4449 23.0913 21.5195 22.0718 22.38C21.6051 21.9738 10.3417 21.9396 9.86223 22.3313C9.8426 22.3473 9.82383 22.3633 9.80506 22.38C8.78554 21.5188 8.03562 20.4442 7.6662 19.2471C8.62259 20.3585 23.2542 20.3585 24.2106 19.2471Z" fill="#7E5108"/>
<path fill-rule="evenodd" clip-rule="evenodd" d="M9.80468 22.3793C9.82345 22.3626 9.84222 22.3466 9.86184 22.3306C10.3413 21.9389 10.9923 21.918 11.6705 21.918C14.1097 21.918 17.7638 21.918 20.2038 21.918C20.9401 21.918 21.6047 21.9731 22.0714 22.3793C20.5195 23.6908 18.3448 24.5061 15.938 24.5061C13.5313 24.5061 11.3557 23.6901 9.80468 22.3793ZM7.66582 19.2464C7.6334 19.1425 7.60439 19.0373 7.57794 18.9314H24.2981C24.2717 19.0373 24.2427 19.1425 24.2102 19.2464C23.2539 20.3578 21.6962 21.3227 20.0274 21.3227C17.6522 21.3227 14.2311 21.3227 11.8559 21.3227C10.1871 21.3227 8.62221 20.3578 7.66582 19.2464Z" fill="white"/>
<path fill-rule="evenodd" clip-rule="evenodd" d="M7.22577 14.8772C7.38531 15.0367 7.60202 15.1263 7.8281 15.1263C8.05419 15.1263 8.27089 15.0367 8.43043 14.8772C8.43384 14.8737 8.4364 14.872 8.4364 14.872C8.95512 14.3533 9.65813 14.0615 10.3918 14.0615C11.1256 14.0615 11.8286 14.3533 12.3473 14.872C12.3473 14.872 12.3498 14.8737 12.3532 14.8772C12.5128 15.0367 12.7295 15.1263 12.9556 15.1263C13.1817 15.1263 13.3984 15.0367 13.5579 14.8772C13.5588 14.8772 13.5588 14.8763 13.5588 14.8763C13.8923 14.5436 13.8923 14.0027 13.5588 13.6699C13.5562 13.6665 13.5545 13.6648 13.5545 13.6648C12.7158 12.8262 11.5777 12.3552 10.3918 12.3552C9.20595 12.3552 8.06784 12.8262 7.22919 13.6648C7.22919 13.6648 7.22748 13.6665 7.22492 13.6699C6.89134 14.0027 6.89134 14.5436 7.22492 14.8763C7.22492 14.8763 7.22492 14.8772 7.22577 14.8772Z" fill="black"/>
<path fill-rule="evenodd" clip-rule="evenodd" d="M24.649 14.8772C24.4894 15.0367 24.2727 15.1263 24.0466 15.1263C23.8205 15.1263 23.6038 15.0367 23.4443 14.8772C23.4409 14.8737 23.4383 14.872 23.4383 14.872C22.9196 14.3533 22.2166 14.0615 21.4829 14.0615C20.7492 14.0615 20.0462 14.3533 19.5274 14.872C19.5274 14.872 19.5249 14.8737 19.5215 14.8772C19.3619 15.0367 19.1452 15.1263 18.9191 15.1263C18.6931 15.1263 18.4764 15.0367 18.3168 14.8772C18.316 14.8772 18.316 14.8763 18.316 14.8763C17.9824 14.5436 17.9824 14.0027 18.316 13.6699C18.3185 13.6665 18.3202 13.6648 18.3202 13.6648C19.1589 12.8262 20.297 12.3552 21.4829 12.3552C22.6688 12.3552 23.8069 12.8262 24.6455 13.6648C24.6455 13.6648 24.6472 13.6665 24.6498 13.6699C24.9834 14.0027 24.9834 14.5436 24.6498 14.8763C24.6498 14.8763 24.6498 14.8772 24.649 14.8772Z" fill="black"/>
</svg>
