<svg width="32" height="32" viewBox="0 0 32 32" fill="none" xmlns="http://www.w3.org/2000/svg">
<g clip-path="url(#clip0)">
<path d="M31.9995 21.1917C31.9995 29.8916 22.8375 29.8916 16.0998 29.8916C9.36199 29.8916 2.69573e-08 29.8916 0 21.1917C-2.38286e-08 13.4918 3.29992 2.19202 16.0998 2.19202C28.2996 2.19202 31.9995 13.5703 31.9995 21.1917Z" fill="black"/>
<path fill-rule="evenodd" clip-rule="evenodd" d="M3.39147 7.67823C3.25416 7.35064 3.18845 7.02011 3.18845 6.69743C3.18845 5.72056 3.79065 4.66326 5.17554 3.85116C7.19597 2.66636 11.2545 1.79346 15.9427 1.79346C20.6299 1.79346 24.6885 2.66636 26.7089 3.85116C28.0938 4.66326 28.696 5.72056 28.696 6.69743C28.696 7.02011 28.6303 7.35064 28.493 7.67823H23.6204C23.9293 7.58015 24.2177 7.4752 24.4835 7.36535C24.9003 7.19273 25.2524 7.00932 25.5211 6.80728C25.5614 6.77786 25.6055 6.73764 25.6457 6.69743C25.6055 6.65722 25.5614 6.61701 25.5211 6.58758C25.2524 6.38554 24.9003 6.20213 24.4835 6.02951C22.5572 5.23016 19.4461 4.73584 15.9427 4.73584C12.4393 4.73584 9.32724 5.23016 7.40194 6.02951C6.98412 6.20213 6.63202 6.38554 6.36328 6.58758C6.32307 6.61701 6.27893 6.65722 6.23872 6.69743C6.27893 6.73764 6.32307 6.77786 6.36328 6.80728C6.63202 7.00932 6.98412 7.19273 7.40194 7.36535C7.66774 7.4752 7.95609 7.58015 8.26406 7.67823H3.39147Z" fill="#1BB0E6"/>
<path d="M30.0865 20.6662C30.0865 27.7993 22.0428 28.3042 16.1274 28.3042C10.212 28.3042 1.99276 28.3042 1.99277 20.6662C1.99277 13.9062 4.88991 3.9856 16.1274 3.9856C26.8381 3.9856 30.0865 13.9751 30.0865 20.6662Z" fill="#FBC546"/>
<path fill-rule="evenodd" clip-rule="evenodd" d="M26.4895 9.06713C26.2902 8.27002 27.2866 10.0635 27.8844 11.1613C27.6621 11.3128 27.4093 11.4584 27.1237 11.5957C25.0232 12.6067 20.8038 13.3516 15.9308 13.3516C11.0568 13.3516 6.83739 12.6067 4.73687 11.5957C4.44933 11.4567 4.29405 11.3119 4.07074 11.1595C4.66857 9.86423 5.66496 8.46932 5.46568 9.06714L15.9308 11.1579L26.4895 9.06713Z" fill="#E59A10"/>
<path d="M9.90469 19.5249C9.90469 19.5249 10.1154 19.8064 10.4166 20.2074C11.7057 21.9257 13.7285 22.9375 15.8768 22.9375C18.025 22.9375 20.0479 21.9257 21.337 20.2074C21.6382 19.8064 21.8489 19.5249 21.8489 19.5249" stroke="#593604" stroke-width="1.70631" stroke-miterlimit="1.5" stroke-linecap="round"/>
<path fill-rule="evenodd" clip-rule="evenodd" d="M8.02137 16.2914C8.18176 16.4509 8.39846 16.5405 8.6254 16.5405C8.85149 16.5405 9.06819 16.4509 9.22859 16.2914C9.22944 16.2897 9.23029 16.2888 9.23029 16.2888C9.63554 15.8836 10.1858 15.6558 10.7592 15.6558C11.3325 15.6558 11.8828 15.8836 12.288 16.2888C12.288 16.2888 12.2889 16.2897 12.2906 16.2914C12.6233 16.6241 13.1633 16.6241 13.4961 16.2914L13.4969 16.2905C13.8297 15.9578 13.8297 15.4177 13.4969 15.085C13.4952 15.0833 13.4944 15.0825 13.4944 15.0825C12.7692 14.3573 11.7846 13.9495 10.7592 13.9495C9.73366 13.9495 8.74911 14.3573 8.02393 15.0825C8.02393 15.0825 8.02307 15.0833 8.02137 15.085C7.68864 15.4177 7.68864 15.9578 8.02137 16.2905C8.02137 16.2905 8.02137 16.2905 8.02137 16.2914Z" fill="black"/>
<path fill-rule="evenodd" clip-rule="evenodd" d="M23.7348 16.2914C23.5744 16.4509 23.3577 16.5405 23.1308 16.5405C22.9047 16.5405 22.688 16.4509 22.5276 16.2914C22.5267 16.2897 22.5259 16.2888 22.5259 16.2888C22.1206 15.8836 21.5704 15.6558 20.997 15.6558C20.4237 15.6558 19.8734 15.8836 19.4682 16.2888C19.4682 16.2888 19.4673 16.2897 19.4656 16.2914C19.1329 16.6241 18.5928 16.6241 18.2601 16.2914L18.2593 16.2905C17.9265 15.9578 17.9265 15.4177 18.2593 15.085C18.261 15.0833 18.2618 15.0825 18.2618 15.0825C18.987 14.3573 19.9715 13.9495 20.997 13.9495C22.0225 13.9495 23.0071 14.3573 23.7323 15.0825C23.7323 15.0825 23.7331 15.0833 23.7348 15.085C24.0675 15.4177 24.0675 15.9578 23.7348 16.2905C23.7348 16.2905 23.7348 16.2905 23.7348 16.2914Z" fill="black"/>
<path fill-rule="evenodd" clip-rule="evenodd" d="M28.696 6.69751C28.696 7.67438 28.0938 8.73168 26.7089 9.54378C24.6885 10.7286 20.6299 11.6015 15.9427 11.6015C11.2545 11.6015 7.19597 10.7286 5.17554 9.54378C3.79065 8.73168 3.18845 7.67438 3.18845 6.69751H6.23872C6.27893 6.73772 6.32307 6.77793 6.36328 6.80736C6.63202 7.0094 6.98412 7.19281 7.40194 7.36543C9.32724 8.16478 12.4393 8.6591 15.9427 8.6591C19.4461 8.6591 22.5572 8.16478 24.4835 7.36543C24.9003 7.19281 25.2524 7.0094 25.5211 6.80736C25.5614 6.77793 25.6055 6.73772 25.6457 6.69751H28.696Z" fill="#1BB0E6"/>
</g>
<defs>
<clipPath id="clip0">
<rect width="32" height="32" fill="white"/>
</clipPath>
</defs>
</svg>
