<svg width="32" height="32" viewBox="0 0 32 32" fill="none" xmlns="http://www.w3.org/2000/svg">
<path d="M31.1028 20.9925C31.1028 23.0016 30.5776 24.4276 29.7584 25.467C28.9313 26.5165 27.7418 27.2511 26.2822 27.7577C23.3206 28.7859 19.5103 28.7956 16.0998 28.7956C12.6905 28.7956 8.82725 28.7862 5.81316 27.7563C4.32618 27.2482 3.11166 26.5116 2.26715 25.4605C1.43183 24.4208 0.896749 22.9971 0.896749 20.9925C0.896749 17.2445 1.70404 12.6828 4.00516 9.08874C6.27215 5.54802 10.0181 2.88955 16.0998 2.88955C21.8645 2.88955 25.569 5.55276 27.871 9.1208C30.2022 12.7339 31.1028 17.3007 31.1028 20.9925Z" fill="#FBC546" stroke="black" stroke-width="1.7935"/>
<path fill-rule="evenodd" clip-rule="evenodd" d="M10.8489 22.2122C9.2492 20.9819 8.09829 19.1988 7.68195 17.1504H24.4021C23.9858 19.1988 22.8349 20.9819 21.2352 22.2122C20.2865 21.1841 11.7976 21.1841 10.8489 22.2122Z" fill="#722245"/>
<path fill-rule="evenodd" clip-rule="evenodd" d="M10.8497 22.2121C11.7984 21.1841 13.1515 20.563 14.6138 20.563C15.5437 20.563 16.5419 20.563 17.4719 20.563C18.9342 20.563 20.2873 21.1841 21.236 22.2121C19.7976 23.3178 17.9966 23.9756 16.0428 23.9756C14.0891 23.9756 12.2881 23.3178 10.8497 22.2121Z" fill="#CA3B8F"/>
<path fill-rule="evenodd" clip-rule="evenodd" d="M10.498 16.2972C11.2897 16.2972 12.0482 15.9824 12.6079 15.4227C13.1675 14.863 13.4824 14.1046 13.4824 13.3128C13.4824 12.7523 13.4824 12.1653 13.4824 11.6048C13.4824 9.95567 12.1455 8.61877 10.4963 8.61877H10.4946C9.70287 8.61877 8.94441 8.93359 8.38474 9.49326C7.82507 10.0529 7.51025 10.8114 7.51025 11.6031C7.51025 12.1636 7.51025 12.7506 7.51025 13.3111C7.51025 14.9603 8.84715 16.2972 10.4963 16.2972H10.498Z" fill="white"/>
<path fill-rule="evenodd" clip-rule="evenodd" d="M9.21661 11.1782C9.21661 10.7261 9.39663 10.2918 9.71656 9.97187C10.0365 9.65194 10.4708 9.47192 10.9229 9.47192C11.3751 9.47192 11.8094 9.65194 12.1293 9.97187C12.4492 10.2918 12.6292 10.7261 12.6292 11.1782C12.6292 11.9768 12.6292 12.9255 12.6292 13.7232C12.6292 14.1762 12.4492 14.6096 12.1293 14.9304C11.8094 15.2504 11.3751 15.4295 10.9229 15.4295C10.4708 15.4295 10.0365 15.2504 9.71656 14.9304C9.39663 14.6096 9.21661 14.1762 9.21661 13.7232C9.21661 12.9255 9.21661 11.9768 9.21661 11.1782Z" fill="black"/>
<path fill-rule="evenodd" clip-rule="evenodd" d="M21.5857 16.2972C20.7939 16.2972 20.0355 15.9824 19.4758 15.4227C18.9161 14.863 18.6013 14.1046 18.6013 13.3128C18.6013 12.7523 18.6013 12.1653 18.6013 11.6048C18.6013 9.95567 19.9382 8.61877 21.5874 8.61877H21.5891C22.3808 8.61877 23.1393 8.93359 23.6989 9.49326C24.2586 10.0529 24.5734 10.8114 24.5734 11.6031C24.5734 12.1636 24.5734 12.7506 24.5734 13.3111C24.5734 14.9603 23.2365 16.2972 21.5874 16.2972H21.5857Z" fill="white"/>
<path fill-rule="evenodd" clip-rule="evenodd" d="M22.8671 11.1782C22.8671 10.7261 22.6871 10.2918 22.3671 9.97187C22.0472 9.65194 21.613 9.47192 21.1608 9.47192C20.7086 9.47192 20.2744 9.65194 19.9544 9.97187C19.6345 10.2918 19.4545 10.7261 19.4545 11.1782C19.4545 11.9768 19.4545 12.9255 19.4545 13.7232C19.4545 14.1762 19.6345 14.6096 19.9544 14.9304C20.2744 15.2504 20.7086 15.4295 21.1608 15.4295C21.613 15.4295 22.0472 15.2504 22.3671 14.9304C22.6871 14.6096 22.8671 14.1762 22.8671 13.7232C22.8671 12.9255 22.8671 11.9768 22.8671 11.1782Z" fill="black"/>
</svg>
