<svg width="32" height="32" viewBox="0 0 32 32" fill="none" xmlns="http://www.w3.org/2000/svg">
<g clip-path="url(#clip0)">
<path d="M31.1028 20.9925C31.1028 23.0016 30.5776 24.4276 29.7584 25.467C28.9313 26.5165 27.7418 27.2511 26.2822 27.7577C23.3206 28.7859 19.5103 28.7956 16.0998 28.7956C12.6905 28.7956 8.82725 28.7862 5.81316 27.7563C4.32618 27.2482 3.11166 26.5116 2.26715 25.4605C1.43183 24.4208 0.896749 22.9971 0.896749 20.9925C0.896749 17.2445 1.70404 12.6828 4.00516 9.08874C6.27215 5.54802 10.0181 2.88955 16.0998 2.88955C21.8645 2.88955 25.569 5.55276 27.871 9.1208C30.2022 12.7339 31.1028 17.3007 31.1028 20.9925Z" fill="#FBC546" stroke="black" stroke-width="1.7935"/>
<path fill-rule="evenodd" clip-rule="evenodd" d="M21.034 15.0427L23.137 15.744C23.584 15.8924 23.8255 16.3762 23.677 16.8232C23.5277 17.2694 23.044 17.5117 22.5978 17.3624L17.8756 15.7883L22.2642 11.3997C22.5969 11.067 23.1378 11.067 23.4706 11.3997C23.8033 11.7324 23.8033 12.2733 23.4706 12.6061L21.034 15.0427ZM11.0503 15.0427L8.61369 12.6061C8.28095 12.2733 8.28095 11.7324 8.61369 11.3997C8.94642 11.067 9.48732 11.067 9.82005 11.3997L14.2087 15.7883L9.48647 17.3624C9.04026 17.5117 8.55652 17.2694 8.40722 16.8232C8.25877 16.3762 8.50022 15.8924 8.94727 15.744L11.0503 15.0427Z" fill="black"/>
<path fill-rule="evenodd" clip-rule="evenodd" d="M10.7401 23.5866C9.11574 22.5202 7.84624 21.005 7.37018 19.2551H24.7149C24.2388 21.005 22.9693 22.5202 21.3449 23.5866C20.3928 22.4852 11.6923 22.4852 10.7401 23.5866Z" fill="#722245"/>
<path fill-rule="evenodd" clip-rule="evenodd" d="M10.743 23.5866C11.6951 22.4852 13.0968 21.8146 14.6163 21.8146C15.5463 21.8146 16.5445 21.8146 17.4744 21.8146C18.9939 21.8146 20.3956 22.4852 21.3477 23.5866C19.7796 24.6163 17.8805 25.2272 16.0454 25.2272C14.2102 25.2272 12.3111 24.6163 10.743 23.5866Z" fill="#CA3B8F"/>
<path fill-rule="evenodd" clip-rule="evenodd" d="M23.5048 16.9386C23.5048 16.9386 25.8081 19.8702 27.4123 21.9124C28.2909 23.0307 28.2494 24.6173 27.3127 25.6882C27.3029 25.699 27.293 25.7099 27.2832 25.7207C26.2646 26.8853 24.5204 27.0677 23.2819 26.1398C23.2228 26.0944 23.1626 26.0501 23.1045 26.0057C22.152 25.2918 21.7201 24.0769 22.009 22.9222C22.5927 20.5871 23.5048 16.9386 23.5048 16.9386Z" fill="#E59A10"/>
<path fill-rule="evenodd" clip-rule="evenodd" d="M8.52524 16.9386C8.52524 16.9386 6.22179 19.8702 4.61746 21.9123C3.73887 23.0305 3.78029 24.6171 4.71705 25.688C4.72691 25.6988 4.73677 25.7097 4.74663 25.7205C5.76524 26.885 7.50959 27.0675 8.74809 26.1396C8.80725 26.0942 8.8674 26.0498 8.92558 26.0055C9.87812 25.2916 10.31 24.0767 10.0211 22.922C9.43735 20.587 8.52524 16.9386 8.52524 16.9386Z" fill="#E59A10"/>
<path fill-rule="evenodd" clip-rule="evenodd" d="M23.5048 15.7429C23.5048 15.7429 25.8081 18.6746 27.4123 20.7168C28.2909 21.835 28.2494 23.4216 27.3127 24.4925C27.3029 24.5033 27.293 24.5142 27.2832 24.525C26.2646 25.6896 24.5204 25.872 23.2819 24.9441C23.2228 24.8988 23.1626 24.8544 23.1045 24.81C22.152 24.0961 21.7201 22.8812 22.009 21.7265C22.5927 19.3915 23.5048 15.7429 23.5048 15.7429Z" fill="#1BB0E6"/>
<path fill-rule="evenodd" clip-rule="evenodd" d="M8.52554 15.743C8.52554 15.743 6.22209 18.6746 4.61776 20.7168C3.73918 21.835 3.78059 23.4215 4.71736 24.4924C4.72722 24.5033 4.73708 24.5141 4.74694 24.5249C5.76555 25.6895 7.5099 25.8719 8.74839 24.944C8.80756 24.8987 8.86771 24.8543 8.92589 24.8099C9.87843 24.096 10.3103 22.8812 10.0214 21.7265C9.43765 19.3915 8.52554 15.743 8.52554 15.743Z" fill="#1BB0E6"/>
</g>
<defs>
<clipPath id="clip0">
<rect width="32" height="32" fill="white"/>
</clipPath>
</defs>
</svg>
