<svg width="32" height="32" viewBox="0 0 32 32" fill="none" xmlns="http://www.w3.org/2000/svg">
<g clip-path="url(#clip0)">
<path d="M31.1028 20.9925C31.1028 23.0016 30.5776 24.4276 29.7584 25.467C28.9313 26.5165 27.7418 27.2511 26.2822 27.7577C23.3206 28.7859 19.5103 28.7956 16.0998 28.7956C12.6905 28.7956 8.82725 28.7862 5.81316 27.7563C4.32618 27.2482 3.11166 26.5116 2.26715 25.4605C1.43183 24.4208 0.896749 22.9971 0.896749 20.9925C0.896749 17.2445 1.70404 12.6828 4.00516 9.08874C6.27215 5.54802 10.0181 2.88955 16.0998 2.88955C21.8645 2.88955 25.569 5.55276 27.871 9.1208C30.2022 12.7339 31.1028 17.3007 31.1028 20.9925Z" fill="#FBC546" stroke="black" stroke-width="1.7935"/>
<path fill-rule="evenodd" clip-rule="evenodd" d="M10.544 23.9946C8.91957 22.9281 7.65007 21.4129 7.17401 19.6631H24.5187C24.0426 21.4129 22.7731 22.9281 21.1487 23.9946C20.1966 22.8931 11.4961 22.8931 10.544 23.9946Z" fill="#722245"/>
<path fill-rule="evenodd" clip-rule="evenodd" d="M10.5434 23.9945C11.4955 22.8931 12.8973 22.2225 14.4167 22.2225C15.3467 22.2225 16.3449 22.2225 17.2748 22.2225C18.7943 22.2225 20.196 22.8931 21.1481 23.9945C19.58 25.0243 17.6809 25.6352 15.8458 25.6352C14.0106 25.6352 12.1115 25.0243 10.5434 23.9945Z" fill="#CA3B8F"/>
<path fill-rule="evenodd" clip-rule="evenodd" d="M10.8539 15.4506L8.41727 13.014C8.08454 12.6813 8.08454 12.1404 8.41727 11.8077C8.75001 11.4749 9.29091 11.4749 9.62364 11.8077L14.0123 16.1963L9.29005 17.7704C8.84385 17.9197 8.36011 17.6774 8.21081 17.2312C8.06236 16.7841 8.3038 16.3004 8.75086 16.1519L10.8539 15.4506ZM20.8375 15.4506L22.9406 16.1519C23.3876 16.3004 23.6291 16.7841 23.4806 17.2312C23.3313 17.6774 22.8476 17.9197 22.4014 17.7704L17.6792 16.1963L22.0678 11.8077C22.4005 11.4749 22.9414 11.4749 23.2742 11.8077C23.6069 12.1404 23.6069 12.6813 23.2742 13.014L20.8375 15.4506Z" fill="black"/>
</g>
<defs>
<clipPath id="clip0">
<rect width="32" height="32" fill="white"/>
</clipPath>
</defs>
</svg>
