<svg width="32" height="32" viewBox="0 0 32 32" fill="none" xmlns="http://www.w3.org/2000/svg">
<path d="M31.1028 20.9925C31.1028 23.0016 30.5776 24.4276 29.7584 25.467C28.9313 26.5165 27.7418 27.2511 26.2822 27.7577C23.3206 28.7859 19.5103 28.7956 16.0998 28.7956C12.6905 28.7956 8.82725 28.7862 5.81316 27.7563C4.32618 27.2482 3.11166 26.5116 2.26715 25.4605C1.43183 24.4208 0.896749 22.9971 0.896749 20.9925C0.896749 17.2445 1.70404 12.6828 4.00516 9.08874C6.27215 5.54802 10.0181 2.88955 16.0998 2.88955C21.8645 2.88955 25.569 5.55276 27.871 9.1208C30.2022 12.7339 31.1028 17.3007 31.1028 20.9925Z" fill="#FBC546" stroke="black" stroke-width="1.7935"/>
<path fill-rule="evenodd" clip-rule="evenodd" d="M10.3487 22.6444C8.99812 21.4423 8.03234 19.8171 7.65866 17.9785H24.3788C24.0052 19.8171 23.0394 21.4423 21.6888 22.6444H10.3487Z" fill="#165011"/>
<path fill-rule="evenodd" clip-rule="evenodd" d="M12.6089 22.4823C12.6089 22.5856 11.76 23.5419 11.7677 23.6452L11.7694 23.6682C11.2618 23.3747 10.7866 23.0318 10.3514 22.6436L10.9956 21.6769C11.1065 21.5123 11.2345 21.3604 11.3795 21.2248C11.4955 21.1164 11.6218 21.0192 11.7557 20.9347L12.6089 22.4823ZM20.2873 20.9347C20.5851 21.1232 20.8453 21.3741 21.0475 21.6769L21.6916 22.6436C21.2565 23.0318 20.7813 23.3747 20.2737 23.6682L20.2754 23.6452C20.283 23.5419 19.4342 22.5856 19.4342 22.4823L20.2873 20.9347Z" fill="#1D8016"/>
<path fill-rule="evenodd" clip-rule="evenodd" d="M20.2827 23.3364C20.2827 23.4405 20.2785 23.5446 20.2708 23.6461C20.113 25.7253 18.3759 27.3633 16.2558 27.3633C16.0971 27.3633 15.9367 27.3633 15.7781 27.3633C13.5539 27.3633 11.7512 25.5606 11.7512 23.3364V20.9357C11.9747 20.7949 12.2187 20.6874 12.4746 20.6208C12.6862 20.5662 12.9029 20.5389 13.1213 20.5381H18.9126C19.4057 20.5381 19.8792 20.6797 20.2827 20.9357V23.3364Z" fill="#2ABD20"/>
<path fill-rule="evenodd" clip-rule="evenodd" d="M26.2548 13.7128C26.2548 14.3919 25.9852 15.0429 25.5049 15.5224C25.0254 16.0027 24.3745 16.2723 23.6954 16.2723H22.4156V17.1255C21.8466 17.1255 21.2784 17.1255 20.7093 17.1255V16.2723H17.7233C17.7233 15.7032 17.7233 15.135 17.7233 14.566H19.4296V12.8597C18.7505 12.8597 18.0995 12.5901 17.62 12.1097C17.1397 11.6303 16.8701 10.9793 16.8701 10.3002V8.59389C16.8701 8.59389 18.7505 7.74073 19.4296 7.74073H20.7093V6.88757H22.4156V7.74073H25.4017V9.44705H22.4156V11.1534H23.6954C24.3745 11.1534 26.2548 12.0065 26.2548 12.0065V13.7128ZM15.1638 13.7128C15.1638 14.3919 14.8942 15.0429 14.4139 15.5224C13.9344 16.0027 13.2834 16.2723 12.6043 16.2723H11.3246V17.1255C10.7555 17.1255 10.1873 17.1255 9.61826 17.1255V16.2723H6.63221C6.63221 15.7032 6.63221 15.135 6.63221 14.566H8.33852V12.8597C7.65941 12.8597 7.00845 12.5901 6.52898 12.1097C6.04865 11.6303 5.77905 10.9793 5.77905 10.3002V8.59389C5.77905 8.59389 7.65941 7.74073 8.33852 7.74073H9.61826V6.88757H11.3246V7.74073H14.3106V9.44705H12.6043V11.1534C13.2834 11.1534 15.1638 12.0065 15.1638 12.0065V13.7128Z" fill="#269710"/>
<path fill-rule="evenodd" clip-rule="evenodd" d="M20.7093 6.03443V5.18127H22.4156V6.03443H25.4017V7.74075H22.4156V9.44706H23.6954C24.3745 9.44706 25.0254 9.71666 25.5049 10.197C25.9852 10.6765 26.2548 11.3274 26.2548 12.0065C26.2548 12.6856 25.9852 13.3366 25.5049 13.8161C25.0254 14.2964 24.3745 14.566 23.6954 14.566H22.4156V15.4192C21.8466 15.4192 21.2784 15.4192 20.7093 15.4192V14.566H17.7233C17.7233 13.9969 17.7233 13.4287 17.7233 12.8597H20.7093V11.1534H19.4296C18.7505 11.1534 18.0995 10.8838 17.62 10.4035C17.1397 9.92398 16.8701 9.27302 16.8701 8.5939C16.8701 7.91479 17.1397 7.26383 17.62 6.78436C18.0995 6.30403 18.7505 6.03443 19.4296 6.03443H20.7093ZM9.61826 6.03443V5.18127H11.3246V6.03443H14.3106V7.74075H11.3246V9.44706H12.6043C13.2834 9.44706 13.9344 9.71666 14.4139 10.197C14.8942 10.6765 15.1638 11.3274 15.1638 12.0065C15.1638 12.6856 14.8942 13.3366 14.4139 13.8161C13.9344 14.2964 13.2834 14.566 12.6043 14.566H11.3246V15.4192C10.7555 15.4192 10.1873 15.4192 9.61826 15.4192V14.566H6.63221C6.63221 13.9969 6.63221 13.4287 6.63221 12.8597H9.61826V11.1534H8.33852C7.65941 11.1534 7.00845 10.8838 6.52898 10.4035C6.04865 9.92398 5.77905 9.27302 5.77905 8.5939C5.77905 7.91479 6.04865 7.26383 6.52898 6.78436C7.00845 6.30403 7.65941 6.03443 8.33852 6.03443H9.61826ZM22.4156 12.8597H23.6954C23.9214 12.8597 24.139 12.7701 24.2985 12.6097C24.4589 12.4502 24.5485 12.2326 24.5485 12.0065C24.5485 11.7804 24.4589 11.5629 24.2985 11.4034C24.139 11.243 23.9214 11.1534 23.6954 11.1534H22.4156V12.8597ZM12.6043 11.1534H11.3246V12.8597H12.6043C12.8304 12.8597 13.048 12.7701 13.2075 12.6097C13.3679 12.4502 13.4575 12.2326 13.4575 12.0065C13.4575 11.7804 13.3679 11.5629 13.2075 11.4034C13.048 11.243 12.8304 11.1534 12.6043 11.1534ZM19.4296 9.44706H20.7093V7.74075H19.4296C19.2035 7.74075 18.9859 7.83033 18.8264 7.99072C18.666 8.15026 18.5764 8.36782 18.5764 8.5939C18.5764 8.81999 18.666 9.03755 18.8264 9.19709C18.9859 9.35748 19.2035 9.44706 19.4296 9.44706ZM8.33852 9.44706H9.61826V7.74075H8.33852C8.11244 7.74075 7.89488 7.83033 7.73534 7.99072C7.57495 8.15026 7.48537 8.36782 7.48537 8.5939C7.48537 8.81999 7.57495 9.03755 7.73534 9.19709C7.89488 9.35748 8.11244 9.44706 8.33852 9.44706Z" fill="#6DEC51"/>
</svg>
