<svg width="32" height="32" viewBox="0 0 32 32" fill="none" xmlns="http://www.w3.org/2000/svg">
<g clip-path="url(#clip0)">
<path d="M31.1028 20.9925C31.1028 23.0016 30.5776 24.4276 29.7584 25.467C28.9313 26.5165 27.7418 27.2511 26.2822 27.7577C23.3206 28.7859 19.5103 28.7956 16.0998 28.7956C12.6905 28.7956 8.82725 28.7862 5.81316 27.7563C4.32618 27.2482 3.11166 26.5116 2.26715 25.4605C1.43183 24.4208 0.896749 22.9971 0.896749 20.9925C0.896749 17.2445 1.70404 12.6828 4.00516 9.08874C6.27215 5.54802 10.0181 2.88955 16.0998 2.88955C21.8645 2.88955 25.569 5.55276 27.871 9.1208C30.2022 12.7339 31.1028 17.3007 31.1028 20.9925Z" fill="#FBC546" stroke="black" stroke-width="1.7935"/>
<path fill-rule="evenodd" clip-rule="evenodd" d="M13.5509 21.0337C13.5509 21.0925 13.5608 21.1523 13.5798 21.2091C13.7412 21.6953 14.5612 24.1554 15.0893 25.7387C15.3603 26.5527 16.1226 27.1017 16.9804 27.1017C18.0037 27.1017 19.3947 27.1017 20.5256 27.1017C21.6266 27.1017 22.5184 26.21 22.5184 25.1089C22.5184 25.1089 19.4575 21.4353 18.1343 19.848C17.7556 19.3937 17.1947 19.1306 16.6028 19.1306C16.2581 19.1306 15.8525 19.1306 15.452 19.1306C14.4018 19.1306 13.5509 19.9815 13.5509 21.0317C13.5509 21.0327 13.5509 21.0327 13.5509 21.0337Z" fill="#5462CB"/>
<path fill-rule="evenodd" clip-rule="evenodd" d="M24.5113 25.108C24.5113 24.5799 24.301 24.0728 23.9274 23.6991C23.5537 23.3255 23.0466 23.1152 22.5185 23.1152C21.0359 23.1152 19.0192 23.1152 17.5365 23.1152C17.0085 23.1152 16.5013 23.3255 16.1276 23.6991C15.754 24.0728 15.5438 24.5799 15.5438 25.108C15.5438 25.6361 15.754 26.1433 16.1276 26.5169C16.5013 26.8905 17.0085 27.1008 17.5365 27.1008C19.0192 27.1008 21.0359 27.1008 22.5185 27.1008C23.0466 27.1008 23.5537 26.8905 23.9274 26.5169C24.301 26.1433 24.5113 25.6361 24.5113 25.108Z" fill="#2438B9"/>
<path d="M23.8985 16.1208C24.2321 16.4536 24.2321 16.9945 23.8985 17.3272C23.5658 17.6608 23.0249 17.6608 22.6921 17.3272C22.0617 16.6967 21.1624 15.7975 21.1624 15.7975C21.1624 15.7975 20.2487 16.7112 19.6174 17.3426C19.4612 17.4987 19.2496 17.5866 19.0295 17.5866C18.8094 17.5866 18.5978 17.4987 18.4417 17.3426C18.277 17.1788 18.1849 16.9561 18.1849 16.724C18.1849 16.492 18.277 16.2693 18.4417 16.1055C19.4066 15.1406 21.1624 13.3848 21.1624 13.3848C21.1624 13.3848 22.937 15.1585 23.8985 16.1208Z" fill="black"/>
<path d="M13.6614 16.1245C13.8209 16.284 13.9105 16.5007 13.9105 16.7268C13.9105 16.9529 13.8209 17.1696 13.6614 17.3292C13.6614 17.33 13.6606 17.33 13.6606 17.33C13.3278 17.6636 12.7869 17.6636 12.4542 17.33C11.8237 16.6995 10.9245 15.8003 10.9245 15.8003C10.9245 15.8003 10.0107 16.714 9.37941 17.3454C9.22328 17.5015 9.0117 17.5894 8.79159 17.5894C8.57147 17.5894 8.35989 17.5015 8.20376 17.3454C8.0391 17.1816 7.94696 16.9589 7.94696 16.7268C7.94696 16.4948 8.0391 16.2721 8.20376 16.1083C9.16868 15.1434 10.9245 13.3876 10.9245 13.3876C10.9245 13.3876 12.699 15.1621 13.6614 16.1245Z" fill="black"/>
<path d="M6.16145 23.9465C5.39361 23.6905 4.59335 23.5455 3.78626 23.5148C2.0924 23.5148 2.23513 25.6237 6.37688 27.0021L6.5539 26.9214L7.40706 24.362C7.40706 24.362 6.78937 24.1563 6.16145 23.9465Z" fill="#E59A10"/>
<path d="M30.0909 19.1306C30.2902 19.2303 29.3935 14.4476 29.2477 14.7465H27.6897L26.5039 17.1179C27.8106 17.5531 29.0475 18.2603 30.0909 19.1306Z" fill="#E59A10"/>
<path d="M18.6391 3.98561C22.3191 4.58344 25.2086 6.67585 27.1018 9.56538C21.7213 10.4621 17.8353 6.67585 18.6391 3.98561Z" fill="#E59A10"/>
<path fill-rule="evenodd" clip-rule="evenodd" d="M0 7.22379L2.29169 3.78625C3.75952 5.25408 5.74871 6.07795 7.82384 6.07795C8.57895 6.07795 9.16677 6.07795 9.16677 6.07795L6.87508 9.51549C4.6338 9.51549 2.4418 8.85204 0.577506 7.6088C0.232607 7.37848 0 7.22379 0 7.22379Z" fill="#F229A2"/>
<path fill-rule="evenodd" clip-rule="evenodd" d="M32.1585 14.8313V10.9603C32.1585 10.9603 31.5546 11.1616 30.823 11.4055C29.1998 11.9461 27.4281 11.821 25.8978 11.0558C25.7778 10.9965 25.7068 10.9603 25.7068 10.9603V14.8313C25.7068 14.8313 25.7778 14.8675 25.8978 14.9268C27.4281 15.692 29.1998 15.8172 30.823 15.2765C31.5546 15.0326 32.1585 14.8313 32.1585 14.8313Z" fill="#F229A2"/>
<path fill-rule="evenodd" clip-rule="evenodd" d="M26.3175 8.3825V4.54868H25.1303C23.4357 4.54868 21.8102 3.8752 20.6127 2.67777C20.223 2.288 19.9278 1.9928 19.9278 1.9928V5.82662C19.9278 5.82662 20.223 6.12182 20.6127 6.5116C21.8102 7.70903 23.4357 8.3825 25.1303 8.3825C25.7922 8.3825 26.3175 8.3825 26.3175 8.3825Z" fill="#F229A2"/>
<path fill-rule="evenodd" clip-rule="evenodd" d="M0 25.5075L1.2526 21.7497C3.70269 21.7497 6.09892 21.0245 8.1369 19.6654C8.51394 19.4136 8.76822 19.2445 8.76822 19.2445L7.51561 23.0023C7.51561 23.0023 7.26133 23.1714 6.8843 23.4232C4.84632 24.7823 2.45009 25.5075 0 25.5075Z" fill="#F229A2"/>
<path fill-rule="evenodd" clip-rule="evenodd" d="M23.9133 25.7806C23.9133 25.7806 24.0703 26.016 24.301 26.3633C25.501 28.1622 27.5191 29.2421 29.6814 29.2421H29.6825L31.9902 25.7806H31.9891C29.8268 25.7806 27.8087 24.7006 26.6087 22.9018C26.3779 22.5545 26.221 22.3191 26.221 22.3191L23.9133 25.7806Z" fill="#F229A2"/>
<path fill-rule="evenodd" clip-rule="evenodd" d="M8.76965 10.7102C7.79446 11.1894 6.7185 11.4806 5.59507 11.5473C5.53342 11.551 5.47178 11.5547 5.41119 11.5583C4.84788 11.5917 4.29357 11.3996 3.87131 11.0248C3.44905 10.6499 3.19264 10.1222 3.15915 9.55891C2.95877 6.18756 2.59061 -0.00671387 2.59061 -0.00671387L4.21803 1.35354L9.09902 8.66084L8.76965 10.7102Z" fill="#8012DA"/>
<path fill-rule="evenodd" clip-rule="evenodd" d="M8.76965 10.7102L2.59061 -0.00671387C2.59061 -0.00671387 8.57716 2.55462 11.6941 3.88821C12.7109 4.32374 13.1829 5.49988 12.7473 6.51664C12.7473 6.51664 12.7473 6.51664 12.7474 6.51771C11.9503 8.37831 10.5231 9.84759 8.76965 10.7102Z" fill="#982EEE"/>
</g>
<defs>
<clipPath id="clip0">
<rect width="32" height="32" fill="white"/>
</clipPath>
</defs>
</svg>
