<svg width="32" height="32" viewBox="0 0 32 32" fill="none" xmlns="http://www.w3.org/2000/svg">
<g clip-path="url(#clip0)">
<path d="M28.8516 7.49275C30.2723 8.91341 30.9093 10.2931 31.065 11.6074C31.2222 12.9343 30.9006 14.2948 30.2267 15.6851C28.8595 18.5063 26.1721 21.2075 23.7606 23.6191C21.3499 26.0298 18.6114 28.7549 15.7519 30.1579C14.3412 30.8501 12.9615 31.188 11.6211 31.0419C10.2953 30.8974 8.91018 30.2691 7.49276 28.8516C4.84249 26.2014 2.18771 22.4049 1.27349 18.2364C0.372829 14.1297 1.14179 9.60114 5.44218 5.30075C9.51849 1.22443 14.0211 0.488191 18.1719 1.38336C22.3751 2.28983 26.2411 4.88223 28.8516 7.49275Z" fill="#FBC546" stroke="black" stroke-width="1.7935"/>
<path fill-rule="evenodd" clip-rule="evenodd" d="M17.5248 10.4054L19.5078 9.41418C19.9289 9.20303 20.4416 9.37436 20.6528 9.79544C20.8627 10.2165 20.692 10.7299 20.2709 10.9399L15.8188 13.1659L15.8188 6.95946C15.8188 6.4889 16.2012 6.10643 16.6718 6.10643C17.1423 6.10643 17.5248 6.4889 17.5248 6.95946L17.5248 10.4054ZM10.4653 17.4649L7.01941 17.4649C6.54885 17.4649 6.16638 17.0824 6.16638 16.6118C6.16638 16.1413 6.54885 15.7588 7.01941 15.7588L13.2259 15.7588L10.9998 20.211C10.7899 20.632 10.2765 20.8028 9.85539 20.5928C9.43431 20.3817 9.26298 19.8689 9.47413 19.4478L10.4653 17.4649Z" fill="black"/>
<path fill-rule="evenodd" clip-rule="evenodd" d="M16.2875 23.7255C14.3848 24.1201 12.4157 23.9463 10.8417 23.0457L23.1063 10.7811C24.007 12.355 24.1807 14.3241 23.7862 16.2269C22.3341 16.1213 16.1819 22.2735 16.2875 23.7255Z" fill="#722245"/>
<path fill-rule="evenodd" clip-rule="evenodd" d="M16.2893 23.7236C16.1837 22.2715 16.7007 20.8061 17.7752 19.7317C18.4327 19.0742 19.1386 18.3683 19.7961 17.7108C20.8706 16.6363 22.3359 16.1193 23.788 16.2249C23.4073 18.0619 22.4964 19.8367 21.1988 21.1343C19.9011 22.432 18.1263 23.3429 16.2893 23.7236Z" fill="#CA3B8F"/>
<path fill-rule="evenodd" clip-rule="evenodd" d="M20.6126 9.99875C20.6126 9.99875 24.3143 10.443 26.8927 10.7527C28.3046 10.9222 29.3972 12.0734 29.4921 13.493C29.4928 13.5076 29.4935 13.5223 29.4942 13.5369C29.5974 15.0806 28.4931 16.443 26.9612 16.6625C26.8873 16.6723 26.8134 16.6835 26.7409 16.6932C25.5626 16.8619 24.3982 16.3082 23.7859 15.2875C22.5476 13.2236 20.6126 9.99875 20.6126 9.99875Z" fill="#E59A10"/>
<path fill-rule="evenodd" clip-rule="evenodd" d="M10.0205 20.5909C10.0205 20.5909 10.4646 24.2926 10.7742 26.8711C10.9436 28.283 12.0948 29.3756 13.5144 29.4705C13.529 29.4712 13.5437 29.4718 13.5583 29.4725C15.102 29.5757 16.4645 28.4713 16.6841 26.9394C16.6939 26.8655 16.705 26.7916 16.7148 26.7191C16.8835 25.5407 16.3299 24.3763 15.3091 23.7641C13.2453 22.5258 10.0205 20.5909 10.0205 20.5909Z" fill="#E59A10"/>
<path fill-rule="evenodd" clip-rule="evenodd" d="M19.7671 9.15329C19.7671 9.15329 23.4688 9.59758 26.0472 9.90727C27.4591 10.0768 28.5518 11.2279 28.6466 12.6475C28.6473 12.6622 28.648 12.6768 28.6487 12.6915C28.752 14.2352 27.6476 15.5975 26.1158 15.8171C26.0419 15.8268 25.968 15.838 25.8955 15.8478C24.7171 16.0164 23.5527 15.4628 22.9405 14.442C21.7021 12.3781 19.7671 9.15329 19.7671 9.15329Z" fill="#1BB0E6"/>
<path fill-rule="evenodd" clip-rule="evenodd" d="M9.175 19.7455C9.175 19.7455 9.61915 23.4472 9.92874 26.0256C10.0982 27.4376 11.2493 28.5302 12.6689 28.625C12.6836 28.6257 12.6982 28.6264 12.7129 28.6271C14.2566 28.7303 15.619 27.6258 15.8387 26.094C15.8484 26.0201 15.8596 25.9461 15.8693 25.8736C16.0381 24.6953 15.4845 23.5309 14.4637 22.9187C12.3998 21.6803 9.175 19.7455 9.175 19.7455Z" fill="#1BB0E6"/>
</g>
<defs>
<clipPath id="clip0">
<rect width="32" height="32" fill="white"/>
</clipPath>
</defs>
</svg>
