<svg width="32" height="32" viewBox="0 0 32 32" fill="none" xmlns="http://www.w3.org/2000/svg">
<path d="M31.1028 20.9925C31.1028 23.0016 30.5776 24.4276 29.7584 25.467C28.9313 26.5165 27.7418 27.2511 26.2822 27.7577C23.3206 28.7859 19.5103 28.7956 16.0998 28.7956C12.6905 28.7956 8.82725 28.7862 5.81316 27.7563C4.32618 27.2482 3.11166 26.5116 2.26715 25.4605C1.43183 24.4208 0.896749 22.9971 0.896749 20.9925C0.896749 17.2445 1.70404 12.6828 4.00516 9.08874C6.27215 5.54802 10.0181 2.88955 16.0998 2.88955C21.8645 2.88955 25.569 5.55276 27.871 9.1208C30.2022 12.7339 31.1028 17.3007 31.1028 20.9925Z" fill="#FBC546" stroke="black" stroke-width="1.7935"/>
<path fill-rule="evenodd" clip-rule="evenodd" d="M10.2332 22.6985C8.88267 21.4964 7.9169 19.8711 7.54321 18.0326H24.2634C23.8897 19.8711 22.9239 21.4964 21.5734 22.6985H10.2332Z" fill="#722245"/>
<path fill-rule="evenodd" clip-rule="evenodd" d="M10.2327 22.6992L10.8768 21.7326C11.079 21.4297 11.3392 21.1789 11.637 20.9904L13.3433 23.3911C13.3433 23.7119 13.1462 24.0233 12.921 24.3219C11.9236 23.95 11.0133 23.3954 10.2327 22.6992ZM18.8845 24.3219C18.6593 24.0233 18.4622 23.7119 18.4622 23.3911L20.1685 20.9904C20.4663 21.1789 20.7265 21.4297 20.9287 21.7326L21.5728 22.6992C20.7922 23.3954 19.8819 23.95 18.8845 24.3219Z" fill="#A1256C"/>
<path fill-rule="evenodd" clip-rule="evenodd" d="M18.8004 20.592C19.2936 20.592 19.7671 20.7337 20.1706 20.9896V22.5372H11.639V20.9896C12.0426 20.7337 12.5161 20.592 13.0092 20.592H18.8004Z" fill="#DD34A2"/>
<path fill-rule="evenodd" clip-rule="evenodd" d="M20.1706 21.4452H11.639V23.3904C11.639 25.6146 13.4418 27.4173 15.6659 27.4173C15.8246 27.4173 15.985 27.4173 16.1437 27.4173C18.3679 27.4173 20.1706 25.6146 20.1706 23.3904C20.1706 22.3146 20.1706 21.4452 20.1706 21.4452Z" fill="#DD34A2"/>
<path fill-rule="evenodd" clip-rule="evenodd" d="M21.4503 17.0444C19.8012 17.0444 18.4643 15.7075 18.4643 14.0583V12.352C18.4643 10.7029 19.8012 9.36597 21.4503 9.36597H21.4521C22.2438 9.36597 23.0022 9.68078 23.5619 10.2405C24.1216 10.8001 24.4364 11.5594 24.4364 12.3503C24.4364 12.9117 24.4364 13.4978 24.4364 14.0583C24.4364 15.7075 23.0995 17.0444 21.4503 17.0444Z" fill="white"/>
<path fill-rule="evenodd" clip-rule="evenodd" d="M22.7301 11.9254C22.7301 11.4733 22.5501 11.039 22.2301 10.7191C21.9102 10.3991 21.4759 10.2191 21.0238 10.2191C20.5716 10.2191 20.1373 10.3991 19.8174 10.7191C19.4975 11.039 19.3174 11.4733 19.3174 11.9254C19.3174 12.724 19.3174 13.6727 19.3174 14.4713C19.3174 14.9234 19.4975 15.3577 19.8174 15.6776C20.1373 15.9976 20.5716 16.1776 21.0238 16.1776C21.4759 16.1776 21.9102 15.9976 22.2301 15.6776C22.5501 15.3577 22.7301 14.9234 22.7301 14.4713C22.7301 13.6727 22.7301 12.724 22.7301 11.9254Z" fill="black"/>
<path fill-rule="evenodd" clip-rule="evenodd" d="M10.3593 17.0444C12.0084 17.0444 13.3453 15.7075 13.3453 14.0583V12.352C13.3453 10.7029 12.0084 9.36597 10.3593 9.36597H10.3576C9.56584 9.36597 8.80739 9.68078 8.24772 10.2405C7.68805 10.8001 7.37323 11.5594 7.37323 12.3503C7.37323 12.9117 7.37323 13.4978 7.37323 14.0583C7.37323 15.7075 8.71013 17.0444 10.3593 17.0444Z" fill="white"/>
<path fill-rule="evenodd" clip-rule="evenodd" d="M9.07953 11.9254C9.07953 11.4733 9.25955 11.039 9.57948 10.7191C9.89941 10.3991 10.3337 10.2191 10.7858 10.2191C11.238 10.2191 11.6723 10.3991 11.9922 10.7191C12.3121 11.039 12.4922 11.4733 12.4922 11.9254C12.4922 12.724 12.4922 13.6727 12.4922 14.4713C12.4922 14.9234 12.3121 15.3577 11.9922 15.6776C11.6723 15.9976 11.238 16.1776 10.7858 16.1776C10.3337 16.1776 9.89941 15.9976 9.57948 15.6776C9.25955 15.3577 9.07953 14.9234 9.07953 14.4713C9.07953 13.6727 9.07953 12.724 9.07953 11.9254Z" fill="black"/>
</svg>
