<svg width="32" height="32" viewBox="0 0 32 32" fill="none" xmlns="http://www.w3.org/2000/svg">
<path d="M31.1028 20.9925C31.1028 23.0016 30.5776 24.4276 29.7584 25.467C28.9313 26.5165 27.7418 27.2511 26.2822 27.7577C23.3206 28.7859 19.5103 28.7956 16.0998 28.7956C12.6905 28.7956 8.82725 28.7862 5.81316 27.7563C4.32618 27.2482 3.11166 26.5116 2.26715 25.4605C1.43183 24.4208 0.896749 22.9971 0.896749 20.9925C0.896749 17.2445 1.70404 12.6828 4.00516 9.08874C6.27215 5.54802 10.0181 2.88955 16.0998 2.88955C21.8645 2.88955 25.569 5.55276 27.871 9.1208C30.2022 12.7339 31.1028 17.3007 31.1028 20.9925Z" fill="#FBC546" stroke="black" stroke-width="1.7935"/>
<path fill-rule="evenodd" clip-rule="evenodd" d="M22.9978 5.50307C23.748 5.95352 24.4569 6.48005 25.1121 7.08016C27.0595 8.85994 28.4144 11.1685 29.0307 13.6952C28.6212 13.8152 28.1963 13.886 27.764 13.9053C26.3403 13.969 24.9491 13.4648 23.8975 12.5032C23.8975 12.5032 23.8974 12.5022 23.8964 12.5022C22.1927 10.9434 21.6764 8.4692 22.6162 6.36001L22.9978 5.50307Z" fill="#E59A10"/>
<path fill-rule="evenodd" clip-rule="evenodd" d="M27.2926 1.19568C27.2926 1.19568 25.5079 4.76516 24.3041 7.17258C23.6622 8.45654 23.9141 10.0066 24.9289 11.0214C24.9289 11.0214 24.9288 11.0214 24.9299 11.0224C25.5566 11.6492 26.4058 12.0006 27.2926 12.0006C28.1794 12.0006 29.0286 11.6492 29.6553 11.0224C29.6563 11.0214 29.6563 11.0214 29.6563 11.0214C30.6711 10.0066 30.923 8.45654 30.281 7.17258C29.0773 4.76516 27.2926 1.19568 27.2926 1.19568Z" fill="#2AC2F9"/>
<path fill-rule="evenodd" clip-rule="evenodd" d="M10.7515 20.9315C9.03839 19.5289 7.90881 17.4396 7.7868 15.0848H23.9746C23.8526 17.4396 22.723 19.5289 21.0099 20.9315C20.0654 19.9444 11.696 19.9444 10.7515 20.9315Z" fill="#722245"/>
<path fill-rule="evenodd" clip-rule="evenodd" d="M10.7512 20.9315C11.6956 19.9444 13.0214 19.3506 14.4513 19.3506C15.3812 19.3506 16.3794 19.3506 17.3094 19.3506C18.7393 19.3506 20.0651 19.9444 21.0095 20.9315C19.6121 22.0764 17.8255 22.7632 15.8803 22.7632C13.9351 22.7632 12.1486 22.0764 10.7512 20.9315Z" fill="#CA3B8F"/>
<path fill-rule="evenodd" clip-rule="evenodd" d="M8.02353 12.7061C8.18307 12.8656 8.39977 12.956 8.62586 12.956C8.85195 12.9552 9.06865 12.8656 9.22819 12.7061C9.23075 12.7035 9.23246 12.7018 9.23246 12.7018C9.63771 12.2965 10.188 12.0687 10.7613 12.0687C11.3346 12.0687 11.8849 12.2965 12.2902 12.7018C12.2902 12.7018 12.2919 12.7035 12.2944 12.7061C12.454 12.8656 12.6707 12.9552 12.8968 12.956C13.1229 12.956 13.3396 12.8656 13.4991 12.7061C13.4999 12.7061 13.4999 12.7052 13.4999 12.7052C13.6603 12.5457 13.7499 12.3281 13.7499 12.102C13.7499 11.8759 13.6603 11.6592 13.4999 11.4988C13.4974 11.4963 13.4965 11.4954 13.4965 11.4954C12.7714 10.7702 11.7868 10.3624 10.7613 10.3624C9.73582 10.3624 8.75128 10.7702 8.02609 11.4954C8.02609 11.4954 8.02439 11.4971 8.02183 11.4997C7.86229 11.6592 7.77185 11.8759 7.77185 12.102C7.77185 12.3281 7.86229 12.5448 8.02183 12.7043C8.02268 12.7052 8.02268 12.7052 8.02353 12.7061Z" fill="black"/>
<path fill-rule="evenodd" clip-rule="evenodd" d="M23.7361 12.7061C23.5766 12.8656 23.3599 12.956 23.1338 12.956C22.9077 12.9552 22.691 12.8656 22.5315 12.7061C22.5289 12.7035 22.5272 12.7018 22.5272 12.7018C22.122 12.2965 21.5717 12.0687 20.9983 12.0687C20.425 12.0687 19.8747 12.2965 19.4695 12.7018C19.4695 12.7018 19.4678 12.7035 19.4652 12.7061C19.3057 12.8656 19.089 12.9552 18.8629 12.956C18.6368 12.956 18.4201 12.8656 18.2606 12.7061C18.2597 12.7061 18.2597 12.7052 18.2597 12.7052C18.0993 12.5457 18.0097 12.3281 18.0097 12.102C18.0097 11.8759 18.0993 11.6592 18.2597 11.4988C18.2623 11.4963 18.2631 11.4954 18.2631 11.4954C18.9883 10.7702 19.9729 10.3624 20.9983 10.3624C22.0238 10.3624 23.0084 10.7702 23.7336 11.4954C23.7336 11.4954 23.7353 11.4971 23.7378 11.4997C23.8974 11.6592 23.9878 11.8759 23.9878 12.102C23.9878 12.3281 23.8974 12.5448 23.7378 12.7043C23.737 12.7052 23.737 12.7052 23.7361 12.7061Z" fill="black"/>
</svg>
