<svg width="32" height="32" viewBox="0 0 32 32" fill="none" xmlns="http://www.w3.org/2000/svg">
<g clip-path="url(#clip0)">
<path d="M0.896713 10.6927C0.896713 8.68355 1.42189 7.25757 2.2411 6.21813C3.0682 5.16869 4.25766 4.43411 5.71726 3.92743C8.67892 2.89933 12.4892 2.88954 15.8997 2.88954C19.309 2.88954 23.1722 2.89899 26.1863 3.92886C27.6733 4.43694 28.8878 5.17363 29.7323 6.22472C30.5677 7.26437 31.1027 8.68812 31.1027 10.6927C31.1027 14.4407 30.2954 19.0024 27.9943 22.5964C25.7273 26.1372 21.9814 28.7956 15.8997 28.7956C10.1349 28.7956 6.43052 26.1324 4.12844 22.5644C1.79731 18.9513 0.896713 14.3845 0.896713 10.6927Z" fill="#FBC546" stroke="black" stroke-width="1.7935"/>
<path d="M22.9199 11.7386C22.9199 11.7386 22.4822 11.301 21.92 10.7387C20.3749 9.19368 18.2796 8.32602 16.0946 8.32602C13.9097 8.32602 11.8143 9.19368 10.2693 10.7387C9.70705 11.301 9.26937 11.7386 9.26937 11.7386" stroke="#593604" stroke-width="1.48213" stroke-miterlimit="1.5" stroke-linecap="round"/>
<path fill-rule="evenodd" clip-rule="evenodd" d="M21.6385 13.4451C20.8468 13.4451 20.0883 13.7599 19.5286 14.3196C18.969 14.8793 18.6542 15.6377 18.6542 16.4295C18.6542 16.99 18.6542 17.577 18.6542 18.1375C18.6542 19.7866 19.991 21.1235 21.6402 21.1235L21.6419 21.1235C22.4336 21.1235 23.1921 20.8087 23.7518 20.249C24.3114 19.6894 24.6263 18.9309 24.6263 18.1392C24.6263 17.5787 24.6263 16.9917 24.6263 16.4312C24.6263 14.782 23.2894 13.4451 21.6402 13.4451L21.6385 13.4451Z" fill="white"/>
<path fill-rule="evenodd" clip-rule="evenodd" d="M22.9199 18.5639C22.9199 19.0161 22.7399 19.4504 22.42 19.7703C22.1 20.0902 21.6658 20.2703 21.2136 20.2703C20.7614 20.2703 20.3272 20.0902 20.0072 19.7703C19.6873 19.4504 19.5073 19.0161 19.5073 18.5639C19.5073 17.7654 19.5073 16.8167 19.5073 16.019C19.5073 15.566 19.6873 15.1325 20.0072 14.8118C20.3272 14.4918 20.7614 14.3127 21.2136 14.3127C21.6658 14.3127 22.1 14.4918 22.42 14.8118C22.7399 15.1326 22.9199 15.566 22.9199 16.019C22.9199 16.8167 22.9199 17.7654 22.9199 18.5639Z" fill="black"/>
<path fill-rule="evenodd" clip-rule="evenodd" d="M10.5509 13.4451C11.3426 13.4451 12.1011 13.7599 12.6607 14.3196C13.2204 14.8793 13.5352 15.6377 13.5352 16.4295C13.5352 16.99 13.5352 17.577 13.5352 18.1375C13.5352 19.7866 12.1983 21.1235 10.5492 21.1235L10.5475 21.1235C9.75573 21.1235 8.99727 20.8087 8.4376 20.249C7.87793 19.6894 7.56312 18.9309 7.56312 18.1392C7.56312 17.5787 7.56312 16.9917 7.56312 16.4312C7.56312 14.782 8.90001 13.4451 10.5492 13.4451L10.5509 13.4451Z" fill="white"/>
<path fill-rule="evenodd" clip-rule="evenodd" d="M9.26941 18.5639C9.26941 19.0161 9.44942 19.4504 9.76936 19.7703C10.0893 20.0902 10.5235 20.2703 10.9757 20.2703C11.4279 20.2703 11.8622 20.0902 12.1821 19.7703C12.502 19.4504 12.682 19.0161 12.682 18.5639C12.682 17.7654 12.682 16.8167 12.682 16.019C12.682 15.566 12.502 15.1326 12.1821 14.8118C11.8622 14.4918 11.4279 14.3127 10.9757 14.3127C10.5236 14.3127 10.0893 14.4918 9.76936 14.8118C9.44943 15.1325 9.26941 15.566 9.26941 16.019C9.26941 16.8167 9.26941 17.7654 9.26941 18.5639Z" fill="black"/>
</g>
<defs>
<clipPath id="clip0">
<rect width="32" height="32" fill="white"/>
</clipPath>
</defs>
</svg>
