<svg width="32" height="32" viewBox="0 0 32 32" fill="none" xmlns="http://www.w3.org/2000/svg">
<path d="M31.1028 20.9925C31.1028 23.0016 30.5776 24.4276 29.7584 25.467C28.9313 26.5165 27.7418 27.2511 26.2822 27.7577C23.3206 28.7859 19.5103 28.7956 16.0998 28.7956C12.6905 28.7956 8.82725 28.7862 5.81316 27.7563C4.32618 27.2482 3.11166 26.5116 2.26715 25.4605C1.43183 24.4208 0.896749 22.9971 0.896749 20.9925C0.896749 17.2445 1.70404 12.6828 4.00516 9.08874C6.27215 5.54802 10.0181 2.88955 16.0998 2.88955C21.8645 2.88955 25.569 5.55276 27.871 9.1208C30.2022 12.7339 31.1028 17.3007 31.1028 20.9925Z" fill="#FBC546" stroke="black" stroke-width="1.7935"/>
<path fill-rule="evenodd" clip-rule="evenodd" d="M10.2333 22.6985C8.88273 21.4964 7.91696 19.8711 7.54327 18.0326H24.2634C23.8898 19.8711 22.924 21.4964 21.5734 22.6985H10.2333Z" fill="#722245"/>
<path fill-rule="evenodd" clip-rule="evenodd" d="M10.2327 22.6992L10.8769 21.7326C11.0791 21.4297 11.3393 21.1789 11.637 20.9904L13.3433 23.3911C13.3433 23.7119 13.1463 24.0233 12.921 24.3219C11.9237 23.95 11.0134 23.3954 10.2327 22.6992ZM18.8846 24.3219C18.6594 24.0233 18.4623 23.7119 18.4623 23.3911L20.1686 20.9904C20.4663 21.1789 20.7266 21.4297 20.9288 21.7326L21.5729 22.6992C20.7923 23.3954 19.8819 23.95 18.8846 24.3219Z" fill="#A1256C"/>
<path fill-rule="evenodd" clip-rule="evenodd" d="M18.8005 20.592C19.2936 20.592 19.7671 20.7337 20.1707 20.9896V22.5372H11.6391V20.9896C12.0426 20.7337 12.5161 20.592 13.0093 20.592H18.8005Z" fill="#DD34A2"/>
<path fill-rule="evenodd" clip-rule="evenodd" d="M20.1707 21.4452H11.6391V23.3904C11.6391 25.6146 13.4418 27.4173 15.666 27.4173C15.8247 27.4173 15.9851 27.4173 16.1438 27.4173C18.368 27.4173 20.1707 25.6146 20.1707 23.3904C20.1707 22.3146 20.1707 21.4452 20.1707 21.4452Z" fill="#DD34A2"/>
<path fill-rule="evenodd" clip-rule="evenodd" d="M21.701 11.0282C21.7769 10.9532 21.8657 10.8917 21.9638 10.8491C22.2052 10.7441 22.4893 10.7578 22.7197 10.8858C22.8007 10.9318 22.8749 10.9907 22.9381 11.0598C23.0021 11.1306 23.0541 11.2125 23.0908 11.3004C23.1317 11.3985 23.1548 11.5043 23.1573 11.6109C23.1599 11.721 23.1411 11.8302 23.1019 11.9334C23.0592 12.0469 22.9927 12.1484 22.9074 12.2346L20.5245 14.6175H22.7308C23.2017 14.6175 23.5839 14.9997 23.5839 15.4706C23.5839 15.9416 23.2017 16.3238 22.7308 16.3238H17.8959L17.2996 15.4288L21.701 11.0282Z" fill="black"/>
<path fill-rule="evenodd" clip-rule="evenodd" d="M10.3593 17.0445C12.0085 17.0445 13.3454 15.7076 13.3454 14.0585V12.3521C13.3454 10.703 12.0085 9.36609 10.3593 9.36609H10.3576C9.56591 9.36609 8.80745 9.6809 8.24778 10.2406C7.68811 10.8002 7.37329 11.5596 7.37329 12.3504C7.37329 12.9118 7.37329 13.4979 7.37329 14.0585C7.37329 15.7076 8.71019 17.0445 10.3593 17.0445Z" fill="white"/>
<path fill-rule="evenodd" clip-rule="evenodd" d="M9.07959 11.9256C9.07959 11.4734 9.25961 11.0391 9.57954 10.7192C9.89947 10.3993 10.3337 10.2192 10.7859 10.2192C11.2381 10.2192 11.6723 10.3993 11.9923 10.7192C12.3122 11.0391 12.4922 11.4734 12.4922 11.9256C12.4922 12.7241 12.4922 13.6728 12.4922 14.4714C12.4922 14.9235 12.3122 15.3578 11.9923 15.6777C11.6723 15.9977 11.2381 16.1777 10.7859 16.1777C10.3337 16.1777 9.89947 15.9977 9.57954 15.6777C9.25961 15.3578 9.07959 14.9235 9.07959 14.4714C9.07959 13.6728 9.07959 12.7241 9.07959 11.9256Z" fill="black"/>
</svg>
