<svg width="32" height="32" viewBox="0 0 32 32" fill="none" xmlns="http://www.w3.org/2000/svg">
<g clip-path="url(#clip0)">
<path d="M31.1028 20.9925C31.1028 23.0016 30.5776 24.4276 29.7584 25.467C28.9313 26.5165 27.7418 27.2511 26.2822 27.7577C23.3206 28.7859 19.5103 28.7956 16.0998 28.7956C12.6905 28.7956 8.82725 28.7862 5.81316 27.7563C4.32618 27.2482 3.11166 26.5116 2.26715 25.4605C1.43183 24.4208 0.896749 22.9971 0.896749 20.9925C0.896749 17.2445 1.70404 12.6828 4.00516 9.08874C6.27215 5.54802 10.0181 2.88955 16.0998 2.88955C21.8645 2.88955 25.569 5.55276 27.871 9.1208C30.2022 12.7339 31.1028 17.3007 31.1028 20.9925Z" fill="#FBC546" stroke="black" stroke-width="1.7935"/>
<path d="M10.3313 19.9464C10.3313 19.9464 10.542 20.228 10.8432 20.6289C12.1323 22.3472 14.1552 23.359 16.3034 23.359C18.4517 23.359 20.4745 22.3472 21.7636 20.6289C22.0648 20.228 22.2755 19.9464 22.2755 19.9464" stroke="#593604" stroke-width="1.70631" stroke-miterlimit="1.5" stroke-linecap="round"/>
<path fill-rule="evenodd" clip-rule="evenodd" d="M10.7596 18.2402C11.5513 18.2402 12.3098 17.9254 12.8694 17.3657C13.4291 16.806 13.7439 16.0476 13.7439 15.2558C13.7439 14.6953 13.7439 14.1083 13.7439 13.5478C13.7439 11.8987 12.407 10.5618 10.7579 10.5618H10.7562C9.96443 10.5618 9.20598 10.8766 8.64631 11.4363C8.08664 11.9959 7.77182 12.7544 7.77182 13.5461C7.77182 14.1066 7.77182 14.6936 7.77182 15.2541C7.77182 16.9033 9.10872 18.2402 10.7579 18.2402H10.7596Z" fill="white"/>
<path fill-rule="evenodd" clip-rule="evenodd" d="M9.47815 13.1212C9.47815 12.6691 9.65817 12.2348 9.9781 11.9149C10.298 11.5949 10.7323 11.4149 11.1845 11.4149C11.6366 11.4149 12.0709 11.5949 12.3908 11.9149C12.7108 12.2348 12.8908 12.6691 12.8908 13.1212C12.8908 13.9198 12.8908 14.8685 12.8908 15.6662C12.8908 16.1192 12.7108 16.5526 12.3908 16.8734C12.0709 17.1934 11.6366 17.3725 11.1845 17.3725C10.7323 17.3725 10.298 17.1934 9.9781 16.8734C9.65817 16.5526 9.47815 16.1192 9.47815 15.6662C9.47815 14.8685 9.47815 13.9198 9.47815 13.1212Z" fill="black"/>
<path fill-rule="evenodd" clip-rule="evenodd" d="M22.0979 11.2383C22.1738 11.1632 22.2625 11.1018 22.3607 11.0592C22.6021 10.9542 22.8862 10.9679 23.1165 11.0958C23.1976 11.1419 23.2718 11.2008 23.335 11.2699C23.3989 11.3407 23.451 11.4226 23.4877 11.5105C23.5286 11.6086 23.5517 11.7144 23.5542 11.821C23.5568 11.9311 23.538 12.0403 23.4988 12.1435C23.4561 12.257 23.3896 12.3585 23.3042 12.4447L20.9214 14.8275H23.1276C23.5986 14.8275 23.9808 15.2098 23.9808 15.6807C23.9808 16.1516 23.5986 16.5339 23.1276 16.5339H18.2928L17.6964 15.6389L22.0979 11.2383Z" fill="black"/>
</g>
<defs>
<clipPath id="clip0">
<rect width="32" height="32" fill="white"/>
</clipPath>
</defs>
</svg>
