<svg width="32" height="32" viewBox="0 0 32 32" fill="none" xmlns="http://www.w3.org/2000/svg">
<path d="M31.1028 20.9924C31.1028 23.0015 30.5776 24.4275 29.7584 25.4669C28.9313 26.5164 27.7418 27.2509 26.2822 27.7576C23.3206 28.7857 19.5103 28.7955 16.0998 28.7955C12.6905 28.7955 8.82725 28.7861 5.81316 27.7562C4.32618 27.2481 3.11166 26.5114 2.26715 25.4603C1.43183 24.4207 0.896749 22.9969 0.896749 20.9924C0.896749 17.2444 1.70404 12.6826 4.00516 9.08862C6.27215 5.5479 10.0181 2.88943 16.0998 2.88943C21.8645 2.88943 25.569 5.55264 27.871 9.12067C30.2022 12.7337 31.1028 17.3006 31.1028 20.9924Z" fill="#FBC546" stroke="black" stroke-width="1.7935"/>
<path fill-rule="evenodd" clip-rule="evenodd" d="M10.2626 22.7348C8.91209 21.5327 7.94631 19.9074 7.57263 18.0688H24.2928C23.9191 19.9074 22.9534 21.5327 21.6028 22.7348H10.2626Z" fill="#722245"/>
<path fill-rule="evenodd" clip-rule="evenodd" d="M10.262 22.7338L10.9061 21.7671C11.1083 21.4643 11.3685 21.2135 11.6663 21.0249L13.3726 23.4257C13.3726 23.7465 13.1755 24.0579 12.9503 24.3565C11.9529 23.9845 11.0426 23.43 10.262 22.7338ZM18.9138 24.3565C18.6886 24.0579 18.4915 23.7465 18.4915 23.4257L20.1978 21.0249C20.4956 21.2135 20.7558 21.4643 20.958 21.7671L21.6021 22.7338C20.8215 23.43 19.9112 23.9845 18.9138 24.3565Z" fill="#A1256C"/>
<path fill-rule="evenodd" clip-rule="evenodd" d="M18.8298 20.6284C19.3229 20.6284 19.7964 20.77 20.2 21.026V22.5736H11.6684V21.026C12.0719 20.77 12.5454 20.6284 13.0386 20.6284H18.8298Z" fill="#DD34A2"/>
<path fill-rule="evenodd" clip-rule="evenodd" d="M20.2 21.4816H11.6684V23.4268C11.6684 25.6509 13.4711 27.4537 15.6953 27.4537C15.854 27.4537 16.0144 27.4537 16.1731 27.4537C18.3972 27.4537 20.2 25.6509 20.2 23.4268C20.2 22.3509 20.2 21.4816 20.2 21.4816Z" fill="#DD34A2"/>
<path fill-rule="evenodd" clip-rule="evenodd" d="M10.9425 13.8564L8.5059 11.4198C8.17317 11.087 8.17317 10.5461 8.5059 10.2134C8.83863 9.88068 9.37953 9.88068 9.71226 10.2134L14.1009 14.6021L9.37868 16.1761C8.93248 16.3254 8.44874 16.0831 8.29943 15.6369C8.15098 15.1899 8.39243 14.7061 8.83948 14.5577L10.9425 13.8564ZM20.9262 13.8564L23.0292 14.5577C23.4762 14.7061 23.7177 15.1899 23.5692 15.6369C23.4199 16.0831 22.9362 16.3254 22.49 16.1761L17.7678 14.6021L22.1564 10.2134C22.4891 9.88068 23.03 9.88068 23.3628 10.2134C23.6955 10.5461 23.6955 11.087 23.3628 11.4198L20.9262 13.8564Z" fill="black"/>
</svg>
