<svg width="32" height="32" viewBox="0 0 32 32" fill="none" xmlns="http://www.w3.org/2000/svg">
<path d="M31.1028 20.9925C31.1028 23.0016 30.5776 24.4276 29.7584 25.467C28.9313 26.5165 27.7418 27.2511 26.2822 27.7577C23.3206 28.7859 19.5103 28.7956 16.0998 28.7956C12.6905 28.7956 8.82725 28.7862 5.81316 27.7563C4.32618 27.2482 3.11166 26.5116 2.26715 25.4605C1.43183 24.4208 0.896749 22.9971 0.896749 20.9925C0.896749 17.2445 1.70404 12.6828 4.00516 9.08874C6.27215 5.54802 10.0181 2.88955 16.0998 2.88955C21.8645 2.88955 25.569 5.55276 27.871 9.1208C30.2022 12.7339 31.1028 17.3007 31.1028 20.9925Z" fill="#FBC546" stroke="black" stroke-width="1.7935"/>
<path fill-rule="evenodd" clip-rule="evenodd" d="M22.8668 19.1429L16.0416 22.5556C16.0416 22.5556 16.4246 23.3226 16.8947 24.2619C17.8375 26.1465 20.129 26.9109 22.0137 25.9682C23.8983 25.0255 24.6627 22.7339 23.72 20.8493C23.2499 19.9099 22.8668 19.1429 22.8668 19.1429Z" fill="#DD34A2"/>
<path d="M7.51004 17.437C7.51004 17.437 7.59024 17.5368 7.72504 17.7058C9.74617 20.232 12.8056 21.7028 16.0408 21.7028C16.0416 21.7028 16.0416 21.7028 16.0425 21.7028C19.2776 21.7028 22.3371 20.232 24.3582 17.7058C24.493 17.5368 24.5732 17.437 24.5732 17.437" stroke="#593604" stroke-width="1.70631" stroke-miterlimit="1.5" stroke-linecap="round"/>
<path fill-rule="evenodd" clip-rule="evenodd" d="M7.33121 14.6334C7.49075 14.7929 7.70745 14.8825 7.93354 14.8825C8.15963 14.8825 8.37633 14.7929 8.53587 14.6334C8.53928 14.63 8.54184 14.6283 8.54184 14.6283C9.06056 14.1095 9.76356 13.8178 10.4973 13.8178C11.231 13.8178 11.934 14.1095 12.4527 14.6283C12.4527 14.6283 12.4553 14.63 12.4587 14.6334C12.6182 14.7929 12.8349 14.8825 13.061 14.8825C13.2871 14.8825 13.5038 14.7929 13.6633 14.6334C13.6642 14.6334 13.6642 14.6325 13.6642 14.6325C13.9978 14.2998 13.9978 13.7589 13.6642 13.4262C13.6616 13.4228 13.6599 13.421 13.6599 13.421C12.8213 12.5824 11.6832 12.1115 10.4973 12.1115C9.31139 12.1115 8.17328 12.5824 7.33462 13.421C7.33462 13.421 7.33292 13.4228 7.33036 13.4262C6.99677 13.7589 6.99677 14.2998 7.33036 14.6325C7.33036 14.6325 7.33036 14.6334 7.33121 14.6334Z" fill="black"/>
<path fill-rule="evenodd" clip-rule="evenodd" d="M24.7545 14.6334C24.5949 14.7929 24.3782 14.8825 24.1521 14.8825C23.9261 14.8825 23.7094 14.7929 23.5498 14.6334C23.5464 14.63 23.5438 14.6283 23.5438 14.6283C23.0251 14.1095 22.3221 13.8178 21.5884 13.8178C20.8547 13.8178 20.1517 14.1095 19.633 14.6283C19.633 14.6283 19.6304 14.63 19.627 14.6334C19.4675 14.7929 19.2508 14.8825 19.0247 14.8825C18.7986 14.8825 18.5819 14.7929 18.4223 14.6334C18.4215 14.6334 18.4215 14.6325 18.4215 14.6325C18.0879 14.2998 18.0879 13.7589 18.4215 13.4262C18.424 13.4228 18.4257 13.421 18.4257 13.421C19.2644 12.5824 20.4025 12.1115 21.5884 12.1115C22.7743 12.1115 23.9124 12.5824 24.7511 13.421C24.7511 13.421 24.7528 13.4228 24.7553 13.4262C25.0889 13.7589 25.0889 14.2998 24.7553 14.6325C24.7553 14.6325 24.7553 14.6334 24.7545 14.6334Z" fill="black"/>
</svg>
