<svg width="32" height="32" viewBox="0 0 32 32" fill="none" xmlns="http://www.w3.org/2000/svg">
<path fill-rule="evenodd" clip-rule="evenodd" d="M32 8C32 3.582 28.418 0 24 0C19.113 0 12.887 0 8 0C3.582 0 0 3.582 0 8C0 12.887 0 19.113 0 24C0 28.418 3.582 32 8 32C12.887 32 19.113 32 24 32C28.418 32 32 28.418 32 24C32 19.113 32 12.887 32 8Z" fill="black"/>
<path fill-rule="evenodd" clip-rule="evenodd" d="M30 8C30 6.409 29.368 4.883 28.243 3.757C27.117 2.632 25.591 2 24 2C19.276 2 12.724 2 8 2C6.409 2 4.883 2.632 3.757 3.757C2.632 4.883 2 6.409 2 8C2 12.724 2 19.276 2 24C2 25.591 2.632 27.117 3.757 28.243C4.883 29.368 6.409 30 8 30C12.724 30 19.276 30 24 30C25.591 30 27.117 29.368 28.243 28.243C29.368 27.117 30 25.591 30 24C30 19.276 30 12.724 30 8V8Z" fill="white"/>
<path d="M10.039 13.775C10.654 14.291 10.961 15.035 10.961 16.007V21.153H9.10099V20.409C8.78099 20.708 8.43999 20.923 8.07799 21.052C7.71599 21.181 7.27699 21.246 6.75999 21.246C5.78899 21.246 5.05299 21.029 4.55199 20.595C4.05099 20.161 3.79999 19.546 3.79999 18.75C3.79999 17.985 4.06599 17.402 4.59799 16.999C5.12999 16.596 5.89799 16.394 6.89999 16.394H9.05399V15.914C9.05399 14.953 8.48599 14.472 7.34899 14.472C6.83299 14.472 6.45799 14.565 6.22599 14.751C5.99299 14.937 5.87699 15.175 5.87699 15.464V15.511H4.04799V15.464C4.04799 14.699 4.34999 14.097 4.95499 13.658C5.55899 13.219 6.37299 13 7.39599 13C8.54299 13 9.42399 13.258 10.039 13.775ZM9.05399 18.208V17.712H7.25599C6.70899 17.712 6.30599 17.792 6.04699 17.952C5.78899 18.112 5.65999 18.363 5.65999 18.704C5.65999 19.024 5.78699 19.272 6.03999 19.448C6.29299 19.623 6.67299 19.711 7.17899 19.711C8.42899 19.711 9.05399 19.21 9.05399 18.208Z" fill="#333333"/>
<path d="M14.275 20.273V21.1516H12.4V10.4H14.322V13.949C14.58 13.618 14.901 13.36 15.283 13.174C15.665 12.988 16.094 12.895 16.569 12.895C17.53 12.895 18.295 13.205 18.863 13.825C19.432 14.445 19.716 15.339 19.716 16.507V17.514C19.716 18.289 19.579 18.958 19.305 19.521C19.031 20.084 18.657 20.511 18.181 20.8C17.706 21.089 17.164 21.234 16.554 21.234C15.593 21.234 14.833 20.914 14.275 20.273ZM17.36 18.994C17.649 18.648 17.794 18.129 17.794 17.437V16.6C17.794 15.267 17.22 14.6 16.073 14.6C15.526 14.6 15.097 14.773 14.787 15.119C14.477 15.465 14.322 15.949 14.322 16.569V17.592C14.322 18.181 14.482 18.648 14.802 18.994C15.123 19.34 15.557 19.514 16.104 19.514C16.652 19.514 17.071 19.34 17.36 18.994Z" fill="#333333"/>
<path d="M21.977 20.194C21.326 19.564 21 18.644 21 17.435V16.474C21 15.275 21.326 14.363 21.977 13.738C22.628 13.113 23.527 12.8 24.674 12.8C25.8 12.8 26.679 13.064 27.309 13.591C27.939 14.118 28.254 14.846 28.254 15.776V15.869H26.379V15.807C26.379 15.404 26.232 15.087 25.937 14.854C25.643 14.622 25.237 14.505 24.72 14.505C24.121 14.505 23.669 14.666 23.364 14.986C23.059 15.306 22.907 15.813 22.907 16.505V17.419C22.907 18.122 23.062 18.631 23.372 18.946C23.682 19.261 24.147 19.419 24.767 19.419C25.263 19.419 25.653 19.308 25.937 19.086C26.221 18.864 26.363 18.561 26.363 18.179V18.117H28.239V18.179C28.239 19.099 27.924 19.822 27.293 20.349C26.663 20.876 25.79 21.139 24.674 21.139C23.527 21.139 22.628 20.824 21.977 20.194Z" fill="#333333"/>
</svg>
