<svg width="32" height="32" viewBox="0 0 32 32" fill="none" xmlns="http://www.w3.org/2000/svg">
<path d="M31.1028 20.9925C31.1028 23.0016 30.5776 24.4276 29.7584 25.467C28.9313 26.5165 27.7418 27.251 26.2822 27.7577C23.3206 28.7858 19.5103 28.7956 16.0998 28.7956C12.6905 28.7956 8.82725 28.7862 5.81316 27.7563C4.32618 27.2482 3.11166 26.5115 2.26715 25.4604C1.43183 24.4208 0.896749 22.997 0.896749 20.9925C0.896749 17.2483 1.70245 13.3712 3.95966 10.4486C6.18461 7.56779 9.92418 5.48012 16.0998 5.48012C21.9585 5.48012 25.6574 7.57592 27.9167 10.4805C30.2055 13.4228 31.1028 17.3072 31.1028 20.9925Z" fill="#FBC546" stroke="black" stroke-width="1.7935"/>
<path fill-rule="evenodd" clip-rule="evenodd" d="M17.7715 19.4497L14.707 18.2237C14.2693 18.0496 14.0569 17.5522 14.2318 17.1154C14.4058 16.6778 14.9032 16.4653 15.34 16.6402L19.6058 18.3465C19.872 18.4523 20.0674 18.6861 20.1254 18.9668C20.1825 19.2475 20.0955 19.5384 19.8925 19.7414L18.7893 20.8446L19.8925 21.9477C20.0955 22.1508 20.1825 22.4417 20.1254 22.7224C20.0674 23.0031 19.872 23.2368 19.6058 23.3426L15.34 25.0489C14.9032 25.2238 14.4058 25.0114 14.2318 24.5737C14.0569 24.1369 14.2693 23.6395 14.707 23.4655L17.7715 22.2395L16.9798 21.4478C16.653 21.1048 16.653 20.5844 16.9798 20.2414L17.7715 19.4497V19.4497Z" fill="#593604"/>
<path fill-rule="evenodd" clip-rule="evenodd" d="M27.1329 18.9439C27.1329 18.0011 26.3693 17.2375 25.4266 17.2375C24.384 17.2375 23.0565 17.2375 22.014 17.2375C21.0712 17.2375 20.3076 18.0011 20.3076 18.9439C20.3076 19.8866 21.0712 20.6502 22.014 20.6502C23.0565 20.6502 24.384 20.6502 25.4266 20.6502C26.3693 20.6502 27.1329 19.8866 27.1329 18.9439Z" fill="#ED6B44"/>
<path fill-rule="evenodd" clip-rule="evenodd" d="M11.7761 18.9439C11.7761 18.0011 11.0125 17.2375 10.0697 17.2375C9.02719 17.2375 7.69968 17.2375 6.65712 17.2375C5.71438 17.2375 4.95081 18.0011 4.95081 18.9439C4.95081 19.8866 5.71438 20.6502 6.65712 20.6502C7.69968 20.6502 9.02719 20.6502 10.0697 20.6502C11.0125 20.6502 11.7761 19.8866 11.7761 18.9439Z" fill="#ED6B44"/>
<path d="M23.5108 14.963C23.9322 15.1738 24.1029 15.6857 23.8921 16.1063C23.8921 16.1071 23.8913 16.108 23.8913 16.108C23.6805 16.5294 23.1686 16.7001 22.748 16.4893C21.7277 15.9791 19.9284 15.0799 18.908 14.5689C18.4865 14.3581 18.3159 13.8462 18.5266 13.4248C18.7373 13.0033 19.2492 12.8327 19.6707 13.0434C20.6919 13.5536 22.4904 14.4528 23.5108 14.963Z" fill="black"/>
<path d="M13.2268 13.4248C13.4375 13.8462 13.2669 14.3581 12.8454 14.5689C11.8251 15.0799 10.0258 15.9791 9.00538 16.4893C8.58478 16.7001 8.07288 16.5294 7.86215 16.108C7.86215 16.108 7.86215 16.108 7.86215 16.1071C7.65142 15.6857 7.82205 15.1738 8.24351 14.963C9.26389 14.4528 11.0623 13.5536 12.0827 13.0434C12.5042 12.8327 13.0161 13.0033 13.2268 13.4248Z" fill="black"/>
</svg>
