<svg width="32" height="32" viewBox="0 0 32 32" fill="none" xmlns="http://www.w3.org/2000/svg">
<path d="M31.1028 20.9925C31.1028 23.0016 30.5776 24.4276 29.7584 25.467C28.9313 26.5165 27.7418 27.2511 26.2822 27.7577C23.3206 28.7859 19.5103 28.7956 16.0998 28.7956C12.6905 28.7956 8.82725 28.7862 5.81316 27.7563C4.32618 27.2482 3.11166 26.5116 2.26715 25.4605C1.43183 24.4208 0.896749 22.9971 0.896749 20.9925C0.896749 17.2445 1.70404 12.6828 4.00516 9.08874C6.27215 5.54802 10.0181 2.88955 16.0998 2.88955C21.8645 2.88955 25.569 5.55276 27.871 9.1208C30.2022 12.7339 31.1028 17.3007 31.1028 20.9925Z" fill="#FBC546" stroke="black" stroke-width="1.7935"/>
<path fill-rule="evenodd" clip-rule="evenodd" d="M27.1329 18.9999C27.1329 18.0572 26.3693 17.2936 25.4266 17.2936C24.384 17.2936 23.0565 17.2936 22.014 17.2936C21.0712 17.2936 20.3076 18.0572 20.3076 18.9999C20.3076 19.9426 21.0712 20.7062 22.014 20.7062C23.0565 20.7062 24.384 20.7062 25.4266 20.7062C26.3693 20.7062 27.1329 19.9426 27.1329 18.9999Z" fill="#ED6B44"/>
<path fill-rule="evenodd" clip-rule="evenodd" d="M11.7761 18.9999C11.7761 18.0572 11.0125 17.2936 10.0697 17.2936C9.02719 17.2936 7.69968 17.2936 6.65712 17.2936C5.71438 17.2936 4.95081 18.0572 4.95081 18.9999C4.95081 19.9426 5.71438 20.7062 6.65712 20.7062C7.69968 20.7062 9.02719 20.7062 10.0697 20.7062C11.0125 20.7062 11.7761 19.9426 11.7761 18.9999Z" fill="#ED6B44"/>
<path d="M10.9229 19.853C10.9229 19.853 11.4024 20.4929 11.9467 21.2181C12.9133 22.5072 14.4302 23.2657 16.0419 23.2657C17.6535 23.2657 19.1704 22.5072 20.137 21.2181C20.6813 20.4929 21.1608 19.853 21.1608 19.853" stroke="#593604" stroke-width="1.70631" stroke-miterlimit="1.5" stroke-linecap="round"/>
<path fill-rule="evenodd" clip-rule="evenodd" d="M7.32785 15.3465C7.48825 15.5061 7.70495 15.5965 7.93104 15.5965C8.15712 15.5965 8.37383 15.5061 8.53337 15.3465C8.53934 15.3405 8.54275 15.338 8.54275 15.338C9.06147 14.8193 9.76447 14.5275 10.4982 14.5275C11.2319 14.5275 11.9349 14.8193 12.4536 15.338C12.4536 15.338 12.457 15.3405 12.463 15.3465C12.7957 15.6792 13.3349 15.6792 13.6685 15.3465C13.6685 15.3465 13.6685 15.3465 13.6685 15.3457C14.0021 15.0129 14.0021 14.4729 13.6685 14.1393C13.6634 14.1342 13.6608 14.1308 13.6608 14.1308C12.8222 13.2921 11.6841 12.8212 10.4982 12.8212C9.3123 12.8212 8.17419 13.2921 7.33553 14.1308C7.33553 14.1308 7.33297 14.1342 7.327 14.1401C7.16746 14.2997 7.07703 14.5164 7.07703 14.7425C7.07703 14.9686 7.16746 15.1853 7.327 15.3457L7.32785 15.3465Z" fill="black"/>
<path fill-rule="evenodd" clip-rule="evenodd" d="M24.7589 15.3465C24.5986 15.5061 24.3818 15.5965 24.1558 15.5965C23.9297 15.5965 23.713 15.5061 23.5534 15.3465C23.5475 15.3405 23.544 15.338 23.544 15.338C23.0253 14.8193 22.3223 14.5275 21.5886 14.5275C20.8549 14.5275 20.1519 14.8193 19.6332 15.338C19.6332 15.338 19.6298 15.3405 19.6238 15.3465C19.2911 15.6792 18.7519 15.6792 18.4183 15.3465C18.4183 15.3465 18.4183 15.3465 18.4183 15.3457C18.0847 15.0129 18.0847 14.4729 18.4183 14.1393C18.4234 14.1342 18.426 14.1308 18.426 14.1308C19.2646 13.2921 20.4027 12.8212 21.5886 12.8212C22.7745 12.8212 23.9126 13.2921 24.7513 14.1308C24.7513 14.1308 24.7538 14.1342 24.7598 14.1401C24.9193 14.2997 25.0098 14.5164 25.0098 14.7425C25.0098 14.9686 24.9193 15.1853 24.7598 15.3457L24.7589 15.3465Z" fill="black"/>
</svg>
