<svg width="32" height="32" viewBox="0 0 32 32" fill="none" xmlns="http://www.w3.org/2000/svg">
<g clip-path="url(#clip0)">
<path d="M31.1028 20.9925C31.1028 23.0016 30.5776 24.4276 29.7584 25.467C28.9313 26.5165 27.7418 27.2511 26.2822 27.7577C23.3206 28.7859 19.5103 28.7956 16.0998 28.7956C12.6905 28.7956 8.82725 28.7862 5.81316 27.7563C4.32618 27.2482 3.11166 26.5116 2.26715 25.4605C1.43183 24.4208 0.896749 22.9971 0.896749 20.9925C0.896749 17.2445 1.70404 12.6828 4.00516 9.08874C6.27215 5.54802 10.0181 2.88955 16.0998 2.88955C21.8645 2.88955 25.569 5.55276 27.871 9.1208C30.2022 12.7339 31.1028 17.3007 31.1028 20.9925Z" fill="#FBC546" stroke="black" stroke-width="1.7935"/>
<path fill-rule="evenodd" clip-rule="evenodd" d="M19.4545 22.4125C19.9254 22.4125 20.3076 22.7947 20.3076 23.2656C20.3076 23.7366 19.9254 24.1188 19.4545 24.1188H12.6292C12.1583 24.1188 11.7761 23.7366 11.7761 23.2656C11.7761 22.7947 12.1583 22.4125 12.6292 22.4125H19.4545Z" fill="#593604"/>
<path fill-rule="evenodd" clip-rule="evenodd" d="M27.1329 19.853C27.1329 18.9103 26.3693 18.1467 25.4266 18.1467C24.384 18.1467 23.0565 18.1467 22.014 18.1467C21.0712 18.1467 20.3076 18.9103 20.3076 19.853C20.3076 20.7958 21.0712 21.5594 22.014 21.5594C23.0565 21.5594 24.384 21.5594 25.4266 21.5594C26.3693 21.5594 27.1329 20.7958 27.1329 19.853Z" fill="#ED6B44"/>
<path fill-rule="evenodd" clip-rule="evenodd" d="M11.7761 19.853C11.7761 18.9103 11.0125 18.1467 10.0697 18.1467C9.02719 18.1467 7.69968 18.1467 6.65712 18.1467C5.71438 18.1467 4.95081 18.9103 4.95081 19.853C4.95081 20.7958 5.71438 21.5594 6.65712 21.5594C7.69968 21.5594 9.02719 21.5594 10.0697 21.5594C11.0125 21.5594 11.7761 20.7958 11.7761 19.853Z" fill="#ED6B44"/>
<path fill-rule="evenodd" clip-rule="evenodd" d="M10.498 18.9998C11.5158 18.9998 12.4918 18.5954 13.2119 17.8762C13.9311 17.1562 14.3355 16.1802 14.3355 15.1623C14.3355 14.8782 14.3355 14.5916 14.3355 14.3075C14.3355 12.1874 12.6164 10.4683 10.4963 10.4683C10.4955 10.4683 10.4955 10.4683 10.4946 10.4683C9.47679 10.4683 8.50078 10.8727 7.78071 11.5919C7.0615 12.3119 6.6571 13.2879 6.6571 14.3058C6.6571 14.5899 6.6571 14.8765 6.6571 15.1606C6.6571 17.2807 8.37622 18.9998 10.4963 18.9998C10.4972 18.9998 10.4972 18.9998 10.498 18.9998Z" fill="white"/>
<path fill-rule="evenodd" clip-rule="evenodd" d="M9.21658 14.7256C9.21658 13.788 9.97675 13.0278 10.9144 13.0278C10.9203 13.0278 10.9255 13.0278 10.9314 13.0278C11.869 13.0278 12.6292 13.788 12.6292 14.7256C12.6292 14.7265 12.6292 14.7273 12.6292 14.7282C12.6292 15.6658 11.869 16.426 10.9314 16.426C10.9255 16.426 10.9203 16.426 10.9144 16.426C9.97675 16.426 9.21658 15.6658 9.21658 14.7282C9.21658 14.7273 9.21658 14.7265 9.21658 14.7256Z" fill="black"/>
<path fill-rule="evenodd" clip-rule="evenodd" d="M21.5857 18.9998C20.5679 18.9998 19.5918 18.5954 18.8718 17.8762C18.1526 17.1562 17.7482 16.1802 17.7482 15.1623C17.7482 14.8774 17.7482 14.5907 17.7482 14.3058C17.7482 13.2879 18.1526 12.3119 18.8718 11.5919C19.5918 10.8727 20.5679 10.4683 21.5857 10.4683C21.5865 10.4683 21.5882 10.4683 21.5891 10.4683C22.6069 10.4683 23.5829 10.8727 24.303 11.5919C25.0222 12.3119 25.4266 13.2879 25.4266 14.3058C25.4266 14.5899 25.4266 14.8765 25.4266 15.1606C25.4266 17.2807 23.7075 18.9998 21.5874 18.9998C21.5865 18.9998 21.5865 18.9998 21.5857 18.9998Z" fill="white"/>
<path fill-rule="evenodd" clip-rule="evenodd" d="M22.8671 14.7256C22.8671 13.788 22.1069 13.0278 21.1693 13.0278C21.1633 13.0278 21.1582 13.0278 21.1523 13.0278C20.2146 13.0278 19.4545 13.788 19.4545 14.7256C19.4545 14.7265 19.4545 14.7273 19.4545 14.7282C19.4545 15.6658 20.2146 16.426 21.1523 16.426C21.1582 16.426 21.1633 16.426 21.1693 16.426C22.1069 16.426 22.8671 15.6658 22.8671 14.7282C22.8671 14.7273 22.8671 14.7265 22.8671 14.7256Z" fill="black"/>
</g>
<defs>
<clipPath id="clip0">
<rect width="32" height="32" fill="white"/>
</clipPath>
</defs>
</svg>
