<svg width="32" height="32" viewBox="0 0 32 32" fill="none" xmlns="http://www.w3.org/2000/svg">
<path d="M31.1028 20.9925C31.1028 23.0016 30.5776 24.4276 29.7584 25.467C28.9313 26.5165 27.7418 27.2511 26.2822 27.7577C23.3206 28.7859 19.5103 28.7956 16.0998 28.7956C12.6905 28.7956 8.82725 28.7862 5.81316 27.7563C4.32618 27.2482 3.11166 26.5116 2.26715 25.4605C1.43183 24.4208 0.896749 22.9971 0.896749 20.9925C0.896749 17.2445 1.70404 12.6828 4.00516 9.08874C6.27215 5.54802 10.0181 2.88955 16.0998 2.88955C21.8645 2.88955 25.569 5.55276 27.871 9.1208C30.2022 12.7339 31.1028 17.3007 31.1028 20.9925Z" fill="#FBC546" stroke="black" stroke-width="1.7935"/>
<path fill-rule="evenodd" clip-rule="evenodd" d="M17.9365 19.9649L14.872 18.7389C14.4343 18.5649 14.2219 18.0675 14.3968 17.6307C14.5708 17.193 15.0682 16.9806 15.505 17.1555L19.7708 18.8618C20.037 18.9676 20.2323 19.2014 20.2904 19.482C20.3475 19.7627 20.2605 20.0537 20.0575 20.2567L18.9543 21.3598L20.0575 22.463C20.2605 22.666 20.3475 22.9569 20.2904 23.2376C20.2323 23.5183 20.037 23.7521 19.7708 23.8579L15.505 25.5642C15.0682 25.7391 14.5708 25.5267 14.3968 25.089C14.2219 24.6522 14.4343 24.1548 14.872 23.9807L17.9365 22.7548L17.1448 21.963C16.818 21.6201 16.818 21.0996 17.1448 20.7567L17.9365 19.9649V19.9649Z" fill="#593604"/>
<path fill-rule="evenodd" clip-rule="evenodd" d="M7.32621 15.1472C7.4866 15.3067 7.7033 15.3971 7.92939 15.3971C8.15548 15.3971 8.37218 15.3067 8.53172 15.1472C8.53769 15.1412 8.5411 15.1386 8.5411 15.1386C9.05982 14.6199 9.76282 14.3281 10.4965 14.3281C11.2303 14.3281 11.9333 14.6199 12.452 15.1386C12.452 15.1386 12.4554 15.1412 12.4614 15.1472C12.7941 15.4799 13.3333 15.4799 13.6669 15.1472C13.6669 15.1472 13.6669 15.1472 13.6669 15.1463C14.0005 14.8136 14.0005 14.2735 13.6669 13.94C13.6618 13.9348 13.6592 13.9314 13.6592 13.9314C12.8205 13.0928 11.6824 12.6218 10.4965 12.6218C9.31065 12.6218 8.17254 13.0928 7.33389 13.9314C7.33389 13.9314 7.33133 13.9348 7.32535 13.9408C7.16581 14.1003 7.07538 14.317 7.07538 14.5431C7.07538 14.7692 7.16581 14.9859 7.32535 15.1463L7.32621 15.1472Z" fill="black"/>
<path fill-rule="evenodd" clip-rule="evenodd" d="M24.7573 15.1472C24.5969 15.3067 24.3802 15.3971 24.1541 15.3971C23.928 15.3971 23.7113 15.3067 23.5518 15.1472C23.5458 15.1412 23.5424 15.1386 23.5424 15.1386C23.0237 14.6199 22.3207 14.3281 21.5869 14.3281C20.8532 14.3281 20.1502 14.6199 19.6315 15.1386C19.6315 15.1386 19.6281 15.1412 19.6221 15.1472C19.2894 15.4799 18.7502 15.4799 18.4166 15.1472C18.4166 15.1472 18.4166 15.1472 18.4166 15.1463C18.083 14.8136 18.083 14.2735 18.4166 13.94C18.4217 13.9348 18.4243 13.9314 18.4243 13.9314C19.2629 13.0928 20.4011 12.6218 21.5869 12.6218C22.7728 12.6218 23.9109 13.0928 24.7496 13.9314C24.7496 13.9314 24.7522 13.9348 24.7581 13.9408C24.9177 14.1003 25.0081 14.317 25.0081 14.5431C25.0081 14.7692 24.9177 14.9859 24.7581 15.1463L24.7573 15.1472Z" fill="black"/>
</svg>
