<svg width="32" height="32" viewBox="0 0 32 32" fill="none" xmlns="http://www.w3.org/2000/svg">
<g clip-path="url(#clip0)">
<path d="M31.1028 20.9925C31.1028 23.0016 30.5776 24.4276 29.7584 25.467C28.9313 26.5165 27.7418 27.251 26.2822 27.7577C23.3206 28.7858 19.5103 28.7956 16.0998 28.7956C12.6905 28.7956 8.82725 28.7862 5.81316 27.7563C4.32618 27.2482 3.11166 26.5115 2.26715 25.4604C1.43183 24.4208 0.896749 22.997 0.896749 20.9925C0.896749 17.2483 1.70245 13.3712 3.95966 10.4486C6.18461 7.56779 9.92418 5.48012 16.0998 5.48012C21.9585 5.48012 25.6574 7.57592 27.9167 10.4805C30.2055 13.4228 31.1028 17.3072 31.1028 20.9925Z" fill="#FBC546" stroke="black" stroke-width="1.7935"/>
<path d="M10.9229 21.4789C10.9229 21.4789 10.9391 21.5275 10.9664 21.6103C11.4502 23.0606 12.8067 24.0384 14.3355 24.0384L15.971 22.332L17.7482 24.0384C19.277 24.0384 20.6335 23.0606 21.1173 21.6103C21.1446 21.5275 21.1608 21.4789 21.1608 21.4789" stroke="#593604" stroke-width="1.70631" stroke-miterlimit="1.5" stroke-linecap="round"/>
<path fill-rule="evenodd" clip-rule="evenodd" d="M19.1851 18.0224L21.7446 18.8756C22.1908 19.0249 22.6746 18.7826 22.8239 18.3364C22.9723 17.8893 22.7309 17.4056 22.2838 17.2571L19.7243 16.404C19.2781 16.2547 18.7944 16.4969 18.6451 16.9431C18.4967 17.3902 18.7381 17.8739 19.1851 18.0224Z" fill="black"/>
<path fill-rule="evenodd" clip-rule="evenodd" d="M12.3599 16.404L9.80042 17.2571C9.35336 17.4056 9.11192 17.8893 9.26037 18.3364C9.40967 18.7826 9.89341 19.0249 10.3396 18.8756L12.8991 18.0224C13.3461 17.8739 13.5876 17.3902 13.4391 16.9431C13.2898 16.4969 12.8061 16.2547 12.3599 16.404Z" fill="black"/>
<path fill-rule="evenodd" clip-rule="evenodd" d="M32.1878 0V11.2951L28.4401 13.1699C28.0388 13.3701 27.597 13.474 27.1486 13.474C26.0687 13.474 21.399 13.474 18.7119 13.474C17.6917 13.474 16.7129 13.0688 15.9911 12.347C15.841 12.1969 15.7043 12.0352 15.5831 11.8648L6.20227 13.9494C6.20227 11.8841 5.7634 9.52611 7.44765 7.97949C7.71136 7.736 8.00971 7.531 8.3302 7.37124C10.6776 6.19707 13.0249 5.02387 15.3723 3.84971H24.6539L28.5037 0H32.1878V0Z" fill="black"/>
<path fill-rule="evenodd" clip-rule="evenodd" d="M15.8277 5.77454H26.4144L29.934 9.62425L29.9436 10.2662L27.5799 11.4481C27.4461 11.5145 27.2988 11.5491 27.1497 11.5491H20.6379C20.2327 11.5491 19.0268 11.5376 18.3694 11.1901C17.306 10.629 16.7901 9.62425 16.7901 9.62425V9.62232L8.12823 11.5491V10.8138C8.12823 10.0853 8.54015 9.41829 9.19268 9.09299C11.3052 8.03624 15.8277 5.77454 15.8277 5.77454V5.77454Z" fill="#FBC546"/>
<path fill-rule="evenodd" clip-rule="evenodd" d="M25.452 5.77452L29.3017 1.9248H30.2641V10.1054L29.9436 10.2662L25.452 5.77452V5.77452Z" fill="#E59A10"/>
<path fill-rule="evenodd" clip-rule="evenodd" d="M16.7901 9.62624V9.62432C16.7901 8.5618 17.6515 7.69946 18.715 7.69946H23.5271V9.62432H18.715C18.715 9.62432 18.715 9.62528 18.715 9.62624C18.715 10.6888 19.5763 11.5492 20.6379 11.5492H18.713C18.2029 11.5492 17.714 11.3471 17.3531 10.9862C16.9932 10.6252 16.7901 10.1363 16.7901 9.62624V9.62624Z" fill="#7E5108"/>
<path d="M7.43823 7.26802C8.20851 6.49707 8.20698 5.24851 7.43852 4.47807L7.4376 4.47716L5.51274 2.5523C4.74234 1.7819 3.49165 1.7819 2.72125 2.5523L2.72033 2.55322C1.95165 3.32387 1.95034 4.57289 2.72125 5.3438L4.64519 7.26774C4.64537 7.26792 4.64555 7.2681 4.64574 7.26829C5.4163 8.04023 6.66778 8.04014 7.43823 7.26802ZM7.43823 7.26802C7.43802 7.26823 7.43781 7.26845 7.4376 7.26865L6.72229 6.55334L7.43852 7.26774C7.43842 7.26783 7.43832 7.26793 7.43823 7.26802ZM3.15457 11.6967H5.07942C6.16938 11.6967 7.05345 10.8126 7.05345 9.72262C7.05345 8.63267 6.16938 7.74859 5.07942 7.74859H3.15457C2.06461 7.74859 1.18054 8.63267 1.18054 9.72262C1.18054 10.8126 2.06461 11.6967 3.15457 11.6967ZM7.91753 4.91048C7.91753 6.00043 8.80161 6.88451 9.89156 6.88451C10.9815 6.88451 11.8656 6.00043 11.8656 4.91048V2.98562C11.8656 1.89567 10.9815 1.01159 9.89156 1.01159C8.80161 1.01159 7.91753 1.89567 7.91753 2.98562V4.91048Z" fill="white" stroke="black" stroke-width="2.02321"/>
</g>
<defs>
<clipPath id="clip0">
<rect width="32" height="32" fill="white"/>
</clipPath>
</defs>
</svg>
