<svg width="32" height="32" viewBox="0 0 32 32" fill="none" xmlns="http://www.w3.org/2000/svg">
<path d="M31.1028 20.9925C31.1028 23.0016 30.5776 24.4276 29.7584 25.467C28.9313 26.5165 27.7418 27.2511 26.2822 27.7577C23.3206 28.7859 19.5103 28.7956 16.0998 28.7956C12.6905 28.7956 8.82725 28.7862 5.81316 27.7563C4.32618 27.2482 3.11166 26.5116 2.26715 25.4605C1.43183 24.4208 0.896749 22.9971 0.896749 20.9925C0.896749 17.2445 1.70404 12.6828 4.00516 9.08874C6.27215 5.54802 10.0181 2.88955 16.0998 2.88955C21.8645 2.88955 25.569 5.55276 27.871 9.1208C30.2022 12.7339 31.1028 17.3007 31.1028 20.9925Z" fill="#FBC546" stroke="black" stroke-width="1.7935"/>
<path d="M9.21826 21.7026C9.21826 21.7026 10.004 22.4884 10.8213 23.3057C11.3008 23.7852 11.9518 24.0548 12.6309 24.0548C13.31 24.0548 13.961 23.7852 14.4404 23.3057C14.8022 22.944 15.1562 22.5899 15.4403 22.3058C15.5999 22.1463 15.8174 22.0558 16.0435 22.0558C16.2696 22.0558 16.4872 22.1463 16.6467 22.3058C16.9308 22.5899 17.2849 22.944 17.6466 23.3057C18.1261 23.7852 18.777 24.0548 19.4561 24.0548C20.1353 24.0548 20.7862 23.7852 21.2657 23.3057C22.083 22.4884 22.8688 21.7026 22.8688 21.7026" stroke="#593604" stroke-width="1.70631" stroke-miterlimit="1.5" stroke-linecap="round"/>
<path fill-rule="evenodd" clip-rule="evenodd" d="M22.4112 19.9969C22.4112 19.9969 19.7161 17.2898 17.7206 15.2858C16.5577 14.1169 16.5603 12.228 17.7257 11.0626C17.7376 11.0507 17.7496 11.0387 17.7615 11.0268C18.3238 10.4646 19.0856 10.1498 19.8808 10.1515C20.6751 10.1523 21.4361 10.4705 21.9966 11.0336C22.244 11.2836 22.4112 11.4517 22.4112 11.4517C22.4112 11.4517 22.6092 11.2572 22.895 10.9756C24.0629 9.82812 25.9356 9.83324 27.0968 10.9867C27.1104 11.0004 27.1241 11.014 27.1377 11.0277C27.7025 11.5873 28.0199 12.3483 28.0216 13.1435C28.0225 13.9378 27.7076 14.7005 27.1454 15.2627C25.132 17.2762 22.4112 19.9969 22.4112 19.9969Z" fill="#D92020"/>
<path fill-rule="evenodd" clip-rule="evenodd" d="M9.61387 19.9969C9.61387 19.9969 6.91875 17.2898 4.92322 15.2858C3.76036 14.1169 3.76292 12.228 4.92833 11.0626C4.94028 11.0507 4.95222 11.0387 4.96417 11.0268C5.5264 10.4646 6.28827 10.1498 7.08341 10.1515C7.8777 10.1523 8.63872 10.4705 9.19924 11.0336C9.44666 11.2836 9.61387 11.4517 9.61387 11.4517C9.61387 11.4517 9.81181 11.2572 10.0976 10.9756C11.2656 9.82812 13.1383 9.83324 14.2994 10.9867C14.3131 11.0004 14.3267 11.014 14.3404 11.0277C14.9052 11.5873 15.2225 12.3483 15.2242 13.1435C15.2251 13.9378 14.9103 14.7005 14.348 15.2627C12.3346 17.2762 9.61387 19.9969 9.61387 19.9969Z" fill="#D92020"/>
</svg>
