<svg width="32" height="32" viewBox="0 0 32 32" fill="none" xmlns="http://www.w3.org/2000/svg">
<path d="M31.1028 20.9925C31.1028 23.0016 30.5776 24.4276 29.7584 25.467C28.9313 26.5165 27.7418 27.2511 26.2822 27.7577C23.3206 28.7859 19.5103 28.7956 16.0998 28.7956C12.6905 28.7956 8.82725 28.7862 5.81316 27.7563C4.32618 27.2482 3.11166 26.5116 2.26715 25.4605C1.43183 24.4208 0.896749 22.9971 0.896749 20.9925C0.896749 17.2445 1.70404 12.6828 4.00516 9.08874C6.27215 5.54802 10.0181 2.88955 16.0998 2.88955C21.8645 2.88955 25.569 5.55276 27.871 9.1208C30.2022 12.7339 31.1028 17.3007 31.1028 20.9925Z" fill="#FBC546" stroke="black" stroke-width="1.7935"/>
<path fill-rule="evenodd" clip-rule="evenodd" d="M8.64636 21.6217H8.75301C9.55012 21.4225 10.8708 21.7898 11.3588 22.0483C11.3204 22.0808 11.2829 22.1149 11.2471 22.1507L10.3624 23.0447L9.16679 22.0483C9.00725 21.8879 8.83235 21.7454 8.64636 21.6217Z" fill="#E59A10"/>
<path d="M23.8289 21.6217H23.9356C23.7496 21.7454 23.5747 21.8879 23.4151 22.0482L22.2195 23.0446L21.3349 22.1506C21.299 22.1148 21.2615 22.0807 21.2231 22.0483C21.7111 21.7898 23.0318 21.4224 23.8289 21.6217Z" fill="#E59A10"/>
<path d="M14.9458 27.8989L15.5437 25.3083L15.743 25.8065H16.839L17.0382 25.3083L17.6361 27.8989L14.9458 27.8989Z" fill="#E59A10"/>
<path d="M12.1296 29.6624L12.1299 29.6621C12.2286 29.5634 12.3279 29.4645 12.427 29.3658C13.065 28.7304 13.6957 28.1022 14.1145 27.5788C14.6135 26.9551 14.7971 26.2817 14.7264 25.6259C14.6591 25.0021 14.3712 24.4761 14.0776 24.0825C13.7807 23.6845 13.4384 23.3687 13.1808 23.1574C13.0498 23.05 12.9354 22.9652 12.8518 22.906C12.8099 22.8763 12.7754 22.8528 12.75 22.8358L12.7188 22.8153L12.7087 22.8088L12.705 22.8065L12.7036 22.8056L12.7029 22.8052C12.7027 22.805 12.7024 22.8048 12.2282 23.5556L12.7024 22.8048L12.1023 22.4258L11.6004 22.9277L10.3272 24.2008L8.97239 22.846C8.44962 22.3232 7.74004 22.0289 7.00051 22.0289C6.26098 22.0289 5.5514 22.3232 5.02863 22.846L5.65651 23.4739L5.02863 22.846L3.91465 23.9599C3.39187 24.4827 3.09757 25.1923 3.09757 25.9318C3.09757 26.6713 3.39187 27.3809 3.91465 27.9037L4.54253 27.2758L3.91465 27.9037L5.67402 29.663C7.45593 31.4449 10.3466 31.445 12.1287 29.6633C12.1288 29.6632 12.1289 29.6631 12.129 29.663L12.1296 29.6624Z" fill="#FBC546" stroke="#7E5108" stroke-width="1.77592" stroke-linecap="round"/>
<path d="M20.4556 29.6625L20.4551 29.6621C20.3564 29.5634 20.2572 29.4645 20.158 29.3658C19.52 28.7304 18.8893 28.1022 18.4706 27.5788C17.9716 26.9551 17.788 26.2817 17.8587 25.6259C17.926 25.0021 18.2139 24.4761 18.5075 24.0825C18.8044 23.6845 19.1467 23.3687 19.4043 23.1574C19.5353 23.05 19.6496 22.9652 19.7333 22.906C19.7752 22.8763 19.8097 22.8528 19.8351 22.8358L19.8663 22.8153L19.8764 22.8088L19.8801 22.8065L19.8815 22.8056L19.8821 22.8052C19.8824 22.805 19.8827 22.8048 20.3568 23.5556L19.8827 22.8048L20.4828 22.4258L20.9847 22.9277L22.2578 24.2008L23.6127 22.846C24.1355 22.3232 24.845 22.0289 25.5846 22.0289C26.3241 22.0289 27.0337 22.3232 27.5565 22.846L26.9286 23.4739L27.5565 22.846L28.6704 23.9599C29.1932 24.4827 29.4875 25.1923 29.4875 25.9318C29.4875 26.6713 29.1932 27.3809 28.6704 27.9037L26.9111 29.663C25.129 31.445 22.2381 31.445 20.4561 29.663L20.4556 29.6625Z" fill="#FBC546" stroke="#7E5108" stroke-width="1.77592" stroke-linecap="round"/>
<path fill-rule="evenodd" clip-rule="evenodd" d="M27.1129 16.1694C26.9969 16.9979 26.2845 17.636 25.4237 17.636C24.3811 17.636 23.0536 17.636 22.011 17.636C21.0683 17.636 20.3047 16.8724 20.3047 15.9297C20.3047 14.987 21.0683 14.2234 22.011 14.2234C23.0536 14.2234 24.3811 14.2234 25.4237 14.2234C26.1787 14.2234 26.8186 14.7131 27.0438 15.3922C27.0754 15.649 27.0993 15.9075 27.1129 16.1694ZM5.03407 15.3931C5.25845 14.714 5.89917 14.2234 6.65422 14.2234C7.69677 14.2234 9.02429 14.2234 10.0668 14.2234C11.0096 14.2234 11.7732 14.987 11.7732 15.9297C11.7732 16.8724 11.0096 17.636 10.0668 17.636C9.02429 17.636 7.69677 17.636 6.65422 17.636C5.79338 17.636 5.08099 16.9979 4.96411 16.1686C4.97862 15.9075 5.00165 15.649 5.03407 15.3931V15.3931Z" fill="#ED6B44"/>
<path d="M10.9229 16.783C10.9229 16.783 11.2514 17.1114 11.6728 17.5329C12.8314 18.6915 14.4029 19.3424 16.0419 19.3424C17.6808 19.3424 19.2523 18.6915 20.4109 17.5329C20.8323 17.1114 21.1608 16.783 21.1608 16.783" stroke="#593604" stroke-width="1.70631" stroke-miterlimit="1.5" stroke-linecap="round"/>
<path fill-rule="evenodd" clip-rule="evenodd" d="M8.61338 13.5476C8.94611 13.8812 9.48701 13.8812 9.81974 13.5476C9.8206 13.5468 9.8206 13.5468 9.8206 13.5468C10.2258 13.1415 10.7761 12.9137 11.3495 12.9137C11.9228 12.9137 12.4731 13.1415 12.8783 13.5468C12.8783 13.5468 12.8783 13.5476 12.88 13.5485C13.0396 13.708 13.2563 13.7976 13.4823 13.7976C13.7084 13.7976 13.9251 13.708 14.0847 13.5485C14.0855 13.5485 14.0855 13.5476 14.0855 13.5476C14.4191 13.2149 14.4191 12.674 14.0855 12.3412C14.0847 12.3404 14.0847 12.3404 14.0847 12.3404C13.3595 11.6152 12.3749 11.2074 11.3495 11.2074C10.324 11.2074 9.33942 11.6152 8.61423 12.3404C8.61423 12.3404 8.61338 12.3404 8.61253 12.3421C8.45298 12.5016 8.3634 12.7183 8.3634 12.9444C8.3634 13.1705 8.45298 13.3872 8.61253 13.5468C8.61253 13.5476 8.61338 13.5476 8.61338 13.5476V13.5476ZM23.4703 13.5476C23.1375 13.8812 22.5966 13.8812 22.2639 13.5476C22.263 13.5468 22.263 13.5468 22.263 13.5468C21.8578 13.1415 21.3075 12.9137 20.7342 12.9137C20.1609 12.9137 19.6106 13.1415 19.2053 13.5468C19.2053 13.5468 19.2053 13.5476 19.2036 13.5485C19.0441 13.708 18.8274 13.7976 18.6013 13.7976C18.3752 13.7976 18.1585 13.708 17.999 13.5485C17.9981 13.5485 17.9981 13.5476 17.9981 13.5476C17.6645 13.2149 17.6645 12.674 17.9981 12.3412C17.999 12.3404 17.999 12.3404 17.999 12.3404C18.7241 11.6152 19.7087 11.2074 20.7342 11.2074C21.7597 11.2074 22.7442 11.6152 23.4694 12.3404C23.4694 12.3404 23.4703 12.3404 23.4711 12.3421C23.6307 12.5016 23.7202 12.7183 23.7202 12.9444C23.7202 13.1705 23.6307 13.3872 23.4711 13.5468C23.4711 13.5476 23.4703 13.5476 23.4703 13.5476V13.5476Z" fill="black"/>
</svg>
