<svg width="32" height="32" viewBox="0 0 32 32" fill="none" xmlns="http://www.w3.org/2000/svg">
<path d="M31.1028 20.9924C31.1028 23.0015 30.5776 24.4275 29.7584 25.4669C28.9313 26.5163 27.7418 27.2509 26.2822 27.7576C23.3206 28.7857 19.5103 28.7955 16.0998 28.7955C12.6905 28.7955 8.82725 28.786 5.81316 27.7562C4.32618 27.2481 3.11166 26.5114 2.26715 25.4603C1.43183 24.4207 0.896749 22.9969 0.896749 20.9924C0.896749 17.2482 1.70245 13.3711 3.95966 10.4485C6.18461 7.56767 9.92418 5.48 16.0998 5.48C21.9585 5.48 25.6574 7.5758 27.9167 10.4804C30.2055 13.4227 31.1028 17.3071 31.1028 20.9924Z" fill="#FBC546" stroke="black" stroke-width="1.7935"/>
<path fill-rule="evenodd" clip-rule="evenodd" d="M17.7715 19.4495L14.7069 18.2236C14.2693 18.0495 14.0568 17.5521 14.2317 17.1153C14.4058 16.6776 14.9031 16.4652 15.34 16.6401L19.6058 18.3464C19.8719 18.4522 20.0673 18.686 20.1253 18.9667C20.1825 19.2473 20.0955 19.5383 19.8924 19.7413L18.7893 20.8445L19.8924 21.9476C20.0955 22.1506 20.1825 22.4416 20.1253 22.7223C20.0673 23.0029 19.8719 23.2367 19.6058 23.3425L15.34 25.0488C14.9031 25.2237 14.4058 25.0113 14.2317 24.5736C14.0568 24.1368 14.2693 23.6394 14.7069 23.4654L17.7715 22.2394L16.9797 21.4476C16.653 21.1047 16.653 20.5842 16.9797 20.2413L17.7715 19.4495V19.4495Z" fill="#593604"/>
<path d="M23.5108 14.9629C23.9322 15.1736 24.1029 15.6855 23.8921 16.1061C23.8921 16.107 23.8913 16.1078 23.8913 16.1078C23.6805 16.5293 23.1686 16.6999 22.748 16.4892C21.7277 15.979 19.9284 15.0798 18.908 14.5687C18.4865 14.358 18.3159 13.8461 18.5266 13.4247C18.7373 13.0032 19.2492 12.8326 19.6707 13.0433C20.6919 13.5535 22.4904 14.4527 23.5108 14.9629Z" fill="black"/>
<path d="M13.2268 13.4247C13.4375 13.8461 13.2669 14.358 12.8454 14.5687C11.8251 15.0798 10.0258 15.979 9.00538 16.4892C8.58478 16.6999 8.07288 16.5293 7.86215 16.1078C7.86215 16.1078 7.86215 16.1078 7.86215 16.107C7.65142 15.6855 7.82205 15.1736 8.24351 14.9629C9.26389 14.4527 11.0623 13.5535 12.0827 13.0433C12.5042 12.8326 13.0161 13.0032 13.2268 13.4247Z" fill="black"/>
</svg>
