<svg width="32" height="32" viewBox="0 0 32 32" fill="none" xmlns="http://www.w3.org/2000/svg">
<path d="M31.1028 20.9925C31.1028 23.0016 30.5776 24.4276 29.7584 25.467C28.9313 26.5165 27.7418 27.251 26.2822 27.7577C23.3206 28.7858 19.5103 28.7956 16.0998 28.7956C12.6905 28.7956 8.82725 28.7862 5.81316 27.7563C4.32618 27.2482 3.11166 26.5115 2.26715 25.4604C1.43183 24.4208 0.896749 22.997 0.896749 20.9925C0.896749 17.2483 1.70245 13.3712 3.95966 10.4486C6.18461 7.56779 9.92418 5.48012 16.0998 5.48012C21.9585 5.48012 25.6574 7.57592 27.9167 10.4805C30.2055 13.4228 31.1028 17.3072 31.1028 20.9925Z" fill="#FBC546" stroke="black" stroke-width="1.7935"/>
<path fill-rule="evenodd" clip-rule="evenodd" d="M25.4266 17.2936C26.3651 17.2936 27.1269 18.0512 27.1329 18.9888V18.9999C27.1329 19.9426 26.3693 20.7062 25.4266 20.7062C24.384 20.7062 23.0565 20.7062 22.014 20.7062C21.0712 20.7062 20.3076 19.9426 20.3076 18.9999C20.3076 18.0572 21.0712 17.2936 22.014 17.2936H25.4266V17.2936ZM10.0697 17.2936C11.0082 17.2936 11.7701 18.0512 11.7761 18.9888V18.9999C11.7761 19.9426 11.0125 20.7062 10.0697 20.7062C9.02719 20.7062 7.69968 20.7062 6.65712 20.7062C5.71438 20.7062 4.95081 19.9426 4.95081 18.9999C4.95081 18.0572 5.71438 17.2936 6.65712 17.2936H10.0697V17.2936Z" fill="#ED6B44"/>
<path d="M10.9229 19.853C10.9229 19.853 11.4024 20.4929 11.9467 21.2181C12.9133 22.5072 14.4302 23.2657 16.0419 23.2657C17.6535 23.2657 19.1704 22.5072 20.137 21.2181C20.6813 20.4929 21.1608 19.853 21.1608 19.853" stroke="#593604" stroke-width="1.70631" stroke-miterlimit="1.5" stroke-linecap="round"/>
<path d="M12.9656 13.5002C13.0671 13.7024 13.0842 13.937 13.0125 14.1512C12.9408 14.3662 12.7864 14.5436 12.5842 14.6443C11.656 15.1084 10.099 15.8874 9.17074 16.3515C8.75014 16.5622 8.23824 16.3916 8.02751 15.9701C8.02751 15.9701 8.02751 15.9701 8.02751 15.9693C7.92599 15.7671 7.90892 15.5324 7.98059 15.3183C8.05225 15.1033 8.20667 14.9259 8.40887 14.8252C9.33711 14.3611 10.8941 13.5821 11.8224 13.118C12.243 12.9073 12.7549 13.0779 12.9656 13.4994C12.9656 13.4994 12.9656 13.4994 12.9656 13.5002V13.5002ZM23.6753 14.8252C23.8775 14.9259 24.0319 15.1033 24.1036 15.3183C24.1752 15.5324 24.1582 15.7671 24.0566 15.9693C23.956 16.1715 23.7785 16.3259 23.5635 16.3975C23.3494 16.4692 23.1147 16.4522 22.9125 16.3506C21.9843 15.8874 20.4273 15.1084 19.4999 14.6443C19.2977 14.5436 19.1433 14.3662 19.0716 14.1512C19 13.937 19.017 13.7024 19.1186 13.5002C19.2192 13.298 19.3967 13.1436 19.6117 13.0719C19.8258 13.0003 20.0604 13.0173 20.2626 13.1189C21.1909 13.5821 22.7479 14.3611 23.6753 14.8252Z" fill="black"/>
</svg>
