<svg width="32" height="32" viewBox="0 0 32 32" fill="none" xmlns="http://www.w3.org/2000/svg">
<g clip-path="url(#clip0)">
<path d="M31.1028 20.9925C31.1028 23.0016 30.5776 24.4276 29.7584 25.467C28.9313 26.5165 27.7418 27.2511 26.2822 27.7577C23.3206 28.7859 19.5103 28.7956 16.0998 28.7956C12.6905 28.7956 8.82725 28.7862 5.81316 27.7563C4.32618 27.2482 3.11166 26.5116 2.26715 25.4605C1.43183 24.4208 0.896749 22.9971 0.896749 20.9925C0.896749 17.2445 1.70404 12.6828 4.00516 9.08874C6.27215 5.54802 10.0181 2.88955 16.0998 2.88955C21.8645 2.88955 25.569 5.55276 27.871 9.1208C30.2022 12.7339 31.1028 17.3007 31.1028 20.9925Z" fill="#FBC546" stroke="black" stroke-width="1.7935"/>
<path fill-rule="evenodd" clip-rule="evenodd" d="M5.94318 32.0214C5.94318 32.0214 3.14052 29.2003 0.995054 27.0425C-0.334146 25.7046 -0.33168 23.5432 1.00245 22.209C1.03205 22.1807 1.0604 22.1523 1.08876 22.1227C1.73364 21.4791 2.60785 21.1178 3.51782 21.1203C4.42903 21.1227 5.30078 21.4877 5.94195 22.135C5.94318 22.1363 5.94318 22.1363 5.94318 22.1363C5.94318 22.1363 5.98017 22.1005 6.04429 22.0376C7.38212 20.7343 9.51649 20.7442 10.8432 22.0574C10.8765 22.0907 10.9098 22.1252 10.9443 22.1585C11.5904 22.7984 11.9554 23.6714 11.9566 24.5814C11.9591 25.4926 11.5991 26.3655 10.9542 27.0092C8.78284 29.1805 5.94318 32.0214 5.94318 32.0214V32.0214Z" fill="#D92020"/>
<path fill-rule="evenodd" clip-rule="evenodd" d="M7.93598 11.3537C7.93598 11.3537 5.13332 8.53255 2.98785 6.37475C1.65865 5.03692 1.66112 2.87543 2.99525 1.5413C3.02484 1.51294 3.0532 1.48458 3.08156 1.45498C3.72643 0.811346 4.60065 0.45007 5.51062 0.452536C6.42183 0.455002 7.29357 0.819977 7.93475 1.46732C7.93598 1.46855 7.93598 1.46855 7.93598 1.46855C7.93598 1.46855 7.97297 1.43279 8.03709 1.36991C9.37492 0.0665986 11.5093 0.0764637 12.836 1.38964C12.8693 1.42293 12.9026 1.45745 12.9371 1.49074C13.5832 2.13068 13.9482 3.00366 13.9494 3.91364C13.9519 4.82484 13.5919 5.69782 12.947 6.34146C10.7756 8.51282 7.93598 11.3537 7.93598 11.3537V11.3537Z" fill="#D92020"/>
<path fill-rule="evenodd" clip-rule="evenodd" d="M26.8906 27.6187C26.8906 27.6187 24.4425 25.1524 22.666 23.3625C21.669 22.3582 21.6727 20.7371 22.6733 19.7365C22.6733 19.7353 22.6745 19.7353 22.6745 19.7341C23.159 19.2496 23.8172 18.9776 24.5032 18.98C25.1893 18.9812 25.8451 19.2569 26.3284 19.7438C26.6526 20.0717 26.8906 20.3121 26.8906 20.3121C26.8906 20.3121 27.1796 20.0304 27.5609 19.6588C28.5615 18.6837 30.1596 18.6898 31.1529 19.6721C31.1541 19.6721 31.1541 19.6734 31.1553 19.6734C31.6447 20.1579 31.9215 20.8173 31.924 21.5058C31.9264 22.1943 31.6532 22.8561 31.1662 23.343C29.3654 25.1439 26.8906 27.6187 26.8906 27.6187V27.6187Z" fill="#D92020"/>
<path d="M10.9229 19.853C10.9229 19.853 11.4024 20.4929 11.9467 21.2181C12.9133 22.5072 14.4302 23.2657 16.0419 23.2657C17.6535 23.2657 19.1704 22.5072 20.137 21.2181C20.6813 20.4929 21.1608 19.853 21.1608 19.853" stroke="#593604" stroke-width="1.70631" stroke-miterlimit="1.5" stroke-linecap="round"/>
<path fill-rule="evenodd" clip-rule="evenodd" d="M7.32785 15.3465C7.48825 15.5061 7.70495 15.5965 7.93104 15.5965C8.15712 15.5965 8.37383 15.5061 8.53337 15.3465C8.53934 15.3405 8.54275 15.338 8.54275 15.338C9.06147 14.8193 9.76447 14.5275 10.4982 14.5275C11.2319 14.5275 11.9349 14.8193 12.4536 15.338C12.4536 15.338 12.457 15.3405 12.463 15.3465C12.7957 15.6792 13.3349 15.6792 13.6685 15.3465C13.6685 15.3465 13.6685 15.3465 13.6685 15.3457C14.0021 15.0129 14.0021 14.4729 13.6685 14.1393C13.6634 14.1342 13.6608 14.1308 13.6608 14.1308C12.8222 13.2921 11.6841 12.8212 10.4982 12.8212C9.3123 12.8212 8.17419 13.2921 7.33553 14.1308C7.33553 14.1308 7.33297 14.1342 7.327 14.1401C7.16746 14.2997 7.07703 14.5164 7.07703 14.7425C7.07703 14.9686 7.16746 15.1853 7.327 15.3457L7.32785 15.3465Z" fill="black"/>
<path fill-rule="evenodd" clip-rule="evenodd" d="M24.7589 15.3465C24.5985 15.5061 24.3818 15.5965 24.1557 15.5965C23.9297 15.5965 23.713 15.5061 23.5534 15.3465C23.5474 15.3405 23.544 15.338 23.544 15.338C23.0253 14.8193 22.3223 14.5275 21.5886 14.5275C20.8549 14.5275 20.1519 14.8193 19.6332 15.338C19.6332 15.338 19.6297 15.3405 19.6238 15.3465C19.291 15.6792 18.7518 15.6792 18.4183 15.3465C18.4183 15.3465 18.4183 15.3465 18.4183 15.3457C18.0847 15.0129 18.0847 14.4729 18.4183 14.1393C18.4234 14.1342 18.4259 14.1308 18.4259 14.1308C19.2646 13.2921 20.4027 12.8212 21.5886 12.8212C22.7745 12.8212 23.9126 13.2921 24.7512 14.1308C24.7512 14.1308 24.7538 14.1342 24.7598 14.1401C24.9193 14.2997 25.0098 14.5164 25.0098 14.7425C25.0098 14.9686 24.9193 15.1853 24.7598 15.3457L24.7589 15.3465Z" fill="black"/>
</g>
<defs>
<clipPath id="clip0">
<rect width="32" height="32" fill="white"/>
</clipPath>
</defs>
</svg>
