<svg width="32" height="32" viewBox="0 0 32 32" fill="none" xmlns="http://www.w3.org/2000/svg">
<g clip-path="url(#clip0)">
<path d="M31.1028 20.9925C31.1028 23.0016 30.5776 24.4276 29.7584 25.467C28.9313 26.5165 27.7418 27.2511 26.2822 27.7577C23.3206 28.7859 19.5103 28.7956 16.0998 28.7956C12.6905 28.7956 8.82725 28.7862 5.81316 27.7563C4.32618 27.2482 3.11166 26.5116 2.26715 25.4605C1.43183 24.4208 0.896749 22.9971 0.896749 20.9925C0.896749 17.2445 1.70404 12.6828 4.00516 9.08874C6.27215 5.54802 10.0181 2.88955 16.0998 2.88955C21.8645 2.88955 25.569 5.55276 27.871 9.1208C30.2022 12.7339 31.1028 17.3007 31.1028 20.9925Z" fill="#FBC546" stroke="black" stroke-width="1.7935"/>
<path fill-rule="evenodd" clip-rule="evenodd" d="M18.5225 23.1832L20.4293 20.0052C20.6708 19.6017 21.1955 19.4703 21.599 19.7126C22.0034 19.9549 22.1339 20.4796 21.8916 20.8831L19.3322 25.1489C19.1863 25.3929 18.9286 25.5473 18.6454 25.5619C18.3613 25.5764 18.0891 25.4492 17.9185 25.2223L16.0415 22.7191L14.1646 25.2223C13.994 25.4492 13.7218 25.5764 13.4377 25.5619C13.1545 25.5473 12.8968 25.3929 12.7509 25.1489L10.1914 20.8831C9.94914 20.4796 10.0797 19.9549 10.4841 19.7126C10.8876 19.4703 11.4123 19.6017 11.6537 20.0052L13.5606 23.1832L15.359 20.7859C15.7139 20.3405 16.3691 20.3405 16.7241 20.7859L18.5225 23.1832Z" fill="#593604"/>
<path fill-rule="evenodd" clip-rule="evenodd" d="M10.4981 18.2833C11.2898 18.2833 12.0483 17.9685 12.6079 17.4088C13.1676 16.8491 13.4824 16.0898 13.4824 15.2989C13.4824 14.7376 13.4824 14.1514 13.4824 13.5909C13.4824 11.9418 12.1455 10.6049 10.4964 10.6049H10.4947C9.70293 10.6049 8.94447 10.9188 8.3848 11.4785C7.82513 12.0382 7.51031 12.7975 7.51031 13.5892C7.51031 14.1497 7.51031 14.7358 7.51031 15.2972C7.51031 16.9464 8.84721 18.2833 10.4964 18.2833H10.4981V18.2833Z" fill="white"/>
<path fill-rule="evenodd" clip-rule="evenodd" d="M9.21661 13.1643C9.21661 12.7113 9.39663 12.2779 9.71656 11.9571C10.0365 11.6372 10.4708 11.458 10.9229 11.458C11.3751 11.458 11.8094 11.6372 12.1293 11.9571C12.4492 12.2779 12.6292 12.7113 12.6292 13.1643C12.6292 13.962 12.6292 14.9107 12.6292 15.7093C12.6292 16.1615 12.4492 16.5957 12.1293 16.9157C11.8094 17.2356 11.3751 17.4156 10.9229 17.4156C10.4708 17.4156 10.0365 17.2356 9.71656 16.9157C9.39663 16.5957 9.21661 16.1615 9.21661 15.7093C9.21661 14.9107 9.21661 13.962 9.21661 13.1643Z" fill="black"/>
<path fill-rule="evenodd" clip-rule="evenodd" d="M21.5857 18.2833C20.794 18.2833 20.0355 17.9685 19.4759 17.4088C18.9162 16.8491 18.6014 16.0898 18.6014 15.2989C18.6014 14.7376 18.6014 14.1514 18.6014 13.5909C18.6014 11.9418 19.9383 10.6049 21.5874 10.6049H21.5891C22.3809 10.6049 23.1393 10.9188 23.699 11.4785C24.2587 12.0382 24.5735 12.7975 24.5735 13.5892C24.5735 14.1497 24.5735 14.7358 24.5735 15.2972C24.5735 16.9464 23.2366 18.2833 21.5874 18.2833H21.5857Z" fill="white"/>
<path fill-rule="evenodd" clip-rule="evenodd" d="M22.8672 13.1643C22.8672 12.7113 22.6871 12.2779 22.3672 11.9571C22.0473 11.6372 21.613 11.458 21.1608 11.458C20.7087 11.458 20.2744 11.6372 19.9545 11.9571C19.6345 12.2779 19.4545 12.7113 19.4545 13.1643C19.4545 13.962 19.4545 14.9107 19.4545 15.7093C19.4545 16.1615 19.6345 16.5957 19.9545 16.9157C20.2744 17.2356 20.7087 17.4156 21.1608 17.4156C21.613 17.4156 22.0473 17.2356 22.3672 16.9157C22.6871 16.5957 22.8672 16.1615 22.8672 15.7093C22.8672 14.9107 22.8672 13.962 22.8672 13.1643Z" fill="black"/>
</g>
<defs>
<clipPath id="clip0">
<rect width="32" height="32" fill="white"/>
</clipPath>
</defs>
</svg>
