<svg width="32" height="32" viewBox="0 0 32 32" fill="none" xmlns="http://www.w3.org/2000/svg">
<path d="M31.1028 20.9925C31.1028 23.0016 30.5776 24.4276 29.7584 25.467C28.9313 26.5165 27.7418 27.2511 26.2822 27.7577C23.3206 28.7859 19.5103 28.7956 16.0998 28.7956C12.6905 28.7956 8.82725 28.7862 5.81316 27.7563C4.32618 27.2482 3.11166 26.5116 2.26715 25.4605C1.43183 24.4208 0.896749 22.9971 0.896749 20.9925C0.896749 17.2445 1.70404 12.6828 4.00516 9.08874C6.27215 5.54802 10.0181 2.88955 16.0998 2.88955C21.8645 2.88955 25.569 5.55276 27.871 9.1208C30.2022 12.7339 31.1028 17.3007 31.1028 20.9925Z" fill="#FBC546" stroke="black" stroke-width="1.7935"/>
<path fill-rule="evenodd" clip-rule="evenodd" d="M25.3911 28.6478C25.3911 28.6478 22.499 25.7556 20.5008 23.7575C19.4728 22.7294 19.4708 21.063 20.496 20.0321C20.5374 19.9906 20.5789 19.9491 20.6204 19.9077C21.6465 18.8758 23.3158 18.871 24.3487 19.8971C24.9157 20.4603 25.3911 20.9328 25.3911 20.9328C25.3911 20.9328 25.8598 20.4641 26.4192 19.9048C26.9139 19.4101 27.5851 19.1323 28.2843 19.1323C28.9834 19.1323 29.6546 19.4101 30.1494 19.9048C30.1918 19.9472 30.2342 19.9896 30.2767 20.0321C31.3066 21.062 31.3066 22.7323 30.2767 23.7623C28.2785 25.7605 25.3911 28.6478 25.3911 28.6478V28.6478Z" fill="#D92020"/>
<path fill-rule="evenodd" clip-rule="evenodd" d="M16.9464 21.1108L13.8818 19.8848C13.4442 19.7108 13.2317 19.2134 13.4066 18.7766C13.5807 18.3389 14.0781 18.1265 14.5149 18.3014L18.7807 20.0077C19.0469 20.1135 19.2422 20.3472 19.3003 20.6279C19.3574 20.9086 19.2704 21.1995 19.0673 21.4026L17.9642 22.5057L19.0673 23.6088C19.2704 23.8119 19.3574 24.1028 19.3003 24.3835C19.2422 24.6642 19.0469 24.898 18.7807 25.0038L14.5149 26.7101C14.0781 26.885 13.5807 26.6725 13.4066 26.2349C13.2317 25.798 13.4442 25.3007 13.8818 25.1266L16.9464 23.9006L16.1547 23.1089C15.8279 22.7659 15.8279 22.2455 16.1547 21.9025L16.9464 21.1108V21.1108Z" fill="#593604"/>
<path fill-rule="evenodd" clip-rule="evenodd" d="M10.361 18.2402C11.1528 18.2402 11.9112 17.9254 12.4709 17.3657C13.0306 16.806 13.3454 16.0476 13.3454 15.2558C13.3454 14.6953 13.3454 14.1083 13.3454 13.5478C13.3454 11.8987 12.0085 10.5618 10.3593 10.5618H10.3576C9.56591 10.5618 8.80745 10.8766 8.24778 11.4363C7.68811 11.9959 7.37329 12.7544 7.37329 13.5461C7.37329 14.1066 7.37329 14.6936 7.37329 15.2541C7.37329 16.9033 8.71019 18.2402 10.3593 18.2402H10.361V18.2402Z" fill="white"/>
<path fill-rule="evenodd" clip-rule="evenodd" d="M9.07959 13.1212C9.07959 12.6691 9.25961 12.2348 9.57954 11.9149C9.89947 11.5949 10.3337 11.4149 10.7859 11.4149C11.2381 11.4149 11.6723 11.5949 11.9923 11.9149C12.3122 12.2348 12.4922 12.6691 12.4922 13.1212C12.4922 13.9198 12.4922 14.8685 12.4922 15.6662C12.4922 16.1192 12.3122 16.5526 11.9923 16.8734C11.6723 17.1934 11.2381 17.3725 10.7859 17.3725C10.3337 17.3725 9.89947 17.1934 9.57954 16.8734C9.25961 16.5526 9.07959 16.1192 9.07959 15.6662C9.07959 14.8685 9.07959 13.9198 9.07959 13.1212Z" fill="black"/>
<path fill-rule="evenodd" clip-rule="evenodd" d="M17.4337 14.2254C17.2742 14.3849 17.1846 14.6016 17.1846 14.8277C17.1846 15.0538 17.2742 15.2705 17.4337 15.4301C17.4345 15.4309 17.4345 15.4318 17.4345 15.4318C18.2732 16.2704 19.4113 16.7414 20.5972 16.7414C21.7831 16.7414 22.9212 16.2704 23.7599 15.4318V15.4309C24.0934 15.0982 24.0934 14.5573 23.7599 14.2246C23.4271 13.891 22.8862 13.891 22.5535 14.2246H22.5526C22.0339 14.7433 21.3309 15.0351 20.5972 15.0351C19.8635 15.0351 19.1605 14.7433 18.6418 14.2246C18.6418 14.2246 18.6409 14.2246 18.6401 14.2237C18.4805 14.0642 18.2638 13.9746 18.0377 13.9746C17.8116 13.9746 17.5949 14.0642 17.4354 14.2237L17.4337 14.2254V14.2254Z" fill="black"/>
</svg>
