<svg width="32" height="32" viewBox="0 0 32 32" fill="none" xmlns="http://www.w3.org/2000/svg">
<g clip-path="url(#clip0)">
<path d="M31.1028 20.9925C31.1028 23.0016 30.5776 24.4276 29.7584 25.467C28.9313 26.5165 27.7418 27.2511 26.2822 27.7577C23.3206 28.7859 19.5103 28.7956 16.0998 28.7956C12.6905 28.7956 8.82725 28.7862 5.81316 27.7563C4.32618 27.2482 3.11166 26.5116 2.26715 25.4605C1.43183 24.4208 0.896749 22.9971 0.896749 20.9925C0.896749 17.2445 1.70404 12.6828 4.00516 9.08874C6.27215 5.54802 10.0181 2.88955 16.0998 2.88955C21.8645 2.88955 25.569 5.55276 27.871 9.1208C30.2022 12.7339 31.1028 17.3007 31.1028 20.9925Z" fill="#FBC546" stroke="black" stroke-width="1.7935"/>
<path d="M16.0998 1.9928C8.37739 1.9928 3.36379 8.29791 1.19568 13.252C1.19568 13.252 3.08882 9.76463 16.0998 9.76463C29.1107 9.76463 30.7884 13.252 30.7884 13.252C28.5575 8.30756 23.4433 1.9928 16.0998 1.9928Z" fill="#7AAFFF"/>
<path fill-rule="evenodd" clip-rule="evenodd" d="M24.5738 6.55731C24.834 6.77657 25.0857 7.00692 25.328 7.25007C26.0233 7.94454 26.6231 8.7158 27.1204 9.54336V10.0791C27.1204 10.4186 26.9856 10.7437 26.7459 10.9843C26.5053 11.224 26.1803 11.3588 25.8407 11.3588C25.5012 11.3588 25.1761 11.224 24.9355 10.9843C24.6958 10.7437 24.561 10.4186 24.561 10.0791C24.561 8.85905 24.561 7.95734 24.561 6.73733C24.561 6.67675 24.5652 6.61618 24.5738 6.55731ZM21.2337 4.57201C22.1047 4.91242 22.9357 5.35606 23.7078 5.89355V9.48124C23.7078 9.82079 23.573 10.1458 23.3333 10.3864C23.0927 10.6262 22.7676 10.761 22.4281 10.761C22.0885 10.761 21.7635 10.6262 21.5229 10.3864C21.2831 10.1458 21.1483 9.82079 21.1483 9.48124C21.1483 8.06073 21.1483 6.45152 21.1483 5.03101C21.1483 4.87232 21.1774 4.71705 21.2337 4.57201ZM17.7971 3.78625C18.6486 3.85195 19.4855 4.00808 20.2952 4.24952V8.58449C20.2952 8.92404 20.1604 9.2491 19.9207 9.48969C19.6801 9.72942 19.355 9.86422 19.0155 9.86422C18.6759 9.86422 18.3508 9.72942 18.1103 9.48969C17.8705 9.2491 17.7357 8.92404 17.7357 8.58449C17.7357 7.16398 17.7357 5.59836 17.7357 4.17785C17.7357 4.04391 17.757 3.91167 17.7971 3.78625Z" fill="#3988FF"/>
<path fill-rule="evenodd" clip-rule="evenodd" d="M2.98915 13.3516C2.23109 13.3516 1.85406 13.5509 1.09601 13.5509C1.39492 12.4549 2.51319 9.84727 2.84808 9.26643C5.22073 5.1513 9.33253 1.9928 16.0997 1.9928C22.5335 1.9928 26.6034 5.1573 29.0132 9.26643C29.354 9.84747 31.0873 13.4513 30.7884 13.5509L28.7956 12.7538L26.8934 9.26643C24.7079 6.0689 21.2948 3.7863 16.0997 3.7863C12.5749 3.7863 9.95158 4.71857 7.98309 6.12714C6.77955 6.98834 5.80128 7.75751 4.98192 8.96751C4.56181 9.66792 4.48373 9.36607 2.98915 13.3516Z" fill="black"/>
<path fill-rule="evenodd" clip-rule="evenodd" d="M13.8411 23.4785C13.5211 23.0417 13.3454 22.5119 13.3454 21.9642C13.3454 21.1409 13.3454 20.228 13.3454 19.4047C13.3454 18.7256 13.615 18.0746 14.0953 17.5951C14.5748 17.1148 15.2258 16.8452 15.9049 16.8452C16.584 16.8452 17.2349 17.1148 17.7144 17.5951C18.1947 18.0746 18.4643 18.7256 18.4643 19.4047C18.4643 20.228 18.4643 21.1409 18.4643 21.9642C18.4643 22.5119 18.2886 23.0417 17.9687 23.4785C17.38 23.0579 14.4298 23.0579 13.8411 23.4785Z" fill="#722245"/>
<path fill-rule="evenodd" clip-rule="evenodd" d="M13.8386 23.4785C14.4273 23.0579 15.144 22.8173 15.9024 22.8173C16.6609 22.8173 17.3775 23.0579 17.9662 23.4785C17.8894 23.5825 17.805 23.6815 17.712 23.7737C17.2325 24.254 16.5815 24.5236 15.9024 24.5236C15.2233 24.5236 14.5723 24.254 14.0929 23.7737C13.9999 23.6815 13.9154 23.5825 13.8386 23.4785V23.4785Z" fill="#CA3B8F"/>
<path fill-rule="evenodd" clip-rule="evenodd" d="M24.4364 12.5794C24.4364 10.6948 22.9084 9.16675 21.0238 9.16675C19.1391 9.16675 17.6111 10.6948 17.6111 12.5794C17.6111 14.464 19.1391 15.992 21.0238 15.992C22.9084 15.992 24.4364 14.464 24.4364 12.5794Z" fill="white"/>
<path fill-rule="evenodd" clip-rule="evenodd" d="M22.7301 12.5469C22.7301 12.1033 22.5535 11.6776 22.2396 11.3636C21.9256 11.0497 21.4999 10.873 21.0562 10.873H20.9914C20.5478 10.873 20.122 11.0497 19.8081 11.3636C19.4941 11.6776 19.3175 12.1033 19.3175 12.5469V12.5794C19.3175 13.0315 19.4975 13.4658 19.8175 13.7857C20.1374 14.1057 20.5716 14.2857 21.0238 14.2857C21.9666 14.2857 22.7301 13.5221 22.7301 12.5794V12.5469Z" fill="black"/>
<path fill-rule="evenodd" clip-rule="evenodd" d="M7.37329 12.5794C7.37329 10.6948 8.9013 9.16675 10.7859 9.16675C12.6705 9.16675 14.1985 10.6948 14.1985 12.5794C14.1985 14.464 12.6705 15.992 10.7859 15.992C8.9013 15.992 7.37329 14.464 7.37329 12.5794Z" fill="white"/>
<path fill-rule="evenodd" clip-rule="evenodd" d="M12.4922 12.5469C12.4922 12.1033 12.3156 11.6776 12.0017 11.3636C11.6877 11.0497 11.262 10.873 10.8183 10.873H10.7859C10.3337 10.873 9.89947 11.0531 9.57954 11.373C9.25961 11.6929 9.07959 12.1272 9.07959 12.5794V12.6118C9.07959 13.0554 9.25619 13.4811 9.57016 13.7951C9.88412 14.1091 10.3098 14.2857 10.7535 14.2857H10.7552C11.7141 14.2857 12.4922 13.5076 12.4922 12.5486V12.5469Z" fill="black"/>
</g>
<defs>
<clipPath id="clip0">
<rect width="32" height="32" fill="white"/>
</clipPath>
</defs>
</svg>
