<svg width="32" height="32" viewBox="0 0 32 32" fill="none" xmlns="http://www.w3.org/2000/svg">
<g clip-path="url(#clip0)">
<path d="M31.1028 20.9925C31.1028 23.0016 30.5776 24.4276 29.7584 25.467C28.9313 26.5165 27.7418 27.2511 26.2822 27.7577C23.3206 28.7859 19.5103 28.7956 16.0998 28.7956C12.6905 28.7956 8.82725 28.7862 5.81316 27.7563C4.32618 27.2482 3.11166 26.5116 2.26715 25.4605C1.43183 24.4208 0.896749 22.9971 0.896749 20.9925C0.896749 17.2445 1.70404 12.6828 4.00516 9.08874C6.27215 5.54802 10.0181 2.88955 16.0998 2.88955C21.8645 2.88955 25.569 5.55276 27.871 9.1208C30.2022 12.7339 31.1028 17.3007 31.1028 20.9925Z" fill="#579AFF" stroke="black" stroke-width="1.7935"/>
<path fill-rule="evenodd" clip-rule="evenodd" d="M24.4364 21.2542C24.4364 20.5751 24.1668 19.9241 23.6865 19.4446C23.207 18.9643 22.5561 18.6947 21.877 18.6947C18.6554 18.6947 13.1543 18.6947 9.93276 18.6947C9.25365 18.6947 8.60269 18.9643 8.12322 19.4446C7.64289 19.9241 7.37329 20.5751 7.37329 21.2542C7.37329 21.5366 7.37329 21.8249 7.37329 22.1073C7.37329 22.7864 7.64289 23.4374 8.12322 23.9169C8.60269 24.3972 9.25365 24.6668 9.93276 24.6668C13.1543 24.6668 18.6554 24.6668 21.877 24.6668C22.5561 24.6668 23.207 24.3972 23.6865 23.9169C24.1668 23.4374 24.4364 22.7864 24.4364 22.1073C24.4364 21.8249 24.4364 21.5366 24.4364 21.2542Z" fill="#0C6DFF"/>
<path fill-rule="evenodd" clip-rule="evenodd" d="M9.27345 23.6823C9.40057 23.376 9.58741 23.0953 9.8263 22.8564C10.3058 22.3769 10.9567 22.1073 11.635 22.1073C14.0742 22.1073 17.7282 22.1073 20.1683 22.1073C21.233 22.1073 22.1459 22.7574 22.5315 23.6823C22.3251 23.7684 22.1024 23.8136 21.8746 23.8136C18.9201 23.8136 12.8849 23.8136 9.93038 23.8136C9.70259 23.8136 9.47992 23.7684 9.27345 23.6823ZM8.89294 19.8994C9.18899 19.6724 9.55329 19.5479 9.93038 19.5479C12.8849 19.5479 18.9201 19.5479 21.8746 19.5479C22.2517 19.5479 22.616 19.6724 22.912 19.8994C22.2158 20.7397 21.1682 21.2542 20.0309 21.2542H11.7741C10.6368 21.2542 9.58912 20.7397 8.89294 19.8994V19.8994Z" fill="white"/>
<path fill-rule="evenodd" clip-rule="evenodd" d="M10.3593 17.8416C12.0085 17.8416 13.3454 16.5047 13.3454 14.8556V13.1493C13.3454 11.5001 12.0085 10.1632 10.3593 10.1632H10.3576C9.56591 10.1632 8.80745 10.478 8.24778 11.0377C7.68811 11.5974 7.37329 12.3558 7.37329 13.1476C7.37329 13.7081 7.37329 14.295 7.37329 14.8556C7.37329 16.5047 8.71019 17.8416 10.3593 17.8416Z" fill="white"/>
<path fill-rule="evenodd" clip-rule="evenodd" d="M9.07959 13.5758C9.07959 13.1236 9.25961 12.6894 9.57954 12.3695C9.89947 12.0495 10.3337 11.8695 10.7859 11.8695C11.2381 11.8695 11.6723 12.0495 11.9923 12.3695C12.3122 12.6894 12.4922 13.1236 12.4922 13.5758C12.4922 13.8565 12.4922 14.1483 12.4922 14.429C12.4922 14.8812 12.3122 15.3154 11.9923 15.6353C11.6723 15.9553 11.2381 16.1353 10.7859 16.1353C10.3337 16.1353 9.89947 15.9553 9.57954 15.6353C9.25961 15.3154 9.07959 14.8812 9.07959 14.429C9.07959 14.1483 9.07959 13.8565 9.07959 13.5758Z" fill="black"/>
<path fill-rule="evenodd" clip-rule="evenodd" d="M21.4503 17.8416C19.8012 17.8416 18.4643 16.5047 18.4643 14.8556V13.1493C18.4643 11.5001 19.8012 10.1632 21.4503 10.1632H21.4521C22.2438 10.1632 23.0022 10.478 23.5619 11.0377C24.1216 11.5974 24.4364 12.3558 24.4364 13.1476C24.4364 13.7081 24.4364 14.295 24.4364 14.8556C24.4364 16.5047 23.0995 17.8416 21.4503 17.8416V17.8416Z" fill="white"/>
<path fill-rule="evenodd" clip-rule="evenodd" d="M22.7301 13.5758C22.7301 13.1236 22.5501 12.6894 22.2302 12.3695C21.9102 12.0495 21.476 11.8695 21.0238 11.8695C20.5716 11.8695 20.1374 12.0495 19.8175 12.3695C19.4975 12.6894 19.3175 13.1236 19.3175 13.5758C19.3175 13.8565 19.3175 14.1483 19.3175 14.429C19.3175 14.8812 19.4975 15.3154 19.8175 15.6353C20.1374 15.9553 20.5716 16.1353 21.0238 16.1353C21.476 16.1353 21.9102 15.9553 22.2302 15.6353C22.5501 15.3154 22.7301 14.8812 22.7301 14.429C22.7301 14.1483 22.7301 13.8565 22.7301 13.5758Z" fill="black"/>
<path fill-rule="evenodd" clip-rule="evenodd" d="M3.78625 24.7105H10.3631L7.07468 29.4082L3.78625 24.7105Z" fill="#E6F0FF"/>
<path fill-rule="evenodd" clip-rule="evenodd" d="M4.9846 3.9856H14.0672L11.2486 9.6229L9.83925 5.8647L7.49038 11.502L4.9846 3.9856Z" fill="#E6F0FF"/>
<path fill-rule="evenodd" clip-rule="evenodd" d="M20.3263 17.935H30.0347L28.1556 23.5723L26.7462 20.7537L23.4578 27.3305L20.3263 17.935Z" fill="#E6F0FF"/>
</g>
<defs>
<clipPath id="clip0">
<rect width="32" height="32" fill="white"/>
</clipPath>
</defs>
</svg>
