<svg width="32" height="32" viewBox="0 0 32 32" fill="none" xmlns="http://www.w3.org/2000/svg">
<path d="M31.1028 20.9925C31.1028 23.0016 30.5776 24.4276 29.7584 25.467C28.9313 26.5165 27.7418 27.2511 26.2822 27.7577C23.3206 28.7859 19.5103 28.7956 16.0998 28.7956C12.6905 28.7956 8.82725 28.7862 5.81316 27.7563C4.32618 27.2482 3.11166 26.5116 2.26715 25.4605C1.43183 24.4208 0.896749 22.9971 0.896749 20.9925C0.896749 17.2445 1.70404 12.6828 4.00516 9.08874C6.27215 5.54802 10.0181 2.88955 16.0998 2.88955C21.8645 2.88955 25.569 5.55276 27.871 9.1208C30.2022 12.7339 31.1028 17.3007 31.1028 20.9925Z" fill="#FBC546" stroke="black" stroke-width="1.7935"/>
<path fill-rule="evenodd" clip-rule="evenodd" d="M10.2926 24.6692C8.94209 23.4663 7.97631 21.8418 7.60263 20.0024H24.3228C23.9491 21.8418 22.9833 23.4663 21.6328 24.6692H10.2926V24.6692Z" fill="#722245"/>
<path fill-rule="evenodd" clip-rule="evenodd" d="M12.5528 24.5095C12.5528 24.6136 11.7039 25.57 11.7116 25.6732L11.7133 25.6954C11.2057 25.4028 10.7305 25.059 10.2954 24.6716L10.9395 23.7042C11.0504 23.5395 11.1784 23.3876 11.3234 23.252C11.4395 23.1445 11.5657 23.0472 11.6997 22.9619L12.5528 24.5095ZM20.2312 22.9619C20.529 23.1505 20.7892 23.4021 20.9914 23.7042L21.6355 24.6716C21.2004 25.059 20.7252 25.4028 20.2176 25.6954L20.2193 25.6732C20.227 25.57 19.3781 24.6136 19.3781 24.5095L20.2312 22.9619V22.9619Z" fill="#A1256C"/>
<path fill-rule="evenodd" clip-rule="evenodd" d="M20.2267 25.3604C20.2267 25.4653 20.2224 25.5685 20.2147 25.6709C20.0569 27.7501 18.3199 29.3873 16.1998 29.3873C16.0411 29.3873 15.8807 29.3873 15.722 29.3873C13.4978 29.3873 11.6951 27.5845 11.6951 25.3604V22.9596C11.9186 22.8188 12.1626 22.7122 12.4186 22.6448C12.6302 22.5902 12.8469 22.5629 13.0653 22.562H18.8565C19.3496 22.562 19.8231 22.7036 20.2267 22.9596V25.3604V25.3604Z" fill="#DD34A2"/>
<path fill-rule="evenodd" clip-rule="evenodd" d="M11.4827 11.8175C11.8205 11.9822 12.1311 12.2023 12.4015 12.4727C13.0423 13.1126 13.4014 13.9803 13.4014 14.8855V14.8872C13.4014 16.7709 11.8743 18.2981 9.99051 18.2981H9.98709C8.10332 18.2981 6.57617 16.7709 6.57617 14.8872V14.8838C6.57617 14.0169 6.89952 13.2252 7.43274 12.6237C7.43018 12.6638 11.6192 12.0973 11.4827 11.8175Z" fill="white"/>
<path fill-rule="evenodd" clip-rule="evenodd" d="M9.98879 11.4709C10.5118 11.4709 11.022 11.5912 11.4827 11.8156C11.6192 12.0955 11.6951 12.4103 11.6951 12.7422C11.6951 12.743 11.6951 12.7447 11.6951 12.7456C11.6951 13.9187 10.7438 14.8699 9.57075 14.8699H9.55368C8.38059 14.8699 7.42932 13.9187 7.42932 12.7456C7.42932 12.7447 7.42932 12.743 7.42932 12.7422C7.42932 12.7021 7.43017 12.662 7.43273 12.6219C8.05725 11.9163 8.97012 11.4709 9.98709 11.4709H9.98879Z" fill="black"/>
<path fill-rule="evenodd" clip-rule="evenodd" d="M22.8134 9.87793C24.2715 10.2661 25.3456 11.5945 25.3456 13.1745C25.3456 13.7376 25.3456 14.3203 25.3456 14.8825C25.3456 15.7877 24.9864 16.6563 24.3457 17.2961C23.7058 17.936 22.8382 18.2952 21.933 18.2952H21.9313C20.0475 18.2952 18.5204 16.768 18.5204 14.8843C18.5204 14.3212 18.5204 13.7376 18.5204 13.1745C18.5204 12.5756 18.6748 12.0125 18.9461 11.5237C19.1653 12.463 23.0301 10.2107 22.8134 9.87793V9.87793Z" fill="white"/>
<path fill-rule="evenodd" clip-rule="evenodd" d="M21.9355 9.76465C22.2393 9.76465 22.5336 9.80475 22.8143 9.87897C23.031 10.2117 23.1573 10.6093 23.1573 11.0359C23.1573 11.0367 23.1573 11.0384 23.1573 11.0393C23.1564 12.2124 22.206 13.1636 21.032 13.1636C21.0269 13.1636 21.021 13.1636 21.0158 13.1636C20.0091 13.1636 19.1662 12.464 18.9469 11.5247C19.5288 10.4753 20.6473 9.76465 21.9321 9.76465H21.9355V9.76465Z" fill="black"/>
</svg>
