<svg width="32" height="32" viewBox="0 0 32 32" fill="none" xmlns="http://www.w3.org/2000/svg">
<path d="M31.1028 20.9925C31.1028 23.0016 30.5776 24.4276 29.7584 25.467C28.9313 26.5165 27.7418 27.2511 26.2822 27.7577C23.3206 28.7859 19.5103 28.7956 16.0998 28.7956C12.6905 28.7956 8.82725 28.7862 5.81316 27.7563C4.32618 27.2482 3.11166 26.5116 2.26715 25.4605C1.43183 24.4208 0.896749 22.9971 0.896749 20.9925C0.896749 17.2445 1.70404 12.6828 4.00516 9.08874C6.27215 5.54802 10.0181 2.88955 16.0998 2.88955C21.8645 2.88955 25.569 5.55276 27.871 9.1208C30.2022 12.7339 31.1028 17.3007 31.1028 20.9925Z" fill="#FBC546" stroke="black" stroke-width="1.7935"/>
<path d="M9.13562 20.345C9.13562 20.345 9.77975 21.3107 10.5084 22.4036C11.0092 23.1553 11.8205 23.6424 12.7197 23.732C13.619 23.8207 14.5105 23.5017 15.1487 22.8635C15.1495 22.8626 15.1495 22.8626 15.1504 22.8618C15.3654 22.6468 15.6572 22.5265 15.9609 22.5265C16.2646 22.5265 16.5564 22.6468 16.7714 22.8618C16.7722 22.8626 16.7722 22.8626 16.7731 22.8635C17.4112 23.5017 18.3028 23.8207 19.202 23.732C20.1013 23.6424 20.9126 23.1553 21.4134 22.4036C22.142 21.3107 22.7861 20.345 22.7861 20.345" stroke="#593604" stroke-width="1.70631" stroke-miterlimit="1.5" stroke-linecap="round" stroke-linejoin="round"/>
<path fill-rule="evenodd" clip-rule="evenodd" d="M23.8885 11.2105C23.9747 11.1252 24.0762 11.0587 24.1897 11.016C24.2929 10.9768 24.4021 10.958 24.5122 10.9606C24.6188 10.9631 24.7246 10.9862 24.8227 11.0271C24.9106 11.0638 24.9925 11.1158 25.0633 11.1798C25.1324 11.243 25.1913 11.3172 25.2373 11.3982C25.3653 11.6286 25.379 11.9127 25.274 12.1541C25.2314 12.2522 25.1699 12.341 25.0949 12.4169L23.1386 14.3732L25.0949 16.3295C25.1699 16.4054 25.2314 16.4941 25.274 16.5922C25.379 16.8337 25.3653 17.1178 25.2373 17.3481C25.1913 17.4292 25.1324 17.5034 25.0633 17.5666C24.9925 17.6305 24.9106 17.6826 24.8227 17.7193C24.7246 17.7602 24.6188 17.7833 24.5122 17.7858C24.4021 17.7884 24.2929 17.7696 24.1897 17.7304C24.0762 17.6877 23.9747 17.6212 23.8885 17.5358L21.9322 15.5796L19.9759 17.5358C19.8898 17.6212 19.7882 17.6877 19.6748 17.7304C19.5715 17.7696 19.4623 17.7884 19.3523 17.7858C19.2456 17.7833 19.1398 17.7602 19.0417 17.7193C18.9538 17.6826 18.8719 17.6305 18.8011 17.5666C18.732 17.5034 18.6731 17.4292 18.6271 17.3481C18.4991 17.1178 18.4855 16.8337 18.5904 16.5922C18.6331 16.4941 18.6945 16.4054 18.7696 16.3295L20.7258 14.3732L18.7696 12.4169C18.6945 12.341 18.6331 12.2522 18.5904 12.1541C18.4855 11.9127 18.4991 11.6286 18.6271 11.3982C18.6731 11.3172 18.732 11.243 18.8011 11.1798C18.8719 11.1158 18.9538 11.0638 19.0417 11.0271C19.1398 10.9862 19.2456 10.9631 19.3523 10.9606C19.4623 10.958 19.5715 10.9768 19.6748 11.016C19.7882 11.0587 19.8898 11.1252 19.9759 11.2105L21.9322 13.1668L23.8885 11.2105Z" fill="black"/>
<path fill-rule="evenodd" clip-rule="evenodd" d="M11.9443 11.2105C12.0305 11.1252 12.132 11.0587 12.2455 11.016C12.3487 10.9768 12.4579 10.958 12.568 10.9606C12.6746 10.9631 12.7804 10.9862 12.8785 11.0271C12.9664 11.0638 13.0483 11.1158 13.1191 11.1798C13.1882 11.243 13.2471 11.3172 13.2931 11.3982C13.4211 11.6286 13.4348 11.9127 13.3298 12.1541C13.2872 12.2522 13.2257 12.341 13.1507 12.4169L11.1944 14.3732L13.1507 16.3295C13.2257 16.4054 13.2872 16.4941 13.3298 16.5922C13.4348 16.8337 13.4211 17.1178 13.2931 17.3481C13.2471 17.4292 13.1882 17.5034 13.1191 17.5666C13.0483 17.6305 12.9664 17.6826 12.8785 17.7193C12.7804 17.7602 12.6746 17.7833 12.568 17.7858C12.4579 17.7884 12.3487 17.7696 12.2455 17.7304C12.132 17.6877 12.0305 17.6212 11.9443 17.5358L9.98801 15.5796L8.03172 17.5358C7.94555 17.6212 7.84402 17.6877 7.73055 17.7304C7.62732 17.7696 7.51812 17.7884 7.40806 17.7858C7.30141 17.7833 7.19562 17.7602 7.09751 17.7193C7.00964 17.6826 6.92773 17.6305 6.85692 17.5666C6.78781 17.5034 6.72895 17.4292 6.68288 17.3481C6.5549 17.1178 6.54125 16.8337 6.64619 16.5922C6.68885 16.4941 6.75028 16.4054 6.82535 16.3295L8.78164 14.3732L6.82535 12.4169C6.75028 12.341 6.68885 12.2522 6.64619 12.1541C6.54125 11.9127 6.5549 11.6286 6.68288 11.3982C6.72895 11.3172 6.78781 11.243 6.85692 11.1798C6.92773 11.1158 7.00964 11.0638 7.09751 11.0271C7.19562 10.9862 7.30141 10.9631 7.40806 10.9606C7.51812 10.958 7.62732 10.9768 7.73055 11.016C7.84402 11.0587 7.94555 11.1252 8.03172 11.2105L9.98801 13.1668L11.9443 11.2105Z" fill="black"/>
</svg>
