<svg width="32" height="32" viewBox="0 0 32 32" fill="none" xmlns="http://www.w3.org/2000/svg">
<g clip-path="url(#clip0)">
<path d="M31.1028 20.9925C31.1028 23.0016 30.5776 24.4276 29.7584 25.467C28.9313 26.5165 27.7418 27.2511 26.2822 27.7577C23.3206 28.7859 19.5103 28.7956 16.0998 28.7956C12.6905 28.7956 8.82725 28.7862 5.81316 27.7563C4.32618 27.2482 3.11166 26.5116 2.26715 25.4605C1.43183 24.4208 0.896749 22.9971 0.896749 20.9925C0.896749 17.2445 1.70404 12.6828 4.00516 9.08874C6.27215 5.54802 10.0181 2.88955 16.0998 2.88955C21.8645 2.88955 25.569 5.55276 27.871 9.1208C30.2022 12.7339 31.1028 17.3007 31.1028 20.9925Z" fill="#FBC546" stroke="black" stroke-width="1.7935"/>
<path fill-rule="evenodd" clip-rule="evenodd" d="M16.311 20.0586C18.1384 20.0586 19.7901 21.1481 20.5102 22.8279C20.738 23.3595 20.9692 23.8995 21.1757 24.3815C21.3053 24.6844 21.2499 25.0342 21.0323 25.2816C20.8148 25.529 20.4744 25.628 20.1578 25.5376L19.7381 25.4181C19.3013 24.8184 17.6061 24.3244 15.9108 24.3244C14.2156 24.3244 12.5204 24.8184 12.0836 25.4181L11.6638 25.5376C11.3473 25.628 11.0069 25.529 10.7893 25.2816C10.5718 25.0342 10.5163 24.6844 10.646 24.3815C10.8525 23.8995 11.0837 23.3595 11.3115 22.8279C12.0315 21.1481 13.6832 20.0586 15.5107 20.0586H16.311Z" fill="#722245"/>
<path fill-rule="evenodd" clip-rule="evenodd" d="M15.9113 23.4712C17.453 23.4712 18.8632 24.2177 19.7377 25.4181L18.249 24.9932C16.721 24.5564 15.1 24.5564 13.572 24.9932L12.0832 25.4181C12.9577 24.2177 14.3679 23.4712 15.9096 23.4712H15.9113V23.4712Z" fill="#CA3B8F"/>
<circle cx="9.56628" cy="14.5473" r="5.57977" fill="#982EEE"/>
<path fill-rule="evenodd" clip-rule="evenodd" d="M9.31932 9.59021C11.8438 9.59021 14.5304 12.2768 14.5304 14.8013C14.5304 14.8021 14.5304 14.803 14.5304 14.803C14.5304 15.9667 13.7455 17.4043 12.9231 18.2267C12.1006 19.0492 10.6682 19.8281 9.5053 19.8281H9.07019C8.19912 19.8281 6.51072 18.8427 5.89474 18.2267C5.27876 17.6107 4.66919 17.0648 4.78266 17.4368C4.18483 16.54 4.08519 15.5436 4.08519 15.5436C4.08519 15.5436 3.51196 13.1495 4.98195 11.555C5.22254 11.2939 5.97833 10.5617 7.47291 10.1631L9.31932 9.59021Z" fill="white"/>
<path fill-rule="evenodd" clip-rule="evenodd" d="M8.37399 9.08441C8.74084 9.00763 9.12135 8.96753 9.51039 8.96753C12.5707 8.96753 15.0559 11.4528 15.0559 14.5131C15.0559 17.5742 12.5707 20.0586 9.51039 20.0586C7.50888 20.0586 5.75394 18.9964 4.77878 17.4053C4.66531 17.0333 4.60474 16.6374 4.60474 16.2279C4.60474 15.9412 4.60474 15.652 4.60474 15.3645C4.60474 14.2904 5.03131 13.2598 5.79148 12.5005C6.55079 11.7411 7.5814 11.3137 8.65553 11.3137H9.41825C11.2363 11.3137 12.7097 12.788 12.7097 14.6052C12.7097 14.606 12.7097 14.6069 12.7097 14.6069C12.7097 15.431 12.383 16.2211 11.8003 16.8029C11.2176 17.3856 10.4275 17.7124 9.60424 17.7124H9.16913C8.63761 17.7124 8.12742 17.5017 7.75118 17.1254C7.37579 16.7492 7.16421 16.2398 7.16421 15.7075C7.16421 15.6827 7.16421 15.658 7.16421 15.6324C7.16421 15.1657 7.34934 14.7187 7.67952 14.3885C8.00969 14.0592 8.45674 13.8732 8.92342 13.8732H9.51039C9.68017 13.8732 9.84312 13.9406 9.96256 14.0609C10.0829 14.1812 10.1503 14.3433 10.1503 14.5131C10.1503 14.8671 9.8636 15.1529 9.51039 15.1529C9.42166 15.1529 9.25786 15.1529 9.08381 15.1529C8.7306 15.1529 8.44394 15.4396 8.44394 15.7928C8.44394 15.7936 8.44394 15.7936 8.44394 15.7936C8.44394 16.1468 8.72975 16.4327 9.08296 16.4327H9.51039C10.5709 16.4327 11.43 15.5735 11.43 14.5131C11.43 14.0046 11.2278 13.5157 10.8678 13.1557C10.5077 12.7956 10.0197 12.5934 9.51039 12.5934H8.92342C8.11718 12.5934 7.34422 12.9142 6.77432 13.4841C6.20441 14.0541 5.88447 14.827 5.88447 15.6324C5.88447 15.658 5.88447 15.6827 5.88447 15.7075C5.88447 16.5785 6.23085 17.4146 6.84683 18.0306C7.46281 18.6466 8.29805 18.9921 9.16913 18.9921H9.60424C10.7671 18.9921 11.883 18.5306 12.7055 17.7081C13.5271 16.8857 13.9895 15.7706 13.9895 14.6069C13.9895 14.6069 13.9895 14.606 13.9895 14.6052C13.9895 12.0807 11.9427 10.034 9.41825 10.034H8.65553C8.13254 10.034 7.61723 10.1108 7.12582 10.2584C7.51315 9.83775 7.93034 9.4453 8.37399 9.08441V9.08441Z" fill="#982EEE"/>
<circle r="5.57977" transform="matrix(-1 0 0 1 22.3181 14.5473)" fill="#982EEE"/>
<path fill-rule="evenodd" clip-rule="evenodd" d="M22.5651 9.59021C20.0406 9.59021 17.354 12.2768 17.354 14.8013C17.354 14.8021 17.354 14.803 17.354 14.803C17.354 15.9667 18.1389 17.4043 18.9614 18.2267C19.7838 19.0492 21.2163 19.8281 22.3791 19.8281H22.8142C23.6853 19.8281 25.3737 18.8427 25.9897 18.2267C26.6057 17.6107 27.2152 17.0648 27.1018 17.4368C27.6996 16.54 27.7992 15.5436 27.7992 15.5436C27.7992 15.5436 28.3725 13.1495 26.9025 11.555C26.6619 11.2939 25.9061 10.5617 24.4115 10.1631L22.5651 9.59021Z" fill="white"/>
<path fill-rule="evenodd" clip-rule="evenodd" d="M23.5104 9.08441C23.1436 9.00763 22.763 8.96753 22.374 8.96753C19.3137 8.96753 16.8285 11.4528 16.8285 14.5131C16.8285 17.5742 19.3137 20.0586 22.374 20.0586C24.3755 20.0586 26.1305 18.9964 27.1056 17.4053C27.2191 17.0333 27.2797 16.6374 27.2797 16.2279C27.2797 15.9412 27.2797 15.652 27.2797 15.3645C27.2797 14.2904 26.8531 13.2598 26.0929 12.5005C25.3336 11.7411 24.303 11.3137 23.2289 11.3137H22.4661C20.6481 11.3137 19.1747 12.788 19.1747 14.6052C19.1747 14.606 19.1747 14.6069 19.1747 14.6069C19.1747 15.431 19.5014 16.2211 20.0841 16.8029C20.6668 17.3856 21.4569 17.7124 22.2802 17.7124H22.7153C23.2468 17.7124 23.757 17.5017 24.1332 17.1254C24.5086 16.7492 24.7202 16.2398 24.7202 15.7075C24.7202 15.6827 24.7202 15.658 24.7202 15.6324C24.7202 15.1657 24.5351 14.7187 24.2049 14.3885C23.8747 14.0592 23.4277 13.8732 22.961 13.8732H22.374C22.2042 13.8732 22.0413 13.9406 21.9218 14.0609C21.8015 14.1812 21.7341 14.3433 21.7341 14.5131C21.7341 14.8671 22.0208 15.1529 22.374 15.1529C22.4627 15.1529 22.6265 15.1529 22.8006 15.1529C23.1538 15.1529 23.4405 15.4396 23.4405 15.7928C23.4405 15.7936 23.4405 15.7936 23.4405 15.7936C23.4405 16.1468 23.1546 16.4327 22.8014 16.4327H22.374C21.3135 16.4327 20.4544 15.5735 20.4544 14.5131C20.4544 14.0046 20.6566 13.5157 21.0166 13.1557C21.3767 12.7956 21.8647 12.5934 22.374 12.5934H22.961C23.7672 12.5934 24.5402 12.9142 25.1101 13.4841C25.68 14.0541 25.9999 14.827 25.9999 15.6324C25.9999 15.658 25.9999 15.6827 25.9999 15.7075C25.9999 16.5785 25.6535 17.4146 25.0376 18.0306C24.4216 18.6466 23.5863 18.9921 22.7153 18.9921H22.2802C21.1173 18.9921 20.0014 18.5306 19.1789 17.7081C18.3573 16.8857 17.8949 15.7706 17.8949 14.6069C17.8949 14.6069 17.8949 14.606 17.8949 14.6052C17.8949 12.0807 19.9417 10.034 22.4661 10.034H23.2289C23.7519 10.034 24.2672 10.1108 24.7586 10.2584C24.3713 9.83775 23.9541 9.4453 23.5104 9.08441V9.08441Z" fill="#982EEE"/>
</g>
<defs>
<clipPath id="clip0">
<rect width="32" height="32" fill="white"/>
</clipPath>
</defs>
</svg>
