<svg width="32" height="32" viewBox="0 0 32 32" fill="none" xmlns="http://www.w3.org/2000/svg">
<g clip-path="url(#clip0)">
<path d="M31.1028 20.9925C31.1028 23.0016 30.5776 24.4276 29.7584 25.467C28.9313 26.5165 27.7418 27.251 26.2822 27.7577C23.3206 28.7858 19.5103 28.7956 16.0998 28.7956C12.6905 28.7956 8.82725 28.7862 5.81316 27.7563C4.32618 27.2482 3.11166 26.5115 2.26715 25.4604C1.43183 24.4208 0.896749 22.997 0.896749 20.9925C0.896749 17.2483 1.70245 13.3712 3.95966 10.4486C6.18461 7.56779 9.92418 5.48012 16.0998 5.48012C21.9585 5.48012 25.6574 7.57592 27.9167 10.4805C30.2055 13.4228 31.1028 17.3072 31.1028 20.9925Z" fill="#FBC546" stroke="black" stroke-width="1.7935"/>
<path d="M15.9582 22.7176V29.6923H18.1343C18.5328 29.6923 20.1928 29.6302 20.1928 29.6302V21.6216C20.1928 21.4223 18.8318 22.4187 18.1343 22.7176C17.4368 23.0166 15.9582 22.7176 15.9582 22.7176Z" fill="#009AD2"/>
<path fill-rule="evenodd" clip-rule="evenodd" d="M10.7395 21.6018C9.13982 20.3716 7.98891 18.5885 7.57257 16.54H24.2927C23.8764 18.5885 22.7255 20.3716 21.1258 21.6018C20.1771 20.5738 11.6882 20.5738 10.7395 21.6018Z" fill="#722245"/>
<path fill-rule="evenodd" clip-rule="evenodd" d="M10.7402 21.6018C11.6889 20.5737 13.0421 19.9526 14.5044 19.9526C15.4343 19.9526 16.4325 19.9526 17.3624 19.9526C18.8248 19.9526 20.1779 20.5737 21.1266 21.6018C19.6881 22.7075 17.8871 23.3653 15.9334 23.3653C13.9797 23.3653 12.1787 22.7075 10.7402 21.6018Z" fill="#CA3B8F"/>
<path d="M13.3389 12.0388C13.4372 12.2345 13.4533 12.4614 13.3838 12.6689C13.3144 12.8764 13.1662 13.0475 12.9697 13.1458C12.0575 13.6014 10.5119 14.3746 9.58194 14.8396C9.37529 14.9429 9.1373 14.9599 8.9188 14.887C8.70029 14.8142 8.51989 14.6575 8.41657 14.4517V14.4509C8.31832 14.2552 8.30223 14.0283 8.37168 13.8208C8.44113 13.6133 8.58934 13.4422 8.78583 13.3439C9.69797 12.8883 11.2436 12.115 12.1735 11.6501C12.3802 11.5467 12.6182 11.5298 12.8367 11.6026C13.0552 11.6755 13.2356 11.8322 13.3389 12.038V12.0388Z" fill="black"/>
<path d="M23.1328 12.5468C23.3293 12.6451 23.4775 12.8161 23.547 13.0236C23.6164 13.2311 23.6003 13.4581 23.5021 13.6538V13.6546C23.3988 13.8604 23.2184 14.0171 22.9999 14.0899C22.7813 14.1628 22.5434 14.1458 22.3367 14.0425C21.4068 13.5775 19.8611 12.8043 18.949 12.3486C18.7525 12.2504 18.6043 12.0793 18.5348 11.8718C18.4654 11.6643 18.4815 11.4373 18.5797 11.2417V11.2409C18.6831 11.0351 18.8634 10.8784 19.082 10.8055C19.3005 10.7327 19.5384 10.7496 19.7451 10.853C20.675 11.3179 22.2207 12.0912 23.1328 12.5468Z" fill="black"/>
</g>
<defs>
<clipPath id="clip0">
<rect width="32" height="32" fill="white"/>
</clipPath>
</defs>
</svg>
