<svg width="32" height="32" viewBox="0 0 32 32" fill="none" xmlns="http://www.w3.org/2000/svg">
<g clip-path="url(#clip0)">
<path d="M31.1028 20.9925C31.1028 23.0016 30.5776 24.4276 29.7584 25.467C28.9313 26.5165 27.7418 27.251 26.2822 27.7577C23.3206 28.7858 19.5103 28.7956 16.0998 28.7956C12.6905 28.7956 8.82725 28.7862 5.81316 27.7563C4.32618 27.2482 3.11166 26.5115 2.26715 25.4604C1.43183 24.4208 0.896749 22.997 0.896749 20.9925C0.896749 17.2483 1.70245 13.3712 3.95966 10.4486C6.18461 7.56779 9.92418 5.48012 16.0998 5.48012C21.9585 5.48012 25.6574 7.57592 27.9167 10.4805C30.2055 13.4228 31.1028 17.3072 31.1028 20.9925Z" fill="#FBC546" stroke="black" stroke-width="1.7935"/>
<path fill-rule="evenodd" clip-rule="evenodd" d="M10.6028 24.3274H10.4031C10.1071 24.3274 9.83322 24.1739 9.6771 23.9222C9.52182 23.6714 9.50817 23.3566 9.64041 23.0921C9.85285 22.6672 10.102 22.1681 10.3579 21.6562C11.3698 19.6334 13.4378 18.3553 15.6995 18.3553C15.7985 18.3553 15.8975 18.3553 15.9964 18.3553C18.2582 18.3553 20.3262 19.6334 21.3381 21.6562C21.594 22.1681 21.8431 22.6672 22.0556 23.0921C22.1878 23.3566 22.1741 23.6714 22.0189 23.9222C21.8627 24.1739 21.5889 24.3274 21.2928 24.3274H21.0932C20.1419 23.2644 11.554 23.2644 10.6028 24.3274V24.3274Z" fill="#722245"/>
<path fill-rule="evenodd" clip-rule="evenodd" d="M10.6032 24.3274C11.5545 23.2644 12.9298 22.6211 14.4194 22.6211C15.3493 22.6211 16.3475 22.6211 17.2775 22.6211C18.7671 22.6211 20.1424 23.2644 21.0936 24.3274H10.6032Z" fill="#CA3B8F"/>
<path fill-rule="evenodd" clip-rule="evenodd" d="M20.8401 15.8498L22.9432 16.5503C23.3902 16.6996 23.6317 17.1833 23.4832 17.6295C23.3339 18.0766 22.8502 18.318 22.404 18.1696L17.6818 16.5955L22.0704 12.2069C22.4031 11.8733 22.944 11.8733 23.2768 12.2069C23.6095 12.5396 23.6095 13.0805 23.2768 13.4132L20.8401 15.8498Z" fill="black"/>
<path fill-rule="evenodd" clip-rule="evenodd" d="M10.8572 15.8498L8.4206 13.4132C8.08787 13.0805 8.08787 12.5396 8.4206 12.2069C8.75333 11.8733 9.29423 11.8733 9.62696 12.2069L14.0156 16.5955L9.29338 18.1696C8.84718 18.318 8.36344 18.0766 8.21414 17.6295C8.06569 17.1833 8.30713 16.6996 8.75418 16.5503L10.8572 15.8498Z" fill="black"/>
</g>
<defs>
<clipPath id="clip0">
<rect width="32" height="32" fill="white"/>
</clipPath>
</defs>
</svg>
