<svg width="32" height="32" viewBox="0 0 32 32" fill="none" xmlns="http://www.w3.org/2000/svg">
<path d="M31.1028 20.9925C31.1028 23.0016 30.5776 24.4276 29.7584 25.467C28.9313 26.5165 27.7418 27.2511 26.2822 27.7577C23.3206 28.7859 19.5103 28.7956 16.0998 28.7956C12.6905 28.7956 8.82725 28.7862 5.81316 27.7563C4.32618 27.2482 3.11166 26.5116 2.26715 25.4605C1.43183 24.4208 0.896749 22.9971 0.896749 20.9925C0.896749 17.2445 1.70404 12.6828 4.00516 9.08874C6.27215 5.54802 10.0181 2.88955 16.0998 2.88955C21.8645 2.88955 25.569 5.55276 27.871 9.1208C30.2022 12.7339 31.1028 17.3007 31.1028 20.9925Z" fill="#FB4646" stroke="black" stroke-width="1.7935"/>
<path fill-rule="evenodd" clip-rule="evenodd" d="M10.7307 23.5303H9.65654C9.35111 23.5303 9.06871 23.3674 8.91685 23.102C8.76499 22.8376 8.76584 22.5108 8.91941 22.2472C9.0781 21.9759 9.25129 21.679 9.42874 21.3744C10.4995 19.5393 12.4634 18.4114 14.5878 18.4114C15.4102 18.4114 16.289 18.4114 17.1114 18.4114C19.2358 18.4114 21.1998 19.5393 22.2705 21.3744C22.4479 21.679 22.6211 21.9759 22.7798 22.2472C22.9334 22.5108 22.9342 22.8376 22.7824 23.102C22.6305 23.3674 22.3481 23.5303 22.0427 23.5303H20.9685L19.1692 22.9638C18.694 22.2514 13.0052 22.2514 12.53 22.9638L10.7307 23.5303V23.5303Z" fill="#4D0B0B"/>
<path fill-rule="evenodd" clip-rule="evenodd" d="M20.9677 23.5303H20.1146L19.2614 22.6772L20.1146 22.2506L20.9677 23.5303ZM11.583 22.2506L12.4362 22.6772L11.583 23.5303H10.7299L11.583 22.2506Z" fill="#801E36"/>
<path fill-rule="evenodd" clip-rule="evenodd" d="M11.583 23.1037V22.2506L11.676 22.1106C12.1512 21.3983 12.9506 20.9708 13.8063 20.9708C14.9939 20.9708 16.7037 20.9708 17.8913 20.9708C18.747 20.9708 19.5464 21.3983 20.0216 22.1106L20.1146 22.2506V23.1037H20.1103C20.0634 24.1036 19.6462 25.0523 18.9355 25.7639C18.1796 26.5189 17.1558 26.9429 16.0877 26.9429C15.929 26.9429 15.7686 26.9429 15.6099 26.9429C14.5418 26.9429 13.518 26.5189 12.7621 25.7639C12.0514 25.0523 11.6342 24.1036 11.5873 23.1037H11.583Z" fill="#9A1756"/>
<path fill-rule="evenodd" clip-rule="evenodd" d="M20.8409 15.0521L22.9439 15.7534C23.391 15.9018 23.6324 16.3856 23.484 16.8326C23.3347 17.2788 22.8509 17.5211 22.4047 17.3718L17.6825 15.7977L22.0711 11.4091C22.4039 11.0764 22.9448 11.0764 23.2775 11.4091C23.6102 11.7418 23.6102 12.2827 23.2775 12.6155L20.8409 15.0521V15.0521ZM10.8572 15.0521L8.42063 12.6155C8.0879 12.2827 8.0879 11.7418 8.42063 11.4091C8.75336 11.0764 9.29426 11.0764 9.627 11.4091L14.0156 15.7977L9.29341 17.3718C8.84721 17.5211 8.36347 17.2788 8.21417 16.8326C8.06572 16.3856 8.30716 15.9018 8.75422 15.7534L10.8572 15.0521V15.0521Z" fill="black"/>
<path fill-rule="evenodd" clip-rule="evenodd" d="M22.9169 5.48018C23.9133 6.07801 24.7072 6.76973 25.3083 7.27367C27.2557 9.05345 28.0981 11.0599 29.0308 13.6952C28.6213 13.8151 28.1964 13.886 27.7641 13.9053C26.3404 13.969 24.9492 13.4648 23.8976 12.5032C23.8976 12.5032 23.8975 12.5022 23.8965 12.5022C22.1928 10.9434 21.9205 8.46932 22.6162 6.35999L22.9169 5.48018Z" fill="#DC2A2A"/>
<path fill-rule="evenodd" clip-rule="evenodd" d="M6.97475 6.97473C6.97474 6.77545 5.0816 9.06714 3.98556 9.7646C2.60372 11.5163 3.98603 8.45492 3.38774 11.4585C3.1884 13.0527 2.88955 13.252 2.39135 15.5437C2.39135 15.5437 2.84705 15.6198 3.27678 15.569C4.69206 15.4015 5.98336 14.679 6.86565 13.5599C6.86565 13.5599 6.86553 13.5589 6.86654 13.5588C8.29569 11.7449 8.16421 9.25941 7.1365 7.29037L6.97475 6.97473Z" fill="#DC2A2A"/>
<path fill-rule="evenodd" clip-rule="evenodd" d="M27.2927 1.19568C27.2927 1.19568 25.5079 4.76516 24.3042 7.17258C23.6622 8.45654 23.9141 10.0066 24.9289 11.0214C24.9289 11.0214 24.9289 11.0214 24.9299 11.0224C25.5567 11.6492 26.4059 12.0006 27.2927 12.0006C28.1794 12.0006 29.0286 11.6492 29.6554 11.0224C29.6564 11.0214 29.6564 11.0214 29.6564 11.0214C30.6712 10.0066 30.9231 8.45654 30.2811 7.17258C29.0774 4.76516 27.2927 1.19568 27.2927 1.19568Z" fill="#2AC2F9"/>
<path fill-rule="evenodd" clip-rule="evenodd" d="M3.34057 2.98914C3.34057 2.98914 1.55582 6.55862 0.352114 8.96604C-0.289865 10.25 -0.0379498 11.8001 0.976824 12.8149C0.976824 12.8149 0.976824 12.8149 0.977839 12.8159C1.60458 13.4426 2.45378 13.7941 3.34057 13.7941C4.22735 13.7941 5.07655 13.4426 5.70329 12.8159C5.70431 12.8149 5.70431 12.8149 5.70431 12.8149C6.71908 11.8001 6.971 10.25 6.32902 8.96604C5.12531 6.55862 3.34057 2.98914 3.34057 2.98914Z" fill="#2AC2F9"/>
</svg>
