<svg width="32" height="32" viewBox="0 0 32 32" fill="none" xmlns="http://www.w3.org/2000/svg">
<g clip-path="url(#clip0)">
<path d="M31.1028 20.9925C31.1028 23.0016 30.5776 24.4276 29.7584 25.467C28.9313 26.5165 27.7418 27.2511 26.2822 27.7577C23.3206 28.7859 19.5103 28.7956 16.0998 28.7956C12.6905 28.7956 8.82725 28.7862 5.81316 27.7563C4.32618 27.2482 3.11166 26.5116 2.26715 25.4605C1.43183 24.4208 0.896749 22.9971 0.896749 20.9925C0.896749 17.2445 1.70404 12.6828 4.00516 9.08874C6.27215 5.54802 10.0181 2.88955 16.0998 2.88955C21.8645 2.88955 25.569 5.55276 27.871 9.1208C30.2022 12.7339 31.1028 17.3007 31.1028 20.9925Z" fill="#FBC546" stroke="black" stroke-width="1.7935"/>
<path d="M11.7512 20.2018C12.8441 21.2947 14.3251 21.9081 15.8702 21.9081C15.9683 21.9081 16.0656 21.9081 16.1637 21.9081C17.7088 21.9081 19.1898 21.2947 20.2827 20.2018" stroke="#593604" stroke-width="1.70631" stroke-miterlimit="1.5" stroke-linecap="round" stroke-linejoin="round"/>
<path d="M10.0448 18.4954C12.4008 18.4954 14.3106 16.5856 14.3106 14.2297C14.3106 11.8737 12.4008 9.96387 10.0448 9.96387C7.68891 9.96387 5.77905 11.8737 5.77905 14.2297C5.77905 16.5856 7.68891 18.4954 10.0448 18.4954Z" fill="white"/>
<path d="M22.0015 18.4954C24.3574 18.4954 26.2673 16.5856 26.2673 14.2297C26.2673 11.8737 24.3574 9.96387 22.0015 9.96387C19.6456 9.96387 17.7357 11.8737 17.7357 14.2297C17.7357 16.5856 19.6456 18.4954 22.0015 18.4954Z" fill="white"/>
<path fill-rule="evenodd" clip-rule="evenodd" d="M23.6953 14.2296C23.6953 13.2877 22.9318 12.5233 21.989 12.5233H21.9566C21.513 12.5233 21.0872 12.6999 20.7733 13.0139C20.4593 13.3278 20.2827 13.7536 20.2827 14.1972V14.2621C20.2827 14.7065 20.4593 15.1323 20.7733 15.4462C21.0872 15.7602 21.513 15.9359 21.9566 15.9359H21.989C22.9318 15.9359 23.6953 15.1724 23.6953 14.2296Z" fill="black"/>
<path fill-rule="evenodd" clip-rule="evenodd" d="M11.7511 14.2296C11.7511 13.2877 10.9876 12.5233 10.0448 12.5233H10.0124C9.56875 12.5233 9.14303 12.6999 8.82907 13.0139C8.5151 13.3278 8.3385 13.7536 8.3385 14.1972V14.2621C8.3385 14.7065 8.5151 15.1323 8.82907 15.4462C9.14303 15.7602 9.56875 15.9359 10.0124 15.9359H10.0448C10.9876 15.9359 11.7511 15.1724 11.7511 14.2296Z" fill="black"/>
<path fill-rule="evenodd" clip-rule="evenodd" d="M22.9169 5.48018C23.9133 6.07801 24.7072 6.76973 25.3083 7.27367C27.2557 9.05345 28.0981 11.0599 29.0308 13.6952C28.6213 13.8151 28.1964 13.886 27.7641 13.9053C26.3404 13.969 24.9492 13.4648 23.8976 12.5032C23.8976 12.5032 23.8975 12.5022 23.8965 12.5022C22.1928 10.9434 21.9205 8.46932 22.6162 6.35999L22.9169 5.48018Z" fill="#E59A10" fill-opacity="0.5"/>
<path fill-rule="evenodd" clip-rule="evenodd" d="M27.2927 1.19568C27.2927 1.19568 25.5079 4.76516 24.3042 7.17258C23.6622 8.45654 23.9141 10.0066 24.9289 11.0214C24.9289 11.0214 24.9289 11.0214 24.9299 11.0224C25.5567 11.6492 26.4059 12.0006 27.2927 12.0006C28.1794 12.0006 29.0286 11.6492 29.6554 11.0224C29.6564 11.0214 29.6564 11.0214 29.6564 11.0214C30.6712 10.0066 30.9231 8.45654 30.2811 7.17258C29.0774 4.76516 27.2927 1.19568 27.2927 1.19568Z" fill="#2AC2F9"/>
</g>
<defs>
<clipPath id="clip0">
<rect width="32" height="32" fill="white"/>
</clipPath>
</defs>
</svg>
