<svg width="32" height="32" viewBox="0 0 32 32" fill="none" xmlns="http://www.w3.org/2000/svg">
<path d="M31.1028 20.9925C31.1028 23.0016 30.5776 24.4275 29.7584 25.467C28.9313 26.5164 27.7418 27.251 26.2822 27.7577C23.3206 28.7858 19.5103 28.7956 16.0998 28.7956C12.6905 28.7956 8.82725 28.7861 5.81316 27.7563C4.32618 27.2482 3.11166 26.5115 2.26715 25.4604C1.43183 24.4207 0.896749 22.997 0.896749 20.9925C0.896749 18.3227 1.30576 16.2266 2.40932 13.8498H29.483C30.6416 16.2482 31.1028 18.3494 31.1028 20.9925Z" fill="#FBC546" stroke="black" stroke-width="1.7935"/>
<path fill-rule="evenodd" clip-rule="evenodd" d="M15.9698 3.68665L14.4459 7.49636L9.11233 5.21053L10.6362 8.25831L5.30261 9.02025L9.87428 11.3061L6.8265 14.3539H11.3982L9.11233 16.6397H22.8273L20.5415 14.3539H25.1132L22.0654 11.3061L26.637 9.02025L21.3034 8.25831L22.8273 5.21053L17.4937 7.49636L15.9698 3.68665Z" fill="#F30800"/>
<path fill-rule="evenodd" clip-rule="evenodd" d="M15.964 0L18.3713 5.37759L26.2155 2.01581L23.7299 6.98694L31.9397 8.15976L24.7694 11.7449L26.6943 13.6505V15.9556H24.4085H7.5312H5.0649V13.8502L7.17026 11.7449L0 8.15976L8.20973 6.98694L5.72416 2.01581L13.5683 5.37759L15.964 0ZM14.4459 7.49637L9.11234 5.21054L10.6362 8.25831L5.30262 9.02026L9.87428 11.3061L6.8265 14.3539H11.3982L9.11234 16.6397H22.8273L20.5415 14.3539H25.1132L22.0654 11.3061L26.637 9.02026L21.3034 8.25831L22.8273 5.21054L17.4937 7.49637L15.9698 3.68665L14.4459 7.49637Z" fill="black"/>
<path fill-rule="evenodd" clip-rule="evenodd" d="M15.9698 6.7345L14.4459 9.02033L11.3981 7.49644L12.922 9.78227H9.1123L12.1601 11.3062L9.87425 13.592H12.922L11.3981 15.8778L14.4459 15.1159L15.9698 16.6398L17.4937 15.1159L19.7795 15.8778L19.0176 13.592H22.0654L19.7795 11.3062L22.8273 9.78227H19.0176L20.5415 7.49644L17.4937 9.02033L15.9698 6.7345V6.7345Z" fill="#FFA32B"/>
<path fill-rule="evenodd" clip-rule="evenodd" d="M2.59064 14.4476V13.3497C2.59064 12.3192 3.00029 11.3324 3.72747 10.6039L3.72816 10.6032C4.4564 9.87495 5.14771 9.56531 6.17763 9.56531L8.17041 11.3782L6.57619 14.4476H2.59064ZM4.50317 11.3782C4.24902 11.6328 4.04896 11.9312 3.91049 12.2556C3.76422 12.5982 3.68666 12.9699 3.68666 13.3497V13.3516H6.47655V10.5617H6.47469C6.09503 10.5617 5.72321 10.6392 5.38052 10.7854C5.0559 10.9238 4.75742 11.124 4.50317 11.3782Z" fill="black"/>
<path d="M21.7773 4.8449C22.6612 4.8449 23.3777 4.12835 23.3777 3.24445C23.3777 2.36055 22.6612 1.644 21.7773 1.644C20.8934 1.644 20.1768 2.36055 20.1768 3.24445C20.1768 4.12835 20.8934 4.8449 21.7773 4.8449Z" fill="#FBC546" stroke="black" stroke-width="1.09603"/>
<path fill-rule="evenodd" clip-rule="evenodd" d="M3.68665 13.3517V13.3498C3.68665 12.6105 3.98051 11.9018 4.50315 11.3783C5.02579 10.8556 5.73535 10.5618 6.47467 10.5618H6.47653V13.3517H3.68665Z" fill="#FBC546"/>
<path fill-rule="evenodd" clip-rule="evenodd" d="M28.422 11.3394L27.5688 13.0457L25.0093 12.1925C25.0093 12.1925 25.1578 12.0441 25.3668 11.835C26.1722 11.0297 27.4033 10.83 28.422 11.3394Z" fill="#FBC546"/>
<path fill-rule="evenodd" clip-rule="evenodd" d="M28.9121 10.359L29.8925 10.8492L28.124 14.386L24.1126 11.835L24.2343 11.4175L25.0094 12.1925L27.5688 13.0457L28.422 11.3393L28.4218 11.3392C28.0758 11.1663 27.7054 11.0751 27.3354 11.0617C26.8732 11.0449 26.4118 11.1494 25.9999 11.3673C25.7707 11.4886 25.5569 11.6449 25.3668 11.835L25.0094 12.1925L24.2343 11.4175L24.5918 11.06C25.7309 9.92098 27.4716 9.63875 28.9121 10.359Z" fill="black"/>
<path d="M12.1858 9.7176L11.9065 9.99683L12.0831 10.35L13.0214 12.2266L13.2664 12.7166L13.7565 12.4716L15.633 11.5333L16.3129 11.1934L15.7754 10.6559L13.8989 8.77933L13.5114 8.39191L13.124 8.77933L12.1858 9.7176Z" fill="#FBC546" stroke="black" stroke-width="1.09578"/>
<path d="M13.4404 2.80292L12.9705 2.52097C11.6847 1.7495 10.0486 1.8872 8.91004 2.86313L8.60372 3.12568L8.51569 3.20113L8.49225 3.22122L8.48622 3.22639L8.48468 3.22771L8.4843 3.22804L8.4842 3.22812L8.48418 3.22814L8.48417 3.22815L8.84081 3.64423L8.48417 3.22815L7.81093 3.8052L8.62814 4.1493L11.3869 5.3109L11.8249 5.49535L12.0695 5.08779L13.1584 3.27284L13.4404 2.80292Z" fill="#FBC546" stroke="black" stroke-width="1.09603"/>
<path d="M3.18842 14.7466H28.6959V21.3227H3.18842V14.7466Z" fill="#FBC546"/>
<path fill-rule="evenodd" clip-rule="evenodd" d="M12.3132 26.5039H11.0281C10.6201 26.5039 10.2427 26.2934 10.0275 25.9466C9.81356 25.5997 9.79474 25.1671 9.97698 24.8026C10.3074 24.1407 10.6977 23.3611 11.0751 22.6051C12.0428 20.6711 14.018 19.4495 16.1802 19.4495C18.3424 19.4495 20.3176 20.6711 21.2852 22.6051C21.6626 23.3611 22.053 24.1407 22.3834 24.8026C22.5656 25.1671 22.5468 25.5997 22.3328 25.9466C22.1177 26.2934 21.7402 26.5039 21.3323 26.5039H20.0472C18.2201 26.1465 16.9421 26.177 16.0544 26.177C15.1255 26.1759 13.7158 26.2252 12.3132 26.5039Z" fill="#722245"/>
<path fill-rule="evenodd" clip-rule="evenodd" d="M12.3143 26.5039C13.4347 25.7537 14.7727 25.3281 16.1813 25.3281C17.5898 25.3281 18.9278 25.7537 20.0483 26.5039H12.3143V26.5039Z" fill="#CA3B8F"/>
<path d="M9.41587 21.2231C11.2043 21.2231 12.6541 19.7733 12.6541 17.9848C12.6541 16.1964 11.2043 14.7466 9.41587 14.7466C7.62743 14.7466 6.17761 16.1964 6.17761 17.9848C6.17761 19.7733 7.62743 21.2231 9.41587 21.2231Z" fill="white"/>
<path fill-rule="evenodd" clip-rule="evenodd" d="M11.3588 18.0051C11.3588 17.4896 11.1542 16.9948 10.7902 16.6308C10.4249 16.2668 9.93139 16.0621 9.41586 16.0621C8.90033 16.0621 8.40682 16.2668 8.04154 16.6308C7.67756 16.9948 7.4729 17.4896 7.4729 18.0051V18.0284C7.4729 18.5439 7.67756 19.0374 8.04154 19.4014C8.40682 19.7667 8.90033 19.9714 9.41586 19.9714C9.93139 19.9714 10.4249 19.7667 10.7902 19.4014C11.1542 19.0374 11.3588 18.5439 11.3588 18.0284V18.0051Z" fill="black"/>
<path d="M22.9667 21.2231C24.7552 21.2231 26.205 19.7733 26.205 17.9848C26.205 16.1964 24.7552 14.7466 22.9667 14.7466C21.1783 14.7466 19.7285 16.1964 19.7285 17.9848C19.7285 19.7733 21.1783 21.2231 22.9667 21.2231Z" fill="white"/>
<path fill-rule="evenodd" clip-rule="evenodd" d="M24.9097 18.0051C24.9097 17.4896 24.7051 16.9948 24.3411 16.6308C23.9758 16.2668 23.4823 16.0621 22.9668 16.0621C22.4512 16.0621 21.9577 16.2668 21.5924 16.6308C21.2285 16.9948 21.0238 17.4896 21.0238 18.0051V18.0284C21.0238 18.5439 21.2285 19.0374 21.5924 19.4014C21.9577 19.7667 22.4512 19.9714 22.9668 19.9714C23.4823 19.9714 23.9758 19.7667 24.3411 19.4014C24.7051 19.0374 24.9097 18.5439 24.9097 18.0284V18.0051Z" fill="black"/>
</svg>
