<svg width="32" height="32" viewBox="0 0 32 32" fill="none" xmlns="http://www.w3.org/2000/svg">
<path d="M31.1028 20.9925C31.1028 23.0016 30.5776 24.4276 29.7584 25.467C28.9313 26.5165 27.7418 27.2511 26.2822 27.7577C23.3206 28.7859 19.5103 28.7956 16.0998 28.7956C12.6905 28.7956 8.82725 28.7862 5.81316 27.7563C4.32618 27.2482 3.11166 26.5116 2.26715 25.4605C1.43183 24.4208 0.896749 22.9971 0.896749 20.9925C0.896749 17.2445 1.70404 12.6828 4.00516 9.08874C6.27215 5.54802 10.0181 2.88955 16.0998 2.88955C21.8645 2.88955 25.569 5.55276 27.871 9.1208C30.2022 12.7339 31.1028 17.3007 31.1028 20.9925Z" fill="#FBC546" stroke="black" stroke-width="1.7935"/>
<path fill-rule="evenodd" clip-rule="evenodd" d="M12.9921 23.0339C12.6748 22.516 12.4922 21.9068 12.4922 21.2542C12.4922 19.3696 14.0202 17.8416 15.9048 17.8416C17.7894 17.8416 19.3174 19.3696 19.3174 21.2542C19.3174 21.9068 19.1349 22.516 18.8175 23.0339C17.984 22.4443 13.8257 22.4443 12.9921 23.0339V23.0339Z" fill="#722245"/>
<path fill-rule="evenodd" clip-rule="evenodd" d="M12.9921 23.0338C13.8257 22.4443 14.8375 22.1073 15.9048 22.1073C16.9721 22.1073 17.9839 22.4443 18.8175 23.0338C18.2177 24.0133 17.1376 24.6668 15.9048 24.6668C14.672 24.6668 13.5919 24.0133 12.9921 23.0338Z" fill="#CA3B8F"/>
<path fill-rule="evenodd" clip-rule="evenodd" d="M10.361 17.8416C11.1528 17.8416 11.9112 17.5277 12.4709 16.968C13.0306 16.4083 13.3454 15.649 13.3454 14.8573C13.3454 14.2968 13.3454 13.7106 13.3454 13.1493C13.3454 11.5001 12.0085 10.1632 10.3593 10.1632H10.3576C9.56591 10.1632 8.80745 10.478 8.24778 11.0377C7.68811 11.5974 7.37329 12.3567 7.37329 13.1476C7.37329 13.7089 7.37329 14.295 7.37329 14.8556C7.37329 16.5047 8.71019 17.8416 10.3593 17.8416H10.361V17.8416Z" fill="white"/>
<path fill-rule="evenodd" clip-rule="evenodd" d="M9.07959 12.7225C9.07959 12.2704 9.25961 11.8361 9.57954 11.5162C9.89947 11.1963 10.3337 11.0162 10.7859 11.0162C11.2381 11.0162 11.6723 11.1963 11.9923 11.5162C12.3122 11.8361 12.4922 12.2704 12.4922 12.7225C12.4922 13.5211 12.4922 14.4698 12.4922 15.2684C12.4922 15.7205 12.3122 16.1548 11.9923 16.4747C11.6723 16.7947 11.2381 16.9747 10.7859 16.9747C10.3337 16.9747 9.89947 16.7947 9.57954 16.4747C9.25961 16.1548 9.07959 15.7205 9.07959 15.2684C9.07959 14.4698 9.07959 13.5211 9.07959 12.7225Z" fill="black"/>
<path fill-rule="evenodd" clip-rule="evenodd" d="M21.4487 17.8416C20.657 17.8416 19.8985 17.5277 19.3388 16.968C18.7792 16.4083 18.4644 15.649 18.4644 14.8573C18.4644 14.2968 18.4644 13.7106 18.4644 13.1493C18.4644 11.5001 19.8013 10.1632 21.4504 10.1632H21.4521C22.2438 10.1632 23.0023 10.478 23.562 11.0377C24.1216 11.5974 24.4365 12.3567 24.4365 13.1476C24.4365 13.7089 24.4365 14.295 24.4365 14.8556C24.4365 16.5047 23.0996 17.8416 21.4504 17.8416H21.4487Z" fill="white"/>
<path fill-rule="evenodd" clip-rule="evenodd" d="M22.7301 12.7225C22.7301 12.2704 22.5501 11.8361 22.2302 11.5162C21.9102 11.1963 21.476 11.0162 21.0238 11.0162C20.5716 11.0162 20.1374 11.1963 19.8175 11.5162C19.4975 11.8361 19.3175 12.2704 19.3175 12.7225C19.3175 13.5211 19.3175 14.4698 19.3175 15.2684C19.3175 15.7205 19.4975 16.1548 19.8175 16.4747C20.1374 16.7947 20.5716 16.9747 21.0238 16.9747C21.476 16.9747 21.9102 16.7947 22.2302 16.4747C22.5501 16.1548 22.7301 15.7205 22.7301 15.2684C22.7301 14.4698 22.7301 13.5211 22.7301 12.7225Z" fill="black"/>
</svg>
