<svg width="32" height="32" viewBox="0 0 32 32" fill="none" xmlns="http://www.w3.org/2000/svg">
<path d="M31.1028 20.9924C31.1028 23.0015 30.5776 24.4275 29.7584 25.4669C28.9313 26.5164 27.7418 27.2509 26.2822 27.7576C23.3206 28.7857 19.5103 28.7955 16.0998 28.7955C12.6905 28.7955 8.82725 28.7861 5.81316 27.7562C4.32618 27.2481 3.11166 26.5114 2.26715 25.4603C1.43183 24.4207 0.896749 22.9969 0.896749 20.9924C0.896749 17.2444 1.70404 12.6826 4.00516 9.08862C6.27215 5.5479 10.0181 2.88943 16.0998 2.88943C21.8645 2.88943 25.569 5.55264 27.871 9.12067C30.2022 12.7337 31.1028 17.3006 31.1028 20.9924Z" fill="#FBC546" stroke="black" stroke-width="1.7935"/>
<path fill-rule="evenodd" clip-rule="evenodd" d="M16.0417 21.5456L13.9558 22.9363C13.5633 23.1974 13.0335 23.0916 12.7724 22.6991C12.5114 22.3075 12.6172 21.7777 13.0088 21.5166L15.5682 19.8103C15.8549 19.6192 16.2286 19.6192 16.5152 19.8103L19.0747 21.5166C19.4663 21.7777 19.5721 22.3075 19.311 22.6991C19.05 23.0916 18.5202 23.1974 18.1277 22.9363L16.0417 21.5456Z" fill="#593604"/>
<path fill-rule="evenodd" clip-rule="evenodd" d="M20.4552 9.52696C20.3827 9.74793 20.8648 10.6685 21.7606 11.2222C22.5992 11.7409 23.7092 11.7392 23.7032 11.6923L25.4266 12.8415V14.1212C25.4266 15.139 25.0222 16.1159 24.3021 16.836C23.5821 17.556 22.6052 17.9604 21.5874 17.9604C20.5696 17.9604 19.5927 17.556 18.8726 16.836C18.1526 16.1159 17.7482 15.139 17.7482 14.1212C17.7482 13.5573 17.7482 12.9763 17.7482 12.4132C17.7482 11.3954 18.1526 10.4194 18.8718 9.6993C19.1311 9.44079 19.4229 9.22239 19.7386 9.04919L20.4552 9.52696V9.52696Z" fill="white"/>
<path fill-rule="evenodd" clip-rule="evenodd" d="M20.4552 9.52917L23.7032 11.6945C23.7143 11.7917 23.7203 11.8899 23.7203 11.9888C23.7203 12.5434 23.7203 13.1295 23.7203 13.6841C23.7203 14.3623 23.4507 15.0133 22.9712 15.4927C22.4917 15.9722 21.8408 16.2418 21.1625 16.2418H21.1591C20.4808 16.2418 19.8299 15.9722 19.3504 15.4927C18.8709 15.0133 18.6013 14.3623 18.6013 13.6841C18.6013 13.1295 18.6013 12.5434 18.6013 11.9888C18.6013 11.3106 18.8709 10.6596 19.3504 10.1801C19.6601 9.87044 20.0414 9.64776 20.4552 9.52917V9.52917Z" fill="black"/>
<path fill-rule="evenodd" clip-rule="evenodd" d="M11.6285 9.52696C11.701 9.74793 11.219 10.6685 10.3232 11.2222C9.4845 11.7409 8.37454 11.7392 8.38051 11.6923L6.65714 12.8415V14.1212C6.65714 15.139 7.06153 16.1159 7.7816 16.836C8.50166 17.556 9.47853 17.9604 10.4963 17.9604C11.5142 17.9604 12.491 17.556 13.2111 16.836C13.9312 16.1159 14.3356 15.139 14.3356 14.1212C14.3356 13.5573 14.3356 12.9763 14.3356 12.4132C14.3356 11.3954 13.9312 10.4194 13.2119 9.6993C12.9526 9.44079 12.6608 9.22239 12.3451 9.04919L11.6285 9.52696V9.52696Z" fill="white"/>
<path fill-rule="evenodd" clip-rule="evenodd" d="M11.6285 9.52917L8.3805 11.6945C8.36941 11.7917 8.36343 11.8899 8.36343 11.9888C8.36343 12.5434 8.36343 13.1295 8.36343 13.6841C8.36343 14.3623 8.63303 15.0133 9.11251 15.4927C9.59198 15.9722 10.2429 16.2418 10.9212 16.2418H10.9246C11.6029 16.2418 12.2538 15.9722 12.7333 15.4927C13.2128 15.0133 13.4824 14.3623 13.4824 13.6841C13.4824 13.1295 13.4824 12.5434 13.4824 11.9888C13.4824 11.3106 13.2128 10.6596 12.7333 10.1801C12.4236 9.87044 12.0422 9.64776 11.6285 9.52917Z" fill="black"/>
</svg>
