<svg width="32" height="32" viewBox="0 0 32 32" fill="none" xmlns="http://www.w3.org/2000/svg">
<path d="M31.1028 20.9925C31.1028 23.0016 30.5776 24.4276 29.7584 25.467C28.9313 26.5165 27.7418 27.2511 26.2822 27.7577C23.3206 28.7859 19.5103 28.7956 16.0998 28.7956C12.6905 28.7956 8.82725 28.7862 5.81316 27.7563C4.32618 27.2482 3.11166 26.5116 2.26715 25.4605C1.43183 24.4208 0.896749 22.9971 0.896749 20.9925C0.896749 17.2445 1.70404 12.6828 4.00516 9.08874C6.27215 5.54802 10.0181 2.88955 16.0998 2.88955C21.8645 2.88955 25.569 5.55276 27.871 9.1208C30.2022 12.7339 31.1028 17.3007 31.1028 20.9925Z" fill="#FBC546" stroke="black" stroke-width="1.7935"/>
<path d="M16.0998 1.9928C8.37739 1.9928 3.36379 8.29791 1.19568 13.252C1.19568 13.252 3.08882 10.761 16.0998 10.761C29.1107 10.761 30.7884 13.252 30.7884 13.252C28.5575 8.30756 23.4433 1.9928 16.0998 1.9928Z" fill="#7AAFFF"/>
<path fill-rule="evenodd" clip-rule="evenodd" d="M24.5738 6.55731C24.834 6.77657 25.0857 7.00692 25.328 7.25007C26.0233 7.94454 26.6231 8.7158 27.1204 9.54336V11.0031C27.1204 11.3427 26.9856 11.6677 26.7459 11.9083C26.5053 12.1481 26.1803 12.2828 25.8407 12.2828C25.5012 12.2828 25.1761 12.1481 24.9355 11.9083C24.6958 11.6677 24.561 11.3427 24.561 11.0031C24.561 9.7831 24.561 7.95734 24.561 6.73733C24.561 6.67675 24.5652 6.61618 24.5738 6.55731ZM21.2337 4.57201C22.1047 4.91242 22.9357 5.35606 23.7078 5.89355V10.15C23.7078 10.4895 23.573 10.8146 23.3333 11.0552C23.0927 11.2949 22.7676 11.4297 22.4281 11.4297C22.0885 11.4297 21.7635 11.2949 21.5229 11.0552C21.2831 10.8146 21.1483 10.4895 21.1483 10.15C21.1483 8.72945 21.1483 6.45152 21.1483 5.03101C21.1483 4.87232 21.1774 4.71705 21.2337 4.57201ZM17.7971 3.78625C18.6486 3.85195 19.4855 4.00808 20.2952 4.24952V9.2968C20.2952 9.63635 20.1604 9.96141 19.9207 10.202C19.6801 10.4417 19.355 10.5765 19.0155 10.5765C18.6759 10.5765 18.3508 10.4417 18.1103 10.202C17.8705 9.96141 17.7357 9.63635 17.7357 9.2968C17.7357 7.87629 17.7357 5.59836 17.7357 4.17785C17.7357 4.04391 17.757 3.91167 17.7971 3.78625V3.78625Z" fill="#3988FF"/>
<path fill-rule="evenodd" clip-rule="evenodd" d="M2.98915 13.3516C2.23109 13.3516 1.85406 13.5509 1.09601 13.5509C1.39492 12.4549 2.51319 9.84727 2.84808 9.26643C5.22073 5.1513 9.33253 1.9928 16.0997 1.9928C22.5335 1.9928 26.6034 5.1573 29.0132 9.26643C29.354 9.84747 31.0873 13.4513 30.7884 13.5509L28.7956 12.7538L26.8934 9.26643C24.7079 6.0689 21.2948 3.7863 16.0997 3.7863C12.5749 3.7863 9.95158 4.71857 7.98309 6.12714C6.77955 6.98834 5.80128 7.75751 4.98192 8.96751C4.56181 9.66792 4.48373 9.36607 2.98915 13.3516Z" fill="black"/>
<path fill-rule="evenodd" clip-rule="evenodd" d="M10.6097 23.6914C10.3469 23.7239 10.0798 23.6317 9.8913 23.4363C9.66351 23.2 9.59184 22.8528 9.70702 22.5448C9.85461 22.1515 10.0176 21.7155 10.1856 21.2693C11.0593 18.9385 13.2877 17.3943 15.7772 17.3943C15.8617 17.3943 15.947 17.3943 16.0315 17.3943C18.521 17.3943 20.7494 18.9385 21.6231 21.2693C21.7911 21.7155 21.9541 22.1515 22.1017 22.5448C22.2169 22.8528 22.1452 23.2 21.9174 23.4363C21.7289 23.6317 21.4618 23.7239 21.199 23.6914C20.6394 22.8229 18.2138 22.1643 15.9044 22.1455C13.4933 22.1259 11.1941 22.7845 10.6097 23.6914V23.6914Z" fill="#722245"/>
<path fill-rule="evenodd" clip-rule="evenodd" d="M15.9048 20.807C18.071 20.807 20.0537 21.9161 21.1986 23.6915C21.1432 23.6847 21.0869 23.6719 21.0323 23.654C20.4308 23.4535 19.7568 23.2291 19.1673 23.032C18.1358 22.6882 17.0566 22.5133 15.9696 22.5133H15.8383C14.7513 22.5133 13.6721 22.6882 12.6406 23.032C12.0511 23.2291 11.3771 23.4535 10.7756 23.654C10.721 23.6719 10.6647 23.6847 10.6093 23.6915C11.7542 21.9161 13.7369 20.807 15.9031 20.807H15.9048Z" fill="#CA3B8F"/>
<path fill-rule="evenodd" clip-rule="evenodd" d="M21.6773 11.5526L21.7908 11.7241L22.0484 11.7642L24.4364 13.1292V14.4107C24.4364 15.2024 24.1216 15.9608 23.5619 16.5205C23.0022 17.0802 22.2438 17.395 21.4521 17.395H21.4503C19.8012 17.395 18.4643 16.0581 18.4643 14.409C18.4643 13.8484 18.4643 13.2615 18.4643 12.7009C18.4643 11.9092 18.7791 11.1507 19.3388 10.5911C19.4198 10.5092 19.5051 10.4332 19.5947 10.3624L21.6773 11.5526V11.5526Z" fill="white"/>
<path fill-rule="evenodd" clip-rule="evenodd" d="M22.0484 11.7635C22.4622 12.0749 22.7301 12.5706 22.7301 13.1286V13.9672C22.7301 14.4202 22.5501 14.8536 22.2301 15.1744C21.9102 15.4944 21.4759 15.6735 21.0238 15.6735C20.081 15.6735 19.3174 14.9099 19.3174 13.9672V13.1286C19.3174 12.6764 19.4975 12.2421 19.8174 11.9222C20.1373 11.6023 20.5716 11.4222 21.0238 11.4222C21.255 11.4222 21.4759 11.4683 21.6773 11.5519L22.0484 11.7635V11.7635Z" fill="black"/>
<path fill-rule="evenodd" clip-rule="evenodd" d="M10.1324 11.5526L10.0189 11.7241L9.76128 11.7642L7.37329 13.1292V14.4107C7.37329 15.2024 7.68811 15.9608 8.24778 16.5205C8.80745 17.0802 9.56591 17.395 10.3576 17.395H10.3593C12.0085 17.395 13.3454 16.0581 13.3454 14.409C13.3454 13.8484 13.3454 13.2615 13.3454 12.7009C13.3454 11.9092 13.0306 11.1507 12.4709 10.5911C12.3899 10.5092 12.3045 10.4332 12.215 10.3624L10.1324 11.5526V11.5526Z" fill="white"/>
<path fill-rule="evenodd" clip-rule="evenodd" d="M9.76126 11.7635C9.34748 12.0749 9.07959 12.5706 9.07959 13.1286V13.9672C9.07959 14.4202 9.25961 14.8536 9.57954 15.1744C9.89947 15.4944 10.3337 15.6735 10.7859 15.6735C11.7286 15.6735 12.4922 14.9099 12.4922 13.9672V13.1286C12.4922 12.6764 12.3122 12.2421 11.9923 11.9222C11.6723 11.6023 11.2381 11.4222 10.7859 11.4222C10.5547 11.4222 10.3337 11.4683 10.1324 11.5519L9.76126 11.7635V11.7635Z" fill="black"/>
</svg>
