<svg width="32" height="32" viewBox="0 0 32 32" fill="none" xmlns="http://www.w3.org/2000/svg">
<path d="M31.1028 20.9925C31.1028 23.0016 30.5776 24.4276 29.7584 25.467C28.9313 26.5165 27.7418 27.2511 26.2822 27.7577C23.3206 28.7859 19.5103 28.7956 16.0998 28.7956C12.6905 28.7956 8.82725 28.7862 5.81316 27.7563C4.32618 27.2482 3.11166 26.5116 2.26715 25.4605C1.43183 24.4208 0.896749 22.9971 0.896749 20.9925C0.896749 17.2445 1.70404 12.6828 4.00516 9.08874C6.27215 5.54802 10.0181 2.88955 16.0998 2.88955C21.8645 2.88955 25.569 5.55276 27.871 9.1208C30.2022 12.7339 31.1028 17.3007 31.1028 20.9925Z" fill="#FBC546" stroke="black" stroke-width="1.7935"/>
<path d="M16.0998 1.9928C8.37739 1.9928 3.36379 8.29791 1.19568 13.252C1.19568 13.252 3.08882 9.76463 16.0998 9.76463C29.1107 9.76463 30.7884 13.252 30.7884 13.252C28.5575 8.30756 23.4433 1.9928 16.0998 1.9928Z" fill="#7AAFFF"/>
<path fill-rule="evenodd" clip-rule="evenodd" d="M24.5738 6.55731C24.834 6.77657 25.0857 7.00692 25.328 7.25007C26.0233 7.94454 26.6231 8.7158 27.1204 9.54336V10.0791C27.1204 10.4186 26.9856 10.7437 26.7459 10.9843C26.5053 11.224 26.1803 11.3588 25.8407 11.3588C25.5012 11.3588 25.1761 11.224 24.9355 10.9843C24.6958 10.7437 24.561 10.4186 24.561 10.0791C24.561 8.85905 24.561 7.95734 24.561 6.73733C24.561 6.67675 24.5652 6.61618 24.5738 6.55731ZM21.2337 4.57201C22.1047 4.91242 22.9357 5.35606 23.7078 5.89355V9.48124C23.7078 9.82079 23.573 10.1458 23.3333 10.3864C23.0927 10.6262 22.7676 10.761 22.4281 10.761C22.0885 10.761 21.7635 10.6262 21.5229 10.3864C21.2831 10.1458 21.1483 9.82079 21.1483 9.48124C21.1483 8.06073 21.1483 6.45152 21.1483 5.03101C21.1483 4.87232 21.1774 4.71705 21.2337 4.57201ZM17.7971 3.78625C18.6486 3.85195 19.4855 4.00808 20.2952 4.24952V8.58449C20.2952 8.92404 20.1604 9.2491 19.9207 9.48969C19.6801 9.72942 19.355 9.86422 19.0155 9.86422C18.6759 9.86422 18.3508 9.72942 18.1103 9.48969C17.8705 9.2491 17.7357 8.92404 17.7357 8.58449C17.7357 7.16398 17.7357 5.59836 17.7357 4.17785C17.7357 4.04391 17.757 3.91167 17.7971 3.78625Z" fill="#3988FF"/>
<path fill-rule="evenodd" clip-rule="evenodd" d="M2.98915 13.3516C2.23109 13.3516 1.85406 13.5509 1.09601 13.5509C1.39492 12.4549 2.51319 9.84727 2.84808 9.26643C5.22073 5.1513 9.33253 1.9928 16.0997 1.9928C22.5335 1.9928 26.6034 5.1573 29.0132 9.26643C29.354 9.84747 31.0873 13.4513 30.7884 13.5509L28.7956 12.7538L26.8934 9.26643C24.7079 6.0689 21.2948 3.7863 16.0997 3.7863C12.5749 3.7863 9.95158 4.71857 7.98309 6.12714C6.77955 6.98834 5.80128 7.75751 4.98192 8.96751C4.56181 9.66792 4.48373 9.36607 2.98915 13.3516Z" fill="black"/>
<path d="M20.5444 28.7894V29.7545H21.5095H27.0187H28.2547L27.955 28.5554L27.0187 28.7894L27.955 28.5554L27.955 28.5553L27.9549 28.555L27.9546 28.5538L27.9534 28.5489L27.9486 28.5298L27.9303 28.4564L27.863 28.1871L27.6421 27.3037C27.4706 26.6176 27.2685 25.8096 27.1462 25.322C27.0926 25.1059 27.0656 24.8859 27.0656 24.6649V22.8211C27.0656 21.0201 25.6061 19.5605 23.805 19.5605C22.9407 19.5605 22.1111 19.9034 21.4992 20.5153C20.8873 21.1272 20.5444 21.9568 20.5444 22.8211V28.7894ZM10.4911 29.7545H11.4562V28.7894V22.8211C11.4562 21.9568 11.1133 21.1272 10.5014 20.5153C9.88955 19.9034 9.05998 19.5605 8.19563 19.5605C6.39458 19.5605 4.93502 21.0201 4.93502 22.8211V24.6649C4.93502 24.8858 4.90806 25.1058 4.85445 25.3219C4.73222 25.8095 4.53009 26.6175 4.35852 27.3037L4.13767 28.1871L4.07036 28.4564L4.05202 28.5298L4.04724 28.5489L4.04602 28.5538L4.04572 28.555L4.04564 28.5553L4.04562 28.5554L4.98193 28.7894L4.04561 28.5554L3.74596 29.7545H4.98193H10.4911Z" fill="#FBC546" stroke="#7E5108" stroke-width="1.93023"/>
<path fill-rule="evenodd" clip-rule="evenodd" d="M13.8115 22.865C13.582 22.4751 13.4575 22.0263 13.4575 21.5656V18.153C13.4575 17.4739 13.7271 16.8229 14.2074 16.3434C14.6869 15.8631 15.3378 15.5935 16.0169 15.5935C16.696 15.5935 17.347 15.8631 17.8265 16.3434C18.3068 16.8229 18.5764 17.4739 18.5764 18.153V21.5656C18.5764 22.0263 18.4518 22.4751 18.2223 22.865C17.7821 22.0707 14.2517 22.0707 13.8115 22.865V22.865Z" fill="#722245"/>
<path fill-rule="evenodd" clip-rule="evenodd" d="M13.8107 22.8649C14.251 22.0706 15.0913 21.5656 16.0161 21.5656C16.941 21.5656 17.7813 22.0706 18.2216 22.8649C18.1123 23.05 17.9801 23.2215 17.8257 23.3751C17.3462 23.8554 16.6953 24.125 16.0161 24.125C15.337 24.125 14.6861 23.8554 14.2066 23.3751C14.0522 23.2215 13.9199 23.05 13.8107 22.8649V22.8649Z" fill="#CA3B8F"/>
<path fill-rule="evenodd" clip-rule="evenodd" d="M10.4697 16.4466C9.67797 16.4466 8.91951 16.1318 8.35984 15.5721C7.80017 15.0124 7.48535 14.254 7.48535 13.4623C7.48535 12.9017 7.48535 12.3148 7.48535 11.7542C7.48535 10.1051 8.82225 8.76819 10.4714 8.76819H10.4731C11.2648 8.76819 12.0233 9.083 12.583 9.64267C13.1426 10.2023 13.4575 10.9608 13.4575 11.7525C13.4575 12.3131 13.4575 12.9 13.4575 13.4606C13.4575 15.1097 12.1206 16.4466 10.4714 16.4466H10.4697V16.4466Z" fill="white"/>
<path fill-rule="evenodd" clip-rule="evenodd" d="M12.6043 11.7542C12.6043 11.1886 12.3799 10.646 11.9798 10.2458C11.5796 9.84572 11.037 9.62134 10.4714 9.62134C9.29318 9.62134 8.3385 10.576 8.3385 11.7542V13.446C8.3385 14.0117 8.56288 14.5543 8.96301 14.9544C9.36314 15.3546 9.90575 15.5789 10.4714 15.5789C11.6496 15.5789 12.6043 14.6243 12.6043 13.446V11.7542Z" fill="black"/>
<path fill-rule="evenodd" clip-rule="evenodd" d="M21.5642 16.4466C22.3559 16.4466 23.1144 16.1318 23.674 15.5721C24.2337 15.0124 24.5485 14.254 24.5485 13.4623C24.5485 12.9017 24.5485 12.3148 24.5485 11.7542C24.5485 10.1051 23.2116 8.76819 21.5625 8.76819H21.5608C20.769 8.76819 20.0106 9.083 19.4509 9.64267C18.8912 10.2023 18.5764 10.9608 18.5764 11.7525C18.5764 12.3131 18.5764 12.9 18.5764 13.4606C18.5764 15.1097 19.9133 16.4466 21.5625 16.4466H21.5642Z" fill="white"/>
<path fill-rule="evenodd" clip-rule="evenodd" d="M19.4296 11.7542C19.4296 11.1886 19.6539 10.646 20.0541 10.2458C20.4542 9.84572 20.9968 9.62134 21.5625 9.62134C22.7407 9.62134 23.6954 10.576 23.6954 11.7542V13.446C23.6954 14.0117 23.471 14.5543 23.0708 14.9544C22.6707 15.3546 22.1281 15.5789 21.5625 15.5789C20.3842 15.5789 19.4296 14.6243 19.4296 13.446V11.7542Z" fill="black"/>
</svg>
