<svg width="32" height="32" viewBox="0 0 32 32" fill="none" xmlns="http://www.w3.org/2000/svg">
<path d="M31.1028 20.9925C31.1028 23.0016 30.5776 24.4276 29.7584 25.467C28.9313 26.5165 27.7418 27.2511 26.2822 27.7577C23.3206 28.7859 19.5103 28.7956 16.0998 28.7956C12.6905 28.7956 8.82725 28.7862 5.81316 27.7563C4.32618 27.2482 3.11166 26.5116 2.26715 25.4605C1.43183 24.4208 0.896749 22.9971 0.896749 20.9925C0.896749 17.2445 1.70404 12.6828 4.00516 9.08874C6.27215 5.54802 10.0181 2.88955 16.0998 2.88955C21.8645 2.88955 25.569 5.55276 27.871 9.1208C30.2022 12.7339 31.1028 17.3007 31.1028 20.9925Z" fill="#FBC546" stroke="black" stroke-width="1.7935"/>
<path fill-rule="evenodd" clip-rule="evenodd" d="M10.5221 23.8335C10.2594 23.866 9.99232 23.7738 9.80377 23.5784C9.57598 23.3421 9.50432 22.9949 9.61949 22.6869C9.76709 22.2936 9.93004 21.8576 10.0981 21.4114C10.9717 19.0806 13.2002 17.5364 15.6897 17.5364C15.7742 17.5364 15.8595 17.5364 15.9439 17.5364C18.4335 17.5364 20.6619 19.0806 21.5355 21.4114C21.7036 21.8576 21.8666 22.2936 22.0142 22.6869C22.1293 22.9949 22.0577 23.3421 21.8299 23.5784C21.6413 23.7738 21.3743 23.866 21.1115 23.8335C20.5518 22.965 18.1263 22.3064 15.8168 22.2876C13.4058 22.268 11.1065 22.9266 10.5221 23.8335Z" fill="#722245"/>
<path fill-rule="evenodd" clip-rule="evenodd" d="M15.8173 20.9491C17.9835 20.9491 19.9662 22.0582 21.1112 23.8336C21.0557 23.8268 20.9994 23.814 20.9448 23.7961C20.3433 23.5956 19.6693 23.3712 19.0798 23.1741C18.0483 22.8303 16.9691 22.6554 15.8822 22.6554H15.7508C14.6639 22.6554 13.5846 22.8303 12.5532 23.1741C11.9636 23.3712 11.2896 23.5956 10.6882 23.7961C10.6336 23.814 10.5772 23.8268 10.5218 23.8336C11.6667 22.0582 13.6495 20.9491 15.8156 20.9491H15.8173Z" fill="#CA3B8F"/>
<path fill-rule="evenodd" clip-rule="evenodd" d="M20.3345 9.76465L24.4032 12.0895C24.4254 12.2345 24.4365 12.3838 24.4365 12.5349C24.4365 13.0954 24.4365 13.6823 24.4365 14.2429C24.4365 15.0346 24.1216 15.7931 23.562 16.3527C23.0023 16.9124 22.2438 17.2272 21.4521 17.2272H21.4504C19.8013 17.2272 18.4644 15.8903 18.4644 14.2412C18.4644 13.6806 18.4644 13.0937 18.4644 12.5331C18.4644 11.7414 18.7792 10.983 19.3388 10.4233C19.6255 10.1358 19.9651 9.9131 20.3345 9.76465Z" fill="white"/>
<path fill-rule="evenodd" clip-rule="evenodd" d="M11.4753 9.76465L7.40656 12.0895C7.38438 12.2345 7.37329 12.3838 7.37329 12.5349C7.37329 13.0954 7.37329 13.6823 7.37329 14.2429C7.37329 15.0346 7.68811 15.7931 8.24778 16.3527C8.80745 16.9124 9.56591 17.2272 10.3576 17.2272H10.3593C12.0085 17.2272 13.3454 15.8903 13.3454 14.2412C13.3454 13.6806 13.3454 13.0937 13.3454 12.5331C13.3454 11.7414 13.0306 10.983 12.4709 10.4233C12.1842 10.1358 11.8447 9.9131 11.4753 9.76465Z" fill="white"/>
<path fill-rule="evenodd" clip-rule="evenodd" d="M19.3175 12.9639C19.3175 12.5117 19.4975 12.0775 19.8175 11.7575C20.1374 11.4376 20.5716 11.2576 21.0238 11.2576C21.476 11.2576 21.9102 11.4376 22.2302 11.7575C22.5501 12.0775 22.7301 12.5117 22.7301 12.9639C22.7301 13.2446 22.7301 13.5364 22.7301 13.817C22.7301 14.2692 22.5501 14.7035 22.2302 15.0234C21.9102 15.3433 21.476 15.5234 21.0238 15.5234C20.5716 15.5234 20.1374 15.3433 19.8175 15.0234C19.4975 14.7035 19.3175 14.2692 19.3175 13.817C19.3175 13.5364 19.3175 13.2446 19.3175 12.9639Z" fill="black"/>
<path fill-rule="evenodd" clip-rule="evenodd" d="M12.4922 12.9639C12.4922 12.5117 12.3122 12.0775 11.9923 11.7575C11.6723 11.4376 11.2381 11.2576 10.7859 11.2576C10.3337 11.2576 9.89947 11.4376 9.57954 11.7575C9.25961 12.0775 9.07959 12.5117 9.07959 12.9639C9.07959 13.2446 9.07959 13.5364 9.07959 13.817C9.07959 14.2692 9.25961 14.7035 9.57954 15.0234C9.89947 15.3433 10.3337 15.5234 10.7859 15.5234C11.2381 15.5234 11.6723 15.3433 11.9923 15.0234C12.3122 14.7035 12.4922 14.2692 12.4922 13.817C12.4922 13.5364 12.4922 13.2446 12.4922 12.9639Z" fill="black"/>
<path d="M25.6713 7.73376C25.6176 7.67915 25.563 7.62541 25.5075 7.57251V9.60388C25.5075 10.3862 25.8514 10.9883 26.4043 11.4584C25.8429 12.0667 25.4079 12.9574 25.4079 13.8498C25.4079 15.7301 27.4007 17.636 29.792 16.54C29.792 13.5983 27.7513 9.81375 25.6713 7.73376Z" fill="#E59A10"/>
<path fill-rule="evenodd" clip-rule="evenodd" d="M28.4685 11.8504C29.5979 11.8504 30.5144 12.767 30.5144 13.8964C30.5144 15.0257 29.5979 15.9423 28.4685 15.9423C27.3392 15.9423 26.4226 15.0257 26.4226 13.8964C26.4226 12.767 27.3392 11.8504 28.4685 11.8504ZM29.4915 1.26879C30.0562 1.26879 30.5144 1.72708 30.5144 2.29175C30.5144 4.06351 30.5144 7.6807 30.5144 9.45246C30.5144 10.0171 30.0562 10.4754 29.4915 10.4754C28.8665 10.4754 28.0706 10.4754 27.4456 10.4754C26.8809 10.4754 26.4226 10.0171 26.4226 9.45246C26.4226 7.6807 26.4226 4.06351 26.4226 2.29175C26.4226 1.72708 26.8809 1.26879 27.4456 1.26879H29.4915Z" fill="#FF0000"/>
</svg>
