<svg width="32" height="32" viewBox="0 0 32 32" fill="none" xmlns="http://www.w3.org/2000/svg">
<g clip-path="url(#clip0)">
<path d="M31.1028 20.9925C31.1028 23.0016 30.5776 24.4276 29.7584 25.467C28.9313 26.5165 27.7418 27.251 26.2822 27.7577C23.3206 28.7858 19.5103 28.7956 16.0998 28.7956C12.6905 28.7956 8.82725 28.7862 5.81316 27.7563C4.32618 27.2482 3.11166 26.5115 2.26715 25.4604C1.43183 24.4208 0.896749 22.997 0.896749 20.9925C0.896749 17.2483 1.70245 13.3712 3.95966 10.4486C6.18461 7.56779 9.92418 5.48012 16.0998 5.48012C21.9585 5.48012 25.6574 7.57592 27.9167 10.4805C30.2055 13.4228 31.1028 17.3072 31.1028 20.9925Z" fill="#FBC546" stroke="black" stroke-width="1.7935"/>
<path fill-rule="evenodd" clip-rule="evenodd" d="M20.5256 21.1234C20.5256 21.1234 22.022 25.1133 22.972 27.6476C23.4337 28.8772 24.6087 29.6924 25.923 29.6924H25.924C26.7649 29.6924 27.5714 29.3582 28.1659 28.7637C28.7604 28.1692 29.0945 27.3627 29.0945 26.5218V26.5208C29.0945 25.2065 28.2794 24.0315 27.0498 23.5698C24.5155 22.6198 20.5256 21.1234 20.5256 21.1234Z" fill="#2AC2F9"/>
<path fill-rule="evenodd" clip-rule="evenodd" d="M11.8197 24.3842C11.6797 24.3142 11.5594 24.2067 11.4741 24.0694C11.3188 23.8177 11.3052 23.5037 11.4374 23.2393C11.4852 23.1437 11.5338 23.0456 11.5825 22.9475C12.1609 21.7915 13.3425 21.0612 14.6351 21.0612C15.4643 21.0612 16.4131 21.0612 17.2423 21.0612C18.5349 21.0612 19.7165 21.7915 20.2949 22.9475C20.3435 23.0456 20.3922 23.1437 20.44 23.2393C20.5722 23.5037 20.5585 23.8177 20.4033 24.0694C20.318 24.2067 20.1977 24.3142 20.0577 24.3842C19.2677 23.8962 12.6097 23.8962 11.8197 24.3842V24.3842Z" fill="#722245"/>
<path fill-rule="evenodd" clip-rule="evenodd" d="M11.8137 24.3842C12.6037 23.8962 13.5294 23.6206 14.5037 23.6206C15.4337 23.6206 16.4319 23.6206 17.3618 23.6206C18.3361 23.6206 19.2618 23.8962 20.0518 24.3842C19.9358 24.4422 19.8052 24.4738 19.6713 24.4738C17.7133 24.4738 14.1522 24.4738 12.1942 24.4738C12.0603 24.4738 11.9298 24.4422 11.8137 24.3842V24.3842Z" fill="#CA3B8F"/>
<path fill-rule="evenodd" clip-rule="evenodd" d="M10.3869 18.1481L12.3432 16.1918C12.676 15.8591 13.2169 15.8591 13.5496 16.1918C13.8823 16.5245 13.8823 17.0654 13.5496 17.3982L10.3869 20.5608L7.22428 17.3982C6.89155 17.0654 6.89155 16.5245 7.22428 16.1918C7.55701 15.8591 8.09791 15.8591 8.43064 16.1918L10.3869 18.1481Z" fill="black"/>
<path fill-rule="evenodd" clip-rule="evenodd" d="M21.478 18.1481L23.4343 16.1918C23.767 15.8591 24.3079 15.8591 24.6406 16.1918C24.9734 16.5245 24.9734 17.0654 24.6406 17.3982L21.478 20.5608L18.3153 17.3982C17.9826 17.0654 17.9826 16.5245 18.3153 16.1918C18.6481 15.8591 19.189 15.8591 19.5217 16.1918L21.478 18.1481Z" fill="black"/>
</g>
<defs>
<clipPath id="clip0">
<rect width="32" height="32" fill="white"/>
</clipPath>
</defs>
</svg>
