<svg width="32" height="32" viewBox="0 0 32 32" fill="none" xmlns="http://www.w3.org/2000/svg">
<path d="M31.1028 20.9925C31.1028 23.0016 30.5776 24.4276 29.7584 25.467C28.9313 26.5165 27.7418 27.2511 26.2822 27.7577C23.3206 28.7859 19.5103 28.7956 16.0998 28.7956C12.6905 28.7956 8.82725 28.7862 5.81316 27.7563C4.32618 27.2482 3.11166 26.5116 2.26715 25.4605C1.43183 24.4208 0.896749 22.9971 0.896749 20.9925C0.896749 17.2445 1.70404 12.6828 4.00516 9.08874C6.27215 5.54802 10.0181 2.88955 16.0998 2.88955C21.8645 2.88955 25.569 5.55276 27.871 9.1208C30.2022 12.7339 31.1028 17.3007 31.1028 20.9925Z" fill="#FBC546" stroke="black" stroke-width="1.7935"/>
<path fill-rule="evenodd" clip-rule="evenodd" d="M10.8545 23.4576C9.68141 22.4679 8.77109 21.0986 8.4213 19.3735H23.4352C23.0854 21.0986 22.175 22.4679 21.002 23.4576C20.0609 22.5038 11.7955 22.5038 10.8545 23.4576V23.4576Z" fill="#722245"/>
<path fill-rule="evenodd" clip-rule="evenodd" d="M10.8575 23.4576C11.7985 22.5037 13.1004 21.933 14.5022 21.933C15.4321 21.933 16.4303 21.933 17.3602 21.933C18.762 21.933 20.0639 22.5037 21.0049 23.4576C19.5324 24.7006 17.6443 25.3456 15.9312 25.3456C14.2181 25.3456 12.33 24.7006 10.8575 23.4576V23.4576Z" fill="#CA3B8F"/>
<path fill-rule="evenodd" clip-rule="evenodd" d="M21.6314 8.78891C21.6579 8.70786 21.698 8.63193 21.75 8.56539C21.8157 8.48092 21.8993 8.41182 21.994 8.36319C22.0708 8.32394 22.1544 8.29835 22.2406 8.28811C22.3131 8.27872 22.3873 8.28128 22.4598 8.29408C22.5375 8.30859 22.6125 8.33503 22.6817 8.37342C22.7584 8.41523 22.8275 8.47154 22.8847 8.53723C22.9478 8.61146 22.9948 8.69677 23.0255 8.78891L23.6926 10.8416H27.8731V12.4754C27.8851 12.7186 27.775 12.9566 27.572 13.105C26.3741 13.9753 25.0287 14.953 25.0287 14.953L25.422 16.1653L26.0354 16.4699V18.1395C26.0448 18.3801 25.9356 18.6156 25.7334 18.7623C25.4766 18.9492 25.1285 18.9492 24.8717 18.7623C23.6739 17.8921 22.3284 16.9144 22.3284 16.9144C22.3284 16.9144 20.983 17.8921 19.7852 18.7623C19.5284 18.9492 19.1803 18.9492 18.9235 18.7623C18.7213 18.6156 18.6121 18.3801 18.6215 18.1395V16.4699L19.2187 16.2139L19.6282 14.953C19.6282 14.953 18.2828 13.9753 17.0849 13.105C16.8913 12.9643 16.7829 12.7416 16.7829 12.5121V10.8416H20.9642L21.6314 8.78891V8.78891ZM8.83406 8.78891C8.86051 8.70786 8.9006 8.63193 8.95265 8.56539C9.01834 8.48092 9.10195 8.41182 9.19665 8.36319C9.27343 8.32394 9.35704 8.29835 9.44321 8.28811C9.51573 8.27872 9.58996 8.28128 9.66247 8.29408C9.74011 8.30859 9.81519 8.33503 9.88429 8.37342C9.96108 8.41523 10.0302 8.47154 10.0873 8.53723C10.1505 8.61146 10.1974 8.69677 10.2281 8.78891L10.8953 10.8416H15.0758V12.4754C15.0877 12.7186 14.9776 12.9566 14.7746 13.105C13.5768 13.9753 12.2313 14.953 12.2313 14.953L12.6246 16.1653L13.2381 16.4699V18.1395C13.2474 18.3801 13.1382 18.6156 12.936 18.7623C12.6792 18.9492 12.3311 18.9492 12.0743 18.7623C10.8765 17.8921 9.53109 16.9144 9.53109 16.9144C9.53109 16.9144 8.18566 17.8921 6.98783 18.7623C6.73103 18.9492 6.38294 18.9492 6.12614 18.7623C5.92394 18.6156 5.81473 18.3801 5.82412 18.1395V16.4699L6.42133 16.2139L6.83084 14.953C6.83084 14.953 5.48542 13.9753 4.28758 13.105C4.09392 12.9643 3.98557 12.7416 3.98557 12.5121V10.8416H8.16689L8.83406 8.78891V8.78891Z" fill="#D69200"/>
<path fill-rule="evenodd" clip-rule="evenodd" d="M21.6315 7.08295C21.7296 6.78093 22.0112 6.57617 22.3285 6.57617C22.6459 6.57617 22.9274 6.78093 23.0256 7.08295C23.4829 8.49066 23.9973 10.0733 23.9973 10.0733C23.9973 10.0733 25.661 10.0733 27.1412 10.0733C27.4586 10.0733 27.7401 10.2772 27.8382 10.5792C27.9363 10.8812 27.8288 11.2122 27.572 11.3991C26.3742 12.2693 25.0288 13.247 25.0288 13.247C25.0288 13.247 25.5424 14.8288 25.9997 16.2365C26.0978 16.5385 25.9903 16.8695 25.7335 17.0564C25.4767 17.2432 25.1286 17.2432 24.8718 17.0564C23.674 16.1861 22.3285 15.2084 22.3285 15.2084C22.3285 15.2084 20.9831 16.1861 19.7853 17.0564C19.5285 17.2432 19.1804 17.2432 18.9236 17.0564C18.6668 16.8695 18.5593 16.5385 18.6574 16.2365C19.1147 14.8288 19.6283 13.247 19.6283 13.247C19.6283 13.247 18.2829 12.2693 17.085 11.3991C16.8282 11.2122 16.7207 10.8812 16.8188 10.5792C16.917 10.2772 17.1985 10.0733 17.5159 10.0733C18.9961 10.0733 20.6598 10.0733 20.6598 10.0733C20.6598 10.0733 21.1742 8.49066 21.6315 7.08295V7.08295ZM8.83414 7.08295C8.93226 6.78093 9.2138 6.57617 9.53117 6.57617C9.84855 6.57617 10.1301 6.78093 10.2282 7.08295C10.6855 8.49066 11.1999 10.0733 11.1999 10.0733C11.1999 10.0733 12.8636 10.0733 14.3438 10.0733C14.6612 10.0733 14.9428 10.2772 15.0409 10.5792C15.139 10.8812 15.0315 11.2122 14.7747 11.3991C13.5768 12.2693 12.2314 13.247 12.2314 13.247C12.2314 13.247 12.745 14.8288 13.2023 16.2365C13.3004 16.5385 13.1929 16.8695 12.9361 17.0564C12.6793 17.2432 12.3312 17.2432 12.0744 17.0564C10.8766 16.1861 9.53117 15.2084 9.53117 15.2084C9.53117 15.2084 8.18574 16.1861 6.98791 17.0564C6.73111 17.2432 6.38302 17.2432 6.12622 17.0564C5.86942 16.8695 5.76192 16.5385 5.86004 16.2365C6.31733 14.8288 6.83093 13.247 6.83093 13.247C6.83093 13.247 5.4855 12.2693 4.28767 11.3991C4.03087 11.2122 3.92337 10.8812 4.02148 10.5792C4.1196 10.2772 4.40114 10.0733 4.71851 10.0733C6.19874 10.0733 7.8624 10.0733 7.8624 10.0733C7.8624 10.0733 8.37685 8.49066 8.83414 7.08295V7.08295Z" fill="#FFF9EF"/>
</svg>
