<svg width="32" height="32" viewBox="0 0 32 32" fill="none" xmlns="http://www.w3.org/2000/svg">
<g clip-path="url(#clip0)">
<path d="M31.1028 20.9925C31.1028 23.0016 30.5776 24.4276 29.7584 25.467C28.9313 26.5165 27.7418 27.2511 26.2822 27.7577C23.3206 28.7859 19.5103 28.7956 16.0998 28.7956C12.6905 28.7956 8.82725 28.7862 5.81316 27.7563C4.32618 27.2482 3.11166 26.5116 2.26715 25.4605C1.43183 24.4208 0.896749 22.9971 0.896749 20.9925C0.896749 17.2445 1.70404 12.6828 4.00516 9.08874C6.27215 5.54802 10.0181 2.88955 16.0998 2.88955C21.8645 2.88955 25.569 5.55276 27.871 9.1208C30.2022 12.7339 31.1028 17.3007 31.1028 20.9925Z" fill="#FBC546" stroke="black" stroke-width="1.7935"/>
<path fill-rule="evenodd" clip-rule="evenodd" d="M13.7285 23.2553C13.4853 22.8637 13.3454 22.4021 13.3454 21.9081C13.3454 21.3502 13.3454 20.7598 13.3454 20.2018C13.3454 18.7881 14.4912 17.6423 15.9049 17.6423C17.3186 17.6423 18.4643 18.7881 18.4643 20.2018C18.4643 20.7598 18.4643 21.3502 18.4643 21.9081C18.4643 22.4021 18.3244 22.8637 18.0813 23.2553C17.4158 22.9362 14.3939 22.9362 13.7285 23.2553Z" fill="#722245"/>
<path fill-rule="evenodd" clip-rule="evenodd" d="M13.7253 23.2552C14.3908 22.9361 15.1322 22.7612 15.9017 22.7612C16.6713 22.7612 17.4127 22.9361 18.0782 23.2552C17.6268 23.983 16.8206 24.4675 15.9017 24.4675C14.9829 24.4675 14.1767 23.983 13.7253 23.2552Z" fill="#CA3B8F"/>
<path fill-rule="evenodd" clip-rule="evenodd" d="M10.361 17.6423C11.1528 17.6423 11.9112 17.3275 12.4709 16.7678C13.0306 16.2081 13.3454 15.4497 13.3454 14.6579C13.3454 14.0974 13.3454 13.5104 13.3454 12.9499C13.3454 11.3008 12.0085 9.96387 10.3593 9.96387H10.3576C9.56591 9.96387 8.80745 10.2787 8.24778 10.8384C7.68811 11.398 7.37329 12.1565 7.37329 12.9482C7.37329 13.5087 7.37329 14.0957 7.37329 14.6562C7.37329 16.3054 8.71019 17.6423 10.3593 17.6423H10.361Z" fill="white"/>
<path fill-rule="evenodd" clip-rule="evenodd" d="M9.07959 13.3765C9.07959 12.9243 9.25961 12.4901 9.57954 12.1701C9.89947 11.8502 10.3337 11.6702 10.7859 11.6702C11.7286 11.6702 12.4922 12.4337 12.4922 13.3765V14.2151C12.4922 14.6682 12.3122 15.1016 11.9923 15.4224C11.6723 15.7423 11.2381 15.9214 10.7859 15.9214C9.84317 15.9214 9.07959 15.1579 9.07959 14.2151V13.3765Z" fill="black"/>
<path fill-rule="evenodd" clip-rule="evenodd" d="M21.4487 17.6423C20.657 17.6423 19.8985 17.3275 19.3388 16.7678C18.7792 16.2081 18.4644 15.4497 18.4644 14.6579C18.4644 14.0974 18.4644 13.5104 18.4644 12.9499C18.4644 11.3008 19.8013 9.96387 21.4504 9.96387H21.4521C22.2438 9.96387 23.0023 10.2787 23.562 10.8384C24.1216 11.398 24.4365 12.1565 24.4365 12.9482C24.4365 13.5087 24.4365 14.0957 24.4365 14.6562C24.4365 16.3054 23.0996 17.6423 21.4504 17.6423H21.4487Z" fill="white"/>
<path fill-rule="evenodd" clip-rule="evenodd" d="M22.7301 13.3765C22.7301 12.9243 22.5501 12.4901 22.2302 12.1701C21.9102 11.8502 21.476 11.6702 21.0238 11.6702C20.0811 11.6702 19.3175 12.4337 19.3175 13.3765V14.2151C19.3175 14.6682 19.4975 15.1016 19.8175 15.4224C20.1374 15.7423 20.5716 15.9214 21.0238 15.9214C21.9666 15.9214 22.7301 15.1579 22.7301 14.2151V13.3765Z" fill="black"/>
<path d="M25.6713 7.73376C25.6176 7.67915 25.563 7.62541 25.5075 7.57251V9.60388C25.5075 10.3862 25.8514 10.9883 26.4043 11.4584C25.8429 12.0667 25.4079 12.9574 25.4079 13.8498C25.4079 15.7301 27.4007 17.636 29.792 16.54C29.792 13.5983 27.7513 9.81375 25.6713 7.73376Z" fill="#E59A10"/>
<path fill-rule="evenodd" clip-rule="evenodd" d="M28.4685 11.8504C29.5979 11.8504 30.5144 12.767 30.5144 13.8964C30.5144 15.0257 29.5979 15.9423 28.4685 15.9423C27.3392 15.9423 26.4226 15.0257 26.4226 13.8964C26.4226 12.767 27.3392 11.8504 28.4685 11.8504ZM29.4915 1.26879C30.0562 1.26879 30.5144 1.72708 30.5144 2.29175C30.5144 4.06351 30.5144 7.6807 30.5144 9.45246C30.5144 10.0171 30.0562 10.4754 29.4915 10.4754C28.8665 10.4754 28.0706 10.4754 27.4456 10.4754C26.8809 10.4754 26.4226 10.0171 26.4226 9.45246C26.4226 7.6807 26.4226 4.06351 26.4226 2.29175C26.4226 1.72708 26.8809 1.26879 27.4456 1.26879H29.4915Z" fill="#FF0000"/>
</g>
<defs>
<clipPath id="clip0">
<rect width="32" height="32" fill="white"/>
</clipPath>
</defs>
</svg>
