<svg width="32" height="32" viewBox="0 0 32 32" fill="none" xmlns="http://www.w3.org/2000/svg">
<g clip-path="url(#clip0)">
<path d="M31.1028 20.9925C31.1028 23.0016 30.5776 24.4276 29.7584 25.467C28.9313 26.5165 27.7418 27.251 26.2822 27.7577C23.3206 28.7858 19.5103 28.7956 16.0998 28.7956C12.6905 28.7956 8.82725 28.7862 5.81316 27.7563C4.32618 27.2482 3.11166 26.5115 2.26715 25.4604C1.43183 24.4208 0.896749 22.997 0.896749 20.9925C0.896749 17.2483 1.70245 13.3712 3.95966 10.4486C6.18461 7.56779 9.92418 5.48012 16.0998 5.48012C21.9585 5.48012 25.6574 7.57592 27.9167 10.4805C30.2055 13.4228 31.1028 17.3072 31.1028 20.9925Z" fill="#FBC546" stroke="black" stroke-width="1.7935"/>
<path fill-rule="evenodd" clip-rule="evenodd" d="M10.6028 23.191H9.54998C9.25394 23.191 8.98007 23.0374 8.82395 22.7857C8.66867 22.5349 8.65502 22.2201 8.78726 21.9556C9.10975 21.3098 9.52268 20.4839 9.93134 19.6666C10.9432 17.6438 13.0112 16.3657 15.273 16.3657C15.6543 16.3657 16.0417 16.3657 16.423 16.3657C18.6847 16.3657 20.7528 17.6438 21.7646 19.6666C22.1733 20.4839 22.5862 21.3098 22.9087 21.9556C23.041 22.2201 23.0273 22.5349 22.872 22.7857C22.7159 23.0374 22.442 23.191 22.146 23.191H21.0932C20.1419 22.1279 11.5541 22.1279 10.6028 23.191V23.191Z" fill="#722245"/>
<path fill-rule="evenodd" clip-rule="evenodd" d="M10.6032 23.1909C11.5545 22.1279 12.9298 21.4846 14.4194 21.4846C15.3493 21.4846 16.3475 21.4846 17.2775 21.4846C18.7671 21.4846 20.1424 22.1279 21.0936 23.1909H10.6032Z" fill="#CA3B8F"/>
<path fill-rule="evenodd" clip-rule="evenodd" d="M9.4048 16.2758L12.8174 14.5695C13.2389 14.3587 13.4095 13.846 13.1988 13.4245C12.9889 13.0039 12.4753 12.8324 12.0547 13.0432L8.64207 14.7495C8.22061 14.9602 8.04998 15.4729 8.26071 15.8944C8.47059 16.3159 8.98419 16.4865 9.4048 16.2758Z" fill="black"/>
<path fill-rule="evenodd" clip-rule="evenodd" d="M23.0553 14.7495L19.6427 13.0432C19.2221 12.8324 18.7085 13.0039 18.4986 13.4245C18.2879 13.846 18.4585 14.3587 18.88 14.5695L22.2926 16.2758C22.7132 16.4865 23.2268 16.3159 23.4367 15.8944C23.6474 15.4729 23.4768 14.9602 23.0553 14.7495Z" fill="black"/>
</g>
<defs>
<clipPath id="clip0">
<rect width="32" height="32" fill="white"/>
</clipPath>
</defs>
</svg>
