<svg width="32" height="32" viewBox="0 0 32 32" fill="none" xmlns="http://www.w3.org/2000/svg">
<path d="M31.1028 20.9925C31.1028 23.0016 30.5776 24.4276 29.7584 25.467C28.9313 26.5165 27.7418 27.2511 26.2822 27.7577C23.3206 28.7858 19.5103 28.7956 16.0998 28.7956C12.6905 28.7956 8.82725 28.7862 5.81316 27.7563C4.32618 27.2482 3.11166 26.5116 2.26715 25.4605C1.43183 24.4208 0.896749 22.9971 0.896749 20.9925C0.896749 17.2445 1.70404 12.6828 4.00516 9.08874C6.27215 5.54802 10.0181 2.88955 16.0998 2.88955C21.8645 2.88955 25.569 5.55276 27.871 9.1208C30.2022 12.7339 31.1028 17.3007 31.1028 20.9925Z" fill="#FBC546" stroke="black" stroke-width="1.7935"/>
<path d="M7.37329 19.9091C7.37329 19.9091 7.49785 20.2836 7.65227 20.746C8.01998 21.8491 8.81086 22.7612 9.85086 23.2807C9.85086 23.2807 9.85086 23.2807 9.85171 23.2816C10.8985 23.8046 12.1689 23.5392 12.9188 22.64C13.2396 22.2544 13.592 21.8312 13.9383 21.4157C14.4246 20.8322 15.1456 20.4943 15.9049 20.4943C16.6642 20.4943 17.3851 20.8322 17.8714 21.4157C18.0395 21.6179 18.2092 21.8218 18.3765 22.0223C18.8372 22.5743 19.5086 22.9079 20.227 22.9403C20.9453 22.9727 21.6441 22.7014 22.1525 22.193C23.2668 21.0787 24.4364 19.9091 24.4364 19.9091" stroke="#593604" stroke-width="1.70631" stroke-miterlimit="1.5" stroke-linecap="round"/>
<path fill-rule="evenodd" clip-rule="evenodd" d="M12.2994 13.1463L13.2669 12.8239C13.3181 13.0431 13.3454 13.2726 13.3454 13.5081C13.3454 14.0695 13.3454 14.6556 13.3454 15.2161C13.3454 16.0078 13.0306 16.7671 12.4709 17.3268C11.9112 17.8865 11.1528 18.2004 10.361 18.2004H10.3593C8.71019 18.2004 7.37329 16.8636 7.37329 15.2144V14.7878L9.07961 14.2196C9.72886 14.8885 12.0111 13.9304 12.2994 13.1463V13.1463Z" fill="white"/>
<path fill-rule="evenodd" clip-rule="evenodd" d="M12.2994 13.1438C12.4223 13.3793 12.4922 13.648 12.4922 13.9321V14.7716C12.4922 15.2238 12.3122 15.6581 11.9923 15.978C11.6723 16.2979 11.2381 16.4779 10.7859 16.4779C9.84317 16.4779 9.07959 15.7135 9.07959 14.7716V14.2171L12.2994 13.1438V13.1438Z" fill="black"/>
<path fill-rule="evenodd" clip-rule="evenodd" d="M19.0334 11.7574L24.3059 12.6362C24.3921 12.916 24.4364 13.2104 24.4364 13.509C24.4364 14.0704 24.4364 14.6565 24.4364 15.217C24.4364 16.8662 23.0995 18.203 21.4504 18.203H21.4487C20.6569 18.203 19.8985 17.8891 19.3388 17.3294C18.7791 16.7697 18.4643 16.0104 18.4643 15.2187C18.4643 14.6582 18.4643 14.0721 18.4643 13.5107C18.4643 12.8555 18.6751 12.2497 19.0334 11.7574V11.7574Z" fill="white"/>
<path fill-rule="evenodd" clip-rule="evenodd" d="M22.7301 13.9369C22.7301 13.4847 22.5501 13.0505 22.2302 12.7305C21.9102 12.4106 21.476 12.2306 21.0238 12.2306C20.0811 12.2306 19.3175 12.995 19.3175 13.9369V14.7764C19.3175 15.2286 19.4975 15.6628 19.8174 15.9828C20.1374 16.3027 20.5716 16.4827 21.0238 16.4827C21.9665 16.4827 22.7301 15.7183 22.7301 14.7764V13.9369Z" fill="black"/>
</svg>
