<svg width="32" height="32" viewBox="0 0 32 32" fill="none" xmlns="http://www.w3.org/2000/svg">
<g clip-path="url(#clip0)">
<path d="M31.1028 20.9925C31.1028 23.0016 30.5776 24.4276 29.7584 25.467C28.9313 26.5165 27.7418 27.2511 26.2822 27.7577C23.3206 28.7859 19.5103 28.7956 16.0998 28.7956C12.6905 28.7956 8.82725 28.7862 5.81316 27.7563C4.32618 27.2482 3.11166 26.5116 2.26715 25.4605C1.43183 24.4208 0.896749 22.9971 0.896749 20.9925C0.896749 17.2445 1.70404 12.6828 4.00516 9.08874C6.27215 5.54802 10.0181 2.88955 16.0998 2.88955C21.8645 2.88955 25.569 5.55276 27.871 9.1208C30.2022 12.7339 31.1028 17.3007 31.1028 20.9925Z" fill="#FBC546" stroke="black" stroke-width="1.7935"/>
<path fill-rule="evenodd" clip-rule="evenodd" d="M18.5199 20.9012L20.4762 18.9449C20.809 18.6113 21.3499 18.6113 21.6826 18.9449L25.0952 22.3575C25.428 22.6903 25.428 23.2312 25.0952 23.5639C24.7625 23.8966 24.2216 23.8966 23.8889 23.5639L21.0794 20.7544L19.1231 22.7107C18.7802 23.0375 18.2597 23.0375 17.9168 22.7107L15.9605 20.7544L14.0042 22.7107C13.6612 23.0375 13.1408 23.0375 12.7978 22.7107L10.8415 20.7544L8.03208 23.5639C7.69935 23.8966 7.15845 23.8966 6.82572 23.5639C6.49299 23.2312 6.49299 22.6903 6.82572 22.3575L10.2383 18.9449C10.5711 18.6113 11.112 18.6113 11.4447 18.9449L13.401 20.9012L15.3573 18.9449C15.7003 18.6181 16.2207 18.6181 16.5637 18.9449L18.5199 20.9012Z" fill="#593604"/>
<path fill-rule="evenodd" clip-rule="evenodd" d="M10.4171 17.8416C11.2088 17.8416 11.9673 17.5268 12.5269 16.9671C13.0866 16.4075 13.4014 15.649 13.4014 14.8573C13.4014 14.2968 13.4014 13.7098 13.4014 13.1493C13.4014 11.5001 12.0645 10.1632 10.4154 10.1632H10.4137C9.62194 10.1632 8.86348 10.478 8.30381 11.0377C7.74414 11.5974 7.42932 12.3558 7.42932 13.1476C7.42932 13.7081 7.42932 14.295 7.42932 14.8556C7.42932 16.5047 8.76622 17.8416 10.4154 17.8416H10.4171V17.8416Z" fill="white"/>
<path fill-rule="evenodd" clip-rule="evenodd" d="M9.13562 13.5758C9.13562 13.1236 9.31564 12.6894 9.63557 12.3695C9.9555 12.0495 10.3898 11.8695 10.8419 11.8695C11.7847 11.8695 12.5482 12.6331 12.5482 13.5758V14.4145C12.5482 14.8675 12.3682 15.3009 12.0483 15.6217C11.7284 15.9416 11.2941 16.1208 10.8419 16.1208C9.8992 16.1208 9.13562 15.3572 9.13562 14.4145V13.5758Z" fill="black"/>
<path fill-rule="evenodd" clip-rule="evenodd" d="M21.5047 17.8416C20.713 17.8416 19.9545 17.5268 19.3949 16.9671C18.8352 16.4075 18.5204 15.649 18.5204 14.8573C18.5204 14.2968 18.5204 13.7098 18.5204 13.1493C18.5204 11.5001 19.8573 10.1632 21.5064 10.1632H21.5081C22.2999 10.1632 23.0583 10.478 23.618 11.0377C24.1777 11.5974 24.4925 12.3558 24.4925 13.1476C24.4925 13.7081 24.4925 14.295 24.4925 14.8556C24.4925 16.5047 23.1556 17.8416 21.5064 17.8416H21.5047V17.8416Z" fill="white"/>
<path fill-rule="evenodd" clip-rule="evenodd" d="M22.7862 13.5758C22.7862 13.1236 22.6061 12.6894 22.2862 12.3695C21.9663 12.0495 21.532 11.8695 21.0798 11.8695C20.1371 11.8695 19.3735 12.6331 19.3735 13.5758V14.4145C19.3735 14.8675 19.5536 15.3009 19.8735 15.6217C20.1934 15.9416 20.6277 16.1208 21.0798 16.1208C22.0226 16.1208 22.7862 15.3572 22.7862 14.4145V13.5758Z" fill="black"/>
</g>
<defs>
<clipPath id="clip0">
<rect width="32" height="32" fill="white"/>
</clipPath>
</defs>
</svg>
