<svg width="32" height="32" viewBox="0 0 32 32" fill="none" xmlns="http://www.w3.org/2000/svg">
<path d="M31.1028 20.9925C31.1028 23.0016 30.5776 24.4276 29.7584 25.467C28.9313 26.5165 27.7418 27.2511 26.2822 27.7577C23.3206 28.7859 19.5103 28.7956 16.0998 28.7956C12.6905 28.7956 8.82725 28.7862 5.81316 27.7563C4.32618 27.2482 3.11166 26.5116 2.26715 25.4605C1.43183 24.4208 0.896749 22.9971 0.896749 20.9925C0.896749 17.2445 1.70404 12.6828 4.00516 9.08874C6.27215 5.54802 10.0181 2.88955 16.0998 2.88955C21.8645 2.88955 25.569 5.55276 27.871 9.1208C30.2022 12.7339 31.1028 17.3007 31.1028 20.9925Z" fill="#FBC546" stroke="black" stroke-width="1.7935"/>
<path fill-rule="evenodd" clip-rule="evenodd" d="M22.7408 20.7995H24.9471C25.418 20.7995 25.8002 21.1817 25.8002 21.6527C25.8002 22.1236 25.418 22.5058 24.9471 22.5058H22.0344L20.6813 21.1527L18.975 22.859L17.2687 21.1527L15.5623 22.859L13.856 21.1527L12.1497 22.859L10.4434 21.1527L9.09029 22.5058H7.03077C6.55983 22.5058 6.17761 22.1236 6.17761 21.6527C6.17761 21.1817 6.55983 20.7995 7.03077 20.7995H8.38388L10.4434 18.74L12.1497 20.4463L13.856 18.74L15.5623 20.4463L17.2687 18.74L18.975 20.4463L20.6813 18.74L22.7408 20.7995Z" fill="#593604"/>
<path fill-rule="evenodd" clip-rule="evenodd" d="M20.7249 19.1306H24.1375C24.1375 19.1306 25.5094 20.5025 26.697 21.6901C27.15 22.1431 27.4043 22.7565 27.4043 23.3964C27.4043 24.0363 27.15 24.6497 26.697 25.1027C26.244 25.5557 25.6305 25.81 24.9907 25.81C24.3508 25.81 23.7374 25.5557 23.2844 25.1027C22.0968 23.9151 20.7249 22.5432 20.7249 22.5432V19.1306Z" fill="#626262"/>
<path fill-rule="evenodd" clip-rule="evenodd" d="M10.0168 18.2402C11.666 18.2402 13.0029 16.9033 13.0029 15.2541V13.5478C13.0029 11.8987 11.666 10.5618 10.0168 10.5618H10.0151C9.22338 10.5618 8.46492 10.8766 7.90525 11.4363C7.34558 11.9959 7.03076 12.7544 7.03076 13.5461C7.03076 14.1066 7.03076 14.6936 7.03076 15.2541C7.03076 16.9033 8.36766 18.2402 10.0168 18.2402Z" fill="white"/>
<path fill-rule="evenodd" clip-rule="evenodd" d="M8.73709 13.9744C8.73709 13.5222 8.91711 13.088 9.23704 12.768C9.55698 12.4481 9.99123 12.2681 10.4434 12.2681C10.8956 12.2681 11.3298 12.4481 11.6498 12.768C11.9697 13.088 12.1497 13.5222 12.1497 13.9744C12.1497 14.2551 12.1497 14.5468 12.1497 14.8275C12.1497 15.2797 11.9697 15.714 11.6498 16.0339C11.3298 16.3538 10.8956 16.5339 10.4434 16.5339C9.99123 16.5339 9.55698 16.3538 9.23704 16.0339C8.91711 15.714 8.73709 15.2797 8.73709 14.8275C8.73709 14.5468 8.73709 14.2551 8.73709 13.9744Z" fill="black"/>
<path fill-rule="evenodd" clip-rule="evenodd" d="M21.1078 18.2402C19.4587 18.2402 18.1218 16.9033 18.1218 15.2541V13.5478C18.1218 11.8987 19.4587 10.5618 21.1078 10.5618H21.1096C21.9013 10.5618 22.6597 10.8766 23.2194 11.4363C23.7791 11.9959 24.0939 12.7544 24.0939 13.5461C24.0939 14.1066 24.0939 14.6936 24.0939 15.2541C24.0939 16.9033 22.757 18.2402 21.1078 18.2402V18.2402Z" fill="white"/>
<path fill-rule="evenodd" clip-rule="evenodd" d="M22.3876 13.9744C22.3876 13.5222 22.2076 13.088 21.8877 12.768C21.5677 12.4481 21.1335 12.2681 20.6813 12.2681C20.2291 12.2681 19.7949 12.4481 19.4749 12.768C19.155 13.088 18.975 13.5222 18.975 13.9744C18.975 14.2551 18.975 14.5468 18.975 14.8275C18.975 15.2797 19.155 15.714 19.4749 16.0339C19.7949 16.3538 20.2291 16.5339 20.6813 16.5339C21.1335 16.5339 21.5677 16.3538 21.8877 16.0339C22.2076 15.714 22.3876 15.2797 22.3876 14.8275C22.3876 14.5468 22.3876 14.2551 22.3876 13.9744Z" fill="black"/>
</svg>
