<?xml version="1.0" encoding="UTF-8"?>
<svg width="32" height="32" clip-rule="evenodd" fill-rule="evenodd" stroke-linejoin="round" stroke-miterlimit="1.4142" version="1.1" viewBox="0 0 32 32" xml:space="preserve" xmlns="http://www.w3.org/2000/svg"><defs><clipPath id="clipPath331"><rect width="32" height="32"/></clipPath><clipPath id="clipPath337"><rect width="32" height="32"/></clipPath></defs><rect id="skull" width="32" height="32" fill="none"/><g id="outline" transform="translate(.6345)" clip-path="url(#clipPath337)"><path d="m3.1481 26.075-0.67824-0.61426c-1.2705-1.2705-2.4698-3.5741-2.4698-5.362v-7.4594c0.00896-0.48885 0.040951-0.97642 0.10238-1.4614 0.12029-0.9457 0.3468-1.8786 0.6744-2.7731 0.69104-1.8876 1.8325-3.5998 3.3029-4.9691 1.2835-1.194 2.8102-2.1218 4.4649-2.704 0.90091-0.31737 1.8377-0.53236 2.7859-0.64113 0.43254-0.049909 0.86636-0.074223 1.3015-0.081901 1.8159-0.011517 3.6331-0.011517 5.449 0 0.4351 0.0076782 0.86892 0.031993 1.3015 0.081901 0.94826 0.10877 1.885 0.32377 2.7859 0.64113 1.6547 0.58227 3.1813 1.5101 4.4649 2.704 1.4704 1.3693 2.6119 3.0815 3.3029 4.9691 0.3276 0.89451 0.55411 1.8274 0.6744 2.7731 0.06142 0.48501 0.09342 0.97258 0.10238 1.4614v7.4594c0 1.7866-1.2024 4.0946-2.4698 5.362l-0.67824 0.61426c-1.0392 1.0392-3.0505 2.0859-4.5302 2.0859v3.8391h-15.356v-3.8391c-1.4649 0-3.4954-1.0511-4.5302-2.0859z" stroke-width="1.2797"/></g><g id="emoji" transform="matrix(1.3333 0 0 1.3333 -5.3655 -.66667)" clip-path="url(#clipPath331)"><path d="m6 10c0-4.418 3.582-8 8-8h4c4.418 0 8 3.582 8 8v5.519c0 1.134-0.481 2.214-1.324 2.973-0.179 0.16-0.36 0.324-0.535 0.481-0.735 0.661-1.688 1.027-2.676 1.027h-10.93c-0.9872 0-1.9771-0.32811-2.676-1.027-0.17498-0.15698-0.35601-0.321-0.535-0.481-0.80162-0.80162-1.324-1.8481-1.324-2.973z" fill="#d9d9d9"/><path d="m20 23h-2l-0.5-0.5-0.5 0.5h-2l-0.5-0.5-0.5 0.5h-2v-4h8z" fill="#d9d9d9"/><g fill="#5b5b5b"><rect x="14" y="20" width="1" height="3"/><rect x="17" y="20" width="1" height="3"/></g><path d="m14 17.75 2-2 2 2v1h-4z"/><path d="m21.5 11c1.961 0 2.5 1.5391 2.5 2.5v1c0 0.62816-0.73011 1-2 1h-2c-1.2699 0-2-0.37184-2-1v-1c0-0.96087 0.53904-2.5 2.5-2.5z" clip-rule="evenodd" fill-rule="evenodd" stroke-linejoin="round" stroke-miterlimit="1.4142"/><path d="m11.5 11c1.961 0 2.5 1.5391 2.5 2.5v1c0 0.62816-0.73012 1-2 1h-2c-1.2699 0-2-0.37184-2-1v-1c0-0.96087 0.53904-2.5 2.5-2.5z" clip-rule="evenodd" fill-rule="evenodd" stroke-linejoin="round" stroke-miterlimit="1.4142"/></g></svg>
